%TF.GenerationSoftware,KiCad,Pcbnew,8.0.6-1.fc40*%
%TF.CreationDate,2024-10-26T10:38:36+11:00*%
%TF.ProjectId,Davepad,44617665-7061-4642-9e6b-696361645f70,rev?*%
%TF.SameCoordinates,Original*%
%TF.FileFunction,Drillmap*%
%TF.FilePolarity,Positive*%
%FSLAX45Y45*%
G04 Gerber Fmt 4.5, Leading zero omitted, Abs format (unit mm)*
G04 Created by KiCad (PCBNEW 8.0.6-1.fc40) date 2024-10-26 10:38:36*
%MOMM*%
%LPD*%
G01*
G04 APERTURE LIST*
%ADD10C,0.050000*%
%ADD11C,0.200000*%
%ADD12C,0.100000*%
%ADD13C,0.150000*%
G04 APERTURE END LIST*
D10*
X1905000Y-1905000D02*
X11905000Y-1905000D01*
X11905000Y-11905000D01*
X1905000Y-11905000D01*
X1905000Y-1905000D01*
D11*
D12*
X3320000Y-8550000D02*
X3350000Y-8580000D01*
X3350000Y-8550000D02*
X3320000Y-8580000D01*
X3335000Y-4135000D02*
X3365000Y-4165000D01*
X3365000Y-4135000D02*
X3335000Y-4165000D01*
X4035000Y-2335000D02*
X4065000Y-2365000D01*
X4065000Y-2335000D02*
X4035000Y-2365000D01*
X4035000Y-3835000D02*
X4065000Y-3865000D01*
X4065000Y-3835000D02*
X4035000Y-3865000D01*
X4285000Y-3135000D02*
X4315000Y-3165000D01*
X4315000Y-3135000D02*
X4285000Y-3165000D01*
X6235000Y-4485000D02*
X6265000Y-4515000D01*
X6265000Y-4485000D02*
X6235000Y-4515000D01*
X6385000Y-4635000D02*
X6415000Y-4665000D01*
X6415000Y-4635000D02*
X6385000Y-4665000D01*
X7135000Y-4135000D02*
X7165000Y-4165000D01*
X7165000Y-4135000D02*
X7135000Y-4165000D01*
X7738208Y-4288208D02*
X7768208Y-4318208D01*
X7768208Y-4288208D02*
X7738208Y-4318208D01*
X7785000Y-3885066D02*
X7815000Y-3915066D01*
X7815000Y-3885066D02*
X7785000Y-3915066D01*
X8835000Y-6485000D02*
X8865000Y-6515000D01*
X8865000Y-6485000D02*
X8835000Y-6515000D01*
X9035000Y-6485000D02*
X9065000Y-6515000D01*
X9065000Y-6485000D02*
X9035000Y-6515000D01*
X10085000Y-3825066D02*
X10115000Y-3855066D01*
X10115000Y-3825066D02*
X10085000Y-3855066D01*
X2085000Y-4519000D02*
G75*
G02*
X2015000Y-4519000I-35000J0D01*
G01*
X2015000Y-4519000D02*
G75*
G02*
X2085000Y-4519000I35000J0D01*
G01*
X2085000Y-5281000D02*
G75*
G02*
X2015000Y-5281000I-35000J0D01*
G01*
X2015000Y-5281000D02*
G75*
G02*
X2085000Y-5281000I35000J0D01*
G01*
X2085000Y-6450000D02*
G75*
G02*
X2015000Y-6450000I-35000J0D01*
G01*
X2015000Y-6450000D02*
G75*
G02*
X2085000Y-6450000I35000J0D01*
G01*
X2085000Y-7212000D02*
G75*
G02*
X2015000Y-7212000I-35000J0D01*
G01*
X2015000Y-7212000D02*
G75*
G02*
X2085000Y-7212000I35000J0D01*
G01*
X2085000Y-8450000D02*
G75*
G02*
X2015000Y-8450000I-35000J0D01*
G01*
X2015000Y-8450000D02*
G75*
G02*
X2085000Y-8450000I35000J0D01*
G01*
X2085000Y-9212000D02*
G75*
G02*
X2015000Y-9212000I-35000J0D01*
G01*
X2015000Y-9212000D02*
G75*
G02*
X2085000Y-9212000I35000J0D01*
G01*
X2085000Y-10369000D02*
G75*
G02*
X2015000Y-10369000I-35000J0D01*
G01*
X2015000Y-10369000D02*
G75*
G02*
X2085000Y-10369000I35000J0D01*
G01*
X2085000Y-11131000D02*
G75*
G02*
X2015000Y-11131000I-35000J0D01*
G01*
X2015000Y-11131000D02*
G75*
G02*
X2085000Y-11131000I35000J0D01*
G01*
X8023000Y-3700000D02*
G75*
G02*
X7953000Y-3700000I-35000J0D01*
G01*
X7953000Y-3700000D02*
G75*
G02*
X8023000Y-3700000I35000J0D01*
G01*
X8785000Y-3700000D02*
G75*
G02*
X8715000Y-3700000I-35000J0D01*
G01*
X8715000Y-3700000D02*
G75*
G02*
X8785000Y-3700000I35000J0D01*
G01*
X9204000Y-3750000D02*
G75*
G02*
X9134000Y-3750000I-35000J0D01*
G01*
X9134000Y-3750000D02*
G75*
G02*
X9204000Y-3750000I35000J0D01*
G01*
X9966000Y-3750000D02*
G75*
G02*
X9896000Y-3750000I-35000J0D01*
G01*
X9896000Y-3750000D02*
G75*
G02*
X9966000Y-3750000I35000J0D01*
G01*
X2419000Y-5910000D02*
X2419000Y-5990000D01*
X2379000Y-5950000D02*
X2459000Y-5950000D01*
X2469000Y-7810000D02*
X2469000Y-7890000D01*
X2429000Y-7850000D02*
X2509000Y-7850000D01*
X2469000Y-9710000D02*
X2469000Y-9790000D01*
X2429000Y-9750000D02*
X2509000Y-9750000D01*
X2550000Y-11610000D02*
X2550000Y-11690000D01*
X2510000Y-11650000D02*
X2590000Y-11650000D01*
X3181000Y-5910000D02*
X3181000Y-5990000D01*
X3141000Y-5950000D02*
X3221000Y-5950000D01*
X3231000Y-7810000D02*
X3231000Y-7890000D01*
X3191000Y-7850000D02*
X3271000Y-7850000D01*
X3231000Y-9710000D02*
X3231000Y-9790000D01*
X3191000Y-9750000D02*
X3271000Y-9750000D01*
X3312000Y-11610000D02*
X3312000Y-11690000D01*
X3272000Y-11650000D02*
X3352000Y-11650000D01*
X3517114Y-2010000D02*
X3517114Y-2090000D01*
X3477114Y-2050000D02*
X3557114Y-2050000D01*
X3717114Y-2010000D02*
X3717114Y-2090000D01*
X3677114Y-2050000D02*
X3757114Y-2050000D01*
X3917114Y-2010000D02*
X3917114Y-2090000D01*
X3877114Y-2050000D02*
X3957114Y-2050000D01*
X4117114Y-2010000D02*
X4117114Y-2090000D01*
X4077114Y-2050000D02*
X4157114Y-2050000D01*
X4369000Y-5910000D02*
X4369000Y-5990000D01*
X4329000Y-5950000D02*
X4409000Y-5950000D01*
X4369000Y-7810000D02*
X4369000Y-7890000D01*
X4329000Y-7850000D02*
X4409000Y-7850000D01*
X4369000Y-9710000D02*
X4369000Y-9790000D01*
X4329000Y-9750000D02*
X4409000Y-9750000D01*
X4369000Y-11660000D02*
X4369000Y-11740000D01*
X4329000Y-11700000D02*
X4409000Y-11700000D01*
X5131000Y-5910000D02*
X5131000Y-5990000D01*
X5091000Y-5950000D02*
X5171000Y-5950000D01*
X5131000Y-7810000D02*
X5131000Y-7890000D01*
X5091000Y-7850000D02*
X5171000Y-7850000D01*
X5131000Y-9710000D02*
X5131000Y-9790000D01*
X5091000Y-9750000D02*
X5171000Y-9750000D01*
X5131000Y-11660000D02*
X5131000Y-11740000D01*
X5091000Y-11700000D02*
X5171000Y-11700000D01*
X5960000Y-2260000D02*
X5960000Y-2340000D01*
X5920000Y-2300000D02*
X6000000Y-2300000D01*
X5960000Y-3022000D02*
X5960000Y-3102000D01*
X5920000Y-3062000D02*
X6000000Y-3062000D01*
X6214000Y-2260000D02*
X6214000Y-2340000D01*
X6174000Y-2300000D02*
X6254000Y-2300000D01*
X6214000Y-3022000D02*
X6214000Y-3102000D01*
X6174000Y-3062000D02*
X6254000Y-3062000D01*
X6219000Y-5910000D02*
X6219000Y-5990000D01*
X6179000Y-5950000D02*
X6259000Y-5950000D01*
X6219000Y-11610000D02*
X6219000Y-11690000D01*
X6179000Y-11650000D02*
X6259000Y-11650000D01*
X6269000Y-7810000D02*
X6269000Y-7890000D01*
X6229000Y-7850000D02*
X6309000Y-7850000D01*
X6269000Y-9710000D02*
X6269000Y-9790000D01*
X6229000Y-9750000D02*
X6309000Y-9750000D01*
X6468000Y-2260000D02*
X6468000Y-2340000D01*
X6428000Y-2300000D02*
X6508000Y-2300000D01*
X6468000Y-3022000D02*
X6468000Y-3102000D01*
X6428000Y-3062000D02*
X6508000Y-3062000D01*
X6722000Y-2260000D02*
X6722000Y-2340000D01*
X6682000Y-2300000D02*
X6762000Y-2300000D01*
X6722000Y-3022000D02*
X6722000Y-3102000D01*
X6682000Y-3062000D02*
X6762000Y-3062000D01*
X6976000Y-2260000D02*
X6976000Y-2340000D01*
X6936000Y-2300000D02*
X7016000Y-2300000D01*
X6976000Y-3022000D02*
X6976000Y-3102000D01*
X6936000Y-3062000D02*
X7016000Y-3062000D01*
X6981000Y-5910000D02*
X6981000Y-5990000D01*
X6941000Y-5950000D02*
X7021000Y-5950000D01*
X6981000Y-11610000D02*
X6981000Y-11690000D01*
X6941000Y-11650000D02*
X7021000Y-11650000D01*
X7031000Y-7810000D02*
X7031000Y-7890000D01*
X6991000Y-7850000D02*
X7071000Y-7850000D01*
X7031000Y-9710000D02*
X7031000Y-9790000D01*
X6991000Y-9750000D02*
X7071000Y-9750000D01*
X7230000Y-2260000D02*
X7230000Y-2340000D01*
X7190000Y-2300000D02*
X7270000Y-2300000D01*
X7230000Y-3022000D02*
X7230000Y-3102000D01*
X7190000Y-3062000D02*
X7270000Y-3062000D01*
X7484000Y-2260000D02*
X7484000Y-2340000D01*
X7444000Y-2300000D02*
X7524000Y-2300000D01*
X7484000Y-3022000D02*
X7484000Y-3102000D01*
X7444000Y-3062000D02*
X7524000Y-3062000D01*
X7738000Y-2260000D02*
X7738000Y-2340000D01*
X7698000Y-2300000D02*
X7778000Y-2300000D01*
X7738000Y-3022000D02*
X7738000Y-3102000D01*
X7698000Y-3062000D02*
X7778000Y-3062000D01*
X7992000Y-2260000D02*
X7992000Y-2340000D01*
X7952000Y-2300000D02*
X8032000Y-2300000D01*
X7992000Y-3022000D02*
X7992000Y-3102000D01*
X7952000Y-3062000D02*
X8032000Y-3062000D01*
X8169000Y-9710000D02*
X8169000Y-9790000D01*
X8129000Y-9750000D02*
X8209000Y-9750000D01*
X8169000Y-11610000D02*
X8169000Y-11690000D01*
X8129000Y-11650000D02*
X8209000Y-11650000D01*
X8188000Y-7810000D02*
X8188000Y-7890000D01*
X8148000Y-7850000D02*
X8228000Y-7850000D01*
X8246000Y-2260000D02*
X8246000Y-2340000D01*
X8206000Y-2300000D02*
X8286000Y-2300000D01*
X8246000Y-3022000D02*
X8246000Y-3102000D01*
X8206000Y-3062000D02*
X8286000Y-3062000D01*
X8269000Y-5710000D02*
X8269000Y-5790000D01*
X8229000Y-5750000D02*
X8309000Y-5750000D01*
X8500000Y-2260000D02*
X8500000Y-2340000D01*
X8460000Y-2300000D02*
X8540000Y-2300000D01*
X8500000Y-3022000D02*
X8500000Y-3102000D01*
X8460000Y-3062000D02*
X8540000Y-3062000D01*
X8754000Y-2260000D02*
X8754000Y-2340000D01*
X8714000Y-2300000D02*
X8794000Y-2300000D01*
X8754000Y-3022000D02*
X8754000Y-3102000D01*
X8714000Y-3062000D02*
X8794000Y-3062000D01*
X8931000Y-9710000D02*
X8931000Y-9790000D01*
X8891000Y-9750000D02*
X8971000Y-9750000D01*
X8931000Y-11610000D02*
X8931000Y-11690000D01*
X8891000Y-11650000D02*
X8971000Y-11650000D01*
X8950000Y-7810000D02*
X8950000Y-7890000D01*
X8910000Y-7850000D02*
X8990000Y-7850000D01*
X9008000Y-2260000D02*
X9008000Y-2340000D01*
X8968000Y-2300000D02*
X9048000Y-2300000D01*
X9008000Y-3022000D02*
X9008000Y-3102000D01*
X8968000Y-3062000D02*
X9048000Y-3062000D01*
X9031000Y-5710000D02*
X9031000Y-5790000D01*
X8991000Y-5750000D02*
X9071000Y-5750000D01*
X9262000Y-2260000D02*
X9262000Y-2340000D01*
X9222000Y-2300000D02*
X9302000Y-2300000D01*
X9262000Y-3022000D02*
X9262000Y-3102000D01*
X9222000Y-3062000D02*
X9302000Y-3062000D01*
X10519000Y-9760000D02*
X10519000Y-9840000D01*
X10479000Y-9800000D02*
X10559000Y-9800000D01*
X10519000Y-11560000D02*
X10519000Y-11640000D01*
X10479000Y-11600000D02*
X10559000Y-11600000D01*
X10538000Y-7810000D02*
X10538000Y-7890000D01*
X10498000Y-7850000D02*
X10578000Y-7850000D01*
X10569000Y-5710000D02*
X10569000Y-5790000D01*
X10529000Y-5750000D02*
X10609000Y-5750000D01*
X11281000Y-9760000D02*
X11281000Y-9840000D01*
X11241000Y-9800000D02*
X11321000Y-9800000D01*
X11281000Y-11560000D02*
X11281000Y-11640000D01*
X11241000Y-11600000D02*
X11321000Y-11600000D01*
X11300000Y-7810000D02*
X11300000Y-7890000D01*
X11260000Y-7850000D02*
X11340000Y-7850000D01*
X11331000Y-5710000D02*
X11331000Y-5790000D01*
X11291000Y-5750000D02*
X11371000Y-5750000D01*
X2381356Y-2410356D02*
X2381356Y-2339644D01*
X2310644Y-2339644D01*
X2310644Y-2410356D01*
X2381356Y-2410356D01*
X2381356Y-3935356D02*
X2381356Y-3864644D01*
X2310644Y-3864644D01*
X2310644Y-3935356D01*
X2381356Y-3935356D01*
X2635356Y-2410356D02*
X2635356Y-2339644D01*
X2564644Y-2339644D01*
X2564644Y-2410356D01*
X2635356Y-2410356D01*
X2635356Y-3935356D02*
X2635356Y-3864644D01*
X2564644Y-3864644D01*
X2564644Y-3935356D01*
X2635356Y-3935356D01*
X2889356Y-2410356D02*
X2889356Y-2339644D01*
X2818644Y-2339644D01*
X2818644Y-2410356D01*
X2889356Y-2410356D01*
X2889356Y-3935356D02*
X2889356Y-3864644D01*
X2818644Y-3864644D01*
X2818644Y-3935356D01*
X2889356Y-3935356D01*
X3143356Y-2410356D02*
X3143356Y-2339644D01*
X3072644Y-2339644D01*
X3072644Y-2410356D01*
X3143356Y-2410356D01*
X3143356Y-3935356D02*
X3143356Y-3864644D01*
X3072644Y-3864644D01*
X3072644Y-3935356D01*
X3143356Y-3935356D01*
X3397356Y-2410356D02*
X3397356Y-2339644D01*
X3326644Y-2339644D01*
X3326644Y-2410356D01*
X3397356Y-2410356D01*
X3397356Y-3935356D02*
X3397356Y-3864644D01*
X3326644Y-3864644D01*
X3326644Y-3935356D01*
X3397356Y-3935356D01*
X3651356Y-2410356D02*
X3651356Y-2339644D01*
X3580644Y-2339644D01*
X3580644Y-2410356D01*
X3651356Y-2410356D01*
X3651356Y-3935356D02*
X3651356Y-3864644D01*
X3580644Y-3864644D01*
X3580644Y-3935356D01*
X3651356Y-3935356D01*
X3905356Y-2410356D02*
X3905356Y-2339644D01*
X3834644Y-2339644D01*
X3834644Y-2410356D01*
X3905356Y-2410356D01*
X3905356Y-3935356D02*
X3905356Y-3864644D01*
X3834644Y-3864644D01*
X3834644Y-3935356D01*
X3905356Y-3935356D01*
X7810356Y-4535356D02*
X7810356Y-4464644D01*
X7739644Y-4464644D01*
X7739644Y-4535356D01*
X7810356Y-4535356D01*
X7810356Y-4785356D02*
X7810356Y-4714644D01*
X7739644Y-4714644D01*
X7739644Y-4785356D01*
X7810356Y-4785356D01*
X7810356Y-5035356D02*
X7810356Y-4964644D01*
X7739644Y-4964644D01*
X7739644Y-5035356D01*
X7810356Y-5035356D01*
X9260356Y-4535356D02*
X9260356Y-4464644D01*
X9189644Y-4464644D01*
X9189644Y-4535356D01*
X9260356Y-4535356D01*
X9260356Y-5035356D02*
X9260356Y-4964644D01*
X9189644Y-4964644D01*
X9189644Y-5035356D01*
X9260356Y-5035356D01*
X9860356Y-4535356D02*
X9860356Y-4464644D01*
X9789644Y-4464644D01*
X9789644Y-4535356D01*
X9860356Y-4535356D01*
X9860356Y-4785356D02*
X9860356Y-4714644D01*
X9789644Y-4714644D01*
X9789644Y-4785356D01*
X9860356Y-4785356D01*
X9860356Y-5035356D02*
X9860356Y-4964644D01*
X9789644Y-4964644D01*
X9789644Y-5035356D01*
X9860356Y-5035356D01*
X11310356Y-4535356D02*
X11310356Y-4464644D01*
X11239644Y-4464644D01*
X11239644Y-4535356D01*
X11310356Y-4535356D01*
X11310356Y-5035356D02*
X11310356Y-4964644D01*
X11239644Y-4964644D01*
X11239644Y-5035356D01*
X11310356Y-5035356D01*
D13*
X2342000Y-4821000D02*
X2417000Y-4746000D01*
X2342000Y-4671000D01*
X2267000Y-4746000D01*
X2342000Y-4821000D01*
X2342000Y-6721000D02*
X2417000Y-6646000D01*
X2342000Y-6571000D01*
X2267000Y-6646000D01*
X2342000Y-6721000D01*
X2346000Y-8640000D02*
X2421000Y-8565000D01*
X2346000Y-8490000D01*
X2271000Y-8565000D01*
X2346000Y-8640000D01*
X2346000Y-10540000D02*
X2421000Y-10465000D01*
X2346000Y-10390000D01*
X2271000Y-10465000D01*
X2346000Y-10540000D01*
X2596000Y-5456000D02*
X2671000Y-5381000D01*
X2596000Y-5306000D01*
X2521000Y-5381000D01*
X2596000Y-5456000D01*
X2596000Y-7356000D02*
X2671000Y-7281000D01*
X2596000Y-7206000D01*
X2521000Y-7281000D01*
X2596000Y-7356000D01*
X2600000Y-9275000D02*
X2675000Y-9200000D01*
X2600000Y-9125000D01*
X2525000Y-9200000D01*
X2600000Y-9275000D01*
X2600000Y-11175000D02*
X2675000Y-11100000D01*
X2600000Y-11025000D01*
X2525000Y-11100000D01*
X2600000Y-11175000D01*
X4242000Y-4821000D02*
X4317000Y-4746000D01*
X4242000Y-4671000D01*
X4167000Y-4746000D01*
X4242000Y-4821000D01*
X4242000Y-6721000D02*
X4317000Y-6646000D01*
X4242000Y-6571000D01*
X4167000Y-6646000D01*
X4242000Y-6721000D01*
X4242000Y-10540000D02*
X4317000Y-10465000D01*
X4242000Y-10390000D01*
X4167000Y-10465000D01*
X4242000Y-10540000D01*
X4250000Y-8625000D02*
X4325000Y-8550000D01*
X4250000Y-8475000D01*
X4175000Y-8550000D01*
X4250000Y-8625000D01*
X4496000Y-5456000D02*
X4571000Y-5381000D01*
X4496000Y-5306000D01*
X4421000Y-5381000D01*
X4496000Y-5456000D01*
X4496000Y-7356000D02*
X4571000Y-7281000D01*
X4496000Y-7206000D01*
X4421000Y-7281000D01*
X4496000Y-7356000D01*
X4496000Y-11175000D02*
X4571000Y-11100000D01*
X4496000Y-11025000D01*
X4421000Y-11100000D01*
X4496000Y-11175000D01*
X4504000Y-9260000D02*
X4579000Y-9185000D01*
X4504000Y-9110000D01*
X4429000Y-9185000D01*
X4504000Y-9260000D01*
X6142000Y-6721000D02*
X6217000Y-6646000D01*
X6142000Y-6571000D01*
X6067000Y-6646000D01*
X6142000Y-6721000D01*
X6142000Y-10525000D02*
X6217000Y-10450000D01*
X6142000Y-10375000D01*
X6067000Y-10450000D01*
X6142000Y-10525000D01*
X6146000Y-8613000D02*
X6221000Y-8538000D01*
X6146000Y-8463000D01*
X6071000Y-8538000D01*
X6146000Y-8613000D01*
X6150000Y-4825000D02*
X6225000Y-4750000D01*
X6150000Y-4675000D01*
X6075000Y-4750000D01*
X6150000Y-4825000D01*
X6396000Y-7356000D02*
X6471000Y-7281000D01*
X6396000Y-7206000D01*
X6321000Y-7281000D01*
X6396000Y-7356000D01*
X6396000Y-11160000D02*
X6471000Y-11085000D01*
X6396000Y-11010000D01*
X6321000Y-11085000D01*
X6396000Y-11160000D01*
X6400000Y-9248000D02*
X6475000Y-9173000D01*
X6400000Y-9098000D01*
X6325000Y-9173000D01*
X6400000Y-9248000D01*
X6404000Y-5460000D02*
X6479000Y-5385000D01*
X6404000Y-5310000D01*
X6329000Y-5385000D01*
X6404000Y-5460000D01*
X8042000Y-6721000D02*
X8117000Y-6646000D01*
X8042000Y-6571000D01*
X7967000Y-6646000D01*
X8042000Y-6721000D01*
X8046000Y-10525000D02*
X8121000Y-10450000D01*
X8046000Y-10375000D01*
X7971000Y-10450000D01*
X8046000Y-10525000D01*
X8050000Y-8621000D02*
X8125000Y-8546000D01*
X8050000Y-8471000D01*
X7975000Y-8546000D01*
X8050000Y-8621000D01*
X8296000Y-7356000D02*
X8371000Y-7281000D01*
X8296000Y-7206000D01*
X8221000Y-7281000D01*
X8296000Y-7356000D01*
X8300000Y-11160000D02*
X8375000Y-11085000D01*
X8300000Y-11010000D01*
X8225000Y-11085000D01*
X8300000Y-11160000D01*
X8304000Y-9256000D02*
X8379000Y-9181000D01*
X8304000Y-9106000D01*
X8229000Y-9181000D01*
X8304000Y-9256000D01*
X8525000Y-4265000D02*
X8600000Y-4190000D01*
X8525000Y-4115000D01*
X8450000Y-4190000D01*
X8525000Y-4265000D01*
D12*
X8460000Y-4265000D02*
X8590000Y-4265000D01*
X8590000Y-4115000D02*
G75*
G02*
X8590000Y-4265000I0J-75000D01*
G01*
X8590000Y-4115000D02*
X8460000Y-4115000D01*
X8460000Y-4115000D02*
G75*
G03*
X8460000Y-4265000I0J-75000D01*
G01*
D13*
X8525000Y-5385000D02*
X8600000Y-5310000D01*
X8525000Y-5235000D01*
X8450000Y-5310000D01*
X8525000Y-5385000D01*
D12*
X8460000Y-5385000D02*
X8590000Y-5385000D01*
X8590000Y-5235000D02*
G75*
G02*
X8590000Y-5385000I0J-75000D01*
G01*
X8590000Y-5235000D02*
X8460000Y-5235000D01*
X8460000Y-5235000D02*
G75*
G03*
X8460000Y-5385000I0J-75000D01*
G01*
D13*
X9942000Y-6721000D02*
X10017000Y-6646000D01*
X9942000Y-6571000D01*
X9867000Y-6646000D01*
X9942000Y-6721000D01*
X9942000Y-8621000D02*
X10017000Y-8546000D01*
X9942000Y-8471000D01*
X9867000Y-8546000D01*
X9942000Y-8621000D01*
X9942000Y-10513000D02*
X10017000Y-10438000D01*
X9942000Y-10363000D01*
X9867000Y-10438000D01*
X9942000Y-10513000D01*
X10196000Y-7356000D02*
X10271000Y-7281000D01*
X10196000Y-7206000D01*
X10121000Y-7281000D01*
X10196000Y-7356000D01*
X10196000Y-9256000D02*
X10271000Y-9181000D01*
X10196000Y-9106000D01*
X10121000Y-9181000D01*
X10196000Y-9256000D01*
X10196000Y-11148000D02*
X10271000Y-11073000D01*
X10196000Y-10998000D01*
X10121000Y-11073000D01*
X10196000Y-11148000D01*
X10575000Y-4265000D02*
X10650000Y-4190000D01*
X10575000Y-4115000D01*
X10500000Y-4190000D01*
X10575000Y-4265000D01*
D12*
X10510000Y-4265000D02*
X10640000Y-4265000D01*
X10640000Y-4115000D02*
G75*
G02*
X10640000Y-4265000I0J-75000D01*
G01*
X10640000Y-4115000D02*
X10510000Y-4115000D01*
X10510000Y-4115000D02*
G75*
G03*
X10510000Y-4265000I0J-75000D01*
G01*
D13*
X10575000Y-5385000D02*
X10650000Y-5310000D01*
X10575000Y-5235000D01*
X10500000Y-5310000D01*
X10575000Y-5385000D01*
D12*
X10510000Y-5385000D02*
X10640000Y-5385000D01*
X10640000Y-5235000D02*
G75*
G02*
X10640000Y-5385000I0J-75000D01*
G01*
X10640000Y-5235000D02*
X10510000Y-5235000D01*
X10510000Y-5235000D02*
G75*
G03*
X10510000Y-5385000I0J-75000D01*
G01*
D11*
X2163277Y-12218984D02*
X2163277Y-12018984D01*
X2163277Y-12018984D02*
X2210896Y-12018984D01*
X2210896Y-12018984D02*
X2239467Y-12028508D01*
X2239467Y-12028508D02*
X2258515Y-12047555D01*
X2258515Y-12047555D02*
X2268039Y-12066603D01*
X2268039Y-12066603D02*
X2277563Y-12104698D01*
X2277563Y-12104698D02*
X2277563Y-12133269D01*
X2277563Y-12133269D02*
X2268039Y-12171365D01*
X2268039Y-12171365D02*
X2258515Y-12190412D01*
X2258515Y-12190412D02*
X2239467Y-12209460D01*
X2239467Y-12209460D02*
X2210896Y-12218984D01*
X2210896Y-12218984D02*
X2163277Y-12218984D01*
X2363277Y-12218984D02*
X2363277Y-12085650D01*
X2363277Y-12123746D02*
X2372801Y-12104698D01*
X2372801Y-12104698D02*
X2382324Y-12095174D01*
X2382324Y-12095174D02*
X2401372Y-12085650D01*
X2401372Y-12085650D02*
X2420420Y-12085650D01*
X2487086Y-12218984D02*
X2487086Y-12085650D01*
X2487086Y-12018984D02*
X2477563Y-12028508D01*
X2477563Y-12028508D02*
X2487086Y-12038031D01*
X2487086Y-12038031D02*
X2496610Y-12028508D01*
X2496610Y-12028508D02*
X2487086Y-12018984D01*
X2487086Y-12018984D02*
X2487086Y-12038031D01*
X2610896Y-12218984D02*
X2591848Y-12209460D01*
X2591848Y-12209460D02*
X2582324Y-12190412D01*
X2582324Y-12190412D02*
X2582324Y-12018984D01*
X2715658Y-12218984D02*
X2696610Y-12209460D01*
X2696610Y-12209460D02*
X2687086Y-12190412D01*
X2687086Y-12190412D02*
X2687086Y-12018984D01*
X2944229Y-12218984D02*
X2944229Y-12018984D01*
X2944229Y-12018984D02*
X3010896Y-12161841D01*
X3010896Y-12161841D02*
X3077562Y-12018984D01*
X3077562Y-12018984D02*
X3077562Y-12218984D01*
X3258515Y-12218984D02*
X3258515Y-12114222D01*
X3258515Y-12114222D02*
X3248991Y-12095174D01*
X3248991Y-12095174D02*
X3229943Y-12085650D01*
X3229943Y-12085650D02*
X3191848Y-12085650D01*
X3191848Y-12085650D02*
X3172801Y-12095174D01*
X3258515Y-12209460D02*
X3239467Y-12218984D01*
X3239467Y-12218984D02*
X3191848Y-12218984D01*
X3191848Y-12218984D02*
X3172801Y-12209460D01*
X3172801Y-12209460D02*
X3163277Y-12190412D01*
X3163277Y-12190412D02*
X3163277Y-12171365D01*
X3163277Y-12171365D02*
X3172801Y-12152317D01*
X3172801Y-12152317D02*
X3191848Y-12142793D01*
X3191848Y-12142793D02*
X3239467Y-12142793D01*
X3239467Y-12142793D02*
X3258515Y-12133269D01*
X3353753Y-12085650D02*
X3353753Y-12285650D01*
X3353753Y-12095174D02*
X3372801Y-12085650D01*
X3372801Y-12085650D02*
X3410896Y-12085650D01*
X3410896Y-12085650D02*
X3429943Y-12095174D01*
X3429943Y-12095174D02*
X3439467Y-12104698D01*
X3439467Y-12104698D02*
X3448991Y-12123746D01*
X3448991Y-12123746D02*
X3448991Y-12180888D01*
X3448991Y-12180888D02*
X3439467Y-12199936D01*
X3439467Y-12199936D02*
X3429943Y-12209460D01*
X3429943Y-12209460D02*
X3410896Y-12218984D01*
X3410896Y-12218984D02*
X3372801Y-12218984D01*
X3372801Y-12218984D02*
X3353753Y-12209460D01*
X3534705Y-12199936D02*
X3544229Y-12209460D01*
X3544229Y-12209460D02*
X3534705Y-12218984D01*
X3534705Y-12218984D02*
X3525182Y-12209460D01*
X3525182Y-12209460D02*
X3534705Y-12199936D01*
X3534705Y-12199936D02*
X3534705Y-12218984D01*
X3534705Y-12095174D02*
X3544229Y-12104698D01*
X3544229Y-12104698D02*
X3534705Y-12114222D01*
X3534705Y-12114222D02*
X3525182Y-12104698D01*
X3525182Y-12104698D02*
X3534705Y-12095174D01*
X3534705Y-12095174D02*
X3534705Y-12114222D01*
D12*
X1872500Y-12532500D02*
X1902500Y-12562500D01*
X1902500Y-12532500D02*
X1872500Y-12562500D01*
D11*
X2201372Y-12438984D02*
X2220420Y-12438984D01*
X2220420Y-12438984D02*
X2239467Y-12448508D01*
X2239467Y-12448508D02*
X2248991Y-12458031D01*
X2248991Y-12458031D02*
X2258515Y-12477079D01*
X2258515Y-12477079D02*
X2268039Y-12515174D01*
X2268039Y-12515174D02*
X2268039Y-12562793D01*
X2268039Y-12562793D02*
X2258515Y-12600888D01*
X2258515Y-12600888D02*
X2248991Y-12619936D01*
X2248991Y-12619936D02*
X2239467Y-12629460D01*
X2239467Y-12629460D02*
X2220420Y-12638984D01*
X2220420Y-12638984D02*
X2201372Y-12638984D01*
X2201372Y-12638984D02*
X2182324Y-12629460D01*
X2182324Y-12629460D02*
X2172801Y-12619936D01*
X2172801Y-12619936D02*
X2163277Y-12600888D01*
X2163277Y-12600888D02*
X2153753Y-12562793D01*
X2153753Y-12562793D02*
X2153753Y-12515174D01*
X2153753Y-12515174D02*
X2163277Y-12477079D01*
X2163277Y-12477079D02*
X2172801Y-12458031D01*
X2172801Y-12458031D02*
X2182324Y-12448508D01*
X2182324Y-12448508D02*
X2201372Y-12438984D01*
X2353753Y-12619936D02*
X2363277Y-12629460D01*
X2363277Y-12629460D02*
X2353753Y-12638984D01*
X2353753Y-12638984D02*
X2344229Y-12629460D01*
X2344229Y-12629460D02*
X2353753Y-12619936D01*
X2353753Y-12619936D02*
X2353753Y-12638984D01*
X2429944Y-12438984D02*
X2553753Y-12438984D01*
X2553753Y-12438984D02*
X2487086Y-12515174D01*
X2487086Y-12515174D02*
X2515658Y-12515174D01*
X2515658Y-12515174D02*
X2534705Y-12524698D01*
X2534705Y-12524698D02*
X2544229Y-12534222D01*
X2544229Y-12534222D02*
X2553753Y-12553269D01*
X2553753Y-12553269D02*
X2553753Y-12600888D01*
X2553753Y-12600888D02*
X2544229Y-12619936D01*
X2544229Y-12619936D02*
X2534705Y-12629460D01*
X2534705Y-12629460D02*
X2515658Y-12638984D01*
X2515658Y-12638984D02*
X2458515Y-12638984D01*
X2458515Y-12638984D02*
X2439467Y-12629460D01*
X2439467Y-12629460D02*
X2429944Y-12619936D01*
X2677563Y-12438984D02*
X2696610Y-12438984D01*
X2696610Y-12438984D02*
X2715658Y-12448508D01*
X2715658Y-12448508D02*
X2725182Y-12458031D01*
X2725182Y-12458031D02*
X2734705Y-12477079D01*
X2734705Y-12477079D02*
X2744229Y-12515174D01*
X2744229Y-12515174D02*
X2744229Y-12562793D01*
X2744229Y-12562793D02*
X2734705Y-12600888D01*
X2734705Y-12600888D02*
X2725182Y-12619936D01*
X2725182Y-12619936D02*
X2715658Y-12629460D01*
X2715658Y-12629460D02*
X2696610Y-12638984D01*
X2696610Y-12638984D02*
X2677563Y-12638984D01*
X2677563Y-12638984D02*
X2658515Y-12629460D01*
X2658515Y-12629460D02*
X2648991Y-12619936D01*
X2648991Y-12619936D02*
X2639467Y-12600888D01*
X2639467Y-12600888D02*
X2629944Y-12562793D01*
X2629944Y-12562793D02*
X2629944Y-12515174D01*
X2629944Y-12515174D02*
X2639467Y-12477079D01*
X2639467Y-12477079D02*
X2648991Y-12458031D01*
X2648991Y-12458031D02*
X2658515Y-12448508D01*
X2658515Y-12448508D02*
X2677563Y-12438984D01*
X2868039Y-12438984D02*
X2887086Y-12438984D01*
X2887086Y-12438984D02*
X2906134Y-12448508D01*
X2906134Y-12448508D02*
X2915658Y-12458031D01*
X2915658Y-12458031D02*
X2925182Y-12477079D01*
X2925182Y-12477079D02*
X2934705Y-12515174D01*
X2934705Y-12515174D02*
X2934705Y-12562793D01*
X2934705Y-12562793D02*
X2925182Y-12600888D01*
X2925182Y-12600888D02*
X2915658Y-12619936D01*
X2915658Y-12619936D02*
X2906134Y-12629460D01*
X2906134Y-12629460D02*
X2887086Y-12638984D01*
X2887086Y-12638984D02*
X2868039Y-12638984D01*
X2868039Y-12638984D02*
X2848991Y-12629460D01*
X2848991Y-12629460D02*
X2839467Y-12619936D01*
X2839467Y-12619936D02*
X2829943Y-12600888D01*
X2829943Y-12600888D02*
X2820420Y-12562793D01*
X2820420Y-12562793D02*
X2820420Y-12515174D01*
X2820420Y-12515174D02*
X2829943Y-12477079D01*
X2829943Y-12477079D02*
X2839467Y-12458031D01*
X2839467Y-12458031D02*
X2848991Y-12448508D01*
X2848991Y-12448508D02*
X2868039Y-12438984D01*
X3020420Y-12638984D02*
X3020420Y-12505650D01*
X3020420Y-12524698D02*
X3029943Y-12515174D01*
X3029943Y-12515174D02*
X3048991Y-12505650D01*
X3048991Y-12505650D02*
X3077563Y-12505650D01*
X3077563Y-12505650D02*
X3096610Y-12515174D01*
X3096610Y-12515174D02*
X3106134Y-12534222D01*
X3106134Y-12534222D02*
X3106134Y-12638984D01*
X3106134Y-12534222D02*
X3115658Y-12515174D01*
X3115658Y-12515174D02*
X3134705Y-12505650D01*
X3134705Y-12505650D02*
X3163277Y-12505650D01*
X3163277Y-12505650D02*
X3182324Y-12515174D01*
X3182324Y-12515174D02*
X3191848Y-12534222D01*
X3191848Y-12534222D02*
X3191848Y-12638984D01*
X3287086Y-12638984D02*
X3287086Y-12505650D01*
X3287086Y-12524698D02*
X3296610Y-12515174D01*
X3296610Y-12515174D02*
X3315658Y-12505650D01*
X3315658Y-12505650D02*
X3344229Y-12505650D01*
X3344229Y-12505650D02*
X3363277Y-12515174D01*
X3363277Y-12515174D02*
X3372801Y-12534222D01*
X3372801Y-12534222D02*
X3372801Y-12638984D01*
X3372801Y-12534222D02*
X3382324Y-12515174D01*
X3382324Y-12515174D02*
X3401372Y-12505650D01*
X3401372Y-12505650D02*
X3429943Y-12505650D01*
X3429943Y-12505650D02*
X3448991Y-12515174D01*
X3448991Y-12515174D02*
X3458515Y-12534222D01*
X3458515Y-12534222D02*
X3458515Y-12638984D01*
X3848991Y-12429460D02*
X3677563Y-12686603D01*
X4106134Y-12438984D02*
X4125182Y-12438984D01*
X4125182Y-12438984D02*
X4144229Y-12448508D01*
X4144229Y-12448508D02*
X4153753Y-12458031D01*
X4153753Y-12458031D02*
X4163277Y-12477079D01*
X4163277Y-12477079D02*
X4172801Y-12515174D01*
X4172801Y-12515174D02*
X4172801Y-12562793D01*
X4172801Y-12562793D02*
X4163277Y-12600888D01*
X4163277Y-12600888D02*
X4153753Y-12619936D01*
X4153753Y-12619936D02*
X4144229Y-12629460D01*
X4144229Y-12629460D02*
X4125182Y-12638984D01*
X4125182Y-12638984D02*
X4106134Y-12638984D01*
X4106134Y-12638984D02*
X4087086Y-12629460D01*
X4087086Y-12629460D02*
X4077563Y-12619936D01*
X4077563Y-12619936D02*
X4068039Y-12600888D01*
X4068039Y-12600888D02*
X4058515Y-12562793D01*
X4058515Y-12562793D02*
X4058515Y-12515174D01*
X4058515Y-12515174D02*
X4068039Y-12477079D01*
X4068039Y-12477079D02*
X4077563Y-12458031D01*
X4077563Y-12458031D02*
X4087086Y-12448508D01*
X4087086Y-12448508D02*
X4106134Y-12438984D01*
X4258515Y-12619936D02*
X4268039Y-12629460D01*
X4268039Y-12629460D02*
X4258515Y-12638984D01*
X4258515Y-12638984D02*
X4248991Y-12629460D01*
X4248991Y-12629460D02*
X4258515Y-12619936D01*
X4258515Y-12619936D02*
X4258515Y-12638984D01*
X4391848Y-12438984D02*
X4410896Y-12438984D01*
X4410896Y-12438984D02*
X4429944Y-12448508D01*
X4429944Y-12448508D02*
X4439468Y-12458031D01*
X4439468Y-12458031D02*
X4448991Y-12477079D01*
X4448991Y-12477079D02*
X4458515Y-12515174D01*
X4458515Y-12515174D02*
X4458515Y-12562793D01*
X4458515Y-12562793D02*
X4448991Y-12600888D01*
X4448991Y-12600888D02*
X4439468Y-12619936D01*
X4439468Y-12619936D02*
X4429944Y-12629460D01*
X4429944Y-12629460D02*
X4410896Y-12638984D01*
X4410896Y-12638984D02*
X4391848Y-12638984D01*
X4391848Y-12638984D02*
X4372801Y-12629460D01*
X4372801Y-12629460D02*
X4363277Y-12619936D01*
X4363277Y-12619936D02*
X4353753Y-12600888D01*
X4353753Y-12600888D02*
X4344229Y-12562793D01*
X4344229Y-12562793D02*
X4344229Y-12515174D01*
X4344229Y-12515174D02*
X4353753Y-12477079D01*
X4353753Y-12477079D02*
X4363277Y-12458031D01*
X4363277Y-12458031D02*
X4372801Y-12448508D01*
X4372801Y-12448508D02*
X4391848Y-12438984D01*
X4648991Y-12638984D02*
X4534706Y-12638984D01*
X4591848Y-12638984D02*
X4591848Y-12438984D01*
X4591848Y-12438984D02*
X4572801Y-12467555D01*
X4572801Y-12467555D02*
X4553753Y-12486603D01*
X4553753Y-12486603D02*
X4534706Y-12496127D01*
X4839468Y-12638984D02*
X4725182Y-12638984D01*
X4782325Y-12638984D02*
X4782325Y-12438984D01*
X4782325Y-12438984D02*
X4763277Y-12467555D01*
X4763277Y-12467555D02*
X4744229Y-12486603D01*
X4744229Y-12486603D02*
X4725182Y-12496127D01*
X4953753Y-12524698D02*
X4934706Y-12515174D01*
X4934706Y-12515174D02*
X4925182Y-12505650D01*
X4925182Y-12505650D02*
X4915658Y-12486603D01*
X4915658Y-12486603D02*
X4915658Y-12477079D01*
X4915658Y-12477079D02*
X4925182Y-12458031D01*
X4925182Y-12458031D02*
X4934706Y-12448508D01*
X4934706Y-12448508D02*
X4953753Y-12438984D01*
X4953753Y-12438984D02*
X4991849Y-12438984D01*
X4991849Y-12438984D02*
X5010896Y-12448508D01*
X5010896Y-12448508D02*
X5020420Y-12458031D01*
X5020420Y-12458031D02*
X5029944Y-12477079D01*
X5029944Y-12477079D02*
X5029944Y-12486603D01*
X5029944Y-12486603D02*
X5020420Y-12505650D01*
X5020420Y-12505650D02*
X5010896Y-12515174D01*
X5010896Y-12515174D02*
X4991849Y-12524698D01*
X4991849Y-12524698D02*
X4953753Y-12524698D01*
X4953753Y-12524698D02*
X4934706Y-12534222D01*
X4934706Y-12534222D02*
X4925182Y-12543746D01*
X4925182Y-12543746D02*
X4915658Y-12562793D01*
X4915658Y-12562793D02*
X4915658Y-12600888D01*
X4915658Y-12600888D02*
X4925182Y-12619936D01*
X4925182Y-12619936D02*
X4934706Y-12629460D01*
X4934706Y-12629460D02*
X4953753Y-12638984D01*
X4953753Y-12638984D02*
X4991849Y-12638984D01*
X4991849Y-12638984D02*
X5010896Y-12629460D01*
X5010896Y-12629460D02*
X5020420Y-12619936D01*
X5020420Y-12619936D02*
X5029944Y-12600888D01*
X5029944Y-12600888D02*
X5029944Y-12562793D01*
X5029944Y-12562793D02*
X5020420Y-12543746D01*
X5020420Y-12543746D02*
X5010896Y-12534222D01*
X5010896Y-12534222D02*
X4991849Y-12524698D01*
X5106134Y-12438984D02*
X5106134Y-12477079D01*
X5182325Y-12438984D02*
X5182325Y-12477079D01*
X5477563Y-12715174D02*
X5468039Y-12705650D01*
X5468039Y-12705650D02*
X5448991Y-12677079D01*
X5448991Y-12677079D02*
X5439468Y-12658031D01*
X5439468Y-12658031D02*
X5429944Y-12629460D01*
X5429944Y-12629460D02*
X5420420Y-12581841D01*
X5420420Y-12581841D02*
X5420420Y-12543746D01*
X5420420Y-12543746D02*
X5429944Y-12496127D01*
X5429944Y-12496127D02*
X5439468Y-12467555D01*
X5439468Y-12467555D02*
X5448991Y-12448508D01*
X5448991Y-12448508D02*
X5468039Y-12419936D01*
X5468039Y-12419936D02*
X5477563Y-12410412D01*
X5658515Y-12638984D02*
X5544230Y-12638984D01*
X5601372Y-12638984D02*
X5601372Y-12438984D01*
X5601372Y-12438984D02*
X5582325Y-12467555D01*
X5582325Y-12467555D02*
X5563277Y-12486603D01*
X5563277Y-12486603D02*
X5544230Y-12496127D01*
X5725182Y-12438984D02*
X5848991Y-12438984D01*
X5848991Y-12438984D02*
X5782325Y-12515174D01*
X5782325Y-12515174D02*
X5810896Y-12515174D01*
X5810896Y-12515174D02*
X5829944Y-12524698D01*
X5829944Y-12524698D02*
X5839468Y-12534222D01*
X5839468Y-12534222D02*
X5848991Y-12553269D01*
X5848991Y-12553269D02*
X5848991Y-12600888D01*
X5848991Y-12600888D02*
X5839468Y-12619936D01*
X5839468Y-12619936D02*
X5829944Y-12629460D01*
X5829944Y-12629460D02*
X5810896Y-12638984D01*
X5810896Y-12638984D02*
X5753753Y-12638984D01*
X5753753Y-12638984D02*
X5734706Y-12629460D01*
X5734706Y-12629460D02*
X5725182Y-12619936D01*
X6087087Y-12638984D02*
X6087087Y-12438984D01*
X6172801Y-12638984D02*
X6172801Y-12534222D01*
X6172801Y-12534222D02*
X6163277Y-12515174D01*
X6163277Y-12515174D02*
X6144230Y-12505650D01*
X6144230Y-12505650D02*
X6115658Y-12505650D01*
X6115658Y-12505650D02*
X6096610Y-12515174D01*
X6096610Y-12515174D02*
X6087087Y-12524698D01*
X6296610Y-12638984D02*
X6277563Y-12629460D01*
X6277563Y-12629460D02*
X6268039Y-12619936D01*
X6268039Y-12619936D02*
X6258515Y-12600888D01*
X6258515Y-12600888D02*
X6258515Y-12543746D01*
X6258515Y-12543746D02*
X6268039Y-12524698D01*
X6268039Y-12524698D02*
X6277563Y-12515174D01*
X6277563Y-12515174D02*
X6296610Y-12505650D01*
X6296610Y-12505650D02*
X6325182Y-12505650D01*
X6325182Y-12505650D02*
X6344230Y-12515174D01*
X6344230Y-12515174D02*
X6353753Y-12524698D01*
X6353753Y-12524698D02*
X6363277Y-12543746D01*
X6363277Y-12543746D02*
X6363277Y-12600888D01*
X6363277Y-12600888D02*
X6353753Y-12619936D01*
X6353753Y-12619936D02*
X6344230Y-12629460D01*
X6344230Y-12629460D02*
X6325182Y-12638984D01*
X6325182Y-12638984D02*
X6296610Y-12638984D01*
X6477563Y-12638984D02*
X6458515Y-12629460D01*
X6458515Y-12629460D02*
X6448991Y-12610412D01*
X6448991Y-12610412D02*
X6448991Y-12438984D01*
X6629944Y-12629460D02*
X6610896Y-12638984D01*
X6610896Y-12638984D02*
X6572801Y-12638984D01*
X6572801Y-12638984D02*
X6553753Y-12629460D01*
X6553753Y-12629460D02*
X6544230Y-12610412D01*
X6544230Y-12610412D02*
X6544230Y-12534222D01*
X6544230Y-12534222D02*
X6553753Y-12515174D01*
X6553753Y-12515174D02*
X6572801Y-12505650D01*
X6572801Y-12505650D02*
X6610896Y-12505650D01*
X6610896Y-12505650D02*
X6629944Y-12515174D01*
X6629944Y-12515174D02*
X6639468Y-12534222D01*
X6639468Y-12534222D02*
X6639468Y-12553269D01*
X6639468Y-12553269D02*
X6544230Y-12572317D01*
X6715658Y-12629460D02*
X6734706Y-12638984D01*
X6734706Y-12638984D02*
X6772801Y-12638984D01*
X6772801Y-12638984D02*
X6791849Y-12629460D01*
X6791849Y-12629460D02*
X6801372Y-12610412D01*
X6801372Y-12610412D02*
X6801372Y-12600888D01*
X6801372Y-12600888D02*
X6791849Y-12581841D01*
X6791849Y-12581841D02*
X6772801Y-12572317D01*
X6772801Y-12572317D02*
X6744230Y-12572317D01*
X6744230Y-12572317D02*
X6725182Y-12562793D01*
X6725182Y-12562793D02*
X6715658Y-12543746D01*
X6715658Y-12543746D02*
X6715658Y-12534222D01*
X6715658Y-12534222D02*
X6725182Y-12515174D01*
X6725182Y-12515174D02*
X6744230Y-12505650D01*
X6744230Y-12505650D02*
X6772801Y-12505650D01*
X6772801Y-12505650D02*
X6791849Y-12515174D01*
X6868039Y-12715174D02*
X6877563Y-12705650D01*
X6877563Y-12705650D02*
X6896611Y-12677079D01*
X6896611Y-12677079D02*
X6906134Y-12658031D01*
X6906134Y-12658031D02*
X6915658Y-12629460D01*
X6915658Y-12629460D02*
X6925182Y-12581841D01*
X6925182Y-12581841D02*
X6925182Y-12543746D01*
X6925182Y-12543746D02*
X6915658Y-12496127D01*
X6915658Y-12496127D02*
X6906134Y-12467555D01*
X6906134Y-12467555D02*
X6896611Y-12448508D01*
X6896611Y-12448508D02*
X6877563Y-12419936D01*
X6877563Y-12419936D02*
X6868039Y-12410412D01*
D12*
X1902500Y-12811500D02*
G75*
G02*
X1832500Y-12811500I-35000J0D01*
G01*
X1832500Y-12811500D02*
G75*
G02*
X1902500Y-12811500I35000J0D01*
G01*
D11*
X2201372Y-12702984D02*
X2220420Y-12702984D01*
X2220420Y-12702984D02*
X2239467Y-12712508D01*
X2239467Y-12712508D02*
X2248991Y-12722031D01*
X2248991Y-12722031D02*
X2258515Y-12741079D01*
X2258515Y-12741079D02*
X2268039Y-12779174D01*
X2268039Y-12779174D02*
X2268039Y-12826793D01*
X2268039Y-12826793D02*
X2258515Y-12864888D01*
X2258515Y-12864888D02*
X2248991Y-12883936D01*
X2248991Y-12883936D02*
X2239467Y-12893460D01*
X2239467Y-12893460D02*
X2220420Y-12902984D01*
X2220420Y-12902984D02*
X2201372Y-12902984D01*
X2201372Y-12902984D02*
X2182324Y-12893460D01*
X2182324Y-12893460D02*
X2172801Y-12883936D01*
X2172801Y-12883936D02*
X2163277Y-12864888D01*
X2163277Y-12864888D02*
X2153753Y-12826793D01*
X2153753Y-12826793D02*
X2153753Y-12779174D01*
X2153753Y-12779174D02*
X2163277Y-12741079D01*
X2163277Y-12741079D02*
X2172801Y-12722031D01*
X2172801Y-12722031D02*
X2182324Y-12712508D01*
X2182324Y-12712508D02*
X2201372Y-12702984D01*
X2353753Y-12883936D02*
X2363277Y-12893460D01*
X2363277Y-12893460D02*
X2353753Y-12902984D01*
X2353753Y-12902984D02*
X2344229Y-12893460D01*
X2344229Y-12893460D02*
X2353753Y-12883936D01*
X2353753Y-12883936D02*
X2353753Y-12902984D01*
X2429944Y-12702984D02*
X2563277Y-12702984D01*
X2563277Y-12702984D02*
X2477563Y-12902984D01*
X2677563Y-12702984D02*
X2696610Y-12702984D01*
X2696610Y-12702984D02*
X2715658Y-12712508D01*
X2715658Y-12712508D02*
X2725182Y-12722031D01*
X2725182Y-12722031D02*
X2734705Y-12741079D01*
X2734705Y-12741079D02*
X2744229Y-12779174D01*
X2744229Y-12779174D02*
X2744229Y-12826793D01*
X2744229Y-12826793D02*
X2734705Y-12864888D01*
X2734705Y-12864888D02*
X2725182Y-12883936D01*
X2725182Y-12883936D02*
X2715658Y-12893460D01*
X2715658Y-12893460D02*
X2696610Y-12902984D01*
X2696610Y-12902984D02*
X2677563Y-12902984D01*
X2677563Y-12902984D02*
X2658515Y-12893460D01*
X2658515Y-12893460D02*
X2648991Y-12883936D01*
X2648991Y-12883936D02*
X2639467Y-12864888D01*
X2639467Y-12864888D02*
X2629944Y-12826793D01*
X2629944Y-12826793D02*
X2629944Y-12779174D01*
X2629944Y-12779174D02*
X2639467Y-12741079D01*
X2639467Y-12741079D02*
X2648991Y-12722031D01*
X2648991Y-12722031D02*
X2658515Y-12712508D01*
X2658515Y-12712508D02*
X2677563Y-12702984D01*
X2868039Y-12702984D02*
X2887086Y-12702984D01*
X2887086Y-12702984D02*
X2906134Y-12712508D01*
X2906134Y-12712508D02*
X2915658Y-12722031D01*
X2915658Y-12722031D02*
X2925182Y-12741079D01*
X2925182Y-12741079D02*
X2934705Y-12779174D01*
X2934705Y-12779174D02*
X2934705Y-12826793D01*
X2934705Y-12826793D02*
X2925182Y-12864888D01*
X2925182Y-12864888D02*
X2915658Y-12883936D01*
X2915658Y-12883936D02*
X2906134Y-12893460D01*
X2906134Y-12893460D02*
X2887086Y-12902984D01*
X2887086Y-12902984D02*
X2868039Y-12902984D01*
X2868039Y-12902984D02*
X2848991Y-12893460D01*
X2848991Y-12893460D02*
X2839467Y-12883936D01*
X2839467Y-12883936D02*
X2829943Y-12864888D01*
X2829943Y-12864888D02*
X2820420Y-12826793D01*
X2820420Y-12826793D02*
X2820420Y-12779174D01*
X2820420Y-12779174D02*
X2829943Y-12741079D01*
X2829943Y-12741079D02*
X2839467Y-12722031D01*
X2839467Y-12722031D02*
X2848991Y-12712508D01*
X2848991Y-12712508D02*
X2868039Y-12702984D01*
X3020420Y-12902984D02*
X3020420Y-12769650D01*
X3020420Y-12788698D02*
X3029943Y-12779174D01*
X3029943Y-12779174D02*
X3048991Y-12769650D01*
X3048991Y-12769650D02*
X3077563Y-12769650D01*
X3077563Y-12769650D02*
X3096610Y-12779174D01*
X3096610Y-12779174D02*
X3106134Y-12798222D01*
X3106134Y-12798222D02*
X3106134Y-12902984D01*
X3106134Y-12798222D02*
X3115658Y-12779174D01*
X3115658Y-12779174D02*
X3134705Y-12769650D01*
X3134705Y-12769650D02*
X3163277Y-12769650D01*
X3163277Y-12769650D02*
X3182324Y-12779174D01*
X3182324Y-12779174D02*
X3191848Y-12798222D01*
X3191848Y-12798222D02*
X3191848Y-12902984D01*
X3287086Y-12902984D02*
X3287086Y-12769650D01*
X3287086Y-12788698D02*
X3296610Y-12779174D01*
X3296610Y-12779174D02*
X3315658Y-12769650D01*
X3315658Y-12769650D02*
X3344229Y-12769650D01*
X3344229Y-12769650D02*
X3363277Y-12779174D01*
X3363277Y-12779174D02*
X3372801Y-12798222D01*
X3372801Y-12798222D02*
X3372801Y-12902984D01*
X3372801Y-12798222D02*
X3382324Y-12779174D01*
X3382324Y-12779174D02*
X3401372Y-12769650D01*
X3401372Y-12769650D02*
X3429943Y-12769650D01*
X3429943Y-12769650D02*
X3448991Y-12779174D01*
X3448991Y-12779174D02*
X3458515Y-12798222D01*
X3458515Y-12798222D02*
X3458515Y-12902984D01*
X3848991Y-12693460D02*
X3677563Y-12950603D01*
X4106134Y-12702984D02*
X4125182Y-12702984D01*
X4125182Y-12702984D02*
X4144229Y-12712508D01*
X4144229Y-12712508D02*
X4153753Y-12722031D01*
X4153753Y-12722031D02*
X4163277Y-12741079D01*
X4163277Y-12741079D02*
X4172801Y-12779174D01*
X4172801Y-12779174D02*
X4172801Y-12826793D01*
X4172801Y-12826793D02*
X4163277Y-12864888D01*
X4163277Y-12864888D02*
X4153753Y-12883936D01*
X4153753Y-12883936D02*
X4144229Y-12893460D01*
X4144229Y-12893460D02*
X4125182Y-12902984D01*
X4125182Y-12902984D02*
X4106134Y-12902984D01*
X4106134Y-12902984D02*
X4087086Y-12893460D01*
X4087086Y-12893460D02*
X4077563Y-12883936D01*
X4077563Y-12883936D02*
X4068039Y-12864888D01*
X4068039Y-12864888D02*
X4058515Y-12826793D01*
X4058515Y-12826793D02*
X4058515Y-12779174D01*
X4058515Y-12779174D02*
X4068039Y-12741079D01*
X4068039Y-12741079D02*
X4077563Y-12722031D01*
X4077563Y-12722031D02*
X4087086Y-12712508D01*
X4087086Y-12712508D02*
X4106134Y-12702984D01*
X4258515Y-12883936D02*
X4268039Y-12893460D01*
X4268039Y-12893460D02*
X4258515Y-12902984D01*
X4258515Y-12902984D02*
X4248991Y-12893460D01*
X4248991Y-12893460D02*
X4258515Y-12883936D01*
X4258515Y-12883936D02*
X4258515Y-12902984D01*
X4391848Y-12702984D02*
X4410896Y-12702984D01*
X4410896Y-12702984D02*
X4429944Y-12712508D01*
X4429944Y-12712508D02*
X4439468Y-12722031D01*
X4439468Y-12722031D02*
X4448991Y-12741079D01*
X4448991Y-12741079D02*
X4458515Y-12779174D01*
X4458515Y-12779174D02*
X4458515Y-12826793D01*
X4458515Y-12826793D02*
X4448991Y-12864888D01*
X4448991Y-12864888D02*
X4439468Y-12883936D01*
X4439468Y-12883936D02*
X4429944Y-12893460D01*
X4429944Y-12893460D02*
X4410896Y-12902984D01*
X4410896Y-12902984D02*
X4391848Y-12902984D01*
X4391848Y-12902984D02*
X4372801Y-12893460D01*
X4372801Y-12893460D02*
X4363277Y-12883936D01*
X4363277Y-12883936D02*
X4353753Y-12864888D01*
X4353753Y-12864888D02*
X4344229Y-12826793D01*
X4344229Y-12826793D02*
X4344229Y-12779174D01*
X4344229Y-12779174D02*
X4353753Y-12741079D01*
X4353753Y-12741079D02*
X4363277Y-12722031D01*
X4363277Y-12722031D02*
X4372801Y-12712508D01*
X4372801Y-12712508D02*
X4391848Y-12702984D01*
X4534706Y-12722031D02*
X4544229Y-12712508D01*
X4544229Y-12712508D02*
X4563277Y-12702984D01*
X4563277Y-12702984D02*
X4610896Y-12702984D01*
X4610896Y-12702984D02*
X4629944Y-12712508D01*
X4629944Y-12712508D02*
X4639468Y-12722031D01*
X4639468Y-12722031D02*
X4648991Y-12741079D01*
X4648991Y-12741079D02*
X4648991Y-12760127D01*
X4648991Y-12760127D02*
X4639468Y-12788698D01*
X4639468Y-12788698D02*
X4525182Y-12902984D01*
X4525182Y-12902984D02*
X4648991Y-12902984D01*
X4715658Y-12702984D02*
X4848991Y-12702984D01*
X4848991Y-12702984D02*
X4763277Y-12902984D01*
X5010896Y-12702984D02*
X4972801Y-12702984D01*
X4972801Y-12702984D02*
X4953753Y-12712508D01*
X4953753Y-12712508D02*
X4944229Y-12722031D01*
X4944229Y-12722031D02*
X4925182Y-12750603D01*
X4925182Y-12750603D02*
X4915658Y-12788698D01*
X4915658Y-12788698D02*
X4915658Y-12864888D01*
X4915658Y-12864888D02*
X4925182Y-12883936D01*
X4925182Y-12883936D02*
X4934706Y-12893460D01*
X4934706Y-12893460D02*
X4953753Y-12902984D01*
X4953753Y-12902984D02*
X4991849Y-12902984D01*
X4991849Y-12902984D02*
X5010896Y-12893460D01*
X5010896Y-12893460D02*
X5020420Y-12883936D01*
X5020420Y-12883936D02*
X5029944Y-12864888D01*
X5029944Y-12864888D02*
X5029944Y-12817269D01*
X5029944Y-12817269D02*
X5020420Y-12798222D01*
X5020420Y-12798222D02*
X5010896Y-12788698D01*
X5010896Y-12788698D02*
X4991849Y-12779174D01*
X4991849Y-12779174D02*
X4953753Y-12779174D01*
X4953753Y-12779174D02*
X4934706Y-12788698D01*
X4934706Y-12788698D02*
X4925182Y-12798222D01*
X4925182Y-12798222D02*
X4915658Y-12817269D01*
X5106134Y-12702984D02*
X5106134Y-12741079D01*
X5182325Y-12702984D02*
X5182325Y-12741079D01*
X5477563Y-12979174D02*
X5468039Y-12969650D01*
X5468039Y-12969650D02*
X5448991Y-12941079D01*
X5448991Y-12941079D02*
X5439468Y-12922031D01*
X5439468Y-12922031D02*
X5429944Y-12893460D01*
X5429944Y-12893460D02*
X5420420Y-12845841D01*
X5420420Y-12845841D02*
X5420420Y-12807746D01*
X5420420Y-12807746D02*
X5429944Y-12760127D01*
X5429944Y-12760127D02*
X5439468Y-12731555D01*
X5439468Y-12731555D02*
X5448991Y-12712508D01*
X5448991Y-12712508D02*
X5468039Y-12683936D01*
X5468039Y-12683936D02*
X5477563Y-12674412D01*
X5658515Y-12902984D02*
X5544230Y-12902984D01*
X5601372Y-12902984D02*
X5601372Y-12702984D01*
X5601372Y-12702984D02*
X5582325Y-12731555D01*
X5582325Y-12731555D02*
X5563277Y-12750603D01*
X5563277Y-12750603D02*
X5544230Y-12760127D01*
X5734706Y-12722031D02*
X5744229Y-12712508D01*
X5744229Y-12712508D02*
X5763277Y-12702984D01*
X5763277Y-12702984D02*
X5810896Y-12702984D01*
X5810896Y-12702984D02*
X5829944Y-12712508D01*
X5829944Y-12712508D02*
X5839468Y-12722031D01*
X5839468Y-12722031D02*
X5848991Y-12741079D01*
X5848991Y-12741079D02*
X5848991Y-12760127D01*
X5848991Y-12760127D02*
X5839468Y-12788698D01*
X5839468Y-12788698D02*
X5725182Y-12902984D01*
X5725182Y-12902984D02*
X5848991Y-12902984D01*
X6087087Y-12902984D02*
X6087087Y-12702984D01*
X6172801Y-12902984D02*
X6172801Y-12798222D01*
X6172801Y-12798222D02*
X6163277Y-12779174D01*
X6163277Y-12779174D02*
X6144230Y-12769650D01*
X6144230Y-12769650D02*
X6115658Y-12769650D01*
X6115658Y-12769650D02*
X6096610Y-12779174D01*
X6096610Y-12779174D02*
X6087087Y-12788698D01*
X6296610Y-12902984D02*
X6277563Y-12893460D01*
X6277563Y-12893460D02*
X6268039Y-12883936D01*
X6268039Y-12883936D02*
X6258515Y-12864888D01*
X6258515Y-12864888D02*
X6258515Y-12807746D01*
X6258515Y-12807746D02*
X6268039Y-12788698D01*
X6268039Y-12788698D02*
X6277563Y-12779174D01*
X6277563Y-12779174D02*
X6296610Y-12769650D01*
X6296610Y-12769650D02*
X6325182Y-12769650D01*
X6325182Y-12769650D02*
X6344230Y-12779174D01*
X6344230Y-12779174D02*
X6353753Y-12788698D01*
X6353753Y-12788698D02*
X6363277Y-12807746D01*
X6363277Y-12807746D02*
X6363277Y-12864888D01*
X6363277Y-12864888D02*
X6353753Y-12883936D01*
X6353753Y-12883936D02*
X6344230Y-12893460D01*
X6344230Y-12893460D02*
X6325182Y-12902984D01*
X6325182Y-12902984D02*
X6296610Y-12902984D01*
X6477563Y-12902984D02*
X6458515Y-12893460D01*
X6458515Y-12893460D02*
X6448991Y-12874412D01*
X6448991Y-12874412D02*
X6448991Y-12702984D01*
X6629944Y-12893460D02*
X6610896Y-12902984D01*
X6610896Y-12902984D02*
X6572801Y-12902984D01*
X6572801Y-12902984D02*
X6553753Y-12893460D01*
X6553753Y-12893460D02*
X6544230Y-12874412D01*
X6544230Y-12874412D02*
X6544230Y-12798222D01*
X6544230Y-12798222D02*
X6553753Y-12779174D01*
X6553753Y-12779174D02*
X6572801Y-12769650D01*
X6572801Y-12769650D02*
X6610896Y-12769650D01*
X6610896Y-12769650D02*
X6629944Y-12779174D01*
X6629944Y-12779174D02*
X6639468Y-12798222D01*
X6639468Y-12798222D02*
X6639468Y-12817269D01*
X6639468Y-12817269D02*
X6544230Y-12836317D01*
X6715658Y-12893460D02*
X6734706Y-12902984D01*
X6734706Y-12902984D02*
X6772801Y-12902984D01*
X6772801Y-12902984D02*
X6791849Y-12893460D01*
X6791849Y-12893460D02*
X6801372Y-12874412D01*
X6801372Y-12874412D02*
X6801372Y-12864888D01*
X6801372Y-12864888D02*
X6791849Y-12845841D01*
X6791849Y-12845841D02*
X6772801Y-12836317D01*
X6772801Y-12836317D02*
X6744230Y-12836317D01*
X6744230Y-12836317D02*
X6725182Y-12826793D01*
X6725182Y-12826793D02*
X6715658Y-12807746D01*
X6715658Y-12807746D02*
X6715658Y-12798222D01*
X6715658Y-12798222D02*
X6725182Y-12779174D01*
X6725182Y-12779174D02*
X6744230Y-12769650D01*
X6744230Y-12769650D02*
X6772801Y-12769650D01*
X6772801Y-12769650D02*
X6791849Y-12779174D01*
X6868039Y-12979174D02*
X6877563Y-12969650D01*
X6877563Y-12969650D02*
X6896611Y-12941079D01*
X6896611Y-12941079D02*
X6906134Y-12922031D01*
X6906134Y-12922031D02*
X6915658Y-12893460D01*
X6915658Y-12893460D02*
X6925182Y-12845841D01*
X6925182Y-12845841D02*
X6925182Y-12807746D01*
X6925182Y-12807746D02*
X6915658Y-12760127D01*
X6915658Y-12760127D02*
X6906134Y-12731555D01*
X6906134Y-12731555D02*
X6896611Y-12712508D01*
X6896611Y-12712508D02*
X6877563Y-12683936D01*
X6877563Y-12683936D02*
X6868039Y-12674412D01*
D12*
X1862500Y-13035500D02*
X1862500Y-13115500D01*
X1822500Y-13075500D02*
X1902500Y-13075500D01*
D11*
X2201372Y-12966984D02*
X2220420Y-12966984D01*
X2220420Y-12966984D02*
X2239467Y-12976508D01*
X2239467Y-12976508D02*
X2248991Y-12986031D01*
X2248991Y-12986031D02*
X2258515Y-13005079D01*
X2258515Y-13005079D02*
X2268039Y-13043174D01*
X2268039Y-13043174D02*
X2268039Y-13090793D01*
X2268039Y-13090793D02*
X2258515Y-13128888D01*
X2258515Y-13128888D02*
X2248991Y-13147936D01*
X2248991Y-13147936D02*
X2239467Y-13157460D01*
X2239467Y-13157460D02*
X2220420Y-13166984D01*
X2220420Y-13166984D02*
X2201372Y-13166984D01*
X2201372Y-13166984D02*
X2182324Y-13157460D01*
X2182324Y-13157460D02*
X2172801Y-13147936D01*
X2172801Y-13147936D02*
X2163277Y-13128888D01*
X2163277Y-13128888D02*
X2153753Y-13090793D01*
X2153753Y-13090793D02*
X2153753Y-13043174D01*
X2153753Y-13043174D02*
X2163277Y-13005079D01*
X2163277Y-13005079D02*
X2172801Y-12986031D01*
X2172801Y-12986031D02*
X2182324Y-12976508D01*
X2182324Y-12976508D02*
X2201372Y-12966984D01*
X2353753Y-13147936D02*
X2363277Y-13157460D01*
X2363277Y-13157460D02*
X2353753Y-13166984D01*
X2353753Y-13166984D02*
X2344229Y-13157460D01*
X2344229Y-13157460D02*
X2353753Y-13147936D01*
X2353753Y-13147936D02*
X2353753Y-13166984D01*
X2477563Y-13052698D02*
X2458515Y-13043174D01*
X2458515Y-13043174D02*
X2448991Y-13033650D01*
X2448991Y-13033650D02*
X2439467Y-13014603D01*
X2439467Y-13014603D02*
X2439467Y-13005079D01*
X2439467Y-13005079D02*
X2448991Y-12986031D01*
X2448991Y-12986031D02*
X2458515Y-12976508D01*
X2458515Y-12976508D02*
X2477563Y-12966984D01*
X2477563Y-12966984D02*
X2515658Y-12966984D01*
X2515658Y-12966984D02*
X2534705Y-12976508D01*
X2534705Y-12976508D02*
X2544229Y-12986031D01*
X2544229Y-12986031D02*
X2553753Y-13005079D01*
X2553753Y-13005079D02*
X2553753Y-13014603D01*
X2553753Y-13014603D02*
X2544229Y-13033650D01*
X2544229Y-13033650D02*
X2534705Y-13043174D01*
X2534705Y-13043174D02*
X2515658Y-13052698D01*
X2515658Y-13052698D02*
X2477563Y-13052698D01*
X2477563Y-13052698D02*
X2458515Y-13062222D01*
X2458515Y-13062222D02*
X2448991Y-13071746D01*
X2448991Y-13071746D02*
X2439467Y-13090793D01*
X2439467Y-13090793D02*
X2439467Y-13128888D01*
X2439467Y-13128888D02*
X2448991Y-13147936D01*
X2448991Y-13147936D02*
X2458515Y-13157460D01*
X2458515Y-13157460D02*
X2477563Y-13166984D01*
X2477563Y-13166984D02*
X2515658Y-13166984D01*
X2515658Y-13166984D02*
X2534705Y-13157460D01*
X2534705Y-13157460D02*
X2544229Y-13147936D01*
X2544229Y-13147936D02*
X2553753Y-13128888D01*
X2553753Y-13128888D02*
X2553753Y-13090793D01*
X2553753Y-13090793D02*
X2544229Y-13071746D01*
X2544229Y-13071746D02*
X2534705Y-13062222D01*
X2534705Y-13062222D02*
X2515658Y-13052698D01*
X2677563Y-12966984D02*
X2696610Y-12966984D01*
X2696610Y-12966984D02*
X2715658Y-12976508D01*
X2715658Y-12976508D02*
X2725182Y-12986031D01*
X2725182Y-12986031D02*
X2734705Y-13005079D01*
X2734705Y-13005079D02*
X2744229Y-13043174D01*
X2744229Y-13043174D02*
X2744229Y-13090793D01*
X2744229Y-13090793D02*
X2734705Y-13128888D01*
X2734705Y-13128888D02*
X2725182Y-13147936D01*
X2725182Y-13147936D02*
X2715658Y-13157460D01*
X2715658Y-13157460D02*
X2696610Y-13166984D01*
X2696610Y-13166984D02*
X2677563Y-13166984D01*
X2677563Y-13166984D02*
X2658515Y-13157460D01*
X2658515Y-13157460D02*
X2648991Y-13147936D01*
X2648991Y-13147936D02*
X2639467Y-13128888D01*
X2639467Y-13128888D02*
X2629944Y-13090793D01*
X2629944Y-13090793D02*
X2629944Y-13043174D01*
X2629944Y-13043174D02*
X2639467Y-13005079D01*
X2639467Y-13005079D02*
X2648991Y-12986031D01*
X2648991Y-12986031D02*
X2658515Y-12976508D01*
X2658515Y-12976508D02*
X2677563Y-12966984D01*
X2868039Y-12966984D02*
X2887086Y-12966984D01*
X2887086Y-12966984D02*
X2906134Y-12976508D01*
X2906134Y-12976508D02*
X2915658Y-12986031D01*
X2915658Y-12986031D02*
X2925182Y-13005079D01*
X2925182Y-13005079D02*
X2934705Y-13043174D01*
X2934705Y-13043174D02*
X2934705Y-13090793D01*
X2934705Y-13090793D02*
X2925182Y-13128888D01*
X2925182Y-13128888D02*
X2915658Y-13147936D01*
X2915658Y-13147936D02*
X2906134Y-13157460D01*
X2906134Y-13157460D02*
X2887086Y-13166984D01*
X2887086Y-13166984D02*
X2868039Y-13166984D01*
X2868039Y-13166984D02*
X2848991Y-13157460D01*
X2848991Y-13157460D02*
X2839467Y-13147936D01*
X2839467Y-13147936D02*
X2829943Y-13128888D01*
X2829943Y-13128888D02*
X2820420Y-13090793D01*
X2820420Y-13090793D02*
X2820420Y-13043174D01*
X2820420Y-13043174D02*
X2829943Y-13005079D01*
X2829943Y-13005079D02*
X2839467Y-12986031D01*
X2839467Y-12986031D02*
X2848991Y-12976508D01*
X2848991Y-12976508D02*
X2868039Y-12966984D01*
X3020420Y-13166984D02*
X3020420Y-13033650D01*
X3020420Y-13052698D02*
X3029943Y-13043174D01*
X3029943Y-13043174D02*
X3048991Y-13033650D01*
X3048991Y-13033650D02*
X3077563Y-13033650D01*
X3077563Y-13033650D02*
X3096610Y-13043174D01*
X3096610Y-13043174D02*
X3106134Y-13062222D01*
X3106134Y-13062222D02*
X3106134Y-13166984D01*
X3106134Y-13062222D02*
X3115658Y-13043174D01*
X3115658Y-13043174D02*
X3134705Y-13033650D01*
X3134705Y-13033650D02*
X3163277Y-13033650D01*
X3163277Y-13033650D02*
X3182324Y-13043174D01*
X3182324Y-13043174D02*
X3191848Y-13062222D01*
X3191848Y-13062222D02*
X3191848Y-13166984D01*
X3287086Y-13166984D02*
X3287086Y-13033650D01*
X3287086Y-13052698D02*
X3296610Y-13043174D01*
X3296610Y-13043174D02*
X3315658Y-13033650D01*
X3315658Y-13033650D02*
X3344229Y-13033650D01*
X3344229Y-13033650D02*
X3363277Y-13043174D01*
X3363277Y-13043174D02*
X3372801Y-13062222D01*
X3372801Y-13062222D02*
X3372801Y-13166984D01*
X3372801Y-13062222D02*
X3382324Y-13043174D01*
X3382324Y-13043174D02*
X3401372Y-13033650D01*
X3401372Y-13033650D02*
X3429943Y-13033650D01*
X3429943Y-13033650D02*
X3448991Y-13043174D01*
X3448991Y-13043174D02*
X3458515Y-13062222D01*
X3458515Y-13062222D02*
X3458515Y-13166984D01*
X3848991Y-12957460D02*
X3677563Y-13214603D01*
X4106134Y-12966984D02*
X4125182Y-12966984D01*
X4125182Y-12966984D02*
X4144229Y-12976508D01*
X4144229Y-12976508D02*
X4153753Y-12986031D01*
X4153753Y-12986031D02*
X4163277Y-13005079D01*
X4163277Y-13005079D02*
X4172801Y-13043174D01*
X4172801Y-13043174D02*
X4172801Y-13090793D01*
X4172801Y-13090793D02*
X4163277Y-13128888D01*
X4163277Y-13128888D02*
X4153753Y-13147936D01*
X4153753Y-13147936D02*
X4144229Y-13157460D01*
X4144229Y-13157460D02*
X4125182Y-13166984D01*
X4125182Y-13166984D02*
X4106134Y-13166984D01*
X4106134Y-13166984D02*
X4087086Y-13157460D01*
X4087086Y-13157460D02*
X4077563Y-13147936D01*
X4077563Y-13147936D02*
X4068039Y-13128888D01*
X4068039Y-13128888D02*
X4058515Y-13090793D01*
X4058515Y-13090793D02*
X4058515Y-13043174D01*
X4058515Y-13043174D02*
X4068039Y-13005079D01*
X4068039Y-13005079D02*
X4077563Y-12986031D01*
X4077563Y-12986031D02*
X4087086Y-12976508D01*
X4087086Y-12976508D02*
X4106134Y-12966984D01*
X4258515Y-13147936D02*
X4268039Y-13157460D01*
X4268039Y-13157460D02*
X4258515Y-13166984D01*
X4258515Y-13166984D02*
X4248991Y-13157460D01*
X4248991Y-13157460D02*
X4258515Y-13147936D01*
X4258515Y-13147936D02*
X4258515Y-13166984D01*
X4391848Y-12966984D02*
X4410896Y-12966984D01*
X4410896Y-12966984D02*
X4429944Y-12976508D01*
X4429944Y-12976508D02*
X4439468Y-12986031D01*
X4439468Y-12986031D02*
X4448991Y-13005079D01*
X4448991Y-13005079D02*
X4458515Y-13043174D01*
X4458515Y-13043174D02*
X4458515Y-13090793D01*
X4458515Y-13090793D02*
X4448991Y-13128888D01*
X4448991Y-13128888D02*
X4439468Y-13147936D01*
X4439468Y-13147936D02*
X4429944Y-13157460D01*
X4429944Y-13157460D02*
X4410896Y-13166984D01*
X4410896Y-13166984D02*
X4391848Y-13166984D01*
X4391848Y-13166984D02*
X4372801Y-13157460D01*
X4372801Y-13157460D02*
X4363277Y-13147936D01*
X4363277Y-13147936D02*
X4353753Y-13128888D01*
X4353753Y-13128888D02*
X4344229Y-13090793D01*
X4344229Y-13090793D02*
X4344229Y-13043174D01*
X4344229Y-13043174D02*
X4353753Y-13005079D01*
X4353753Y-13005079D02*
X4363277Y-12986031D01*
X4363277Y-12986031D02*
X4372801Y-12976508D01*
X4372801Y-12976508D02*
X4391848Y-12966984D01*
X4525182Y-12966984D02*
X4648991Y-12966984D01*
X4648991Y-12966984D02*
X4582325Y-13043174D01*
X4582325Y-13043174D02*
X4610896Y-13043174D01*
X4610896Y-13043174D02*
X4629944Y-13052698D01*
X4629944Y-13052698D02*
X4639468Y-13062222D01*
X4639468Y-13062222D02*
X4648991Y-13081269D01*
X4648991Y-13081269D02*
X4648991Y-13128888D01*
X4648991Y-13128888D02*
X4639468Y-13147936D01*
X4639468Y-13147936D02*
X4629944Y-13157460D01*
X4629944Y-13157460D02*
X4610896Y-13166984D01*
X4610896Y-13166984D02*
X4553753Y-13166984D01*
X4553753Y-13166984D02*
X4534706Y-13157460D01*
X4534706Y-13157460D02*
X4525182Y-13147936D01*
X4839468Y-13166984D02*
X4725182Y-13166984D01*
X4782325Y-13166984D02*
X4782325Y-12966984D01*
X4782325Y-12966984D02*
X4763277Y-12995555D01*
X4763277Y-12995555D02*
X4744229Y-13014603D01*
X4744229Y-13014603D02*
X4725182Y-13024127D01*
X5020420Y-12966984D02*
X4925182Y-12966984D01*
X4925182Y-12966984D02*
X4915658Y-13062222D01*
X4915658Y-13062222D02*
X4925182Y-13052698D01*
X4925182Y-13052698D02*
X4944229Y-13043174D01*
X4944229Y-13043174D02*
X4991849Y-13043174D01*
X4991849Y-13043174D02*
X5010896Y-13052698D01*
X5010896Y-13052698D02*
X5020420Y-13062222D01*
X5020420Y-13062222D02*
X5029944Y-13081269D01*
X5029944Y-13081269D02*
X5029944Y-13128888D01*
X5029944Y-13128888D02*
X5020420Y-13147936D01*
X5020420Y-13147936D02*
X5010896Y-13157460D01*
X5010896Y-13157460D02*
X4991849Y-13166984D01*
X4991849Y-13166984D02*
X4944229Y-13166984D01*
X4944229Y-13166984D02*
X4925182Y-13157460D01*
X4925182Y-13157460D02*
X4915658Y-13147936D01*
X5106134Y-12966984D02*
X5106134Y-13005079D01*
X5182325Y-12966984D02*
X5182325Y-13005079D01*
X5477563Y-13243174D02*
X5468039Y-13233650D01*
X5468039Y-13233650D02*
X5448991Y-13205079D01*
X5448991Y-13205079D02*
X5439468Y-13186031D01*
X5439468Y-13186031D02*
X5429944Y-13157460D01*
X5429944Y-13157460D02*
X5420420Y-13109841D01*
X5420420Y-13109841D02*
X5420420Y-13071746D01*
X5420420Y-13071746D02*
X5429944Y-13024127D01*
X5429944Y-13024127D02*
X5439468Y-12995555D01*
X5439468Y-12995555D02*
X5448991Y-12976508D01*
X5448991Y-12976508D02*
X5468039Y-12947936D01*
X5468039Y-12947936D02*
X5477563Y-12938412D01*
X5534706Y-12966984D02*
X5668039Y-12966984D01*
X5668039Y-12966984D02*
X5582325Y-13166984D01*
X5734706Y-12986031D02*
X5744229Y-12976508D01*
X5744229Y-12976508D02*
X5763277Y-12966984D01*
X5763277Y-12966984D02*
X5810896Y-12966984D01*
X5810896Y-12966984D02*
X5829944Y-12976508D01*
X5829944Y-12976508D02*
X5839468Y-12986031D01*
X5839468Y-12986031D02*
X5848991Y-13005079D01*
X5848991Y-13005079D02*
X5848991Y-13024127D01*
X5848991Y-13024127D02*
X5839468Y-13052698D01*
X5839468Y-13052698D02*
X5725182Y-13166984D01*
X5725182Y-13166984D02*
X5848991Y-13166984D01*
X6087087Y-13166984D02*
X6087087Y-12966984D01*
X6172801Y-13166984D02*
X6172801Y-13062222D01*
X6172801Y-13062222D02*
X6163277Y-13043174D01*
X6163277Y-13043174D02*
X6144230Y-13033650D01*
X6144230Y-13033650D02*
X6115658Y-13033650D01*
X6115658Y-13033650D02*
X6096610Y-13043174D01*
X6096610Y-13043174D02*
X6087087Y-13052698D01*
X6296610Y-13166984D02*
X6277563Y-13157460D01*
X6277563Y-13157460D02*
X6268039Y-13147936D01*
X6268039Y-13147936D02*
X6258515Y-13128888D01*
X6258515Y-13128888D02*
X6258515Y-13071746D01*
X6258515Y-13071746D02*
X6268039Y-13052698D01*
X6268039Y-13052698D02*
X6277563Y-13043174D01*
X6277563Y-13043174D02*
X6296610Y-13033650D01*
X6296610Y-13033650D02*
X6325182Y-13033650D01*
X6325182Y-13033650D02*
X6344230Y-13043174D01*
X6344230Y-13043174D02*
X6353753Y-13052698D01*
X6353753Y-13052698D02*
X6363277Y-13071746D01*
X6363277Y-13071746D02*
X6363277Y-13128888D01*
X6363277Y-13128888D02*
X6353753Y-13147936D01*
X6353753Y-13147936D02*
X6344230Y-13157460D01*
X6344230Y-13157460D02*
X6325182Y-13166984D01*
X6325182Y-13166984D02*
X6296610Y-13166984D01*
X6477563Y-13166984D02*
X6458515Y-13157460D01*
X6458515Y-13157460D02*
X6448991Y-13138412D01*
X6448991Y-13138412D02*
X6448991Y-12966984D01*
X6629944Y-13157460D02*
X6610896Y-13166984D01*
X6610896Y-13166984D02*
X6572801Y-13166984D01*
X6572801Y-13166984D02*
X6553753Y-13157460D01*
X6553753Y-13157460D02*
X6544230Y-13138412D01*
X6544230Y-13138412D02*
X6544230Y-13062222D01*
X6544230Y-13062222D02*
X6553753Y-13043174D01*
X6553753Y-13043174D02*
X6572801Y-13033650D01*
X6572801Y-13033650D02*
X6610896Y-13033650D01*
X6610896Y-13033650D02*
X6629944Y-13043174D01*
X6629944Y-13043174D02*
X6639468Y-13062222D01*
X6639468Y-13062222D02*
X6639468Y-13081269D01*
X6639468Y-13081269D02*
X6544230Y-13100317D01*
X6715658Y-13157460D02*
X6734706Y-13166984D01*
X6734706Y-13166984D02*
X6772801Y-13166984D01*
X6772801Y-13166984D02*
X6791849Y-13157460D01*
X6791849Y-13157460D02*
X6801372Y-13138412D01*
X6801372Y-13138412D02*
X6801372Y-13128888D01*
X6801372Y-13128888D02*
X6791849Y-13109841D01*
X6791849Y-13109841D02*
X6772801Y-13100317D01*
X6772801Y-13100317D02*
X6744230Y-13100317D01*
X6744230Y-13100317D02*
X6725182Y-13090793D01*
X6725182Y-13090793D02*
X6715658Y-13071746D01*
X6715658Y-13071746D02*
X6715658Y-13062222D01*
X6715658Y-13062222D02*
X6725182Y-13043174D01*
X6725182Y-13043174D02*
X6744230Y-13033650D01*
X6744230Y-13033650D02*
X6772801Y-13033650D01*
X6772801Y-13033650D02*
X6791849Y-13043174D01*
X6868039Y-13243174D02*
X6877563Y-13233650D01*
X6877563Y-13233650D02*
X6896611Y-13205079D01*
X6896611Y-13205079D02*
X6906134Y-13186031D01*
X6906134Y-13186031D02*
X6915658Y-13157460D01*
X6915658Y-13157460D02*
X6925182Y-13109841D01*
X6925182Y-13109841D02*
X6925182Y-13071746D01*
X6925182Y-13071746D02*
X6915658Y-13024127D01*
X6915658Y-13024127D02*
X6906134Y-12995555D01*
X6906134Y-12995555D02*
X6896611Y-12976508D01*
X6896611Y-12976508D02*
X6877563Y-12947936D01*
X6877563Y-12947936D02*
X6868039Y-12938412D01*
D12*
X1887856Y-13374856D02*
X1887856Y-13304144D01*
X1817144Y-13304144D01*
X1817144Y-13374856D01*
X1887856Y-13374856D01*
D11*
X2268039Y-13430984D02*
X2153753Y-13430984D01*
X2210896Y-13430984D02*
X2210896Y-13230984D01*
X2210896Y-13230984D02*
X2191848Y-13259555D01*
X2191848Y-13259555D02*
X2172801Y-13278603D01*
X2172801Y-13278603D02*
X2153753Y-13288127D01*
X2353753Y-13411936D02*
X2363277Y-13421460D01*
X2363277Y-13421460D02*
X2353753Y-13430984D01*
X2353753Y-13430984D02*
X2344229Y-13421460D01*
X2344229Y-13421460D02*
X2353753Y-13411936D01*
X2353753Y-13411936D02*
X2353753Y-13430984D01*
X2487086Y-13230984D02*
X2506134Y-13230984D01*
X2506134Y-13230984D02*
X2525182Y-13240508D01*
X2525182Y-13240508D02*
X2534705Y-13250031D01*
X2534705Y-13250031D02*
X2544229Y-13269079D01*
X2544229Y-13269079D02*
X2553753Y-13307174D01*
X2553753Y-13307174D02*
X2553753Y-13354793D01*
X2553753Y-13354793D02*
X2544229Y-13392888D01*
X2544229Y-13392888D02*
X2534705Y-13411936D01*
X2534705Y-13411936D02*
X2525182Y-13421460D01*
X2525182Y-13421460D02*
X2506134Y-13430984D01*
X2506134Y-13430984D02*
X2487086Y-13430984D01*
X2487086Y-13430984D02*
X2468039Y-13421460D01*
X2468039Y-13421460D02*
X2458515Y-13411936D01*
X2458515Y-13411936D02*
X2448991Y-13392888D01*
X2448991Y-13392888D02*
X2439467Y-13354793D01*
X2439467Y-13354793D02*
X2439467Y-13307174D01*
X2439467Y-13307174D02*
X2448991Y-13269079D01*
X2448991Y-13269079D02*
X2458515Y-13250031D01*
X2458515Y-13250031D02*
X2468039Y-13240508D01*
X2468039Y-13240508D02*
X2487086Y-13230984D01*
X2677563Y-13230984D02*
X2696610Y-13230984D01*
X2696610Y-13230984D02*
X2715658Y-13240508D01*
X2715658Y-13240508D02*
X2725182Y-13250031D01*
X2725182Y-13250031D02*
X2734705Y-13269079D01*
X2734705Y-13269079D02*
X2744229Y-13307174D01*
X2744229Y-13307174D02*
X2744229Y-13354793D01*
X2744229Y-13354793D02*
X2734705Y-13392888D01*
X2734705Y-13392888D02*
X2725182Y-13411936D01*
X2725182Y-13411936D02*
X2715658Y-13421460D01*
X2715658Y-13421460D02*
X2696610Y-13430984D01*
X2696610Y-13430984D02*
X2677563Y-13430984D01*
X2677563Y-13430984D02*
X2658515Y-13421460D01*
X2658515Y-13421460D02*
X2648991Y-13411936D01*
X2648991Y-13411936D02*
X2639467Y-13392888D01*
X2639467Y-13392888D02*
X2629944Y-13354793D01*
X2629944Y-13354793D02*
X2629944Y-13307174D01*
X2629944Y-13307174D02*
X2639467Y-13269079D01*
X2639467Y-13269079D02*
X2648991Y-13250031D01*
X2648991Y-13250031D02*
X2658515Y-13240508D01*
X2658515Y-13240508D02*
X2677563Y-13230984D01*
X2868039Y-13230984D02*
X2887086Y-13230984D01*
X2887086Y-13230984D02*
X2906134Y-13240508D01*
X2906134Y-13240508D02*
X2915658Y-13250031D01*
X2915658Y-13250031D02*
X2925182Y-13269079D01*
X2925182Y-13269079D02*
X2934705Y-13307174D01*
X2934705Y-13307174D02*
X2934705Y-13354793D01*
X2934705Y-13354793D02*
X2925182Y-13392888D01*
X2925182Y-13392888D02*
X2915658Y-13411936D01*
X2915658Y-13411936D02*
X2906134Y-13421460D01*
X2906134Y-13421460D02*
X2887086Y-13430984D01*
X2887086Y-13430984D02*
X2868039Y-13430984D01*
X2868039Y-13430984D02*
X2848991Y-13421460D01*
X2848991Y-13421460D02*
X2839467Y-13411936D01*
X2839467Y-13411936D02*
X2829943Y-13392888D01*
X2829943Y-13392888D02*
X2820420Y-13354793D01*
X2820420Y-13354793D02*
X2820420Y-13307174D01*
X2820420Y-13307174D02*
X2829943Y-13269079D01*
X2829943Y-13269079D02*
X2839467Y-13250031D01*
X2839467Y-13250031D02*
X2848991Y-13240508D01*
X2848991Y-13240508D02*
X2868039Y-13230984D01*
X3020420Y-13430984D02*
X3020420Y-13297650D01*
X3020420Y-13316698D02*
X3029943Y-13307174D01*
X3029943Y-13307174D02*
X3048991Y-13297650D01*
X3048991Y-13297650D02*
X3077563Y-13297650D01*
X3077563Y-13297650D02*
X3096610Y-13307174D01*
X3096610Y-13307174D02*
X3106134Y-13326222D01*
X3106134Y-13326222D02*
X3106134Y-13430984D01*
X3106134Y-13326222D02*
X3115658Y-13307174D01*
X3115658Y-13307174D02*
X3134705Y-13297650D01*
X3134705Y-13297650D02*
X3163277Y-13297650D01*
X3163277Y-13297650D02*
X3182324Y-13307174D01*
X3182324Y-13307174D02*
X3191848Y-13326222D01*
X3191848Y-13326222D02*
X3191848Y-13430984D01*
X3287086Y-13430984D02*
X3287086Y-13297650D01*
X3287086Y-13316698D02*
X3296610Y-13307174D01*
X3296610Y-13307174D02*
X3315658Y-13297650D01*
X3315658Y-13297650D02*
X3344229Y-13297650D01*
X3344229Y-13297650D02*
X3363277Y-13307174D01*
X3363277Y-13307174D02*
X3372801Y-13326222D01*
X3372801Y-13326222D02*
X3372801Y-13430984D01*
X3372801Y-13326222D02*
X3382324Y-13307174D01*
X3382324Y-13307174D02*
X3401372Y-13297650D01*
X3401372Y-13297650D02*
X3429943Y-13297650D01*
X3429943Y-13297650D02*
X3448991Y-13307174D01*
X3448991Y-13307174D02*
X3458515Y-13326222D01*
X3458515Y-13326222D02*
X3458515Y-13430984D01*
X3848991Y-13221460D02*
X3677563Y-13478603D01*
X4106134Y-13230984D02*
X4125182Y-13230984D01*
X4125182Y-13230984D02*
X4144229Y-13240508D01*
X4144229Y-13240508D02*
X4153753Y-13250031D01*
X4153753Y-13250031D02*
X4163277Y-13269079D01*
X4163277Y-13269079D02*
X4172801Y-13307174D01*
X4172801Y-13307174D02*
X4172801Y-13354793D01*
X4172801Y-13354793D02*
X4163277Y-13392888D01*
X4163277Y-13392888D02*
X4153753Y-13411936D01*
X4153753Y-13411936D02*
X4144229Y-13421460D01*
X4144229Y-13421460D02*
X4125182Y-13430984D01*
X4125182Y-13430984D02*
X4106134Y-13430984D01*
X4106134Y-13430984D02*
X4087086Y-13421460D01*
X4087086Y-13421460D02*
X4077563Y-13411936D01*
X4077563Y-13411936D02*
X4068039Y-13392888D01*
X4068039Y-13392888D02*
X4058515Y-13354793D01*
X4058515Y-13354793D02*
X4058515Y-13307174D01*
X4058515Y-13307174D02*
X4068039Y-13269079D01*
X4068039Y-13269079D02*
X4077563Y-13250031D01*
X4077563Y-13250031D02*
X4087086Y-13240508D01*
X4087086Y-13240508D02*
X4106134Y-13230984D01*
X4258515Y-13411936D02*
X4268039Y-13421460D01*
X4268039Y-13421460D02*
X4258515Y-13430984D01*
X4258515Y-13430984D02*
X4248991Y-13421460D01*
X4248991Y-13421460D02*
X4258515Y-13411936D01*
X4258515Y-13411936D02*
X4258515Y-13430984D01*
X4391848Y-13230984D02*
X4410896Y-13230984D01*
X4410896Y-13230984D02*
X4429944Y-13240508D01*
X4429944Y-13240508D02*
X4439468Y-13250031D01*
X4439468Y-13250031D02*
X4448991Y-13269079D01*
X4448991Y-13269079D02*
X4458515Y-13307174D01*
X4458515Y-13307174D02*
X4458515Y-13354793D01*
X4458515Y-13354793D02*
X4448991Y-13392888D01*
X4448991Y-13392888D02*
X4439468Y-13411936D01*
X4439468Y-13411936D02*
X4429944Y-13421460D01*
X4429944Y-13421460D02*
X4410896Y-13430984D01*
X4410896Y-13430984D02*
X4391848Y-13430984D01*
X4391848Y-13430984D02*
X4372801Y-13421460D01*
X4372801Y-13421460D02*
X4363277Y-13411936D01*
X4363277Y-13411936D02*
X4353753Y-13392888D01*
X4353753Y-13392888D02*
X4344229Y-13354793D01*
X4344229Y-13354793D02*
X4344229Y-13307174D01*
X4344229Y-13307174D02*
X4353753Y-13269079D01*
X4353753Y-13269079D02*
X4363277Y-13250031D01*
X4363277Y-13250031D02*
X4372801Y-13240508D01*
X4372801Y-13240508D02*
X4391848Y-13230984D01*
X4525182Y-13230984D02*
X4648991Y-13230984D01*
X4648991Y-13230984D02*
X4582325Y-13307174D01*
X4582325Y-13307174D02*
X4610896Y-13307174D01*
X4610896Y-13307174D02*
X4629944Y-13316698D01*
X4629944Y-13316698D02*
X4639468Y-13326222D01*
X4639468Y-13326222D02*
X4648991Y-13345269D01*
X4648991Y-13345269D02*
X4648991Y-13392888D01*
X4648991Y-13392888D02*
X4639468Y-13411936D01*
X4639468Y-13411936D02*
X4629944Y-13421460D01*
X4629944Y-13421460D02*
X4610896Y-13430984D01*
X4610896Y-13430984D02*
X4553753Y-13430984D01*
X4553753Y-13430984D02*
X4534706Y-13421460D01*
X4534706Y-13421460D02*
X4525182Y-13411936D01*
X4744229Y-13430984D02*
X4782325Y-13430984D01*
X4782325Y-13430984D02*
X4801372Y-13421460D01*
X4801372Y-13421460D02*
X4810896Y-13411936D01*
X4810896Y-13411936D02*
X4829944Y-13383365D01*
X4829944Y-13383365D02*
X4839468Y-13345269D01*
X4839468Y-13345269D02*
X4839468Y-13269079D01*
X4839468Y-13269079D02*
X4829944Y-13250031D01*
X4829944Y-13250031D02*
X4820420Y-13240508D01*
X4820420Y-13240508D02*
X4801372Y-13230984D01*
X4801372Y-13230984D02*
X4763277Y-13230984D01*
X4763277Y-13230984D02*
X4744229Y-13240508D01*
X4744229Y-13240508D02*
X4734706Y-13250031D01*
X4734706Y-13250031D02*
X4725182Y-13269079D01*
X4725182Y-13269079D02*
X4725182Y-13316698D01*
X4725182Y-13316698D02*
X4734706Y-13335746D01*
X4734706Y-13335746D02*
X4744229Y-13345269D01*
X4744229Y-13345269D02*
X4763277Y-13354793D01*
X4763277Y-13354793D02*
X4801372Y-13354793D01*
X4801372Y-13354793D02*
X4820420Y-13345269D01*
X4820420Y-13345269D02*
X4829944Y-13335746D01*
X4829944Y-13335746D02*
X4839468Y-13316698D01*
X5010896Y-13297650D02*
X5010896Y-13430984D01*
X4963277Y-13221460D02*
X4915658Y-13364317D01*
X4915658Y-13364317D02*
X5039468Y-13364317D01*
X5106134Y-13230984D02*
X5106134Y-13269079D01*
X5182325Y-13230984D02*
X5182325Y-13269079D01*
X5477563Y-13507174D02*
X5468039Y-13497650D01*
X5468039Y-13497650D02*
X5448991Y-13469079D01*
X5448991Y-13469079D02*
X5439468Y-13450031D01*
X5439468Y-13450031D02*
X5429944Y-13421460D01*
X5429944Y-13421460D02*
X5420420Y-13373841D01*
X5420420Y-13373841D02*
X5420420Y-13335746D01*
X5420420Y-13335746D02*
X5429944Y-13288127D01*
X5429944Y-13288127D02*
X5439468Y-13259555D01*
X5439468Y-13259555D02*
X5448991Y-13240508D01*
X5448991Y-13240508D02*
X5468039Y-13211936D01*
X5468039Y-13211936D02*
X5477563Y-13202412D01*
X5544230Y-13250031D02*
X5553753Y-13240508D01*
X5553753Y-13240508D02*
X5572801Y-13230984D01*
X5572801Y-13230984D02*
X5620420Y-13230984D01*
X5620420Y-13230984D02*
X5639468Y-13240508D01*
X5639468Y-13240508D02*
X5648991Y-13250031D01*
X5648991Y-13250031D02*
X5658515Y-13269079D01*
X5658515Y-13269079D02*
X5658515Y-13288127D01*
X5658515Y-13288127D02*
X5648991Y-13316698D01*
X5648991Y-13316698D02*
X5534706Y-13430984D01*
X5534706Y-13430984D02*
X5658515Y-13430984D01*
X5829944Y-13297650D02*
X5829944Y-13430984D01*
X5782325Y-13221460D02*
X5734706Y-13364317D01*
X5734706Y-13364317D02*
X5858515Y-13364317D01*
X6087087Y-13430984D02*
X6087087Y-13230984D01*
X6172801Y-13430984D02*
X6172801Y-13326222D01*
X6172801Y-13326222D02*
X6163277Y-13307174D01*
X6163277Y-13307174D02*
X6144230Y-13297650D01*
X6144230Y-13297650D02*
X6115658Y-13297650D01*
X6115658Y-13297650D02*
X6096610Y-13307174D01*
X6096610Y-13307174D02*
X6087087Y-13316698D01*
X6296610Y-13430984D02*
X6277563Y-13421460D01*
X6277563Y-13421460D02*
X6268039Y-13411936D01*
X6268039Y-13411936D02*
X6258515Y-13392888D01*
X6258515Y-13392888D02*
X6258515Y-13335746D01*
X6258515Y-13335746D02*
X6268039Y-13316698D01*
X6268039Y-13316698D02*
X6277563Y-13307174D01*
X6277563Y-13307174D02*
X6296610Y-13297650D01*
X6296610Y-13297650D02*
X6325182Y-13297650D01*
X6325182Y-13297650D02*
X6344230Y-13307174D01*
X6344230Y-13307174D02*
X6353753Y-13316698D01*
X6353753Y-13316698D02*
X6363277Y-13335746D01*
X6363277Y-13335746D02*
X6363277Y-13392888D01*
X6363277Y-13392888D02*
X6353753Y-13411936D01*
X6353753Y-13411936D02*
X6344230Y-13421460D01*
X6344230Y-13421460D02*
X6325182Y-13430984D01*
X6325182Y-13430984D02*
X6296610Y-13430984D01*
X6477563Y-13430984D02*
X6458515Y-13421460D01*
X6458515Y-13421460D02*
X6448991Y-13402412D01*
X6448991Y-13402412D02*
X6448991Y-13230984D01*
X6629944Y-13421460D02*
X6610896Y-13430984D01*
X6610896Y-13430984D02*
X6572801Y-13430984D01*
X6572801Y-13430984D02*
X6553753Y-13421460D01*
X6553753Y-13421460D02*
X6544230Y-13402412D01*
X6544230Y-13402412D02*
X6544230Y-13326222D01*
X6544230Y-13326222D02*
X6553753Y-13307174D01*
X6553753Y-13307174D02*
X6572801Y-13297650D01*
X6572801Y-13297650D02*
X6610896Y-13297650D01*
X6610896Y-13297650D02*
X6629944Y-13307174D01*
X6629944Y-13307174D02*
X6639468Y-13326222D01*
X6639468Y-13326222D02*
X6639468Y-13345269D01*
X6639468Y-13345269D02*
X6544230Y-13364317D01*
X6715658Y-13421460D02*
X6734706Y-13430984D01*
X6734706Y-13430984D02*
X6772801Y-13430984D01*
X6772801Y-13430984D02*
X6791849Y-13421460D01*
X6791849Y-13421460D02*
X6801372Y-13402412D01*
X6801372Y-13402412D02*
X6801372Y-13392888D01*
X6801372Y-13392888D02*
X6791849Y-13373841D01*
X6791849Y-13373841D02*
X6772801Y-13364317D01*
X6772801Y-13364317D02*
X6744230Y-13364317D01*
X6744230Y-13364317D02*
X6725182Y-13354793D01*
X6725182Y-13354793D02*
X6715658Y-13335746D01*
X6715658Y-13335746D02*
X6715658Y-13326222D01*
X6715658Y-13326222D02*
X6725182Y-13307174D01*
X6725182Y-13307174D02*
X6744230Y-13297650D01*
X6744230Y-13297650D02*
X6772801Y-13297650D01*
X6772801Y-13297650D02*
X6791849Y-13307174D01*
X6868039Y-13507174D02*
X6877563Y-13497650D01*
X6877563Y-13497650D02*
X6896611Y-13469079D01*
X6896611Y-13469079D02*
X6906134Y-13450031D01*
X6906134Y-13450031D02*
X6915658Y-13421460D01*
X6915658Y-13421460D02*
X6925182Y-13373841D01*
X6925182Y-13373841D02*
X6925182Y-13335746D01*
X6925182Y-13335746D02*
X6915658Y-13288127D01*
X6915658Y-13288127D02*
X6906134Y-13259555D01*
X6906134Y-13259555D02*
X6896611Y-13240508D01*
X6896611Y-13240508D02*
X6877563Y-13211936D01*
X6877563Y-13211936D02*
X6868039Y-13202412D01*
D13*
X1827500Y-13678500D02*
X1902500Y-13603500D01*
X1827500Y-13528500D01*
X1752500Y-13603500D01*
X1827500Y-13678500D01*
D11*
X2268039Y-13694984D02*
X2153753Y-13694984D01*
X2210896Y-13694984D02*
X2210896Y-13494984D01*
X2210896Y-13494984D02*
X2191848Y-13523555D01*
X2191848Y-13523555D02*
X2172801Y-13542603D01*
X2172801Y-13542603D02*
X2153753Y-13552127D01*
X2353753Y-13675936D02*
X2363277Y-13685460D01*
X2363277Y-13685460D02*
X2353753Y-13694984D01*
X2353753Y-13694984D02*
X2344229Y-13685460D01*
X2344229Y-13685460D02*
X2353753Y-13675936D01*
X2353753Y-13675936D02*
X2353753Y-13694984D01*
X2544229Y-13494984D02*
X2448991Y-13494984D01*
X2448991Y-13494984D02*
X2439467Y-13590222D01*
X2439467Y-13590222D02*
X2448991Y-13580698D01*
X2448991Y-13580698D02*
X2468039Y-13571174D01*
X2468039Y-13571174D02*
X2515658Y-13571174D01*
X2515658Y-13571174D02*
X2534705Y-13580698D01*
X2534705Y-13580698D02*
X2544229Y-13590222D01*
X2544229Y-13590222D02*
X2553753Y-13609269D01*
X2553753Y-13609269D02*
X2553753Y-13656888D01*
X2553753Y-13656888D02*
X2544229Y-13675936D01*
X2544229Y-13675936D02*
X2534705Y-13685460D01*
X2534705Y-13685460D02*
X2515658Y-13694984D01*
X2515658Y-13694984D02*
X2468039Y-13694984D01*
X2468039Y-13694984D02*
X2448991Y-13685460D01*
X2448991Y-13685460D02*
X2439467Y-13675936D01*
X2677563Y-13494984D02*
X2696610Y-13494984D01*
X2696610Y-13494984D02*
X2715658Y-13504508D01*
X2715658Y-13504508D02*
X2725182Y-13514031D01*
X2725182Y-13514031D02*
X2734705Y-13533079D01*
X2734705Y-13533079D02*
X2744229Y-13571174D01*
X2744229Y-13571174D02*
X2744229Y-13618793D01*
X2744229Y-13618793D02*
X2734705Y-13656888D01*
X2734705Y-13656888D02*
X2725182Y-13675936D01*
X2725182Y-13675936D02*
X2715658Y-13685460D01*
X2715658Y-13685460D02*
X2696610Y-13694984D01*
X2696610Y-13694984D02*
X2677563Y-13694984D01*
X2677563Y-13694984D02*
X2658515Y-13685460D01*
X2658515Y-13685460D02*
X2648991Y-13675936D01*
X2648991Y-13675936D02*
X2639467Y-13656888D01*
X2639467Y-13656888D02*
X2629944Y-13618793D01*
X2629944Y-13618793D02*
X2629944Y-13571174D01*
X2629944Y-13571174D02*
X2639467Y-13533079D01*
X2639467Y-13533079D02*
X2648991Y-13514031D01*
X2648991Y-13514031D02*
X2658515Y-13504508D01*
X2658515Y-13504508D02*
X2677563Y-13494984D01*
X2868039Y-13494984D02*
X2887086Y-13494984D01*
X2887086Y-13494984D02*
X2906134Y-13504508D01*
X2906134Y-13504508D02*
X2915658Y-13514031D01*
X2915658Y-13514031D02*
X2925182Y-13533079D01*
X2925182Y-13533079D02*
X2934705Y-13571174D01*
X2934705Y-13571174D02*
X2934705Y-13618793D01*
X2934705Y-13618793D02*
X2925182Y-13656888D01*
X2925182Y-13656888D02*
X2915658Y-13675936D01*
X2915658Y-13675936D02*
X2906134Y-13685460D01*
X2906134Y-13685460D02*
X2887086Y-13694984D01*
X2887086Y-13694984D02*
X2868039Y-13694984D01*
X2868039Y-13694984D02*
X2848991Y-13685460D01*
X2848991Y-13685460D02*
X2839467Y-13675936D01*
X2839467Y-13675936D02*
X2829943Y-13656888D01*
X2829943Y-13656888D02*
X2820420Y-13618793D01*
X2820420Y-13618793D02*
X2820420Y-13571174D01*
X2820420Y-13571174D02*
X2829943Y-13533079D01*
X2829943Y-13533079D02*
X2839467Y-13514031D01*
X2839467Y-13514031D02*
X2848991Y-13504508D01*
X2848991Y-13504508D02*
X2868039Y-13494984D01*
X3020420Y-13694984D02*
X3020420Y-13561650D01*
X3020420Y-13580698D02*
X3029943Y-13571174D01*
X3029943Y-13571174D02*
X3048991Y-13561650D01*
X3048991Y-13561650D02*
X3077563Y-13561650D01*
X3077563Y-13561650D02*
X3096610Y-13571174D01*
X3096610Y-13571174D02*
X3106134Y-13590222D01*
X3106134Y-13590222D02*
X3106134Y-13694984D01*
X3106134Y-13590222D02*
X3115658Y-13571174D01*
X3115658Y-13571174D02*
X3134705Y-13561650D01*
X3134705Y-13561650D02*
X3163277Y-13561650D01*
X3163277Y-13561650D02*
X3182324Y-13571174D01*
X3182324Y-13571174D02*
X3191848Y-13590222D01*
X3191848Y-13590222D02*
X3191848Y-13694984D01*
X3287086Y-13694984D02*
X3287086Y-13561650D01*
X3287086Y-13580698D02*
X3296610Y-13571174D01*
X3296610Y-13571174D02*
X3315658Y-13561650D01*
X3315658Y-13561650D02*
X3344229Y-13561650D01*
X3344229Y-13561650D02*
X3363277Y-13571174D01*
X3363277Y-13571174D02*
X3372801Y-13590222D01*
X3372801Y-13590222D02*
X3372801Y-13694984D01*
X3372801Y-13590222D02*
X3382324Y-13571174D01*
X3382324Y-13571174D02*
X3401372Y-13561650D01*
X3401372Y-13561650D02*
X3429943Y-13561650D01*
X3429943Y-13561650D02*
X3448991Y-13571174D01*
X3448991Y-13571174D02*
X3458515Y-13590222D01*
X3458515Y-13590222D02*
X3458515Y-13694984D01*
X3848991Y-13485460D02*
X3677563Y-13742603D01*
X4106134Y-13494984D02*
X4125182Y-13494984D01*
X4125182Y-13494984D02*
X4144229Y-13504508D01*
X4144229Y-13504508D02*
X4153753Y-13514031D01*
X4153753Y-13514031D02*
X4163277Y-13533079D01*
X4163277Y-13533079D02*
X4172801Y-13571174D01*
X4172801Y-13571174D02*
X4172801Y-13618793D01*
X4172801Y-13618793D02*
X4163277Y-13656888D01*
X4163277Y-13656888D02*
X4153753Y-13675936D01*
X4153753Y-13675936D02*
X4144229Y-13685460D01*
X4144229Y-13685460D02*
X4125182Y-13694984D01*
X4125182Y-13694984D02*
X4106134Y-13694984D01*
X4106134Y-13694984D02*
X4087086Y-13685460D01*
X4087086Y-13685460D02*
X4077563Y-13675936D01*
X4077563Y-13675936D02*
X4068039Y-13656888D01*
X4068039Y-13656888D02*
X4058515Y-13618793D01*
X4058515Y-13618793D02*
X4058515Y-13571174D01*
X4058515Y-13571174D02*
X4068039Y-13533079D01*
X4068039Y-13533079D02*
X4077563Y-13514031D01*
X4077563Y-13514031D02*
X4087086Y-13504508D01*
X4087086Y-13504508D02*
X4106134Y-13494984D01*
X4258515Y-13675936D02*
X4268039Y-13685460D01*
X4268039Y-13685460D02*
X4258515Y-13694984D01*
X4258515Y-13694984D02*
X4248991Y-13685460D01*
X4248991Y-13685460D02*
X4258515Y-13675936D01*
X4258515Y-13675936D02*
X4258515Y-13694984D01*
X4391848Y-13494984D02*
X4410896Y-13494984D01*
X4410896Y-13494984D02*
X4429944Y-13504508D01*
X4429944Y-13504508D02*
X4439468Y-13514031D01*
X4439468Y-13514031D02*
X4448991Y-13533079D01*
X4448991Y-13533079D02*
X4458515Y-13571174D01*
X4458515Y-13571174D02*
X4458515Y-13618793D01*
X4458515Y-13618793D02*
X4448991Y-13656888D01*
X4448991Y-13656888D02*
X4439468Y-13675936D01*
X4439468Y-13675936D02*
X4429944Y-13685460D01*
X4429944Y-13685460D02*
X4410896Y-13694984D01*
X4410896Y-13694984D02*
X4391848Y-13694984D01*
X4391848Y-13694984D02*
X4372801Y-13685460D01*
X4372801Y-13685460D02*
X4363277Y-13675936D01*
X4363277Y-13675936D02*
X4353753Y-13656888D01*
X4353753Y-13656888D02*
X4344229Y-13618793D01*
X4344229Y-13618793D02*
X4344229Y-13571174D01*
X4344229Y-13571174D02*
X4353753Y-13533079D01*
X4353753Y-13533079D02*
X4363277Y-13514031D01*
X4363277Y-13514031D02*
X4372801Y-13504508D01*
X4372801Y-13504508D02*
X4391848Y-13494984D01*
X4639468Y-13494984D02*
X4544229Y-13494984D01*
X4544229Y-13494984D02*
X4534706Y-13590222D01*
X4534706Y-13590222D02*
X4544229Y-13580698D01*
X4544229Y-13580698D02*
X4563277Y-13571174D01*
X4563277Y-13571174D02*
X4610896Y-13571174D01*
X4610896Y-13571174D02*
X4629944Y-13580698D01*
X4629944Y-13580698D02*
X4639468Y-13590222D01*
X4639468Y-13590222D02*
X4648991Y-13609269D01*
X4648991Y-13609269D02*
X4648991Y-13656888D01*
X4648991Y-13656888D02*
X4639468Y-13675936D01*
X4639468Y-13675936D02*
X4629944Y-13685460D01*
X4629944Y-13685460D02*
X4610896Y-13694984D01*
X4610896Y-13694984D02*
X4563277Y-13694984D01*
X4563277Y-13694984D02*
X4544229Y-13685460D01*
X4544229Y-13685460D02*
X4534706Y-13675936D01*
X4744229Y-13694984D02*
X4782325Y-13694984D01*
X4782325Y-13694984D02*
X4801372Y-13685460D01*
X4801372Y-13685460D02*
X4810896Y-13675936D01*
X4810896Y-13675936D02*
X4829944Y-13647365D01*
X4829944Y-13647365D02*
X4839468Y-13609269D01*
X4839468Y-13609269D02*
X4839468Y-13533079D01*
X4839468Y-13533079D02*
X4829944Y-13514031D01*
X4829944Y-13514031D02*
X4820420Y-13504508D01*
X4820420Y-13504508D02*
X4801372Y-13494984D01*
X4801372Y-13494984D02*
X4763277Y-13494984D01*
X4763277Y-13494984D02*
X4744229Y-13504508D01*
X4744229Y-13504508D02*
X4734706Y-13514031D01*
X4734706Y-13514031D02*
X4725182Y-13533079D01*
X4725182Y-13533079D02*
X4725182Y-13580698D01*
X4725182Y-13580698D02*
X4734706Y-13599746D01*
X4734706Y-13599746D02*
X4744229Y-13609269D01*
X4744229Y-13609269D02*
X4763277Y-13618793D01*
X4763277Y-13618793D02*
X4801372Y-13618793D01*
X4801372Y-13618793D02*
X4820420Y-13609269D01*
X4820420Y-13609269D02*
X4829944Y-13599746D01*
X4829944Y-13599746D02*
X4839468Y-13580698D01*
X5029944Y-13694984D02*
X4915658Y-13694984D01*
X4972801Y-13694984D02*
X4972801Y-13494984D01*
X4972801Y-13494984D02*
X4953753Y-13523555D01*
X4953753Y-13523555D02*
X4934706Y-13542603D01*
X4934706Y-13542603D02*
X4915658Y-13552127D01*
X5106134Y-13494984D02*
X5106134Y-13533079D01*
X5182325Y-13494984D02*
X5182325Y-13533079D01*
X5477563Y-13771174D02*
X5468039Y-13761650D01*
X5468039Y-13761650D02*
X5448991Y-13733079D01*
X5448991Y-13733079D02*
X5439468Y-13714031D01*
X5439468Y-13714031D02*
X5429944Y-13685460D01*
X5429944Y-13685460D02*
X5420420Y-13637841D01*
X5420420Y-13637841D02*
X5420420Y-13599746D01*
X5420420Y-13599746D02*
X5429944Y-13552127D01*
X5429944Y-13552127D02*
X5439468Y-13523555D01*
X5439468Y-13523555D02*
X5448991Y-13504508D01*
X5448991Y-13504508D02*
X5468039Y-13475936D01*
X5468039Y-13475936D02*
X5477563Y-13466412D01*
X5534706Y-13494984D02*
X5658515Y-13494984D01*
X5658515Y-13494984D02*
X5591849Y-13571174D01*
X5591849Y-13571174D02*
X5620420Y-13571174D01*
X5620420Y-13571174D02*
X5639468Y-13580698D01*
X5639468Y-13580698D02*
X5648991Y-13590222D01*
X5648991Y-13590222D02*
X5658515Y-13609269D01*
X5658515Y-13609269D02*
X5658515Y-13656888D01*
X5658515Y-13656888D02*
X5648991Y-13675936D01*
X5648991Y-13675936D02*
X5639468Y-13685460D01*
X5639468Y-13685460D02*
X5620420Y-13694984D01*
X5620420Y-13694984D02*
X5563277Y-13694984D01*
X5563277Y-13694984D02*
X5544230Y-13685460D01*
X5544230Y-13685460D02*
X5534706Y-13675936D01*
X5829944Y-13494984D02*
X5791848Y-13494984D01*
X5791848Y-13494984D02*
X5772801Y-13504508D01*
X5772801Y-13504508D02*
X5763277Y-13514031D01*
X5763277Y-13514031D02*
X5744229Y-13542603D01*
X5744229Y-13542603D02*
X5734706Y-13580698D01*
X5734706Y-13580698D02*
X5734706Y-13656888D01*
X5734706Y-13656888D02*
X5744229Y-13675936D01*
X5744229Y-13675936D02*
X5753753Y-13685460D01*
X5753753Y-13685460D02*
X5772801Y-13694984D01*
X5772801Y-13694984D02*
X5810896Y-13694984D01*
X5810896Y-13694984D02*
X5829944Y-13685460D01*
X5829944Y-13685460D02*
X5839468Y-13675936D01*
X5839468Y-13675936D02*
X5848991Y-13656888D01*
X5848991Y-13656888D02*
X5848991Y-13609269D01*
X5848991Y-13609269D02*
X5839468Y-13590222D01*
X5839468Y-13590222D02*
X5829944Y-13580698D01*
X5829944Y-13580698D02*
X5810896Y-13571174D01*
X5810896Y-13571174D02*
X5772801Y-13571174D01*
X5772801Y-13571174D02*
X5753753Y-13580698D01*
X5753753Y-13580698D02*
X5744229Y-13590222D01*
X5744229Y-13590222D02*
X5734706Y-13609269D01*
X6087087Y-13694984D02*
X6087087Y-13494984D01*
X6172801Y-13694984D02*
X6172801Y-13590222D01*
X6172801Y-13590222D02*
X6163277Y-13571174D01*
X6163277Y-13571174D02*
X6144230Y-13561650D01*
X6144230Y-13561650D02*
X6115658Y-13561650D01*
X6115658Y-13561650D02*
X6096610Y-13571174D01*
X6096610Y-13571174D02*
X6087087Y-13580698D01*
X6296610Y-13694984D02*
X6277563Y-13685460D01*
X6277563Y-13685460D02*
X6268039Y-13675936D01*
X6268039Y-13675936D02*
X6258515Y-13656888D01*
X6258515Y-13656888D02*
X6258515Y-13599746D01*
X6258515Y-13599746D02*
X6268039Y-13580698D01*
X6268039Y-13580698D02*
X6277563Y-13571174D01*
X6277563Y-13571174D02*
X6296610Y-13561650D01*
X6296610Y-13561650D02*
X6325182Y-13561650D01*
X6325182Y-13561650D02*
X6344230Y-13571174D01*
X6344230Y-13571174D02*
X6353753Y-13580698D01*
X6353753Y-13580698D02*
X6363277Y-13599746D01*
X6363277Y-13599746D02*
X6363277Y-13656888D01*
X6363277Y-13656888D02*
X6353753Y-13675936D01*
X6353753Y-13675936D02*
X6344230Y-13685460D01*
X6344230Y-13685460D02*
X6325182Y-13694984D01*
X6325182Y-13694984D02*
X6296610Y-13694984D01*
X6477563Y-13694984D02*
X6458515Y-13685460D01*
X6458515Y-13685460D02*
X6448991Y-13666412D01*
X6448991Y-13666412D02*
X6448991Y-13494984D01*
X6629944Y-13685460D02*
X6610896Y-13694984D01*
X6610896Y-13694984D02*
X6572801Y-13694984D01*
X6572801Y-13694984D02*
X6553753Y-13685460D01*
X6553753Y-13685460D02*
X6544230Y-13666412D01*
X6544230Y-13666412D02*
X6544230Y-13590222D01*
X6544230Y-13590222D02*
X6553753Y-13571174D01*
X6553753Y-13571174D02*
X6572801Y-13561650D01*
X6572801Y-13561650D02*
X6610896Y-13561650D01*
X6610896Y-13561650D02*
X6629944Y-13571174D01*
X6629944Y-13571174D02*
X6639468Y-13590222D01*
X6639468Y-13590222D02*
X6639468Y-13609269D01*
X6639468Y-13609269D02*
X6544230Y-13628317D01*
X6715658Y-13685460D02*
X6734706Y-13694984D01*
X6734706Y-13694984D02*
X6772801Y-13694984D01*
X6772801Y-13694984D02*
X6791849Y-13685460D01*
X6791849Y-13685460D02*
X6801372Y-13666412D01*
X6801372Y-13666412D02*
X6801372Y-13656888D01*
X6801372Y-13656888D02*
X6791849Y-13637841D01*
X6791849Y-13637841D02*
X6772801Y-13628317D01*
X6772801Y-13628317D02*
X6744230Y-13628317D01*
X6744230Y-13628317D02*
X6725182Y-13618793D01*
X6725182Y-13618793D02*
X6715658Y-13599746D01*
X6715658Y-13599746D02*
X6715658Y-13590222D01*
X6715658Y-13590222D02*
X6725182Y-13571174D01*
X6725182Y-13571174D02*
X6744230Y-13561650D01*
X6744230Y-13561650D02*
X6772801Y-13561650D01*
X6772801Y-13561650D02*
X6791849Y-13571174D01*
X7039468Y-13618793D02*
X7191849Y-13618793D01*
X7115658Y-13694984D02*
X7115658Y-13542603D01*
X7525182Y-13561650D02*
X7525182Y-13694984D01*
X7477563Y-13485460D02*
X7429944Y-13628317D01*
X7429944Y-13628317D02*
X7553753Y-13628317D01*
X7772801Y-13685460D02*
X7791849Y-13694984D01*
X7791849Y-13694984D02*
X7829944Y-13694984D01*
X7829944Y-13694984D02*
X7848992Y-13685460D01*
X7848992Y-13685460D02*
X7858515Y-13666412D01*
X7858515Y-13666412D02*
X7858515Y-13656888D01*
X7858515Y-13656888D02*
X7848992Y-13637841D01*
X7848992Y-13637841D02*
X7829944Y-13628317D01*
X7829944Y-13628317D02*
X7801373Y-13628317D01*
X7801373Y-13628317D02*
X7782325Y-13618793D01*
X7782325Y-13618793D02*
X7772801Y-13599746D01*
X7772801Y-13599746D02*
X7772801Y-13590222D01*
X7772801Y-13590222D02*
X7782325Y-13571174D01*
X7782325Y-13571174D02*
X7801373Y-13561650D01*
X7801373Y-13561650D02*
X7829944Y-13561650D01*
X7829944Y-13561650D02*
X7848992Y-13571174D01*
X7972801Y-13694984D02*
X7953754Y-13685460D01*
X7953754Y-13685460D02*
X7944230Y-13666412D01*
X7944230Y-13666412D02*
X7944230Y-13494984D01*
X8077563Y-13694984D02*
X8058515Y-13685460D01*
X8058515Y-13685460D02*
X8048992Y-13675936D01*
X8048992Y-13675936D02*
X8039468Y-13656888D01*
X8039468Y-13656888D02*
X8039468Y-13599746D01*
X8039468Y-13599746D02*
X8048992Y-13580698D01*
X8048992Y-13580698D02*
X8058515Y-13571174D01*
X8058515Y-13571174D02*
X8077563Y-13561650D01*
X8077563Y-13561650D02*
X8106135Y-13561650D01*
X8106135Y-13561650D02*
X8125182Y-13571174D01*
X8125182Y-13571174D02*
X8134706Y-13580698D01*
X8134706Y-13580698D02*
X8144230Y-13599746D01*
X8144230Y-13599746D02*
X8144230Y-13656888D01*
X8144230Y-13656888D02*
X8134706Y-13675936D01*
X8134706Y-13675936D02*
X8125182Y-13685460D01*
X8125182Y-13685460D02*
X8106135Y-13694984D01*
X8106135Y-13694984D02*
X8077563Y-13694984D01*
X8201373Y-13561650D02*
X8277563Y-13561650D01*
X8229944Y-13494984D02*
X8229944Y-13666412D01*
X8229944Y-13666412D02*
X8239468Y-13685460D01*
X8239468Y-13685460D02*
X8258515Y-13694984D01*
X8258515Y-13694984D02*
X8277563Y-13694984D01*
X8334706Y-13685460D02*
X8353754Y-13694984D01*
X8353754Y-13694984D02*
X8391849Y-13694984D01*
X8391849Y-13694984D02*
X8410897Y-13685460D01*
X8410897Y-13685460D02*
X8420420Y-13666412D01*
X8420420Y-13666412D02*
X8420420Y-13656888D01*
X8420420Y-13656888D02*
X8410897Y-13637841D01*
X8410897Y-13637841D02*
X8391849Y-13628317D01*
X8391849Y-13628317D02*
X8363277Y-13628317D01*
X8363277Y-13628317D02*
X8344230Y-13618793D01*
X8344230Y-13618793D02*
X8334706Y-13599746D01*
X8334706Y-13599746D02*
X8334706Y-13590222D01*
X8334706Y-13590222D02*
X8344230Y-13571174D01*
X8344230Y-13571174D02*
X8363277Y-13561650D01*
X8363277Y-13561650D02*
X8391849Y-13561650D01*
X8391849Y-13561650D02*
X8410897Y-13571174D01*
X8487087Y-13771174D02*
X8496611Y-13761650D01*
X8496611Y-13761650D02*
X8515658Y-13733079D01*
X8515658Y-13733079D02*
X8525182Y-13714031D01*
X8525182Y-13714031D02*
X8534706Y-13685460D01*
X8534706Y-13685460D02*
X8544230Y-13637841D01*
X8544230Y-13637841D02*
X8544230Y-13599746D01*
X8544230Y-13599746D02*
X8534706Y-13552127D01*
X8534706Y-13552127D02*
X8525182Y-13523555D01*
X8525182Y-13523555D02*
X8515658Y-13504508D01*
X8515658Y-13504508D02*
X8496611Y-13475936D01*
X8496611Y-13475936D02*
X8487087Y-13466412D01*
M02*
