M48
; DRILL file {KiCad 8.0.6-1.fc40} date 2024-10-26T10:38:34+1100
; FORMAT={-:-/ absolute / inch / decimal}
; #@! TF.CreationDate,2024-10-26T10:38:34+11:00
; #@! TF.GenerationSoftware,Kicad,Pcbnew,8.0.6-1.fc40
; #@! TF.FileFunction,Plated,1,2,PTH
FMAT,2
INCH
; #@! TA.AperFunction,Plated,PTH,ViaDrill
T1C0.0118
; #@! TA.AperFunction,Plated,PTH,ComponentDrill
T2C0.0276
; #@! TA.AperFunction,Plated,PTH,ComponentDrill
T3C0.0315
; #@! TA.AperFunction,Plated,PTH,ComponentDrill
T4C0.0394
; #@! TA.AperFunction,Plated,PTH,ComponentDrill
T5C0.0591
%
G90
G05
T1
X1.313Y-3.372
X1.3189Y-1.6339
X1.5945Y-0.9252
X1.5945Y-1.5157
X1.6929Y-1.2402
X2.4606Y-1.7717
X2.5197Y-1.8307
X2.815Y-1.6339
X3.0524Y-1.6942
X3.0709Y-1.5355
X3.4843Y-2.5591
X3.563Y-2.5591
X3.9764Y-1.5118
T2
X0.8071Y-1.7791
X0.8071Y-2.0791
X0.8071Y-2.5394
X0.8071Y-2.8394
X0.8071Y-3.3268
X0.8071Y-3.6268
X0.8071Y-4.0823
X0.8071Y-4.3823
X3.1449Y-1.4567
X3.4449Y-1.4567
X3.6098Y-1.4764
X3.9098Y-1.4764
T3
X0.9524Y-2.3425
X0.972Y-3.0906
X0.972Y-3.8386
X1.0039Y-4.5866
X1.2524Y-2.3425
X1.272Y-3.0906
X1.272Y-3.8386
X1.3039Y-4.5866
X1.3847Y-0.8071
X1.4634Y-0.8071
X1.5422Y-0.8071
X1.6209Y-0.8071
X1.7201Y-2.3425
X1.7201Y-3.0906
X1.7201Y-3.8386
X1.7201Y-4.6063
X2.0201Y-2.3425
X2.0201Y-3.0906
X2.0201Y-3.8386
X2.0201Y-4.6063
X2.3465Y-0.9055
X2.3465Y-1.2055
X2.4465Y-0.9055
X2.4465Y-1.2055
X2.4484Y-2.3425
X2.4484Y-4.5866
X2.4681Y-3.0906
X2.4681Y-3.8386
X2.5465Y-0.9055
X2.5465Y-1.2055
X2.6465Y-0.9055
X2.6465Y-1.2055
X2.7465Y-0.9055
X2.7465Y-1.2055
X2.7484Y-2.3425
X2.7484Y-4.5866
X2.7681Y-3.0906
X2.7681Y-3.8386
X2.8465Y-0.9055
X2.8465Y-1.2055
X2.9465Y-0.9055
X2.9465Y-1.2055
X3.0465Y-0.9055
X3.0465Y-1.2055
X3.1465Y-0.9055
X3.1465Y-1.2055
X3.2161Y-3.8386
X3.2161Y-4.5866
X3.2236Y-3.0906
X3.2465Y-0.9055
X3.2465Y-1.2055
X3.2555Y-2.2638
X3.3465Y-0.9055
X3.3465Y-1.2055
X3.4465Y-0.9055
X3.4465Y-1.2055
X3.5161Y-3.8386
X3.5161Y-4.5866
X3.5236Y-3.0906
X3.5465Y-0.9055
X3.5465Y-1.2055
X3.5555Y-2.2638
X3.6465Y-0.9055
X3.6465Y-1.2055
X4.1413Y-3.8583
X4.1413Y-4.5669
X4.1488Y-3.0906
X4.161Y-2.2638
X4.4413Y-3.8583
X4.4413Y-4.5669
X4.4488Y-3.0906
X4.461Y-2.2638
T4
X0.9236Y-0.935
X0.9236Y-1.5354
X1.0236Y-0.935
X1.0236Y-1.5354
X1.1236Y-0.935
X1.1236Y-1.5354
X1.2236Y-0.935
X1.2236Y-1.5354
X1.3236Y-0.935
X1.3236Y-1.5354
X1.4236Y-0.935
X1.4236Y-1.5354
X1.5236Y-0.935
X1.5236Y-1.5354
X3.061Y-1.7717
X3.061Y-1.8701
X3.061Y-1.9685
X3.6319Y-1.7717
X3.6319Y-1.9685
X3.8681Y-1.7717
X3.8681Y-1.8701
X3.8681Y-1.9685
X4.439Y-1.7717
X4.439Y-1.9685
T5
X0.922Y-1.8685
X0.922Y-2.6165
X0.9236Y-3.372
X0.9236Y-4.1201
X1.022Y-2.1185
X1.022Y-2.8665
X1.0236Y-3.622
X1.0236Y-4.3701
X1.6701Y-1.8685
X1.6701Y-2.6165
X1.6701Y-4.1201
X1.6732Y-3.3661
X1.7701Y-2.1185
X1.7701Y-2.8665
X1.7701Y-4.3701
X1.7732Y-3.6161
X2.4181Y-2.6165
X2.4181Y-4.1142
X2.4197Y-3.3614
X2.4213Y-1.8701
X2.5181Y-2.8665
X2.5181Y-4.3642
X2.5197Y-3.6114
X2.5213Y-2.1201
X3.1661Y-2.6165
X3.1677Y-4.1142
X3.1693Y-3.3646
X3.2661Y-2.8665
X3.2677Y-4.3642
X3.2693Y-3.6146
X3.9142Y-2.6165
X3.9142Y-3.3646
X3.9142Y-4.1094
X4.0142Y-2.8665
X4.0142Y-3.6146
X4.0142Y-4.3594
T5
G00X3.3307Y-1.6496
M15
G01X3.3819Y-1.6496
M16
G05
G00X3.3307Y-2.0906
M15
G01X3.3819Y-2.0906
M16
G05
G00X4.1378Y-1.6496
M15
G01X4.189Y-1.6496
M16
G05
G00X4.1378Y-2.0906
M15
G01X4.189Y-2.0906
M16
G05
M30
