%TF.GenerationSoftware,KiCad,Pcbnew,8.0.6-1.fc40*%
%TF.CreationDate,2024-10-26T10:37:40+11:00*%
%TF.ProjectId,Davepad,44617665-7061-4642-9e6b-696361645f70,rev?*%
%TF.SameCoordinates,Original*%
%TF.FileFunction,Soldermask,Bot*%
%TF.FilePolarity,Negative*%
%FSLAX46Y46*%
G04 Gerber Fmt 4.6, Leading zero omitted, Abs format (unit mm)*
G04 Created by KiCad (PCBNEW 8.0.6-1.fc40) date 2024-10-26 10:37:40*
%MOMM*%
%LPD*%
G01*
G04 APERTURE LIST*
%ADD10R,1.350000X1.350000*%
%ADD11O,1.350000X1.350000*%
%ADD12C,2.200000*%
%ADD13O,1.600000X1.600000*%
%ADD14R,1.600000X1.600000*%
%ADD15C,1.700000*%
%ADD16C,4.000000*%
%ADD17R,1.700000X1.700000*%
%ADD18C,2.000000*%
%ADD19R,3.200000X2.000000*%
%ADD20R,2.000000X2.000000*%
%ADD21O,1.400000X1.400000*%
%ADD22C,1.400000*%
G04 APERTURE END LIST*
D10*
%TO.C,J1*%
X35171138Y-20500000D03*
D11*
X37171138Y-20500000D03*
X39171138Y-20500000D03*
X41171138Y-20500000D03*
%TD*%
D12*
%TO.C,REF\u002A\u002A*%
X38000000Y-116500000D03*
%TD*%
%TO.C,REF\u002A\u002A*%
X116500000Y-116500000D03*
%TD*%
D13*
%TO.C,D3*%
X24690000Y-97500000D03*
D14*
X32310000Y-97500000D03*
%TD*%
D12*
%TO.C,SW3*%
X26000000Y-92000000D03*
X23460000Y-85650000D03*
D15*
X28540000Y-83110000D03*
D16*
X28540000Y-88190000D03*
D15*
X28540000Y-93270000D03*
%TD*%
D12*
%TO.C,SW16*%
X83000000Y-110850000D03*
X80460000Y-104500000D03*
D15*
X85540000Y-101960000D03*
D16*
X85540000Y-107040000D03*
D15*
X85540000Y-112120000D03*
%TD*%
D12*
%TO.C,SW12*%
X63960000Y-110850000D03*
X61420000Y-104500000D03*
D15*
X66500000Y-101960000D03*
D16*
X66500000Y-107040000D03*
D15*
X66500000Y-112120000D03*
%TD*%
D12*
%TO.C,SW11*%
X64000000Y-91730000D03*
X61460000Y-85380000D03*
D15*
X66540000Y-82840000D03*
D16*
X66540000Y-87920000D03*
D15*
X66540000Y-93000000D03*
%TD*%
D12*
%TO.C,SW14*%
X82960000Y-72810000D03*
X80420000Y-66460000D03*
D15*
X85500000Y-63920000D03*
D16*
X85500000Y-69000000D03*
D15*
X85500000Y-74080000D03*
%TD*%
%TO.C,U1*%
X23460000Y-23750000D03*
X26000000Y-23750000D03*
X28540000Y-23750000D03*
X31080000Y-23750000D03*
X33620000Y-23750000D03*
X36160000Y-23750000D03*
X38700000Y-23750000D03*
X38700000Y-39000000D03*
X36160000Y-39000000D03*
X33620000Y-39000000D03*
X31080000Y-39000000D03*
X28540000Y-39000000D03*
X26000000Y-39000000D03*
D17*
X23460000Y-39000000D03*
%TD*%
D12*
%TO.C,SW7*%
X45040000Y-91850000D03*
X42500000Y-85500000D03*
D15*
X47580000Y-82960000D03*
D16*
X47580000Y-88040000D03*
D15*
X47580000Y-93120000D03*
%TD*%
D12*
%TO.C,SW18*%
X101960000Y-72810000D03*
X99420000Y-66460000D03*
D15*
X104500000Y-63920000D03*
D16*
X104500000Y-69000000D03*
D15*
X104500000Y-74080000D03*
%TD*%
D18*
%TO.C,SW13*%
X92250000Y-45000000D03*
X92250000Y-50000000D03*
D19*
X85250000Y-53100000D03*
X85250000Y-41900000D03*
D18*
X77750000Y-47500000D03*
X77750000Y-50000000D03*
D20*
X77750000Y-45000000D03*
%TD*%
D21*
%TO.C,R7*%
X20500000Y-84500000D03*
D22*
X20500000Y-92120000D03*
%TD*%
D18*
%TO.C,SW17*%
X112750000Y-45000000D03*
X112750000Y-50000000D03*
D19*
X105750000Y-53100000D03*
X105750000Y-41900000D03*
D18*
X98250000Y-47500000D03*
X98250000Y-50000000D03*
D20*
X98250000Y-45000000D03*
%TD*%
D13*
%TO.C,D4*%
X25500000Y-116500000D03*
D14*
X33120000Y-116500000D03*
%TD*%
D13*
%TO.C,D18*%
X113310000Y-57500000D03*
D14*
X105690000Y-57500000D03*
%TD*%
D12*
%TO.C,SW9*%
X64040000Y-53850000D03*
X61500000Y-47500000D03*
D15*
X66580000Y-44960000D03*
D16*
X66580000Y-50040000D03*
D15*
X66580000Y-55120000D03*
%TD*%
D13*
%TO.C,D2*%
X24690000Y-78500000D03*
D14*
X32310000Y-78500000D03*
%TD*%
D12*
%TO.C,SW15*%
X83040000Y-91810000D03*
X80500000Y-85460000D03*
D15*
X85580000Y-82920000D03*
D16*
X85580000Y-88000000D03*
D15*
X85580000Y-93080000D03*
%TD*%
D13*
%TO.C,D12*%
X62690000Y-97500000D03*
D14*
X70310000Y-97500000D03*
%TD*%
D12*
%TO.C,SW2*%
X25960000Y-72810000D03*
X23420000Y-66460000D03*
D15*
X28500000Y-63920000D03*
D16*
X28500000Y-69000000D03*
D15*
X28500000Y-74080000D03*
%TD*%
D13*
%TO.C,D10*%
X62190000Y-59500000D03*
D14*
X69810000Y-59500000D03*
%TD*%
D12*
%TO.C,SW4*%
X26000000Y-111000000D03*
X23460000Y-104650000D03*
D15*
X28540000Y-102110000D03*
D16*
X28540000Y-107190000D03*
D15*
X28540000Y-112270000D03*
%TD*%
D12*
%TO.C,SW19*%
X101960000Y-91810000D03*
X99420000Y-85460000D03*
D15*
X104500000Y-82920000D03*
D16*
X104500000Y-88000000D03*
D15*
X104500000Y-93080000D03*
%TD*%
D12*
%TO.C,SW10*%
X63960000Y-72810000D03*
X61420000Y-66460000D03*
D15*
X66500000Y-63920000D03*
D16*
X66500000Y-69000000D03*
D15*
X66500000Y-74080000D03*
%TD*%
D13*
%TO.C,D7*%
X43690000Y-97500000D03*
D14*
X51310000Y-97500000D03*
%TD*%
D21*
%TO.C,R11*%
X79880000Y-37000000D03*
D22*
X87500000Y-37000000D03*
%TD*%
D12*
%TO.C,REF\u002A\u002A*%
X46000000Y-34000000D03*
%TD*%
D13*
%TO.C,D11*%
X62690000Y-78500000D03*
D14*
X70310000Y-78500000D03*
%TD*%
D12*
%TO.C,SW6*%
X44960000Y-72810000D03*
X42420000Y-66460000D03*
D15*
X47500000Y-63920000D03*
D16*
X47500000Y-69000000D03*
D15*
X47500000Y-74080000D03*
%TD*%
D21*
%TO.C,R6*%
X20500000Y-103690000D03*
D22*
X20500000Y-111310000D03*
%TD*%
D12*
%TO.C,SW5*%
X44960000Y-53810000D03*
X42420000Y-47460000D03*
D15*
X47500000Y-44920000D03*
D16*
X47500000Y-50000000D03*
D15*
X47500000Y-55080000D03*
%TD*%
D12*
%TO.C,SW1*%
X25960000Y-53810000D03*
X23420000Y-47460000D03*
D15*
X28500000Y-44920000D03*
D16*
X28500000Y-50000000D03*
D15*
X28500000Y-55080000D03*
%TD*%
D12*
%TO.C,SW20*%
X101960000Y-110730000D03*
X99420000Y-104380000D03*
D15*
X104500000Y-101840000D03*
D16*
X104500000Y-106920000D03*
D15*
X104500000Y-112000000D03*
%TD*%
D13*
%TO.C,D20*%
X105190000Y-98000000D03*
D14*
X112810000Y-98000000D03*
%TD*%
D13*
%TO.C,D1*%
X24190000Y-59500000D03*
D14*
X31810000Y-59500000D03*
%TD*%
D13*
%TO.C,D6*%
X43690000Y-78500000D03*
D14*
X51310000Y-78500000D03*
%TD*%
D13*
%TO.C,D17*%
X81690000Y-116500000D03*
D14*
X89310000Y-116500000D03*
%TD*%
D12*
%TO.C,REF\u002A\u002A*%
X116500000Y-23000000D03*
%TD*%
D13*
%TO.C,D14*%
X90310000Y-57500000D03*
D14*
X82690000Y-57500000D03*
%TD*%
D13*
%TO.C,D5*%
X43690000Y-59500000D03*
D14*
X51310000Y-59500000D03*
%TD*%
D13*
%TO.C,D21*%
X105190000Y-116000000D03*
D14*
X112810000Y-116000000D03*
%TD*%
D13*
%TO.C,D13*%
X62190000Y-116500000D03*
D14*
X69810000Y-116500000D03*
%TD*%
D13*
%TO.C,D15*%
X81880000Y-78500000D03*
D14*
X89500000Y-78500000D03*
%TD*%
D21*
%TO.C,R10*%
X99310000Y-37500000D03*
D22*
X91690000Y-37500000D03*
%TD*%
D21*
%TO.C,R8*%
X20500000Y-64500000D03*
D22*
X20500000Y-72120000D03*
%TD*%
D13*
%TO.C,D8*%
X43690000Y-117000000D03*
D14*
X51310000Y-117000000D03*
%TD*%
D13*
%TO.C,D16*%
X81690000Y-97500000D03*
D14*
X89310000Y-97500000D03*
%TD*%
D21*
%TO.C,R9*%
X20500000Y-45190000D03*
D22*
X20500000Y-52810000D03*
%TD*%
D13*
%TO.C,D19*%
X105380000Y-78500000D03*
D14*
X113000000Y-78500000D03*
%TD*%
D12*
%TO.C,SW8*%
X44960000Y-111000000D03*
X42420000Y-104650000D03*
D15*
X47500000Y-102110000D03*
D16*
X47500000Y-107190000D03*
D15*
X47500000Y-112270000D03*
%TD*%
D13*
%TO.C,U2*%
X59600000Y-23000000D03*
X62140000Y-23000000D03*
X64680000Y-23000000D03*
X67220000Y-23000000D03*
X69760000Y-23000000D03*
X72300000Y-23000000D03*
X74840000Y-23000000D03*
X77380000Y-23000000D03*
X79920000Y-23000000D03*
X82460000Y-23000000D03*
X85000000Y-23000000D03*
X87540000Y-23000000D03*
X90080000Y-23000000D03*
X92620000Y-23000000D03*
X92620000Y-30620000D03*
X90080000Y-30620000D03*
X87540000Y-30620000D03*
X85000000Y-30620000D03*
X82460000Y-30620000D03*
X79920000Y-30620000D03*
X77380000Y-30620000D03*
X74840000Y-30620000D03*
X72300000Y-30620000D03*
X69760000Y-30620000D03*
X67220000Y-30620000D03*
X64680000Y-30620000D03*
X62140000Y-30620000D03*
D14*
X59600000Y-30620000D03*
%TD*%
M02*
