M48
; DRILL file {KiCad 8.0.6-1.fc40} date 2024-10-26T10:44:07+1100
; FORMAT={-:-/ absolute / inch / decimal}
; #@! TF.CreationDate,2024-10-26T10:44:07+11:00
; #@! TF.GenerationSoftware,Kicad,Pcbnew,8.0.6-1.fc40
; #@! TF.FileFunction,NonPlated,1,2,NPTH
FMAT,2
INCH
; #@! TA.AperFunction,NonPlated,NPTH,ComponentDrill
T1C0.0669
; #@! TA.AperFunction,NonPlated,NPTH,ComponentDrill
T2C0.0866
; #@! TA.AperFunction,NonPlated,NPTH,ComponentDrill
T3C0.1575
%
G90
G05
T1
X1.122Y-1.7685
X1.122Y-2.1685
X1.122Y-2.5165
X1.122Y-2.9165
X1.1236Y-3.272
X1.1236Y-3.672
X1.1236Y-4.0201
X1.1236Y-4.4201
X1.8701Y-1.7685
X1.8701Y-2.1685
X1.8701Y-2.5165
X1.8701Y-2.9165
X1.8701Y-4.0201
X1.8701Y-4.4201
X1.8732Y-3.2661
X1.8732Y-3.6661
X2.6181Y-2.5165
X2.6181Y-2.9165
X2.6181Y-4.0142
X2.6181Y-4.4142
X2.6197Y-3.2614
X2.6197Y-3.6614
X2.6213Y-1.7701
X2.6213Y-2.1701
X3.3661Y-2.5165
X3.3661Y-2.9165
X3.3677Y-4.0142
X3.3677Y-4.4142
X3.3693Y-3.2646
X3.3693Y-3.6646
X4.1142Y-2.5165
X4.1142Y-2.9165
X4.1142Y-3.2646
X4.1142Y-3.6646
X4.1142Y-4.0094
X4.1142Y-4.4094
T2
X1.4961Y-4.5866
X1.811Y-1.3386
X4.5866Y-0.9055
X4.5866Y-4.5866
T3
X1.122Y-1.9685
X1.122Y-2.7165
X1.1236Y-3.472
X1.1236Y-4.2201
X1.8701Y-1.9685
X1.8701Y-2.7165
X1.8701Y-4.2201
X1.8732Y-3.4661
X2.6181Y-2.7165
X2.6181Y-4.2142
X2.6197Y-3.4614
X2.6213Y-1.9701
X3.3661Y-2.7165
X3.3677Y-4.2142
X3.3693Y-3.4646
X4.1142Y-2.7165
X4.1142Y-3.4646
X4.1142Y-4.2094
M30
