%TF.GenerationSoftware,KiCad,Pcbnew,8.0.6-1.fc40*%
%TF.CreationDate,2024-10-26T10:44:11+11:00*%
%TF.ProjectId,Davepad,44617665-7061-4642-9e6b-696361645f70,rev?*%
%TF.SameCoordinates,Original*%
%TF.FileFunction,Drillmap*%
%TF.FilePolarity,Positive*%
%FSLAX45Y45*%
G04 Gerber Fmt 4.5, Leading zero omitted, Abs format (unit mm)*
G04 Created by KiCad (PCBNEW 8.0.6-1.fc40) date 2024-10-26 10:44:11*
%MOMM*%
%LPD*%
G01*
G04 APERTURE LIST*
%ADD10C,0.050000*%
%ADD11C,0.200000*%
%ADD12C,0.170000*%
%ADD13C,0.220000*%
%ADD14C,0.400000*%
G04 APERTURE END LIST*
D10*
X1905000Y-1905000D02*
X11905000Y-1905000D01*
X11905000Y-11905000D01*
X1905000Y-11905000D01*
X1905000Y-1905000D01*
D11*
D12*
X2765000Y-4407000D02*
X2935000Y-4577000D01*
X2935000Y-4407000D02*
X2765000Y-4577000D01*
X2765000Y-5423000D02*
X2935000Y-5593000D01*
X2935000Y-5423000D02*
X2765000Y-5593000D01*
X2765000Y-6307000D02*
X2935000Y-6477000D01*
X2935000Y-6307000D02*
X2765000Y-6477000D01*
X2765000Y-7323000D02*
X2935000Y-7493000D01*
X2935000Y-7323000D02*
X2765000Y-7493000D01*
X2769000Y-8226000D02*
X2939000Y-8396000D01*
X2939000Y-8226000D02*
X2769000Y-8396000D01*
X2769000Y-9242000D02*
X2939000Y-9412000D01*
X2939000Y-9242000D02*
X2769000Y-9412000D01*
X2769000Y-10126000D02*
X2939000Y-10296000D01*
X2939000Y-10126000D02*
X2769000Y-10296000D01*
X2769000Y-11142000D02*
X2939000Y-11312000D01*
X2939000Y-11142000D02*
X2769000Y-11312000D01*
X4665000Y-4407000D02*
X4835000Y-4577000D01*
X4835000Y-4407000D02*
X4665000Y-4577000D01*
X4665000Y-5423000D02*
X4835000Y-5593000D01*
X4835000Y-5423000D02*
X4665000Y-5593000D01*
X4665000Y-6307000D02*
X4835000Y-6477000D01*
X4835000Y-6307000D02*
X4665000Y-6477000D01*
X4665000Y-7323000D02*
X4835000Y-7493000D01*
X4835000Y-7323000D02*
X4665000Y-7493000D01*
X4665000Y-10126000D02*
X4835000Y-10296000D01*
X4835000Y-10126000D02*
X4665000Y-10296000D01*
X4665000Y-11142000D02*
X4835000Y-11312000D01*
X4835000Y-11142000D02*
X4665000Y-11312000D01*
X4673000Y-8211000D02*
X4843000Y-8381000D01*
X4843000Y-8211000D02*
X4673000Y-8381000D01*
X4673000Y-9227000D02*
X4843000Y-9397000D01*
X4843000Y-9227000D02*
X4673000Y-9397000D01*
X6565000Y-6307000D02*
X6735000Y-6477000D01*
X6735000Y-6307000D02*
X6565000Y-6477000D01*
X6565000Y-7323000D02*
X6735000Y-7493000D01*
X6735000Y-7323000D02*
X6565000Y-7493000D01*
X6565000Y-10111000D02*
X6735000Y-10281000D01*
X6735000Y-10111000D02*
X6565000Y-10281000D01*
X6565000Y-11127000D02*
X6735000Y-11297000D01*
X6735000Y-11127000D02*
X6565000Y-11297000D01*
X6569000Y-8199000D02*
X6739000Y-8369000D01*
X6739000Y-8199000D02*
X6569000Y-8369000D01*
X6569000Y-9215000D02*
X6739000Y-9385000D01*
X6739000Y-9215000D02*
X6569000Y-9385000D01*
X6573000Y-4411000D02*
X6743000Y-4581000D01*
X6743000Y-4411000D02*
X6573000Y-4581000D01*
X6573000Y-5427000D02*
X6743000Y-5597000D01*
X6743000Y-5427000D02*
X6573000Y-5597000D01*
X8465000Y-6307000D02*
X8635000Y-6477000D01*
X8635000Y-6307000D02*
X8465000Y-6477000D01*
X8465000Y-7323000D02*
X8635000Y-7493000D01*
X8635000Y-7323000D02*
X8465000Y-7493000D01*
X8469000Y-10111000D02*
X8639000Y-10281000D01*
X8639000Y-10111000D02*
X8469000Y-10281000D01*
X8469000Y-11127000D02*
X8639000Y-11297000D01*
X8639000Y-11127000D02*
X8469000Y-11297000D01*
X8473000Y-8207000D02*
X8643000Y-8377000D01*
X8643000Y-8207000D02*
X8473000Y-8377000D01*
X8473000Y-9223000D02*
X8643000Y-9393000D01*
X8643000Y-9223000D02*
X8473000Y-9393000D01*
X10365000Y-6307000D02*
X10535000Y-6477000D01*
X10535000Y-6307000D02*
X10365000Y-6477000D01*
X10365000Y-7323000D02*
X10535000Y-7493000D01*
X10535000Y-7323000D02*
X10365000Y-7493000D01*
X10365000Y-8207000D02*
X10535000Y-8377000D01*
X10535000Y-8207000D02*
X10365000Y-8377000D01*
X10365000Y-9223000D02*
X10535000Y-9393000D01*
X10535000Y-9223000D02*
X10365000Y-9393000D01*
X10365000Y-10099000D02*
X10535000Y-10269000D01*
X10535000Y-10099000D02*
X10365000Y-10269000D01*
X10365000Y-11115000D02*
X10535000Y-11285000D01*
X10535000Y-11115000D02*
X10365000Y-11285000D01*
D13*
X3910000Y-11650000D02*
G75*
G02*
X3690000Y-11650000I-110000J0D01*
G01*
X3690000Y-11650000D02*
G75*
G02*
X3910000Y-11650000I110000J0D01*
G01*
X4710000Y-3400000D02*
G75*
G02*
X4490000Y-3400000I-110000J0D01*
G01*
X4490000Y-3400000D02*
G75*
G02*
X4710000Y-3400000I110000J0D01*
G01*
X11760000Y-2300000D02*
G75*
G02*
X11540000Y-2300000I-110000J0D01*
G01*
X11540000Y-2300000D02*
G75*
G02*
X11760000Y-2300000I110000J0D01*
G01*
X11760000Y-11650000D02*
G75*
G02*
X11540000Y-11650000I-110000J0D01*
G01*
X11540000Y-11650000D02*
G75*
G02*
X11760000Y-11650000I110000J0D01*
G01*
D14*
X2850000Y-4800000D02*
X2850000Y-5200000D01*
X2650000Y-5000000D02*
X3050000Y-5000000D01*
X2850000Y-6700000D02*
X2850000Y-7100000D01*
X2650000Y-6900000D02*
X3050000Y-6900000D01*
X2854000Y-8619000D02*
X2854000Y-9019000D01*
X2654000Y-8819000D02*
X3054000Y-8819000D01*
X2854000Y-10519000D02*
X2854000Y-10919000D01*
X2654000Y-10719000D02*
X3054000Y-10719000D01*
X4750000Y-4800000D02*
X4750000Y-5200000D01*
X4550000Y-5000000D02*
X4950000Y-5000000D01*
X4750000Y-6700000D02*
X4750000Y-7100000D01*
X4550000Y-6900000D02*
X4950000Y-6900000D01*
X4750000Y-10519000D02*
X4750000Y-10919000D01*
X4550000Y-10719000D02*
X4950000Y-10719000D01*
X4758000Y-8604000D02*
X4758000Y-9004000D01*
X4558000Y-8804000D02*
X4958000Y-8804000D01*
X6650000Y-6700000D02*
X6650000Y-7100000D01*
X6450000Y-6900000D02*
X6850000Y-6900000D01*
X6650000Y-10504000D02*
X6650000Y-10904000D01*
X6450000Y-10704000D02*
X6850000Y-10704000D01*
X6654000Y-8592000D02*
X6654000Y-8992000D01*
X6454000Y-8792000D02*
X6854000Y-8792000D01*
X6658000Y-4804000D02*
X6658000Y-5204000D01*
X6458000Y-5004000D02*
X6858000Y-5004000D01*
X8550000Y-6700000D02*
X8550000Y-7100000D01*
X8350000Y-6900000D02*
X8750000Y-6900000D01*
X8554000Y-10504000D02*
X8554000Y-10904000D01*
X8354000Y-10704000D02*
X8754000Y-10704000D01*
X8558000Y-8600000D02*
X8558000Y-9000000D01*
X8358000Y-8800000D02*
X8758000Y-8800000D01*
X10450000Y-6700000D02*
X10450000Y-7100000D01*
X10250000Y-6900000D02*
X10650000Y-6900000D01*
X10450000Y-8600000D02*
X10450000Y-9000000D01*
X10250000Y-8800000D02*
X10650000Y-8800000D01*
X10450000Y-10492000D02*
X10450000Y-10892000D01*
X10250000Y-10692000D02*
X10650000Y-10692000D01*
D11*
X2163277Y-12218984D02*
X2163277Y-12018984D01*
X2163277Y-12018984D02*
X2210896Y-12018984D01*
X2210896Y-12018984D02*
X2239467Y-12028508D01*
X2239467Y-12028508D02*
X2258515Y-12047555D01*
X2258515Y-12047555D02*
X2268039Y-12066603D01*
X2268039Y-12066603D02*
X2277563Y-12104698D01*
X2277563Y-12104698D02*
X2277563Y-12133269D01*
X2277563Y-12133269D02*
X2268039Y-12171365D01*
X2268039Y-12171365D02*
X2258515Y-12190412D01*
X2258515Y-12190412D02*
X2239467Y-12209460D01*
X2239467Y-12209460D02*
X2210896Y-12218984D01*
X2210896Y-12218984D02*
X2163277Y-12218984D01*
X2363277Y-12218984D02*
X2363277Y-12085650D01*
X2363277Y-12123746D02*
X2372801Y-12104698D01*
X2372801Y-12104698D02*
X2382324Y-12095174D01*
X2382324Y-12095174D02*
X2401372Y-12085650D01*
X2401372Y-12085650D02*
X2420420Y-12085650D01*
X2487086Y-12218984D02*
X2487086Y-12085650D01*
X2487086Y-12018984D02*
X2477563Y-12028508D01*
X2477563Y-12028508D02*
X2487086Y-12038031D01*
X2487086Y-12038031D02*
X2496610Y-12028508D01*
X2496610Y-12028508D02*
X2487086Y-12018984D01*
X2487086Y-12018984D02*
X2487086Y-12038031D01*
X2610896Y-12218984D02*
X2591848Y-12209460D01*
X2591848Y-12209460D02*
X2582324Y-12190412D01*
X2582324Y-12190412D02*
X2582324Y-12018984D01*
X2715658Y-12218984D02*
X2696610Y-12209460D01*
X2696610Y-12209460D02*
X2687086Y-12190412D01*
X2687086Y-12190412D02*
X2687086Y-12018984D01*
X2944229Y-12218984D02*
X2944229Y-12018984D01*
X2944229Y-12018984D02*
X3010896Y-12161841D01*
X3010896Y-12161841D02*
X3077562Y-12018984D01*
X3077562Y-12018984D02*
X3077562Y-12218984D01*
X3258515Y-12218984D02*
X3258515Y-12114222D01*
X3258515Y-12114222D02*
X3248991Y-12095174D01*
X3248991Y-12095174D02*
X3229943Y-12085650D01*
X3229943Y-12085650D02*
X3191848Y-12085650D01*
X3191848Y-12085650D02*
X3172801Y-12095174D01*
X3258515Y-12209460D02*
X3239467Y-12218984D01*
X3239467Y-12218984D02*
X3191848Y-12218984D01*
X3191848Y-12218984D02*
X3172801Y-12209460D01*
X3172801Y-12209460D02*
X3163277Y-12190412D01*
X3163277Y-12190412D02*
X3163277Y-12171365D01*
X3163277Y-12171365D02*
X3172801Y-12152317D01*
X3172801Y-12152317D02*
X3191848Y-12142793D01*
X3191848Y-12142793D02*
X3239467Y-12142793D01*
X3239467Y-12142793D02*
X3258515Y-12133269D01*
X3353753Y-12085650D02*
X3353753Y-12285650D01*
X3353753Y-12095174D02*
X3372801Y-12085650D01*
X3372801Y-12085650D02*
X3410896Y-12085650D01*
X3410896Y-12085650D02*
X3429943Y-12095174D01*
X3429943Y-12095174D02*
X3439467Y-12104698D01*
X3439467Y-12104698D02*
X3448991Y-12123746D01*
X3448991Y-12123746D02*
X3448991Y-12180888D01*
X3448991Y-12180888D02*
X3439467Y-12199936D01*
X3439467Y-12199936D02*
X3429943Y-12209460D01*
X3429943Y-12209460D02*
X3410896Y-12218984D01*
X3410896Y-12218984D02*
X3372801Y-12218984D01*
X3372801Y-12218984D02*
X3353753Y-12209460D01*
X3534705Y-12199936D02*
X3544229Y-12209460D01*
X3544229Y-12209460D02*
X3534705Y-12218984D01*
X3534705Y-12218984D02*
X3525182Y-12209460D01*
X3525182Y-12209460D02*
X3534705Y-12199936D01*
X3534705Y-12199936D02*
X3534705Y-12218984D01*
X3534705Y-12095174D02*
X3544229Y-12104698D01*
X3544229Y-12104698D02*
X3534705Y-12114222D01*
X3534705Y-12114222D02*
X3525182Y-12104698D01*
X3525182Y-12104698D02*
X3534705Y-12095174D01*
X3534705Y-12095174D02*
X3534705Y-12114222D01*
D12*
X1732500Y-12462500D02*
X1902500Y-12632500D01*
X1902500Y-12462500D02*
X1732500Y-12632500D01*
D11*
X2268039Y-12638984D02*
X2153753Y-12638984D01*
X2210896Y-12638984D02*
X2210896Y-12438984D01*
X2210896Y-12438984D02*
X2191848Y-12467555D01*
X2191848Y-12467555D02*
X2172801Y-12486603D01*
X2172801Y-12486603D02*
X2153753Y-12496127D01*
X2353753Y-12619936D02*
X2363277Y-12629460D01*
X2363277Y-12629460D02*
X2353753Y-12638984D01*
X2353753Y-12638984D02*
X2344229Y-12629460D01*
X2344229Y-12629460D02*
X2353753Y-12619936D01*
X2353753Y-12619936D02*
X2353753Y-12638984D01*
X2429944Y-12438984D02*
X2563277Y-12438984D01*
X2563277Y-12438984D02*
X2477563Y-12638984D01*
X2677563Y-12438984D02*
X2696610Y-12438984D01*
X2696610Y-12438984D02*
X2715658Y-12448508D01*
X2715658Y-12448508D02*
X2725182Y-12458031D01*
X2725182Y-12458031D02*
X2734705Y-12477079D01*
X2734705Y-12477079D02*
X2744229Y-12515174D01*
X2744229Y-12515174D02*
X2744229Y-12562793D01*
X2744229Y-12562793D02*
X2734705Y-12600888D01*
X2734705Y-12600888D02*
X2725182Y-12619936D01*
X2725182Y-12619936D02*
X2715658Y-12629460D01*
X2715658Y-12629460D02*
X2696610Y-12638984D01*
X2696610Y-12638984D02*
X2677563Y-12638984D01*
X2677563Y-12638984D02*
X2658515Y-12629460D01*
X2658515Y-12629460D02*
X2648991Y-12619936D01*
X2648991Y-12619936D02*
X2639467Y-12600888D01*
X2639467Y-12600888D02*
X2629944Y-12562793D01*
X2629944Y-12562793D02*
X2629944Y-12515174D01*
X2629944Y-12515174D02*
X2639467Y-12477079D01*
X2639467Y-12477079D02*
X2648991Y-12458031D01*
X2648991Y-12458031D02*
X2658515Y-12448508D01*
X2658515Y-12448508D02*
X2677563Y-12438984D01*
X2868039Y-12438984D02*
X2887086Y-12438984D01*
X2887086Y-12438984D02*
X2906134Y-12448508D01*
X2906134Y-12448508D02*
X2915658Y-12458031D01*
X2915658Y-12458031D02*
X2925182Y-12477079D01*
X2925182Y-12477079D02*
X2934705Y-12515174D01*
X2934705Y-12515174D02*
X2934705Y-12562793D01*
X2934705Y-12562793D02*
X2925182Y-12600888D01*
X2925182Y-12600888D02*
X2915658Y-12619936D01*
X2915658Y-12619936D02*
X2906134Y-12629460D01*
X2906134Y-12629460D02*
X2887086Y-12638984D01*
X2887086Y-12638984D02*
X2868039Y-12638984D01*
X2868039Y-12638984D02*
X2848991Y-12629460D01*
X2848991Y-12629460D02*
X2839467Y-12619936D01*
X2839467Y-12619936D02*
X2829943Y-12600888D01*
X2829943Y-12600888D02*
X2820420Y-12562793D01*
X2820420Y-12562793D02*
X2820420Y-12515174D01*
X2820420Y-12515174D02*
X2829943Y-12477079D01*
X2829943Y-12477079D02*
X2839467Y-12458031D01*
X2839467Y-12458031D02*
X2848991Y-12448508D01*
X2848991Y-12448508D02*
X2868039Y-12438984D01*
X3020420Y-12638984D02*
X3020420Y-12505650D01*
X3020420Y-12524698D02*
X3029943Y-12515174D01*
X3029943Y-12515174D02*
X3048991Y-12505650D01*
X3048991Y-12505650D02*
X3077563Y-12505650D01*
X3077563Y-12505650D02*
X3096610Y-12515174D01*
X3096610Y-12515174D02*
X3106134Y-12534222D01*
X3106134Y-12534222D02*
X3106134Y-12638984D01*
X3106134Y-12534222D02*
X3115658Y-12515174D01*
X3115658Y-12515174D02*
X3134705Y-12505650D01*
X3134705Y-12505650D02*
X3163277Y-12505650D01*
X3163277Y-12505650D02*
X3182324Y-12515174D01*
X3182324Y-12515174D02*
X3191848Y-12534222D01*
X3191848Y-12534222D02*
X3191848Y-12638984D01*
X3287086Y-12638984D02*
X3287086Y-12505650D01*
X3287086Y-12524698D02*
X3296610Y-12515174D01*
X3296610Y-12515174D02*
X3315658Y-12505650D01*
X3315658Y-12505650D02*
X3344229Y-12505650D01*
X3344229Y-12505650D02*
X3363277Y-12515174D01*
X3363277Y-12515174D02*
X3372801Y-12534222D01*
X3372801Y-12534222D02*
X3372801Y-12638984D01*
X3372801Y-12534222D02*
X3382324Y-12515174D01*
X3382324Y-12515174D02*
X3401372Y-12505650D01*
X3401372Y-12505650D02*
X3429943Y-12505650D01*
X3429943Y-12505650D02*
X3448991Y-12515174D01*
X3448991Y-12515174D02*
X3458515Y-12534222D01*
X3458515Y-12534222D02*
X3458515Y-12638984D01*
X3848991Y-12429460D02*
X3677563Y-12686603D01*
X4106134Y-12438984D02*
X4125182Y-12438984D01*
X4125182Y-12438984D02*
X4144229Y-12448508D01*
X4144229Y-12448508D02*
X4153753Y-12458031D01*
X4153753Y-12458031D02*
X4163277Y-12477079D01*
X4163277Y-12477079D02*
X4172801Y-12515174D01*
X4172801Y-12515174D02*
X4172801Y-12562793D01*
X4172801Y-12562793D02*
X4163277Y-12600888D01*
X4163277Y-12600888D02*
X4153753Y-12619936D01*
X4153753Y-12619936D02*
X4144229Y-12629460D01*
X4144229Y-12629460D02*
X4125182Y-12638984D01*
X4125182Y-12638984D02*
X4106134Y-12638984D01*
X4106134Y-12638984D02*
X4087086Y-12629460D01*
X4087086Y-12629460D02*
X4077563Y-12619936D01*
X4077563Y-12619936D02*
X4068039Y-12600888D01*
X4068039Y-12600888D02*
X4058515Y-12562793D01*
X4058515Y-12562793D02*
X4058515Y-12515174D01*
X4058515Y-12515174D02*
X4068039Y-12477079D01*
X4068039Y-12477079D02*
X4077563Y-12458031D01*
X4077563Y-12458031D02*
X4087086Y-12448508D01*
X4087086Y-12448508D02*
X4106134Y-12438984D01*
X4258515Y-12619936D02*
X4268039Y-12629460D01*
X4268039Y-12629460D02*
X4258515Y-12638984D01*
X4258515Y-12638984D02*
X4248991Y-12629460D01*
X4248991Y-12629460D02*
X4258515Y-12619936D01*
X4258515Y-12619936D02*
X4258515Y-12638984D01*
X4391848Y-12438984D02*
X4410896Y-12438984D01*
X4410896Y-12438984D02*
X4429944Y-12448508D01*
X4429944Y-12448508D02*
X4439468Y-12458031D01*
X4439468Y-12458031D02*
X4448991Y-12477079D01*
X4448991Y-12477079D02*
X4458515Y-12515174D01*
X4458515Y-12515174D02*
X4458515Y-12562793D01*
X4458515Y-12562793D02*
X4448991Y-12600888D01*
X4448991Y-12600888D02*
X4439468Y-12619936D01*
X4439468Y-12619936D02*
X4429944Y-12629460D01*
X4429944Y-12629460D02*
X4410896Y-12638984D01*
X4410896Y-12638984D02*
X4391848Y-12638984D01*
X4391848Y-12638984D02*
X4372801Y-12629460D01*
X4372801Y-12629460D02*
X4363277Y-12619936D01*
X4363277Y-12619936D02*
X4353753Y-12600888D01*
X4353753Y-12600888D02*
X4344229Y-12562793D01*
X4344229Y-12562793D02*
X4344229Y-12515174D01*
X4344229Y-12515174D02*
X4353753Y-12477079D01*
X4353753Y-12477079D02*
X4363277Y-12458031D01*
X4363277Y-12458031D02*
X4372801Y-12448508D01*
X4372801Y-12448508D02*
X4391848Y-12438984D01*
X4629944Y-12438984D02*
X4591848Y-12438984D01*
X4591848Y-12438984D02*
X4572801Y-12448508D01*
X4572801Y-12448508D02*
X4563277Y-12458031D01*
X4563277Y-12458031D02*
X4544229Y-12486603D01*
X4544229Y-12486603D02*
X4534706Y-12524698D01*
X4534706Y-12524698D02*
X4534706Y-12600888D01*
X4534706Y-12600888D02*
X4544229Y-12619936D01*
X4544229Y-12619936D02*
X4553753Y-12629460D01*
X4553753Y-12629460D02*
X4572801Y-12638984D01*
X4572801Y-12638984D02*
X4610896Y-12638984D01*
X4610896Y-12638984D02*
X4629944Y-12629460D01*
X4629944Y-12629460D02*
X4639468Y-12619936D01*
X4639468Y-12619936D02*
X4648991Y-12600888D01*
X4648991Y-12600888D02*
X4648991Y-12553269D01*
X4648991Y-12553269D02*
X4639468Y-12534222D01*
X4639468Y-12534222D02*
X4629944Y-12524698D01*
X4629944Y-12524698D02*
X4610896Y-12515174D01*
X4610896Y-12515174D02*
X4572801Y-12515174D01*
X4572801Y-12515174D02*
X4553753Y-12524698D01*
X4553753Y-12524698D02*
X4544229Y-12534222D01*
X4544229Y-12534222D02*
X4534706Y-12553269D01*
X4820420Y-12438984D02*
X4782325Y-12438984D01*
X4782325Y-12438984D02*
X4763277Y-12448508D01*
X4763277Y-12448508D02*
X4753753Y-12458031D01*
X4753753Y-12458031D02*
X4734706Y-12486603D01*
X4734706Y-12486603D02*
X4725182Y-12524698D01*
X4725182Y-12524698D02*
X4725182Y-12600888D01*
X4725182Y-12600888D02*
X4734706Y-12619936D01*
X4734706Y-12619936D02*
X4744229Y-12629460D01*
X4744229Y-12629460D02*
X4763277Y-12638984D01*
X4763277Y-12638984D02*
X4801372Y-12638984D01*
X4801372Y-12638984D02*
X4820420Y-12629460D01*
X4820420Y-12629460D02*
X4829944Y-12619936D01*
X4829944Y-12619936D02*
X4839468Y-12600888D01*
X4839468Y-12600888D02*
X4839468Y-12553269D01*
X4839468Y-12553269D02*
X4829944Y-12534222D01*
X4829944Y-12534222D02*
X4820420Y-12524698D01*
X4820420Y-12524698D02*
X4801372Y-12515174D01*
X4801372Y-12515174D02*
X4763277Y-12515174D01*
X4763277Y-12515174D02*
X4744229Y-12524698D01*
X4744229Y-12524698D02*
X4734706Y-12534222D01*
X4734706Y-12534222D02*
X4725182Y-12553269D01*
X4934706Y-12638984D02*
X4972801Y-12638984D01*
X4972801Y-12638984D02*
X4991849Y-12629460D01*
X4991849Y-12629460D02*
X5001372Y-12619936D01*
X5001372Y-12619936D02*
X5020420Y-12591365D01*
X5020420Y-12591365D02*
X5029944Y-12553269D01*
X5029944Y-12553269D02*
X5029944Y-12477079D01*
X5029944Y-12477079D02*
X5020420Y-12458031D01*
X5020420Y-12458031D02*
X5010896Y-12448508D01*
X5010896Y-12448508D02*
X4991849Y-12438984D01*
X4991849Y-12438984D02*
X4953753Y-12438984D01*
X4953753Y-12438984D02*
X4934706Y-12448508D01*
X4934706Y-12448508D02*
X4925182Y-12458031D01*
X4925182Y-12458031D02*
X4915658Y-12477079D01*
X4915658Y-12477079D02*
X4915658Y-12524698D01*
X4915658Y-12524698D02*
X4925182Y-12543746D01*
X4925182Y-12543746D02*
X4934706Y-12553269D01*
X4934706Y-12553269D02*
X4953753Y-12562793D01*
X4953753Y-12562793D02*
X4991849Y-12562793D01*
X4991849Y-12562793D02*
X5010896Y-12553269D01*
X5010896Y-12553269D02*
X5020420Y-12543746D01*
X5020420Y-12543746D02*
X5029944Y-12524698D01*
X5106134Y-12438984D02*
X5106134Y-12477079D01*
X5182325Y-12438984D02*
X5182325Y-12477079D01*
X5477563Y-12715174D02*
X5468039Y-12705650D01*
X5468039Y-12705650D02*
X5448991Y-12677079D01*
X5448991Y-12677079D02*
X5439468Y-12658031D01*
X5439468Y-12658031D02*
X5429944Y-12629460D01*
X5429944Y-12629460D02*
X5420420Y-12581841D01*
X5420420Y-12581841D02*
X5420420Y-12543746D01*
X5420420Y-12543746D02*
X5429944Y-12496127D01*
X5429944Y-12496127D02*
X5439468Y-12467555D01*
X5439468Y-12467555D02*
X5448991Y-12448508D01*
X5448991Y-12448508D02*
X5468039Y-12419936D01*
X5468039Y-12419936D02*
X5477563Y-12410412D01*
X5534706Y-12438984D02*
X5658515Y-12438984D01*
X5658515Y-12438984D02*
X5591849Y-12515174D01*
X5591849Y-12515174D02*
X5620420Y-12515174D01*
X5620420Y-12515174D02*
X5639468Y-12524698D01*
X5639468Y-12524698D02*
X5648991Y-12534222D01*
X5648991Y-12534222D02*
X5658515Y-12553269D01*
X5658515Y-12553269D02*
X5658515Y-12600888D01*
X5658515Y-12600888D02*
X5648991Y-12619936D01*
X5648991Y-12619936D02*
X5639468Y-12629460D01*
X5639468Y-12629460D02*
X5620420Y-12638984D01*
X5620420Y-12638984D02*
X5563277Y-12638984D01*
X5563277Y-12638984D02*
X5544230Y-12629460D01*
X5544230Y-12629460D02*
X5534706Y-12619936D01*
X5829944Y-12438984D02*
X5791848Y-12438984D01*
X5791848Y-12438984D02*
X5772801Y-12448508D01*
X5772801Y-12448508D02*
X5763277Y-12458031D01*
X5763277Y-12458031D02*
X5744229Y-12486603D01*
X5744229Y-12486603D02*
X5734706Y-12524698D01*
X5734706Y-12524698D02*
X5734706Y-12600888D01*
X5734706Y-12600888D02*
X5744229Y-12619936D01*
X5744229Y-12619936D02*
X5753753Y-12629460D01*
X5753753Y-12629460D02*
X5772801Y-12638984D01*
X5772801Y-12638984D02*
X5810896Y-12638984D01*
X5810896Y-12638984D02*
X5829944Y-12629460D01*
X5829944Y-12629460D02*
X5839468Y-12619936D01*
X5839468Y-12619936D02*
X5848991Y-12600888D01*
X5848991Y-12600888D02*
X5848991Y-12553269D01*
X5848991Y-12553269D02*
X5839468Y-12534222D01*
X5839468Y-12534222D02*
X5829944Y-12524698D01*
X5829944Y-12524698D02*
X5810896Y-12515174D01*
X5810896Y-12515174D02*
X5772801Y-12515174D01*
X5772801Y-12515174D02*
X5753753Y-12524698D01*
X5753753Y-12524698D02*
X5744229Y-12534222D01*
X5744229Y-12534222D02*
X5734706Y-12553269D01*
X6087087Y-12638984D02*
X6087087Y-12438984D01*
X6172801Y-12638984D02*
X6172801Y-12534222D01*
X6172801Y-12534222D02*
X6163277Y-12515174D01*
X6163277Y-12515174D02*
X6144230Y-12505650D01*
X6144230Y-12505650D02*
X6115658Y-12505650D01*
X6115658Y-12505650D02*
X6096610Y-12515174D01*
X6096610Y-12515174D02*
X6087087Y-12524698D01*
X6296610Y-12638984D02*
X6277563Y-12629460D01*
X6277563Y-12629460D02*
X6268039Y-12619936D01*
X6268039Y-12619936D02*
X6258515Y-12600888D01*
X6258515Y-12600888D02*
X6258515Y-12543746D01*
X6258515Y-12543746D02*
X6268039Y-12524698D01*
X6268039Y-12524698D02*
X6277563Y-12515174D01*
X6277563Y-12515174D02*
X6296610Y-12505650D01*
X6296610Y-12505650D02*
X6325182Y-12505650D01*
X6325182Y-12505650D02*
X6344230Y-12515174D01*
X6344230Y-12515174D02*
X6353753Y-12524698D01*
X6353753Y-12524698D02*
X6363277Y-12543746D01*
X6363277Y-12543746D02*
X6363277Y-12600888D01*
X6363277Y-12600888D02*
X6353753Y-12619936D01*
X6353753Y-12619936D02*
X6344230Y-12629460D01*
X6344230Y-12629460D02*
X6325182Y-12638984D01*
X6325182Y-12638984D02*
X6296610Y-12638984D01*
X6477563Y-12638984D02*
X6458515Y-12629460D01*
X6458515Y-12629460D02*
X6448991Y-12610412D01*
X6448991Y-12610412D02*
X6448991Y-12438984D01*
X6629944Y-12629460D02*
X6610896Y-12638984D01*
X6610896Y-12638984D02*
X6572801Y-12638984D01*
X6572801Y-12638984D02*
X6553753Y-12629460D01*
X6553753Y-12629460D02*
X6544230Y-12610412D01*
X6544230Y-12610412D02*
X6544230Y-12534222D01*
X6544230Y-12534222D02*
X6553753Y-12515174D01*
X6553753Y-12515174D02*
X6572801Y-12505650D01*
X6572801Y-12505650D02*
X6610896Y-12505650D01*
X6610896Y-12505650D02*
X6629944Y-12515174D01*
X6629944Y-12515174D02*
X6639468Y-12534222D01*
X6639468Y-12534222D02*
X6639468Y-12553269D01*
X6639468Y-12553269D02*
X6544230Y-12572317D01*
X6715658Y-12629460D02*
X6734706Y-12638984D01*
X6734706Y-12638984D02*
X6772801Y-12638984D01*
X6772801Y-12638984D02*
X6791849Y-12629460D01*
X6791849Y-12629460D02*
X6801372Y-12610412D01*
X6801372Y-12610412D02*
X6801372Y-12600888D01*
X6801372Y-12600888D02*
X6791849Y-12581841D01*
X6791849Y-12581841D02*
X6772801Y-12572317D01*
X6772801Y-12572317D02*
X6744230Y-12572317D01*
X6744230Y-12572317D02*
X6725182Y-12562793D01*
X6725182Y-12562793D02*
X6715658Y-12543746D01*
X6715658Y-12543746D02*
X6715658Y-12534222D01*
X6715658Y-12534222D02*
X6725182Y-12515174D01*
X6725182Y-12515174D02*
X6744230Y-12505650D01*
X6744230Y-12505650D02*
X6772801Y-12505650D01*
X6772801Y-12505650D02*
X6791849Y-12515174D01*
X6868039Y-12715174D02*
X6877563Y-12705650D01*
X6877563Y-12705650D02*
X6896611Y-12677079D01*
X6896611Y-12677079D02*
X6906134Y-12658031D01*
X6906134Y-12658031D02*
X6915658Y-12629460D01*
X6915658Y-12629460D02*
X6925182Y-12581841D01*
X6925182Y-12581841D02*
X6925182Y-12543746D01*
X6925182Y-12543746D02*
X6915658Y-12496127D01*
X6915658Y-12496127D02*
X6906134Y-12467555D01*
X6906134Y-12467555D02*
X6896611Y-12448508D01*
X6896611Y-12448508D02*
X6877563Y-12419936D01*
X6877563Y-12419936D02*
X6868039Y-12410412D01*
X7229944Y-12715174D02*
X7220420Y-12705650D01*
X7220420Y-12705650D02*
X7201372Y-12677079D01*
X7201372Y-12677079D02*
X7191849Y-12658031D01*
X7191849Y-12658031D02*
X7182325Y-12629460D01*
X7182325Y-12629460D02*
X7172801Y-12581841D01*
X7172801Y-12581841D02*
X7172801Y-12543746D01*
X7172801Y-12543746D02*
X7182325Y-12496127D01*
X7182325Y-12496127D02*
X7191849Y-12467555D01*
X7191849Y-12467555D02*
X7201372Y-12448508D01*
X7201372Y-12448508D02*
X7220420Y-12419936D01*
X7220420Y-12419936D02*
X7229944Y-12410412D01*
X7306134Y-12505650D02*
X7306134Y-12638984D01*
X7306134Y-12524698D02*
X7315658Y-12515174D01*
X7315658Y-12515174D02*
X7334706Y-12505650D01*
X7334706Y-12505650D02*
X7363277Y-12505650D01*
X7363277Y-12505650D02*
X7382325Y-12515174D01*
X7382325Y-12515174D02*
X7391849Y-12534222D01*
X7391849Y-12534222D02*
X7391849Y-12638984D01*
X7515658Y-12638984D02*
X7496611Y-12629460D01*
X7496611Y-12629460D02*
X7487087Y-12619936D01*
X7487087Y-12619936D02*
X7477563Y-12600888D01*
X7477563Y-12600888D02*
X7477563Y-12543746D01*
X7477563Y-12543746D02*
X7487087Y-12524698D01*
X7487087Y-12524698D02*
X7496611Y-12515174D01*
X7496611Y-12515174D02*
X7515658Y-12505650D01*
X7515658Y-12505650D02*
X7544230Y-12505650D01*
X7544230Y-12505650D02*
X7563277Y-12515174D01*
X7563277Y-12515174D02*
X7572801Y-12524698D01*
X7572801Y-12524698D02*
X7582325Y-12543746D01*
X7582325Y-12543746D02*
X7582325Y-12600888D01*
X7582325Y-12600888D02*
X7572801Y-12619936D01*
X7572801Y-12619936D02*
X7563277Y-12629460D01*
X7563277Y-12629460D02*
X7544230Y-12638984D01*
X7544230Y-12638984D02*
X7515658Y-12638984D01*
X7639468Y-12505650D02*
X7715658Y-12505650D01*
X7668039Y-12438984D02*
X7668039Y-12610412D01*
X7668039Y-12610412D02*
X7677563Y-12629460D01*
X7677563Y-12629460D02*
X7696611Y-12638984D01*
X7696611Y-12638984D02*
X7715658Y-12638984D01*
X7934706Y-12505650D02*
X7934706Y-12705650D01*
X7934706Y-12515174D02*
X7953753Y-12505650D01*
X7953753Y-12505650D02*
X7991849Y-12505650D01*
X7991849Y-12505650D02*
X8010896Y-12515174D01*
X8010896Y-12515174D02*
X8020420Y-12524698D01*
X8020420Y-12524698D02*
X8029944Y-12543746D01*
X8029944Y-12543746D02*
X8029944Y-12600888D01*
X8029944Y-12600888D02*
X8020420Y-12619936D01*
X8020420Y-12619936D02*
X8010896Y-12629460D01*
X8010896Y-12629460D02*
X7991849Y-12638984D01*
X7991849Y-12638984D02*
X7953753Y-12638984D01*
X7953753Y-12638984D02*
X7934706Y-12629460D01*
X8144230Y-12638984D02*
X8125182Y-12629460D01*
X8125182Y-12629460D02*
X8115658Y-12610412D01*
X8115658Y-12610412D02*
X8115658Y-12438984D01*
X8306134Y-12638984D02*
X8306134Y-12534222D01*
X8306134Y-12534222D02*
X8296611Y-12515174D01*
X8296611Y-12515174D02*
X8277563Y-12505650D01*
X8277563Y-12505650D02*
X8239468Y-12505650D01*
X8239468Y-12505650D02*
X8220420Y-12515174D01*
X8306134Y-12629460D02*
X8287087Y-12638984D01*
X8287087Y-12638984D02*
X8239468Y-12638984D01*
X8239468Y-12638984D02*
X8220420Y-12629460D01*
X8220420Y-12629460D02*
X8210896Y-12610412D01*
X8210896Y-12610412D02*
X8210896Y-12591365D01*
X8210896Y-12591365D02*
X8220420Y-12572317D01*
X8220420Y-12572317D02*
X8239468Y-12562793D01*
X8239468Y-12562793D02*
X8287087Y-12562793D01*
X8287087Y-12562793D02*
X8306134Y-12553269D01*
X8372801Y-12505650D02*
X8448992Y-12505650D01*
X8401373Y-12438984D02*
X8401373Y-12610412D01*
X8401373Y-12610412D02*
X8410896Y-12629460D01*
X8410896Y-12629460D02*
X8429944Y-12638984D01*
X8429944Y-12638984D02*
X8448992Y-12638984D01*
X8591849Y-12629460D02*
X8572801Y-12638984D01*
X8572801Y-12638984D02*
X8534706Y-12638984D01*
X8534706Y-12638984D02*
X8515658Y-12629460D01*
X8515658Y-12629460D02*
X8506135Y-12610412D01*
X8506135Y-12610412D02*
X8506135Y-12534222D01*
X8506135Y-12534222D02*
X8515658Y-12515174D01*
X8515658Y-12515174D02*
X8534706Y-12505650D01*
X8534706Y-12505650D02*
X8572801Y-12505650D01*
X8572801Y-12505650D02*
X8591849Y-12515174D01*
X8591849Y-12515174D02*
X8601373Y-12534222D01*
X8601373Y-12534222D02*
X8601373Y-12553269D01*
X8601373Y-12553269D02*
X8506135Y-12572317D01*
X8772801Y-12638984D02*
X8772801Y-12438984D01*
X8772801Y-12629460D02*
X8753754Y-12638984D01*
X8753754Y-12638984D02*
X8715658Y-12638984D01*
X8715658Y-12638984D02*
X8696611Y-12629460D01*
X8696611Y-12629460D02*
X8687087Y-12619936D01*
X8687087Y-12619936D02*
X8677563Y-12600888D01*
X8677563Y-12600888D02*
X8677563Y-12543746D01*
X8677563Y-12543746D02*
X8687087Y-12524698D01*
X8687087Y-12524698D02*
X8696611Y-12515174D01*
X8696611Y-12515174D02*
X8715658Y-12505650D01*
X8715658Y-12505650D02*
X8753754Y-12505650D01*
X8753754Y-12505650D02*
X8772801Y-12515174D01*
X8848992Y-12715174D02*
X8858516Y-12705650D01*
X8858516Y-12705650D02*
X8877563Y-12677079D01*
X8877563Y-12677079D02*
X8887087Y-12658031D01*
X8887087Y-12658031D02*
X8896611Y-12629460D01*
X8896611Y-12629460D02*
X8906135Y-12581841D01*
X8906135Y-12581841D02*
X8906135Y-12543746D01*
X8906135Y-12543746D02*
X8896611Y-12496127D01*
X8896611Y-12496127D02*
X8887087Y-12467555D01*
X8887087Y-12467555D02*
X8877563Y-12448508D01*
X8877563Y-12448508D02*
X8858516Y-12419936D01*
X8858516Y-12419936D02*
X8848992Y-12410412D01*
X1902500Y-12837500D02*
G75*
G02*
X1702500Y-12837500I-100000J0D01*
G01*
X1702500Y-12837500D02*
G75*
G02*
X1902500Y-12837500I100000J0D01*
G01*
X2153753Y-12748031D02*
X2163277Y-12738508D01*
X2163277Y-12738508D02*
X2182324Y-12728984D01*
X2182324Y-12728984D02*
X2229944Y-12728984D01*
X2229944Y-12728984D02*
X2248991Y-12738508D01*
X2248991Y-12738508D02*
X2258515Y-12748031D01*
X2258515Y-12748031D02*
X2268039Y-12767079D01*
X2268039Y-12767079D02*
X2268039Y-12786127D01*
X2268039Y-12786127D02*
X2258515Y-12814698D01*
X2258515Y-12814698D02*
X2144229Y-12928984D01*
X2144229Y-12928984D02*
X2268039Y-12928984D01*
X2353753Y-12909936D02*
X2363277Y-12919460D01*
X2363277Y-12919460D02*
X2353753Y-12928984D01*
X2353753Y-12928984D02*
X2344229Y-12919460D01*
X2344229Y-12919460D02*
X2353753Y-12909936D01*
X2353753Y-12909936D02*
X2353753Y-12928984D01*
X2439467Y-12748031D02*
X2448991Y-12738508D01*
X2448991Y-12738508D02*
X2468039Y-12728984D01*
X2468039Y-12728984D02*
X2515658Y-12728984D01*
X2515658Y-12728984D02*
X2534705Y-12738508D01*
X2534705Y-12738508D02*
X2544229Y-12748031D01*
X2544229Y-12748031D02*
X2553753Y-12767079D01*
X2553753Y-12767079D02*
X2553753Y-12786127D01*
X2553753Y-12786127D02*
X2544229Y-12814698D01*
X2544229Y-12814698D02*
X2429944Y-12928984D01*
X2429944Y-12928984D02*
X2553753Y-12928984D01*
X2677563Y-12728984D02*
X2696610Y-12728984D01*
X2696610Y-12728984D02*
X2715658Y-12738508D01*
X2715658Y-12738508D02*
X2725182Y-12748031D01*
X2725182Y-12748031D02*
X2734705Y-12767079D01*
X2734705Y-12767079D02*
X2744229Y-12805174D01*
X2744229Y-12805174D02*
X2744229Y-12852793D01*
X2744229Y-12852793D02*
X2734705Y-12890888D01*
X2734705Y-12890888D02*
X2725182Y-12909936D01*
X2725182Y-12909936D02*
X2715658Y-12919460D01*
X2715658Y-12919460D02*
X2696610Y-12928984D01*
X2696610Y-12928984D02*
X2677563Y-12928984D01*
X2677563Y-12928984D02*
X2658515Y-12919460D01*
X2658515Y-12919460D02*
X2648991Y-12909936D01*
X2648991Y-12909936D02*
X2639467Y-12890888D01*
X2639467Y-12890888D02*
X2629944Y-12852793D01*
X2629944Y-12852793D02*
X2629944Y-12805174D01*
X2629944Y-12805174D02*
X2639467Y-12767079D01*
X2639467Y-12767079D02*
X2648991Y-12748031D01*
X2648991Y-12748031D02*
X2658515Y-12738508D01*
X2658515Y-12738508D02*
X2677563Y-12728984D01*
X2868039Y-12728984D02*
X2887086Y-12728984D01*
X2887086Y-12728984D02*
X2906134Y-12738508D01*
X2906134Y-12738508D02*
X2915658Y-12748031D01*
X2915658Y-12748031D02*
X2925182Y-12767079D01*
X2925182Y-12767079D02*
X2934705Y-12805174D01*
X2934705Y-12805174D02*
X2934705Y-12852793D01*
X2934705Y-12852793D02*
X2925182Y-12890888D01*
X2925182Y-12890888D02*
X2915658Y-12909936D01*
X2915658Y-12909936D02*
X2906134Y-12919460D01*
X2906134Y-12919460D02*
X2887086Y-12928984D01*
X2887086Y-12928984D02*
X2868039Y-12928984D01*
X2868039Y-12928984D02*
X2848991Y-12919460D01*
X2848991Y-12919460D02*
X2839467Y-12909936D01*
X2839467Y-12909936D02*
X2829943Y-12890888D01*
X2829943Y-12890888D02*
X2820420Y-12852793D01*
X2820420Y-12852793D02*
X2820420Y-12805174D01*
X2820420Y-12805174D02*
X2829943Y-12767079D01*
X2829943Y-12767079D02*
X2839467Y-12748031D01*
X2839467Y-12748031D02*
X2848991Y-12738508D01*
X2848991Y-12738508D02*
X2868039Y-12728984D01*
X3020420Y-12928984D02*
X3020420Y-12795650D01*
X3020420Y-12814698D02*
X3029943Y-12805174D01*
X3029943Y-12805174D02*
X3048991Y-12795650D01*
X3048991Y-12795650D02*
X3077563Y-12795650D01*
X3077563Y-12795650D02*
X3096610Y-12805174D01*
X3096610Y-12805174D02*
X3106134Y-12824222D01*
X3106134Y-12824222D02*
X3106134Y-12928984D01*
X3106134Y-12824222D02*
X3115658Y-12805174D01*
X3115658Y-12805174D02*
X3134705Y-12795650D01*
X3134705Y-12795650D02*
X3163277Y-12795650D01*
X3163277Y-12795650D02*
X3182324Y-12805174D01*
X3182324Y-12805174D02*
X3191848Y-12824222D01*
X3191848Y-12824222D02*
X3191848Y-12928984D01*
X3287086Y-12928984D02*
X3287086Y-12795650D01*
X3287086Y-12814698D02*
X3296610Y-12805174D01*
X3296610Y-12805174D02*
X3315658Y-12795650D01*
X3315658Y-12795650D02*
X3344229Y-12795650D01*
X3344229Y-12795650D02*
X3363277Y-12805174D01*
X3363277Y-12805174D02*
X3372801Y-12824222D01*
X3372801Y-12824222D02*
X3372801Y-12928984D01*
X3372801Y-12824222D02*
X3382324Y-12805174D01*
X3382324Y-12805174D02*
X3401372Y-12795650D01*
X3401372Y-12795650D02*
X3429943Y-12795650D01*
X3429943Y-12795650D02*
X3448991Y-12805174D01*
X3448991Y-12805174D02*
X3458515Y-12824222D01*
X3458515Y-12824222D02*
X3458515Y-12928984D01*
X3848991Y-12719460D02*
X3677563Y-12976603D01*
X4106134Y-12728984D02*
X4125182Y-12728984D01*
X4125182Y-12728984D02*
X4144229Y-12738508D01*
X4144229Y-12738508D02*
X4153753Y-12748031D01*
X4153753Y-12748031D02*
X4163277Y-12767079D01*
X4163277Y-12767079D02*
X4172801Y-12805174D01*
X4172801Y-12805174D02*
X4172801Y-12852793D01*
X4172801Y-12852793D02*
X4163277Y-12890888D01*
X4163277Y-12890888D02*
X4153753Y-12909936D01*
X4153753Y-12909936D02*
X4144229Y-12919460D01*
X4144229Y-12919460D02*
X4125182Y-12928984D01*
X4125182Y-12928984D02*
X4106134Y-12928984D01*
X4106134Y-12928984D02*
X4087086Y-12919460D01*
X4087086Y-12919460D02*
X4077563Y-12909936D01*
X4077563Y-12909936D02*
X4068039Y-12890888D01*
X4068039Y-12890888D02*
X4058515Y-12852793D01*
X4058515Y-12852793D02*
X4058515Y-12805174D01*
X4058515Y-12805174D02*
X4068039Y-12767079D01*
X4068039Y-12767079D02*
X4077563Y-12748031D01*
X4077563Y-12748031D02*
X4087086Y-12738508D01*
X4087086Y-12738508D02*
X4106134Y-12728984D01*
X4258515Y-12909936D02*
X4268039Y-12919460D01*
X4268039Y-12919460D02*
X4258515Y-12928984D01*
X4258515Y-12928984D02*
X4248991Y-12919460D01*
X4248991Y-12919460D02*
X4258515Y-12909936D01*
X4258515Y-12909936D02*
X4258515Y-12928984D01*
X4391848Y-12728984D02*
X4410896Y-12728984D01*
X4410896Y-12728984D02*
X4429944Y-12738508D01*
X4429944Y-12738508D02*
X4439468Y-12748031D01*
X4439468Y-12748031D02*
X4448991Y-12767079D01*
X4448991Y-12767079D02*
X4458515Y-12805174D01*
X4458515Y-12805174D02*
X4458515Y-12852793D01*
X4458515Y-12852793D02*
X4448991Y-12890888D01*
X4448991Y-12890888D02*
X4439468Y-12909936D01*
X4439468Y-12909936D02*
X4429944Y-12919460D01*
X4429944Y-12919460D02*
X4410896Y-12928984D01*
X4410896Y-12928984D02*
X4391848Y-12928984D01*
X4391848Y-12928984D02*
X4372801Y-12919460D01*
X4372801Y-12919460D02*
X4363277Y-12909936D01*
X4363277Y-12909936D02*
X4353753Y-12890888D01*
X4353753Y-12890888D02*
X4344229Y-12852793D01*
X4344229Y-12852793D02*
X4344229Y-12805174D01*
X4344229Y-12805174D02*
X4353753Y-12767079D01*
X4353753Y-12767079D02*
X4363277Y-12748031D01*
X4363277Y-12748031D02*
X4372801Y-12738508D01*
X4372801Y-12738508D02*
X4391848Y-12728984D01*
X4572801Y-12814698D02*
X4553753Y-12805174D01*
X4553753Y-12805174D02*
X4544229Y-12795650D01*
X4544229Y-12795650D02*
X4534706Y-12776603D01*
X4534706Y-12776603D02*
X4534706Y-12767079D01*
X4534706Y-12767079D02*
X4544229Y-12748031D01*
X4544229Y-12748031D02*
X4553753Y-12738508D01*
X4553753Y-12738508D02*
X4572801Y-12728984D01*
X4572801Y-12728984D02*
X4610896Y-12728984D01*
X4610896Y-12728984D02*
X4629944Y-12738508D01*
X4629944Y-12738508D02*
X4639468Y-12748031D01*
X4639468Y-12748031D02*
X4648991Y-12767079D01*
X4648991Y-12767079D02*
X4648991Y-12776603D01*
X4648991Y-12776603D02*
X4639468Y-12795650D01*
X4639468Y-12795650D02*
X4629944Y-12805174D01*
X4629944Y-12805174D02*
X4610896Y-12814698D01*
X4610896Y-12814698D02*
X4572801Y-12814698D01*
X4572801Y-12814698D02*
X4553753Y-12824222D01*
X4553753Y-12824222D02*
X4544229Y-12833746D01*
X4544229Y-12833746D02*
X4534706Y-12852793D01*
X4534706Y-12852793D02*
X4534706Y-12890888D01*
X4534706Y-12890888D02*
X4544229Y-12909936D01*
X4544229Y-12909936D02*
X4553753Y-12919460D01*
X4553753Y-12919460D02*
X4572801Y-12928984D01*
X4572801Y-12928984D02*
X4610896Y-12928984D01*
X4610896Y-12928984D02*
X4629944Y-12919460D01*
X4629944Y-12919460D02*
X4639468Y-12909936D01*
X4639468Y-12909936D02*
X4648991Y-12890888D01*
X4648991Y-12890888D02*
X4648991Y-12852793D01*
X4648991Y-12852793D02*
X4639468Y-12833746D01*
X4639468Y-12833746D02*
X4629944Y-12824222D01*
X4629944Y-12824222D02*
X4610896Y-12814698D01*
X4820420Y-12728984D02*
X4782325Y-12728984D01*
X4782325Y-12728984D02*
X4763277Y-12738508D01*
X4763277Y-12738508D02*
X4753753Y-12748031D01*
X4753753Y-12748031D02*
X4734706Y-12776603D01*
X4734706Y-12776603D02*
X4725182Y-12814698D01*
X4725182Y-12814698D02*
X4725182Y-12890888D01*
X4725182Y-12890888D02*
X4734706Y-12909936D01*
X4734706Y-12909936D02*
X4744229Y-12919460D01*
X4744229Y-12919460D02*
X4763277Y-12928984D01*
X4763277Y-12928984D02*
X4801372Y-12928984D01*
X4801372Y-12928984D02*
X4820420Y-12919460D01*
X4820420Y-12919460D02*
X4829944Y-12909936D01*
X4829944Y-12909936D02*
X4839468Y-12890888D01*
X4839468Y-12890888D02*
X4839468Y-12843269D01*
X4839468Y-12843269D02*
X4829944Y-12824222D01*
X4829944Y-12824222D02*
X4820420Y-12814698D01*
X4820420Y-12814698D02*
X4801372Y-12805174D01*
X4801372Y-12805174D02*
X4763277Y-12805174D01*
X4763277Y-12805174D02*
X4744229Y-12814698D01*
X4744229Y-12814698D02*
X4734706Y-12824222D01*
X4734706Y-12824222D02*
X4725182Y-12843269D01*
X5010896Y-12728984D02*
X4972801Y-12728984D01*
X4972801Y-12728984D02*
X4953753Y-12738508D01*
X4953753Y-12738508D02*
X4944229Y-12748031D01*
X4944229Y-12748031D02*
X4925182Y-12776603D01*
X4925182Y-12776603D02*
X4915658Y-12814698D01*
X4915658Y-12814698D02*
X4915658Y-12890888D01*
X4915658Y-12890888D02*
X4925182Y-12909936D01*
X4925182Y-12909936D02*
X4934706Y-12919460D01*
X4934706Y-12919460D02*
X4953753Y-12928984D01*
X4953753Y-12928984D02*
X4991849Y-12928984D01*
X4991849Y-12928984D02*
X5010896Y-12919460D01*
X5010896Y-12919460D02*
X5020420Y-12909936D01*
X5020420Y-12909936D02*
X5029944Y-12890888D01*
X5029944Y-12890888D02*
X5029944Y-12843269D01*
X5029944Y-12843269D02*
X5020420Y-12824222D01*
X5020420Y-12824222D02*
X5010896Y-12814698D01*
X5010896Y-12814698D02*
X4991849Y-12805174D01*
X4991849Y-12805174D02*
X4953753Y-12805174D01*
X4953753Y-12805174D02*
X4934706Y-12814698D01*
X4934706Y-12814698D02*
X4925182Y-12824222D01*
X4925182Y-12824222D02*
X4915658Y-12843269D01*
X5106134Y-12728984D02*
X5106134Y-12767079D01*
X5182325Y-12728984D02*
X5182325Y-12767079D01*
X5477563Y-13005174D02*
X5468039Y-12995650D01*
X5468039Y-12995650D02*
X5448991Y-12967079D01*
X5448991Y-12967079D02*
X5439468Y-12948031D01*
X5439468Y-12948031D02*
X5429944Y-12919460D01*
X5429944Y-12919460D02*
X5420420Y-12871841D01*
X5420420Y-12871841D02*
X5420420Y-12833746D01*
X5420420Y-12833746D02*
X5429944Y-12786127D01*
X5429944Y-12786127D02*
X5439468Y-12757555D01*
X5439468Y-12757555D02*
X5448991Y-12738508D01*
X5448991Y-12738508D02*
X5468039Y-12709936D01*
X5468039Y-12709936D02*
X5477563Y-12700412D01*
X5639468Y-12795650D02*
X5639468Y-12928984D01*
X5591849Y-12719460D02*
X5544230Y-12862317D01*
X5544230Y-12862317D02*
X5668039Y-12862317D01*
X5896610Y-12928984D02*
X5896610Y-12728984D01*
X5982325Y-12928984D02*
X5982325Y-12824222D01*
X5982325Y-12824222D02*
X5972801Y-12805174D01*
X5972801Y-12805174D02*
X5953753Y-12795650D01*
X5953753Y-12795650D02*
X5925182Y-12795650D01*
X5925182Y-12795650D02*
X5906134Y-12805174D01*
X5906134Y-12805174D02*
X5896610Y-12814698D01*
X6106134Y-12928984D02*
X6087087Y-12919460D01*
X6087087Y-12919460D02*
X6077563Y-12909936D01*
X6077563Y-12909936D02*
X6068039Y-12890888D01*
X6068039Y-12890888D02*
X6068039Y-12833746D01*
X6068039Y-12833746D02*
X6077563Y-12814698D01*
X6077563Y-12814698D02*
X6087087Y-12805174D01*
X6087087Y-12805174D02*
X6106134Y-12795650D01*
X6106134Y-12795650D02*
X6134706Y-12795650D01*
X6134706Y-12795650D02*
X6153753Y-12805174D01*
X6153753Y-12805174D02*
X6163277Y-12814698D01*
X6163277Y-12814698D02*
X6172801Y-12833746D01*
X6172801Y-12833746D02*
X6172801Y-12890888D01*
X6172801Y-12890888D02*
X6163277Y-12909936D01*
X6163277Y-12909936D02*
X6153753Y-12919460D01*
X6153753Y-12919460D02*
X6134706Y-12928984D01*
X6134706Y-12928984D02*
X6106134Y-12928984D01*
X6287087Y-12928984D02*
X6268039Y-12919460D01*
X6268039Y-12919460D02*
X6258515Y-12900412D01*
X6258515Y-12900412D02*
X6258515Y-12728984D01*
X6439468Y-12919460D02*
X6420420Y-12928984D01*
X6420420Y-12928984D02*
X6382325Y-12928984D01*
X6382325Y-12928984D02*
X6363277Y-12919460D01*
X6363277Y-12919460D02*
X6353753Y-12900412D01*
X6353753Y-12900412D02*
X6353753Y-12824222D01*
X6353753Y-12824222D02*
X6363277Y-12805174D01*
X6363277Y-12805174D02*
X6382325Y-12795650D01*
X6382325Y-12795650D02*
X6420420Y-12795650D01*
X6420420Y-12795650D02*
X6439468Y-12805174D01*
X6439468Y-12805174D02*
X6448991Y-12824222D01*
X6448991Y-12824222D02*
X6448991Y-12843269D01*
X6448991Y-12843269D02*
X6353753Y-12862317D01*
X6525182Y-12919460D02*
X6544230Y-12928984D01*
X6544230Y-12928984D02*
X6582325Y-12928984D01*
X6582325Y-12928984D02*
X6601372Y-12919460D01*
X6601372Y-12919460D02*
X6610896Y-12900412D01*
X6610896Y-12900412D02*
X6610896Y-12890888D01*
X6610896Y-12890888D02*
X6601372Y-12871841D01*
X6601372Y-12871841D02*
X6582325Y-12862317D01*
X6582325Y-12862317D02*
X6553753Y-12862317D01*
X6553753Y-12862317D02*
X6534706Y-12852793D01*
X6534706Y-12852793D02*
X6525182Y-12833746D01*
X6525182Y-12833746D02*
X6525182Y-12824222D01*
X6525182Y-12824222D02*
X6534706Y-12805174D01*
X6534706Y-12805174D02*
X6553753Y-12795650D01*
X6553753Y-12795650D02*
X6582325Y-12795650D01*
X6582325Y-12795650D02*
X6601372Y-12805174D01*
X6677563Y-13005174D02*
X6687087Y-12995650D01*
X6687087Y-12995650D02*
X6706134Y-12967079D01*
X6706134Y-12967079D02*
X6715658Y-12948031D01*
X6715658Y-12948031D02*
X6725182Y-12919460D01*
X6725182Y-12919460D02*
X6734706Y-12871841D01*
X6734706Y-12871841D02*
X6734706Y-12833746D01*
X6734706Y-12833746D02*
X6725182Y-12786127D01*
X6725182Y-12786127D02*
X6715658Y-12757555D01*
X6715658Y-12757555D02*
X6706134Y-12738508D01*
X6706134Y-12738508D02*
X6687087Y-12709936D01*
X6687087Y-12709936D02*
X6677563Y-12700412D01*
X7039468Y-13005174D02*
X7029944Y-12995650D01*
X7029944Y-12995650D02*
X7010896Y-12967079D01*
X7010896Y-12967079D02*
X7001372Y-12948031D01*
X7001372Y-12948031D02*
X6991849Y-12919460D01*
X6991849Y-12919460D02*
X6982325Y-12871841D01*
X6982325Y-12871841D02*
X6982325Y-12833746D01*
X6982325Y-12833746D02*
X6991849Y-12786127D01*
X6991849Y-12786127D02*
X7001372Y-12757555D01*
X7001372Y-12757555D02*
X7010896Y-12738508D01*
X7010896Y-12738508D02*
X7029944Y-12709936D01*
X7029944Y-12709936D02*
X7039468Y-12700412D01*
X7115658Y-12795650D02*
X7115658Y-12928984D01*
X7115658Y-12814698D02*
X7125182Y-12805174D01*
X7125182Y-12805174D02*
X7144230Y-12795650D01*
X7144230Y-12795650D02*
X7172801Y-12795650D01*
X7172801Y-12795650D02*
X7191849Y-12805174D01*
X7191849Y-12805174D02*
X7201372Y-12824222D01*
X7201372Y-12824222D02*
X7201372Y-12928984D01*
X7325182Y-12928984D02*
X7306134Y-12919460D01*
X7306134Y-12919460D02*
X7296611Y-12909936D01*
X7296611Y-12909936D02*
X7287087Y-12890888D01*
X7287087Y-12890888D02*
X7287087Y-12833746D01*
X7287087Y-12833746D02*
X7296611Y-12814698D01*
X7296611Y-12814698D02*
X7306134Y-12805174D01*
X7306134Y-12805174D02*
X7325182Y-12795650D01*
X7325182Y-12795650D02*
X7353753Y-12795650D01*
X7353753Y-12795650D02*
X7372801Y-12805174D01*
X7372801Y-12805174D02*
X7382325Y-12814698D01*
X7382325Y-12814698D02*
X7391849Y-12833746D01*
X7391849Y-12833746D02*
X7391849Y-12890888D01*
X7391849Y-12890888D02*
X7382325Y-12909936D01*
X7382325Y-12909936D02*
X7372801Y-12919460D01*
X7372801Y-12919460D02*
X7353753Y-12928984D01*
X7353753Y-12928984D02*
X7325182Y-12928984D01*
X7448992Y-12795650D02*
X7525182Y-12795650D01*
X7477563Y-12728984D02*
X7477563Y-12900412D01*
X7477563Y-12900412D02*
X7487087Y-12919460D01*
X7487087Y-12919460D02*
X7506134Y-12928984D01*
X7506134Y-12928984D02*
X7525182Y-12928984D01*
X7744230Y-12795650D02*
X7744230Y-12995650D01*
X7744230Y-12805174D02*
X7763277Y-12795650D01*
X7763277Y-12795650D02*
X7801373Y-12795650D01*
X7801373Y-12795650D02*
X7820420Y-12805174D01*
X7820420Y-12805174D02*
X7829944Y-12814698D01*
X7829944Y-12814698D02*
X7839468Y-12833746D01*
X7839468Y-12833746D02*
X7839468Y-12890888D01*
X7839468Y-12890888D02*
X7829944Y-12909936D01*
X7829944Y-12909936D02*
X7820420Y-12919460D01*
X7820420Y-12919460D02*
X7801373Y-12928984D01*
X7801373Y-12928984D02*
X7763277Y-12928984D01*
X7763277Y-12928984D02*
X7744230Y-12919460D01*
X7953753Y-12928984D02*
X7934706Y-12919460D01*
X7934706Y-12919460D02*
X7925182Y-12900412D01*
X7925182Y-12900412D02*
X7925182Y-12728984D01*
X8115658Y-12928984D02*
X8115658Y-12824222D01*
X8115658Y-12824222D02*
X8106134Y-12805174D01*
X8106134Y-12805174D02*
X8087087Y-12795650D01*
X8087087Y-12795650D02*
X8048992Y-12795650D01*
X8048992Y-12795650D02*
X8029944Y-12805174D01*
X8115658Y-12919460D02*
X8096611Y-12928984D01*
X8096611Y-12928984D02*
X8048992Y-12928984D01*
X8048992Y-12928984D02*
X8029944Y-12919460D01*
X8029944Y-12919460D02*
X8020420Y-12900412D01*
X8020420Y-12900412D02*
X8020420Y-12881365D01*
X8020420Y-12881365D02*
X8029944Y-12862317D01*
X8029944Y-12862317D02*
X8048992Y-12852793D01*
X8048992Y-12852793D02*
X8096611Y-12852793D01*
X8096611Y-12852793D02*
X8115658Y-12843269D01*
X8182325Y-12795650D02*
X8258515Y-12795650D01*
X8210896Y-12728984D02*
X8210896Y-12900412D01*
X8210896Y-12900412D02*
X8220420Y-12919460D01*
X8220420Y-12919460D02*
X8239468Y-12928984D01*
X8239468Y-12928984D02*
X8258515Y-12928984D01*
X8401373Y-12919460D02*
X8382325Y-12928984D01*
X8382325Y-12928984D02*
X8344230Y-12928984D01*
X8344230Y-12928984D02*
X8325182Y-12919460D01*
X8325182Y-12919460D02*
X8315658Y-12900412D01*
X8315658Y-12900412D02*
X8315658Y-12824222D01*
X8315658Y-12824222D02*
X8325182Y-12805174D01*
X8325182Y-12805174D02*
X8344230Y-12795650D01*
X8344230Y-12795650D02*
X8382325Y-12795650D01*
X8382325Y-12795650D02*
X8401373Y-12805174D01*
X8401373Y-12805174D02*
X8410896Y-12824222D01*
X8410896Y-12824222D02*
X8410896Y-12843269D01*
X8410896Y-12843269D02*
X8315658Y-12862317D01*
X8582325Y-12928984D02*
X8582325Y-12728984D01*
X8582325Y-12919460D02*
X8563277Y-12928984D01*
X8563277Y-12928984D02*
X8525182Y-12928984D01*
X8525182Y-12928984D02*
X8506135Y-12919460D01*
X8506135Y-12919460D02*
X8496611Y-12909936D01*
X8496611Y-12909936D02*
X8487087Y-12890888D01*
X8487087Y-12890888D02*
X8487087Y-12833746D01*
X8487087Y-12833746D02*
X8496611Y-12814698D01*
X8496611Y-12814698D02*
X8506135Y-12805174D01*
X8506135Y-12805174D02*
X8525182Y-12795650D01*
X8525182Y-12795650D02*
X8563277Y-12795650D01*
X8563277Y-12795650D02*
X8582325Y-12805174D01*
X8658516Y-13005174D02*
X8668039Y-12995650D01*
X8668039Y-12995650D02*
X8687087Y-12967079D01*
X8687087Y-12967079D02*
X8696611Y-12948031D01*
X8696611Y-12948031D02*
X8706135Y-12919460D01*
X8706135Y-12919460D02*
X8715658Y-12871841D01*
X8715658Y-12871841D02*
X8715658Y-12833746D01*
X8715658Y-12833746D02*
X8706135Y-12786127D01*
X8706135Y-12786127D02*
X8696611Y-12757555D01*
X8696611Y-12757555D02*
X8687087Y-12738508D01*
X8687087Y-12738508D02*
X8668039Y-12709936D01*
X8668039Y-12709936D02*
X8658516Y-12700412D01*
X1802500Y-13057500D02*
X1802500Y-13257500D01*
X1702500Y-13157500D02*
X1902500Y-13157500D01*
X2248991Y-13115650D02*
X2248991Y-13248984D01*
X2201372Y-13039460D02*
X2153753Y-13182317D01*
X2153753Y-13182317D02*
X2277563Y-13182317D01*
X2353753Y-13229936D02*
X2363277Y-13239460D01*
X2363277Y-13239460D02*
X2353753Y-13248984D01*
X2353753Y-13248984D02*
X2344229Y-13239460D01*
X2344229Y-13239460D02*
X2353753Y-13229936D01*
X2353753Y-13229936D02*
X2353753Y-13248984D01*
X2487086Y-13048984D02*
X2506134Y-13048984D01*
X2506134Y-13048984D02*
X2525182Y-13058508D01*
X2525182Y-13058508D02*
X2534705Y-13068031D01*
X2534705Y-13068031D02*
X2544229Y-13087079D01*
X2544229Y-13087079D02*
X2553753Y-13125174D01*
X2553753Y-13125174D02*
X2553753Y-13172793D01*
X2553753Y-13172793D02*
X2544229Y-13210888D01*
X2544229Y-13210888D02*
X2534705Y-13229936D01*
X2534705Y-13229936D02*
X2525182Y-13239460D01*
X2525182Y-13239460D02*
X2506134Y-13248984D01*
X2506134Y-13248984D02*
X2487086Y-13248984D01*
X2487086Y-13248984D02*
X2468039Y-13239460D01*
X2468039Y-13239460D02*
X2458515Y-13229936D01*
X2458515Y-13229936D02*
X2448991Y-13210888D01*
X2448991Y-13210888D02*
X2439467Y-13172793D01*
X2439467Y-13172793D02*
X2439467Y-13125174D01*
X2439467Y-13125174D02*
X2448991Y-13087079D01*
X2448991Y-13087079D02*
X2458515Y-13068031D01*
X2458515Y-13068031D02*
X2468039Y-13058508D01*
X2468039Y-13058508D02*
X2487086Y-13048984D01*
X2677563Y-13048984D02*
X2696610Y-13048984D01*
X2696610Y-13048984D02*
X2715658Y-13058508D01*
X2715658Y-13058508D02*
X2725182Y-13068031D01*
X2725182Y-13068031D02*
X2734705Y-13087079D01*
X2734705Y-13087079D02*
X2744229Y-13125174D01*
X2744229Y-13125174D02*
X2744229Y-13172793D01*
X2744229Y-13172793D02*
X2734705Y-13210888D01*
X2734705Y-13210888D02*
X2725182Y-13229936D01*
X2725182Y-13229936D02*
X2715658Y-13239460D01*
X2715658Y-13239460D02*
X2696610Y-13248984D01*
X2696610Y-13248984D02*
X2677563Y-13248984D01*
X2677563Y-13248984D02*
X2658515Y-13239460D01*
X2658515Y-13239460D02*
X2648991Y-13229936D01*
X2648991Y-13229936D02*
X2639467Y-13210888D01*
X2639467Y-13210888D02*
X2629944Y-13172793D01*
X2629944Y-13172793D02*
X2629944Y-13125174D01*
X2629944Y-13125174D02*
X2639467Y-13087079D01*
X2639467Y-13087079D02*
X2648991Y-13068031D01*
X2648991Y-13068031D02*
X2658515Y-13058508D01*
X2658515Y-13058508D02*
X2677563Y-13048984D01*
X2868039Y-13048984D02*
X2887086Y-13048984D01*
X2887086Y-13048984D02*
X2906134Y-13058508D01*
X2906134Y-13058508D02*
X2915658Y-13068031D01*
X2915658Y-13068031D02*
X2925182Y-13087079D01*
X2925182Y-13087079D02*
X2934705Y-13125174D01*
X2934705Y-13125174D02*
X2934705Y-13172793D01*
X2934705Y-13172793D02*
X2925182Y-13210888D01*
X2925182Y-13210888D02*
X2915658Y-13229936D01*
X2915658Y-13229936D02*
X2906134Y-13239460D01*
X2906134Y-13239460D02*
X2887086Y-13248984D01*
X2887086Y-13248984D02*
X2868039Y-13248984D01*
X2868039Y-13248984D02*
X2848991Y-13239460D01*
X2848991Y-13239460D02*
X2839467Y-13229936D01*
X2839467Y-13229936D02*
X2829943Y-13210888D01*
X2829943Y-13210888D02*
X2820420Y-13172793D01*
X2820420Y-13172793D02*
X2820420Y-13125174D01*
X2820420Y-13125174D02*
X2829943Y-13087079D01*
X2829943Y-13087079D02*
X2839467Y-13068031D01*
X2839467Y-13068031D02*
X2848991Y-13058508D01*
X2848991Y-13058508D02*
X2868039Y-13048984D01*
X3020420Y-13248984D02*
X3020420Y-13115650D01*
X3020420Y-13134698D02*
X3029943Y-13125174D01*
X3029943Y-13125174D02*
X3048991Y-13115650D01*
X3048991Y-13115650D02*
X3077563Y-13115650D01*
X3077563Y-13115650D02*
X3096610Y-13125174D01*
X3096610Y-13125174D02*
X3106134Y-13144222D01*
X3106134Y-13144222D02*
X3106134Y-13248984D01*
X3106134Y-13144222D02*
X3115658Y-13125174D01*
X3115658Y-13125174D02*
X3134705Y-13115650D01*
X3134705Y-13115650D02*
X3163277Y-13115650D01*
X3163277Y-13115650D02*
X3182324Y-13125174D01*
X3182324Y-13125174D02*
X3191848Y-13144222D01*
X3191848Y-13144222D02*
X3191848Y-13248984D01*
X3287086Y-13248984D02*
X3287086Y-13115650D01*
X3287086Y-13134698D02*
X3296610Y-13125174D01*
X3296610Y-13125174D02*
X3315658Y-13115650D01*
X3315658Y-13115650D02*
X3344229Y-13115650D01*
X3344229Y-13115650D02*
X3363277Y-13125174D01*
X3363277Y-13125174D02*
X3372801Y-13144222D01*
X3372801Y-13144222D02*
X3372801Y-13248984D01*
X3372801Y-13144222D02*
X3382324Y-13125174D01*
X3382324Y-13125174D02*
X3401372Y-13115650D01*
X3401372Y-13115650D02*
X3429943Y-13115650D01*
X3429943Y-13115650D02*
X3448991Y-13125174D01*
X3448991Y-13125174D02*
X3458515Y-13144222D01*
X3458515Y-13144222D02*
X3458515Y-13248984D01*
X3848991Y-13039460D02*
X3677563Y-13296603D01*
X4106134Y-13048984D02*
X4125182Y-13048984D01*
X4125182Y-13048984D02*
X4144229Y-13058508D01*
X4144229Y-13058508D02*
X4153753Y-13068031D01*
X4153753Y-13068031D02*
X4163277Y-13087079D01*
X4163277Y-13087079D02*
X4172801Y-13125174D01*
X4172801Y-13125174D02*
X4172801Y-13172793D01*
X4172801Y-13172793D02*
X4163277Y-13210888D01*
X4163277Y-13210888D02*
X4153753Y-13229936D01*
X4153753Y-13229936D02*
X4144229Y-13239460D01*
X4144229Y-13239460D02*
X4125182Y-13248984D01*
X4125182Y-13248984D02*
X4106134Y-13248984D01*
X4106134Y-13248984D02*
X4087086Y-13239460D01*
X4087086Y-13239460D02*
X4077563Y-13229936D01*
X4077563Y-13229936D02*
X4068039Y-13210888D01*
X4068039Y-13210888D02*
X4058515Y-13172793D01*
X4058515Y-13172793D02*
X4058515Y-13125174D01*
X4058515Y-13125174D02*
X4068039Y-13087079D01*
X4068039Y-13087079D02*
X4077563Y-13068031D01*
X4077563Y-13068031D02*
X4087086Y-13058508D01*
X4087086Y-13058508D02*
X4106134Y-13048984D01*
X4258515Y-13229936D02*
X4268039Y-13239460D01*
X4268039Y-13239460D02*
X4258515Y-13248984D01*
X4258515Y-13248984D02*
X4248991Y-13239460D01*
X4248991Y-13239460D02*
X4258515Y-13229936D01*
X4258515Y-13229936D02*
X4258515Y-13248984D01*
X4458515Y-13248984D02*
X4344229Y-13248984D01*
X4401372Y-13248984D02*
X4401372Y-13048984D01*
X4401372Y-13048984D02*
X4382325Y-13077555D01*
X4382325Y-13077555D02*
X4363277Y-13096603D01*
X4363277Y-13096603D02*
X4344229Y-13106127D01*
X4639468Y-13048984D02*
X4544229Y-13048984D01*
X4544229Y-13048984D02*
X4534706Y-13144222D01*
X4534706Y-13144222D02*
X4544229Y-13134698D01*
X4544229Y-13134698D02*
X4563277Y-13125174D01*
X4563277Y-13125174D02*
X4610896Y-13125174D01*
X4610896Y-13125174D02*
X4629944Y-13134698D01*
X4629944Y-13134698D02*
X4639468Y-13144222D01*
X4639468Y-13144222D02*
X4648991Y-13163269D01*
X4648991Y-13163269D02*
X4648991Y-13210888D01*
X4648991Y-13210888D02*
X4639468Y-13229936D01*
X4639468Y-13229936D02*
X4629944Y-13239460D01*
X4629944Y-13239460D02*
X4610896Y-13248984D01*
X4610896Y-13248984D02*
X4563277Y-13248984D01*
X4563277Y-13248984D02*
X4544229Y-13239460D01*
X4544229Y-13239460D02*
X4534706Y-13229936D01*
X4715658Y-13048984D02*
X4848991Y-13048984D01*
X4848991Y-13048984D02*
X4763277Y-13248984D01*
X5020420Y-13048984D02*
X4925182Y-13048984D01*
X4925182Y-13048984D02*
X4915658Y-13144222D01*
X4915658Y-13144222D02*
X4925182Y-13134698D01*
X4925182Y-13134698D02*
X4944229Y-13125174D01*
X4944229Y-13125174D02*
X4991849Y-13125174D01*
X4991849Y-13125174D02*
X5010896Y-13134698D01*
X5010896Y-13134698D02*
X5020420Y-13144222D01*
X5020420Y-13144222D02*
X5029944Y-13163269D01*
X5029944Y-13163269D02*
X5029944Y-13210888D01*
X5029944Y-13210888D02*
X5020420Y-13229936D01*
X5020420Y-13229936D02*
X5010896Y-13239460D01*
X5010896Y-13239460D02*
X4991849Y-13248984D01*
X4991849Y-13248984D02*
X4944229Y-13248984D01*
X4944229Y-13248984D02*
X4925182Y-13239460D01*
X4925182Y-13239460D02*
X4915658Y-13229936D01*
X5106134Y-13048984D02*
X5106134Y-13087079D01*
X5182325Y-13048984D02*
X5182325Y-13087079D01*
X5477563Y-13325174D02*
X5468039Y-13315650D01*
X5468039Y-13315650D02*
X5448991Y-13287079D01*
X5448991Y-13287079D02*
X5439468Y-13268031D01*
X5439468Y-13268031D02*
X5429944Y-13239460D01*
X5429944Y-13239460D02*
X5420420Y-13191841D01*
X5420420Y-13191841D02*
X5420420Y-13153746D01*
X5420420Y-13153746D02*
X5429944Y-13106127D01*
X5429944Y-13106127D02*
X5439468Y-13077555D01*
X5439468Y-13077555D02*
X5448991Y-13058508D01*
X5448991Y-13058508D02*
X5468039Y-13029936D01*
X5468039Y-13029936D02*
X5477563Y-13020412D01*
X5658515Y-13248984D02*
X5544230Y-13248984D01*
X5601372Y-13248984D02*
X5601372Y-13048984D01*
X5601372Y-13048984D02*
X5582325Y-13077555D01*
X5582325Y-13077555D02*
X5563277Y-13096603D01*
X5563277Y-13096603D02*
X5544230Y-13106127D01*
X5772801Y-13134698D02*
X5753753Y-13125174D01*
X5753753Y-13125174D02*
X5744229Y-13115650D01*
X5744229Y-13115650D02*
X5734706Y-13096603D01*
X5734706Y-13096603D02*
X5734706Y-13087079D01*
X5734706Y-13087079D02*
X5744229Y-13068031D01*
X5744229Y-13068031D02*
X5753753Y-13058508D01*
X5753753Y-13058508D02*
X5772801Y-13048984D01*
X5772801Y-13048984D02*
X5810896Y-13048984D01*
X5810896Y-13048984D02*
X5829944Y-13058508D01*
X5829944Y-13058508D02*
X5839468Y-13068031D01*
X5839468Y-13068031D02*
X5848991Y-13087079D01*
X5848991Y-13087079D02*
X5848991Y-13096603D01*
X5848991Y-13096603D02*
X5839468Y-13115650D01*
X5839468Y-13115650D02*
X5829944Y-13125174D01*
X5829944Y-13125174D02*
X5810896Y-13134698D01*
X5810896Y-13134698D02*
X5772801Y-13134698D01*
X5772801Y-13134698D02*
X5753753Y-13144222D01*
X5753753Y-13144222D02*
X5744229Y-13153746D01*
X5744229Y-13153746D02*
X5734706Y-13172793D01*
X5734706Y-13172793D02*
X5734706Y-13210888D01*
X5734706Y-13210888D02*
X5744229Y-13229936D01*
X5744229Y-13229936D02*
X5753753Y-13239460D01*
X5753753Y-13239460D02*
X5772801Y-13248984D01*
X5772801Y-13248984D02*
X5810896Y-13248984D01*
X5810896Y-13248984D02*
X5829944Y-13239460D01*
X5829944Y-13239460D02*
X5839468Y-13229936D01*
X5839468Y-13229936D02*
X5848991Y-13210888D01*
X5848991Y-13210888D02*
X5848991Y-13172793D01*
X5848991Y-13172793D02*
X5839468Y-13153746D01*
X5839468Y-13153746D02*
X5829944Y-13144222D01*
X5829944Y-13144222D02*
X5810896Y-13134698D01*
X6087087Y-13248984D02*
X6087087Y-13048984D01*
X6172801Y-13248984D02*
X6172801Y-13144222D01*
X6172801Y-13144222D02*
X6163277Y-13125174D01*
X6163277Y-13125174D02*
X6144230Y-13115650D01*
X6144230Y-13115650D02*
X6115658Y-13115650D01*
X6115658Y-13115650D02*
X6096610Y-13125174D01*
X6096610Y-13125174D02*
X6087087Y-13134698D01*
X6296610Y-13248984D02*
X6277563Y-13239460D01*
X6277563Y-13239460D02*
X6268039Y-13229936D01*
X6268039Y-13229936D02*
X6258515Y-13210888D01*
X6258515Y-13210888D02*
X6258515Y-13153746D01*
X6258515Y-13153746D02*
X6268039Y-13134698D01*
X6268039Y-13134698D02*
X6277563Y-13125174D01*
X6277563Y-13125174D02*
X6296610Y-13115650D01*
X6296610Y-13115650D02*
X6325182Y-13115650D01*
X6325182Y-13115650D02*
X6344230Y-13125174D01*
X6344230Y-13125174D02*
X6353753Y-13134698D01*
X6353753Y-13134698D02*
X6363277Y-13153746D01*
X6363277Y-13153746D02*
X6363277Y-13210888D01*
X6363277Y-13210888D02*
X6353753Y-13229936D01*
X6353753Y-13229936D02*
X6344230Y-13239460D01*
X6344230Y-13239460D02*
X6325182Y-13248984D01*
X6325182Y-13248984D02*
X6296610Y-13248984D01*
X6477563Y-13248984D02*
X6458515Y-13239460D01*
X6458515Y-13239460D02*
X6448991Y-13220412D01*
X6448991Y-13220412D02*
X6448991Y-13048984D01*
X6629944Y-13239460D02*
X6610896Y-13248984D01*
X6610896Y-13248984D02*
X6572801Y-13248984D01*
X6572801Y-13248984D02*
X6553753Y-13239460D01*
X6553753Y-13239460D02*
X6544230Y-13220412D01*
X6544230Y-13220412D02*
X6544230Y-13144222D01*
X6544230Y-13144222D02*
X6553753Y-13125174D01*
X6553753Y-13125174D02*
X6572801Y-13115650D01*
X6572801Y-13115650D02*
X6610896Y-13115650D01*
X6610896Y-13115650D02*
X6629944Y-13125174D01*
X6629944Y-13125174D02*
X6639468Y-13144222D01*
X6639468Y-13144222D02*
X6639468Y-13163269D01*
X6639468Y-13163269D02*
X6544230Y-13182317D01*
X6715658Y-13239460D02*
X6734706Y-13248984D01*
X6734706Y-13248984D02*
X6772801Y-13248984D01*
X6772801Y-13248984D02*
X6791849Y-13239460D01*
X6791849Y-13239460D02*
X6801372Y-13220412D01*
X6801372Y-13220412D02*
X6801372Y-13210888D01*
X6801372Y-13210888D02*
X6791849Y-13191841D01*
X6791849Y-13191841D02*
X6772801Y-13182317D01*
X6772801Y-13182317D02*
X6744230Y-13182317D01*
X6744230Y-13182317D02*
X6725182Y-13172793D01*
X6725182Y-13172793D02*
X6715658Y-13153746D01*
X6715658Y-13153746D02*
X6715658Y-13144222D01*
X6715658Y-13144222D02*
X6725182Y-13125174D01*
X6725182Y-13125174D02*
X6744230Y-13115650D01*
X6744230Y-13115650D02*
X6772801Y-13115650D01*
X6772801Y-13115650D02*
X6791849Y-13125174D01*
X6868039Y-13325174D02*
X6877563Y-13315650D01*
X6877563Y-13315650D02*
X6896611Y-13287079D01*
X6896611Y-13287079D02*
X6906134Y-13268031D01*
X6906134Y-13268031D02*
X6915658Y-13239460D01*
X6915658Y-13239460D02*
X6925182Y-13191841D01*
X6925182Y-13191841D02*
X6925182Y-13153746D01*
X6925182Y-13153746D02*
X6915658Y-13106127D01*
X6915658Y-13106127D02*
X6906134Y-13077555D01*
X6906134Y-13077555D02*
X6896611Y-13058508D01*
X6896611Y-13058508D02*
X6877563Y-13029936D01*
X6877563Y-13029936D02*
X6868039Y-13020412D01*
X7229944Y-13325174D02*
X7220420Y-13315650D01*
X7220420Y-13315650D02*
X7201372Y-13287079D01*
X7201372Y-13287079D02*
X7191849Y-13268031D01*
X7191849Y-13268031D02*
X7182325Y-13239460D01*
X7182325Y-13239460D02*
X7172801Y-13191841D01*
X7172801Y-13191841D02*
X7172801Y-13153746D01*
X7172801Y-13153746D02*
X7182325Y-13106127D01*
X7182325Y-13106127D02*
X7191849Y-13077555D01*
X7191849Y-13077555D02*
X7201372Y-13058508D01*
X7201372Y-13058508D02*
X7220420Y-13029936D01*
X7220420Y-13029936D02*
X7229944Y-13020412D01*
X7306134Y-13115650D02*
X7306134Y-13248984D01*
X7306134Y-13134698D02*
X7315658Y-13125174D01*
X7315658Y-13125174D02*
X7334706Y-13115650D01*
X7334706Y-13115650D02*
X7363277Y-13115650D01*
X7363277Y-13115650D02*
X7382325Y-13125174D01*
X7382325Y-13125174D02*
X7391849Y-13144222D01*
X7391849Y-13144222D02*
X7391849Y-13248984D01*
X7515658Y-13248984D02*
X7496611Y-13239460D01*
X7496611Y-13239460D02*
X7487087Y-13229936D01*
X7487087Y-13229936D02*
X7477563Y-13210888D01*
X7477563Y-13210888D02*
X7477563Y-13153746D01*
X7477563Y-13153746D02*
X7487087Y-13134698D01*
X7487087Y-13134698D02*
X7496611Y-13125174D01*
X7496611Y-13125174D02*
X7515658Y-13115650D01*
X7515658Y-13115650D02*
X7544230Y-13115650D01*
X7544230Y-13115650D02*
X7563277Y-13125174D01*
X7563277Y-13125174D02*
X7572801Y-13134698D01*
X7572801Y-13134698D02*
X7582325Y-13153746D01*
X7582325Y-13153746D02*
X7582325Y-13210888D01*
X7582325Y-13210888D02*
X7572801Y-13229936D01*
X7572801Y-13229936D02*
X7563277Y-13239460D01*
X7563277Y-13239460D02*
X7544230Y-13248984D01*
X7544230Y-13248984D02*
X7515658Y-13248984D01*
X7639468Y-13115650D02*
X7715658Y-13115650D01*
X7668039Y-13048984D02*
X7668039Y-13220412D01*
X7668039Y-13220412D02*
X7677563Y-13239460D01*
X7677563Y-13239460D02*
X7696611Y-13248984D01*
X7696611Y-13248984D02*
X7715658Y-13248984D01*
X7934706Y-13115650D02*
X7934706Y-13315650D01*
X7934706Y-13125174D02*
X7953753Y-13115650D01*
X7953753Y-13115650D02*
X7991849Y-13115650D01*
X7991849Y-13115650D02*
X8010896Y-13125174D01*
X8010896Y-13125174D02*
X8020420Y-13134698D01*
X8020420Y-13134698D02*
X8029944Y-13153746D01*
X8029944Y-13153746D02*
X8029944Y-13210888D01*
X8029944Y-13210888D02*
X8020420Y-13229936D01*
X8020420Y-13229936D02*
X8010896Y-13239460D01*
X8010896Y-13239460D02*
X7991849Y-13248984D01*
X7991849Y-13248984D02*
X7953753Y-13248984D01*
X7953753Y-13248984D02*
X7934706Y-13239460D01*
X8144230Y-13248984D02*
X8125182Y-13239460D01*
X8125182Y-13239460D02*
X8115658Y-13220412D01*
X8115658Y-13220412D02*
X8115658Y-13048984D01*
X8306134Y-13248984D02*
X8306134Y-13144222D01*
X8306134Y-13144222D02*
X8296611Y-13125174D01*
X8296611Y-13125174D02*
X8277563Y-13115650D01*
X8277563Y-13115650D02*
X8239468Y-13115650D01*
X8239468Y-13115650D02*
X8220420Y-13125174D01*
X8306134Y-13239460D02*
X8287087Y-13248984D01*
X8287087Y-13248984D02*
X8239468Y-13248984D01*
X8239468Y-13248984D02*
X8220420Y-13239460D01*
X8220420Y-13239460D02*
X8210896Y-13220412D01*
X8210896Y-13220412D02*
X8210896Y-13201365D01*
X8210896Y-13201365D02*
X8220420Y-13182317D01*
X8220420Y-13182317D02*
X8239468Y-13172793D01*
X8239468Y-13172793D02*
X8287087Y-13172793D01*
X8287087Y-13172793D02*
X8306134Y-13163269D01*
X8372801Y-13115650D02*
X8448992Y-13115650D01*
X8401373Y-13048984D02*
X8401373Y-13220412D01*
X8401373Y-13220412D02*
X8410896Y-13239460D01*
X8410896Y-13239460D02*
X8429944Y-13248984D01*
X8429944Y-13248984D02*
X8448992Y-13248984D01*
X8591849Y-13239460D02*
X8572801Y-13248984D01*
X8572801Y-13248984D02*
X8534706Y-13248984D01*
X8534706Y-13248984D02*
X8515658Y-13239460D01*
X8515658Y-13239460D02*
X8506135Y-13220412D01*
X8506135Y-13220412D02*
X8506135Y-13144222D01*
X8506135Y-13144222D02*
X8515658Y-13125174D01*
X8515658Y-13125174D02*
X8534706Y-13115650D01*
X8534706Y-13115650D02*
X8572801Y-13115650D01*
X8572801Y-13115650D02*
X8591849Y-13125174D01*
X8591849Y-13125174D02*
X8601373Y-13144222D01*
X8601373Y-13144222D02*
X8601373Y-13163269D01*
X8601373Y-13163269D02*
X8506135Y-13182317D01*
X8772801Y-13248984D02*
X8772801Y-13048984D01*
X8772801Y-13239460D02*
X8753754Y-13248984D01*
X8753754Y-13248984D02*
X8715658Y-13248984D01*
X8715658Y-13248984D02*
X8696611Y-13239460D01*
X8696611Y-13239460D02*
X8687087Y-13229936D01*
X8687087Y-13229936D02*
X8677563Y-13210888D01*
X8677563Y-13210888D02*
X8677563Y-13153746D01*
X8677563Y-13153746D02*
X8687087Y-13134698D01*
X8687087Y-13134698D02*
X8696611Y-13125174D01*
X8696611Y-13125174D02*
X8715658Y-13115650D01*
X8715658Y-13115650D02*
X8753754Y-13115650D01*
X8753754Y-13115650D02*
X8772801Y-13125174D01*
X8848992Y-13325174D02*
X8858516Y-13315650D01*
X8858516Y-13315650D02*
X8877563Y-13287079D01*
X8877563Y-13287079D02*
X8887087Y-13268031D01*
X8887087Y-13268031D02*
X8896611Y-13239460D01*
X8896611Y-13239460D02*
X8906135Y-13191841D01*
X8906135Y-13191841D02*
X8906135Y-13153746D01*
X8906135Y-13153746D02*
X8896611Y-13106127D01*
X8896611Y-13106127D02*
X8887087Y-13077555D01*
X8887087Y-13077555D02*
X8877563Y-13058508D01*
X8877563Y-13058508D02*
X8858516Y-13029936D01*
X8858516Y-13029936D02*
X8848992Y-13020412D01*
M02*
