%TF.GenerationSoftware,KiCad,Pcbnew,8.0.6-1.fc40*%
%TF.CreationDate,2024-10-26T10:43:42+11:00*%
%TF.ProjectId,Davepad,44617665-7061-4642-9e6b-696361645f70,rev?*%
%TF.SameCoordinates,Original*%
%TF.FileFunction,Legend,Top*%
%TF.FilePolarity,Positive*%
%FSLAX46Y46*%
G04 Gerber Fmt 4.6, Leading zero omitted, Abs format (unit mm)*
G04 Created by KiCad (PCBNEW 8.0.6-1.fc40) date 2024-10-26 10:43:42*
%MOMM*%
%LPD*%
G01*
G04 APERTURE LIST*
%ADD10C,0.150000*%
%ADD11C,0.101600*%
%ADD12C,0.120000*%
%ADD13C,0.127000*%
%ADD14C,0.254000*%
%ADD15C,0.025400*%
%ADD16C,0.000000*%
G04 APERTURE END LIST*
D10*
X36666666Y-113754819D02*
X36333333Y-113278628D01*
X36095238Y-113754819D02*
X36095238Y-112754819D01*
X36095238Y-112754819D02*
X36476190Y-112754819D01*
X36476190Y-112754819D02*
X36571428Y-112802438D01*
X36571428Y-112802438D02*
X36619047Y-112850057D01*
X36619047Y-112850057D02*
X36666666Y-112945295D01*
X36666666Y-112945295D02*
X36666666Y-113088152D01*
X36666666Y-113088152D02*
X36619047Y-113183390D01*
X36619047Y-113183390D02*
X36571428Y-113231009D01*
X36571428Y-113231009D02*
X36476190Y-113278628D01*
X36476190Y-113278628D02*
X36095238Y-113278628D01*
X37095238Y-113231009D02*
X37428571Y-113231009D01*
X37571428Y-113754819D02*
X37095238Y-113754819D01*
X37095238Y-113754819D02*
X37095238Y-112754819D01*
X37095238Y-112754819D02*
X37571428Y-112754819D01*
X38333333Y-113231009D02*
X38000000Y-113231009D01*
X38000000Y-113754819D02*
X38000000Y-112754819D01*
X38000000Y-112754819D02*
X38476190Y-112754819D01*
X39000000Y-112754819D02*
X39000000Y-112992914D01*
X38761905Y-112897676D02*
X39000000Y-112992914D01*
X39000000Y-112992914D02*
X39238095Y-112897676D01*
X38857143Y-113183390D02*
X39000000Y-112992914D01*
X39000000Y-112992914D02*
X39142857Y-113183390D01*
X39761905Y-112754819D02*
X39761905Y-112992914D01*
X39523810Y-112897676D02*
X39761905Y-112992914D01*
X39761905Y-112992914D02*
X40000000Y-112897676D01*
X39619048Y-113183390D02*
X39761905Y-112992914D01*
X39761905Y-112992914D02*
X39904762Y-113183390D01*
X115166666Y-113754819D02*
X114833333Y-113278628D01*
X114595238Y-113754819D02*
X114595238Y-112754819D01*
X114595238Y-112754819D02*
X114976190Y-112754819D01*
X114976190Y-112754819D02*
X115071428Y-112802438D01*
X115071428Y-112802438D02*
X115119047Y-112850057D01*
X115119047Y-112850057D02*
X115166666Y-112945295D01*
X115166666Y-112945295D02*
X115166666Y-113088152D01*
X115166666Y-113088152D02*
X115119047Y-113183390D01*
X115119047Y-113183390D02*
X115071428Y-113231009D01*
X115071428Y-113231009D02*
X114976190Y-113278628D01*
X114976190Y-113278628D02*
X114595238Y-113278628D01*
X115595238Y-113231009D02*
X115928571Y-113231009D01*
X116071428Y-113754819D02*
X115595238Y-113754819D01*
X115595238Y-113754819D02*
X115595238Y-112754819D01*
X115595238Y-112754819D02*
X116071428Y-112754819D01*
X116833333Y-113231009D02*
X116500000Y-113231009D01*
X116500000Y-113754819D02*
X116500000Y-112754819D01*
X116500000Y-112754819D02*
X116976190Y-112754819D01*
X117500000Y-112754819D02*
X117500000Y-112992914D01*
X117261905Y-112897676D02*
X117500000Y-112992914D01*
X117500000Y-112992914D02*
X117738095Y-112897676D01*
X117357143Y-113183390D02*
X117500000Y-112992914D01*
X117500000Y-112992914D02*
X117642857Y-113183390D01*
X118261905Y-112754819D02*
X118261905Y-112992914D01*
X118023810Y-112897676D02*
X118261905Y-112992914D01*
X118261905Y-112992914D02*
X118500000Y-112897676D01*
X118119048Y-113183390D02*
X118261905Y-112992914D01*
X118261905Y-112992914D02*
X118404762Y-113183390D01*
X27761905Y-100074819D02*
X27761905Y-99074819D01*
X27761905Y-99074819D02*
X28000000Y-99074819D01*
X28000000Y-99074819D02*
X28142857Y-99122438D01*
X28142857Y-99122438D02*
X28238095Y-99217676D01*
X28238095Y-99217676D02*
X28285714Y-99312914D01*
X28285714Y-99312914D02*
X28333333Y-99503390D01*
X28333333Y-99503390D02*
X28333333Y-99646247D01*
X28333333Y-99646247D02*
X28285714Y-99836723D01*
X28285714Y-99836723D02*
X28238095Y-99931961D01*
X28238095Y-99931961D02*
X28142857Y-100027200D01*
X28142857Y-100027200D02*
X28000000Y-100074819D01*
X28000000Y-100074819D02*
X27761905Y-100074819D01*
X28666667Y-99074819D02*
X29285714Y-99074819D01*
X29285714Y-99074819D02*
X28952381Y-99455771D01*
X28952381Y-99455771D02*
X29095238Y-99455771D01*
X29095238Y-99455771D02*
X29190476Y-99503390D01*
X29190476Y-99503390D02*
X29238095Y-99551009D01*
X29238095Y-99551009D02*
X29285714Y-99646247D01*
X29285714Y-99646247D02*
X29285714Y-99884342D01*
X29285714Y-99884342D02*
X29238095Y-99979580D01*
X29238095Y-99979580D02*
X29190476Y-100027200D01*
X29190476Y-100027200D02*
X29095238Y-100074819D01*
X29095238Y-100074819D02*
X28809524Y-100074819D01*
X28809524Y-100074819D02*
X28714286Y-100027200D01*
X28714286Y-100027200D02*
X28666667Y-99979580D01*
X32048095Y-99754819D02*
X32048095Y-98754819D01*
X32619523Y-99754819D02*
X32190952Y-99183390D01*
X32619523Y-98754819D02*
X32048095Y-99326247D01*
X21073200Y-89523332D02*
X21120819Y-89380475D01*
X21120819Y-89380475D02*
X21120819Y-89142380D01*
X21120819Y-89142380D02*
X21073200Y-89047142D01*
X21073200Y-89047142D02*
X21025580Y-88999523D01*
X21025580Y-88999523D02*
X20930342Y-88951904D01*
X20930342Y-88951904D02*
X20835104Y-88951904D01*
X20835104Y-88951904D02*
X20739866Y-88999523D01*
X20739866Y-88999523D02*
X20692247Y-89047142D01*
X20692247Y-89047142D02*
X20644628Y-89142380D01*
X20644628Y-89142380D02*
X20597009Y-89332856D01*
X20597009Y-89332856D02*
X20549390Y-89428094D01*
X20549390Y-89428094D02*
X20501771Y-89475713D01*
X20501771Y-89475713D02*
X20406533Y-89523332D01*
X20406533Y-89523332D02*
X20311295Y-89523332D01*
X20311295Y-89523332D02*
X20216057Y-89475713D01*
X20216057Y-89475713D02*
X20168438Y-89428094D01*
X20168438Y-89428094D02*
X20120819Y-89332856D01*
X20120819Y-89332856D02*
X20120819Y-89094761D01*
X20120819Y-89094761D02*
X20168438Y-88951904D01*
X20120819Y-88618570D02*
X21120819Y-88380475D01*
X21120819Y-88380475D02*
X20406533Y-88189999D01*
X20406533Y-88189999D02*
X21120819Y-87999523D01*
X21120819Y-87999523D02*
X20120819Y-87761428D01*
X20120819Y-87475713D02*
X20120819Y-86856666D01*
X20120819Y-86856666D02*
X20501771Y-87189999D01*
X20501771Y-87189999D02*
X20501771Y-87047142D01*
X20501771Y-87047142D02*
X20549390Y-86951904D01*
X20549390Y-86951904D02*
X20597009Y-86904285D01*
X20597009Y-86904285D02*
X20692247Y-86856666D01*
X20692247Y-86856666D02*
X20930342Y-86856666D01*
X20930342Y-86856666D02*
X21025580Y-86904285D01*
X21025580Y-86904285D02*
X21073200Y-86951904D01*
X21073200Y-86951904D02*
X21120819Y-87047142D01*
X21120819Y-87047142D02*
X21120819Y-87332856D01*
X21120819Y-87332856D02*
X21073200Y-87428094D01*
X21073200Y-87428094D02*
X21025580Y-87475713D01*
X78073200Y-108849523D02*
X78120819Y-108706666D01*
X78120819Y-108706666D02*
X78120819Y-108468571D01*
X78120819Y-108468571D02*
X78073200Y-108373333D01*
X78073200Y-108373333D02*
X78025580Y-108325714D01*
X78025580Y-108325714D02*
X77930342Y-108278095D01*
X77930342Y-108278095D02*
X77835104Y-108278095D01*
X77835104Y-108278095D02*
X77739866Y-108325714D01*
X77739866Y-108325714D02*
X77692247Y-108373333D01*
X77692247Y-108373333D02*
X77644628Y-108468571D01*
X77644628Y-108468571D02*
X77597009Y-108659047D01*
X77597009Y-108659047D02*
X77549390Y-108754285D01*
X77549390Y-108754285D02*
X77501771Y-108801904D01*
X77501771Y-108801904D02*
X77406533Y-108849523D01*
X77406533Y-108849523D02*
X77311295Y-108849523D01*
X77311295Y-108849523D02*
X77216057Y-108801904D01*
X77216057Y-108801904D02*
X77168438Y-108754285D01*
X77168438Y-108754285D02*
X77120819Y-108659047D01*
X77120819Y-108659047D02*
X77120819Y-108420952D01*
X77120819Y-108420952D02*
X77168438Y-108278095D01*
X77120819Y-107944761D02*
X78120819Y-107706666D01*
X78120819Y-107706666D02*
X77406533Y-107516190D01*
X77406533Y-107516190D02*
X78120819Y-107325714D01*
X78120819Y-107325714D02*
X77120819Y-107087619D01*
X78120819Y-106182857D02*
X78120819Y-106754285D01*
X78120819Y-106468571D02*
X77120819Y-106468571D01*
X77120819Y-106468571D02*
X77263676Y-106563809D01*
X77263676Y-106563809D02*
X77358914Y-106659047D01*
X77358914Y-106659047D02*
X77406533Y-106754285D01*
X77120819Y-105325714D02*
X77120819Y-105516190D01*
X77120819Y-105516190D02*
X77168438Y-105611428D01*
X77168438Y-105611428D02*
X77216057Y-105659047D01*
X77216057Y-105659047D02*
X77358914Y-105754285D01*
X77358914Y-105754285D02*
X77549390Y-105801904D01*
X77549390Y-105801904D02*
X77930342Y-105801904D01*
X77930342Y-105801904D02*
X78025580Y-105754285D01*
X78025580Y-105754285D02*
X78073200Y-105706666D01*
X78073200Y-105706666D02*
X78120819Y-105611428D01*
X78120819Y-105611428D02*
X78120819Y-105420952D01*
X78120819Y-105420952D02*
X78073200Y-105325714D01*
X78073200Y-105325714D02*
X78025580Y-105278095D01*
X78025580Y-105278095D02*
X77930342Y-105230476D01*
X77930342Y-105230476D02*
X77692247Y-105230476D01*
X77692247Y-105230476D02*
X77597009Y-105278095D01*
X77597009Y-105278095D02*
X77549390Y-105325714D01*
X77549390Y-105325714D02*
X77501771Y-105420952D01*
X77501771Y-105420952D02*
X77501771Y-105611428D01*
X77501771Y-105611428D02*
X77549390Y-105706666D01*
X77549390Y-105706666D02*
X77597009Y-105754285D01*
X77597009Y-105754285D02*
X77692247Y-105801904D01*
X59033200Y-108849523D02*
X59080819Y-108706666D01*
X59080819Y-108706666D02*
X59080819Y-108468571D01*
X59080819Y-108468571D02*
X59033200Y-108373333D01*
X59033200Y-108373333D02*
X58985580Y-108325714D01*
X58985580Y-108325714D02*
X58890342Y-108278095D01*
X58890342Y-108278095D02*
X58795104Y-108278095D01*
X58795104Y-108278095D02*
X58699866Y-108325714D01*
X58699866Y-108325714D02*
X58652247Y-108373333D01*
X58652247Y-108373333D02*
X58604628Y-108468571D01*
X58604628Y-108468571D02*
X58557009Y-108659047D01*
X58557009Y-108659047D02*
X58509390Y-108754285D01*
X58509390Y-108754285D02*
X58461771Y-108801904D01*
X58461771Y-108801904D02*
X58366533Y-108849523D01*
X58366533Y-108849523D02*
X58271295Y-108849523D01*
X58271295Y-108849523D02*
X58176057Y-108801904D01*
X58176057Y-108801904D02*
X58128438Y-108754285D01*
X58128438Y-108754285D02*
X58080819Y-108659047D01*
X58080819Y-108659047D02*
X58080819Y-108420952D01*
X58080819Y-108420952D02*
X58128438Y-108278095D01*
X58080819Y-107944761D02*
X59080819Y-107706666D01*
X59080819Y-107706666D02*
X58366533Y-107516190D01*
X58366533Y-107516190D02*
X59080819Y-107325714D01*
X59080819Y-107325714D02*
X58080819Y-107087619D01*
X59080819Y-106182857D02*
X59080819Y-106754285D01*
X59080819Y-106468571D02*
X58080819Y-106468571D01*
X58080819Y-106468571D02*
X58223676Y-106563809D01*
X58223676Y-106563809D02*
X58318914Y-106659047D01*
X58318914Y-106659047D02*
X58366533Y-106754285D01*
X58176057Y-105801904D02*
X58128438Y-105754285D01*
X58128438Y-105754285D02*
X58080819Y-105659047D01*
X58080819Y-105659047D02*
X58080819Y-105420952D01*
X58080819Y-105420952D02*
X58128438Y-105325714D01*
X58128438Y-105325714D02*
X58176057Y-105278095D01*
X58176057Y-105278095D02*
X58271295Y-105230476D01*
X58271295Y-105230476D02*
X58366533Y-105230476D01*
X58366533Y-105230476D02*
X58509390Y-105278095D01*
X58509390Y-105278095D02*
X59080819Y-105849523D01*
X59080819Y-105849523D02*
X59080819Y-105230476D01*
X59073200Y-89729523D02*
X59120819Y-89586666D01*
X59120819Y-89586666D02*
X59120819Y-89348571D01*
X59120819Y-89348571D02*
X59073200Y-89253333D01*
X59073200Y-89253333D02*
X59025580Y-89205714D01*
X59025580Y-89205714D02*
X58930342Y-89158095D01*
X58930342Y-89158095D02*
X58835104Y-89158095D01*
X58835104Y-89158095D02*
X58739866Y-89205714D01*
X58739866Y-89205714D02*
X58692247Y-89253333D01*
X58692247Y-89253333D02*
X58644628Y-89348571D01*
X58644628Y-89348571D02*
X58597009Y-89539047D01*
X58597009Y-89539047D02*
X58549390Y-89634285D01*
X58549390Y-89634285D02*
X58501771Y-89681904D01*
X58501771Y-89681904D02*
X58406533Y-89729523D01*
X58406533Y-89729523D02*
X58311295Y-89729523D01*
X58311295Y-89729523D02*
X58216057Y-89681904D01*
X58216057Y-89681904D02*
X58168438Y-89634285D01*
X58168438Y-89634285D02*
X58120819Y-89539047D01*
X58120819Y-89539047D02*
X58120819Y-89300952D01*
X58120819Y-89300952D02*
X58168438Y-89158095D01*
X58120819Y-88824761D02*
X59120819Y-88586666D01*
X59120819Y-88586666D02*
X58406533Y-88396190D01*
X58406533Y-88396190D02*
X59120819Y-88205714D01*
X59120819Y-88205714D02*
X58120819Y-87967619D01*
X59120819Y-87062857D02*
X59120819Y-87634285D01*
X59120819Y-87348571D02*
X58120819Y-87348571D01*
X58120819Y-87348571D02*
X58263676Y-87443809D01*
X58263676Y-87443809D02*
X58358914Y-87539047D01*
X58358914Y-87539047D02*
X58406533Y-87634285D01*
X59120819Y-86110476D02*
X59120819Y-86681904D01*
X59120819Y-86396190D02*
X58120819Y-86396190D01*
X58120819Y-86396190D02*
X58263676Y-86491428D01*
X58263676Y-86491428D02*
X58358914Y-86586666D01*
X58358914Y-86586666D02*
X58406533Y-86681904D01*
X78033200Y-70809523D02*
X78080819Y-70666666D01*
X78080819Y-70666666D02*
X78080819Y-70428571D01*
X78080819Y-70428571D02*
X78033200Y-70333333D01*
X78033200Y-70333333D02*
X77985580Y-70285714D01*
X77985580Y-70285714D02*
X77890342Y-70238095D01*
X77890342Y-70238095D02*
X77795104Y-70238095D01*
X77795104Y-70238095D02*
X77699866Y-70285714D01*
X77699866Y-70285714D02*
X77652247Y-70333333D01*
X77652247Y-70333333D02*
X77604628Y-70428571D01*
X77604628Y-70428571D02*
X77557009Y-70619047D01*
X77557009Y-70619047D02*
X77509390Y-70714285D01*
X77509390Y-70714285D02*
X77461771Y-70761904D01*
X77461771Y-70761904D02*
X77366533Y-70809523D01*
X77366533Y-70809523D02*
X77271295Y-70809523D01*
X77271295Y-70809523D02*
X77176057Y-70761904D01*
X77176057Y-70761904D02*
X77128438Y-70714285D01*
X77128438Y-70714285D02*
X77080819Y-70619047D01*
X77080819Y-70619047D02*
X77080819Y-70380952D01*
X77080819Y-70380952D02*
X77128438Y-70238095D01*
X77080819Y-69904761D02*
X78080819Y-69666666D01*
X78080819Y-69666666D02*
X77366533Y-69476190D01*
X77366533Y-69476190D02*
X78080819Y-69285714D01*
X78080819Y-69285714D02*
X77080819Y-69047619D01*
X78080819Y-68142857D02*
X78080819Y-68714285D01*
X78080819Y-68428571D02*
X77080819Y-68428571D01*
X77080819Y-68428571D02*
X77223676Y-68523809D01*
X77223676Y-68523809D02*
X77318914Y-68619047D01*
X77318914Y-68619047D02*
X77366533Y-68714285D01*
X77414152Y-67285714D02*
X78080819Y-67285714D01*
X77033200Y-67523809D02*
X77747485Y-67761904D01*
X77747485Y-67761904D02*
X77747485Y-67142857D01*
D11*
X33136985Y-32052333D02*
X33856652Y-32052333D01*
X33856652Y-32052333D02*
X33941318Y-32010000D01*
X33941318Y-32010000D02*
X33983652Y-31967666D01*
X33983652Y-31967666D02*
X34025985Y-31883000D01*
X34025985Y-31883000D02*
X34025985Y-31713666D01*
X34025985Y-31713666D02*
X33983652Y-31629000D01*
X33983652Y-31629000D02*
X33941318Y-31586666D01*
X33941318Y-31586666D02*
X33856652Y-31544333D01*
X33856652Y-31544333D02*
X33136985Y-31544333D01*
X34025985Y-30655333D02*
X34025985Y-31163333D01*
X34025985Y-30909333D02*
X33136985Y-30909333D01*
X33136985Y-30909333D02*
X33263985Y-30994000D01*
X33263985Y-30994000D02*
X33348652Y-31078667D01*
X33348652Y-31078667D02*
X33390985Y-31163333D01*
D10*
X29987200Y-36136904D02*
X30034819Y-35994047D01*
X30034819Y-35994047D02*
X30034819Y-35755952D01*
X30034819Y-35755952D02*
X29987200Y-35660714D01*
X29987200Y-35660714D02*
X29939580Y-35613095D01*
X29939580Y-35613095D02*
X29844342Y-35565476D01*
X29844342Y-35565476D02*
X29749104Y-35565476D01*
X29749104Y-35565476D02*
X29653866Y-35613095D01*
X29653866Y-35613095D02*
X29606247Y-35660714D01*
X29606247Y-35660714D02*
X29558628Y-35755952D01*
X29558628Y-35755952D02*
X29511009Y-35946428D01*
X29511009Y-35946428D02*
X29463390Y-36041666D01*
X29463390Y-36041666D02*
X29415771Y-36089285D01*
X29415771Y-36089285D02*
X29320533Y-36136904D01*
X29320533Y-36136904D02*
X29225295Y-36136904D01*
X29225295Y-36136904D02*
X29130057Y-36089285D01*
X29130057Y-36089285D02*
X29082438Y-36041666D01*
X29082438Y-36041666D02*
X29034819Y-35946428D01*
X29034819Y-35946428D02*
X29034819Y-35708333D01*
X29034819Y-35708333D02*
X29082438Y-35565476D01*
X29987200Y-34755952D02*
X30034819Y-34851190D01*
X30034819Y-34851190D02*
X30034819Y-35041666D01*
X30034819Y-35041666D02*
X29987200Y-35136904D01*
X29987200Y-35136904D02*
X29891961Y-35184523D01*
X29891961Y-35184523D02*
X29511009Y-35184523D01*
X29511009Y-35184523D02*
X29415771Y-35136904D01*
X29415771Y-35136904D02*
X29368152Y-35041666D01*
X29368152Y-35041666D02*
X29368152Y-34851190D01*
X29368152Y-34851190D02*
X29415771Y-34755952D01*
X29415771Y-34755952D02*
X29511009Y-34708333D01*
X29511009Y-34708333D02*
X29606247Y-34708333D01*
X29606247Y-34708333D02*
X29701485Y-35184523D01*
X29987200Y-33898809D02*
X30034819Y-33994047D01*
X30034819Y-33994047D02*
X30034819Y-34184523D01*
X30034819Y-34184523D02*
X29987200Y-34279761D01*
X29987200Y-34279761D02*
X29891961Y-34327380D01*
X29891961Y-34327380D02*
X29511009Y-34327380D01*
X29511009Y-34327380D02*
X29415771Y-34279761D01*
X29415771Y-34279761D02*
X29368152Y-34184523D01*
X29368152Y-34184523D02*
X29368152Y-33994047D01*
X29368152Y-33994047D02*
X29415771Y-33898809D01*
X29415771Y-33898809D02*
X29511009Y-33851190D01*
X29511009Y-33851190D02*
X29606247Y-33851190D01*
X29606247Y-33851190D02*
X29701485Y-34327380D01*
X29987200Y-33041666D02*
X30034819Y-33136904D01*
X30034819Y-33136904D02*
X30034819Y-33327380D01*
X30034819Y-33327380D02*
X29987200Y-33422618D01*
X29987200Y-33422618D02*
X29891961Y-33470237D01*
X29891961Y-33470237D02*
X29511009Y-33470237D01*
X29511009Y-33470237D02*
X29415771Y-33422618D01*
X29415771Y-33422618D02*
X29368152Y-33327380D01*
X29368152Y-33327380D02*
X29368152Y-33136904D01*
X29368152Y-33136904D02*
X29415771Y-33041666D01*
X29415771Y-33041666D02*
X29511009Y-32994047D01*
X29511009Y-32994047D02*
X29606247Y-32994047D01*
X29606247Y-32994047D02*
X29701485Y-33470237D01*
X30034819Y-32136904D02*
X29034819Y-32136904D01*
X29987200Y-32136904D02*
X30034819Y-32232142D01*
X30034819Y-32232142D02*
X30034819Y-32422618D01*
X30034819Y-32422618D02*
X29987200Y-32517856D01*
X29987200Y-32517856D02*
X29939580Y-32565475D01*
X29939580Y-32565475D02*
X29844342Y-32613094D01*
X29844342Y-32613094D02*
X29558628Y-32613094D01*
X29558628Y-32613094D02*
X29463390Y-32565475D01*
X29463390Y-32565475D02*
X29415771Y-32517856D01*
X29415771Y-32517856D02*
X29368152Y-32422618D01*
X29368152Y-32422618D02*
X29368152Y-32232142D01*
X29368152Y-32232142D02*
X29415771Y-32136904D01*
X29987200Y-30946427D02*
X30034819Y-30803570D01*
X30034819Y-30803570D02*
X30034819Y-30565475D01*
X30034819Y-30565475D02*
X29987200Y-30470237D01*
X29987200Y-30470237D02*
X29939580Y-30422618D01*
X29939580Y-30422618D02*
X29844342Y-30374999D01*
X29844342Y-30374999D02*
X29749104Y-30374999D01*
X29749104Y-30374999D02*
X29653866Y-30422618D01*
X29653866Y-30422618D02*
X29606247Y-30470237D01*
X29606247Y-30470237D02*
X29558628Y-30565475D01*
X29558628Y-30565475D02*
X29511009Y-30755951D01*
X29511009Y-30755951D02*
X29463390Y-30851189D01*
X29463390Y-30851189D02*
X29415771Y-30898808D01*
X29415771Y-30898808D02*
X29320533Y-30946427D01*
X29320533Y-30946427D02*
X29225295Y-30946427D01*
X29225295Y-30946427D02*
X29130057Y-30898808D01*
X29130057Y-30898808D02*
X29082438Y-30851189D01*
X29082438Y-30851189D02*
X29034819Y-30755951D01*
X29034819Y-30755951D02*
X29034819Y-30517856D01*
X29034819Y-30517856D02*
X29082438Y-30374999D01*
X29368152Y-30089284D02*
X29368152Y-29708332D01*
X29034819Y-29946427D02*
X29891961Y-29946427D01*
X29891961Y-29946427D02*
X29987200Y-29898808D01*
X29987200Y-29898808D02*
X30034819Y-29803570D01*
X30034819Y-29803570D02*
X30034819Y-29708332D01*
X29368152Y-28946427D02*
X30034819Y-28946427D01*
X29368152Y-29374998D02*
X29891961Y-29374998D01*
X29891961Y-29374998D02*
X29987200Y-29327379D01*
X29987200Y-29327379D02*
X30034819Y-29232141D01*
X30034819Y-29232141D02*
X30034819Y-29089284D01*
X30034819Y-29089284D02*
X29987200Y-28994046D01*
X29987200Y-28994046D02*
X29939580Y-28946427D01*
X30034819Y-28041665D02*
X29034819Y-28041665D01*
X29987200Y-28041665D02*
X30034819Y-28136903D01*
X30034819Y-28136903D02*
X30034819Y-28327379D01*
X30034819Y-28327379D02*
X29987200Y-28422617D01*
X29987200Y-28422617D02*
X29939580Y-28470236D01*
X29939580Y-28470236D02*
X29844342Y-28517855D01*
X29844342Y-28517855D02*
X29558628Y-28517855D01*
X29558628Y-28517855D02*
X29463390Y-28470236D01*
X29463390Y-28470236D02*
X29415771Y-28422617D01*
X29415771Y-28422617D02*
X29368152Y-28327379D01*
X29368152Y-28327379D02*
X29368152Y-28136903D01*
X29368152Y-28136903D02*
X29415771Y-28041665D01*
X30034819Y-27565474D02*
X29368152Y-27565474D01*
X29034819Y-27565474D02*
X29082438Y-27613093D01*
X29082438Y-27613093D02*
X29130057Y-27565474D01*
X29130057Y-27565474D02*
X29082438Y-27517855D01*
X29082438Y-27517855D02*
X29034819Y-27565474D01*
X29034819Y-27565474D02*
X29130057Y-27565474D01*
X30034819Y-26946427D02*
X29987200Y-27041665D01*
X29987200Y-27041665D02*
X29939580Y-27089284D01*
X29939580Y-27089284D02*
X29844342Y-27136903D01*
X29844342Y-27136903D02*
X29558628Y-27136903D01*
X29558628Y-27136903D02*
X29463390Y-27089284D01*
X29463390Y-27089284D02*
X29415771Y-27041665D01*
X29415771Y-27041665D02*
X29368152Y-26946427D01*
X29368152Y-26946427D02*
X29368152Y-26803570D01*
X29368152Y-26803570D02*
X29415771Y-26708332D01*
X29415771Y-26708332D02*
X29463390Y-26660713D01*
X29463390Y-26660713D02*
X29558628Y-26613094D01*
X29558628Y-26613094D02*
X29844342Y-26613094D01*
X29844342Y-26613094D02*
X29939580Y-26660713D01*
X29939580Y-26660713D02*
X29987200Y-26708332D01*
X29987200Y-26708332D02*
X30034819Y-26803570D01*
X30034819Y-26803570D02*
X30034819Y-26946427D01*
X27882289Y-31247808D02*
X28882289Y-30581142D01*
X27882289Y-30581142D02*
X28882289Y-31247808D01*
X28882289Y-30200189D02*
X27882289Y-30200189D01*
X28596574Y-29771618D02*
X28596574Y-29295428D01*
X28882289Y-29866856D02*
X27882289Y-29533523D01*
X27882289Y-29533523D02*
X28882289Y-29200190D01*
X27882289Y-28676380D02*
X27882289Y-28485904D01*
X27882289Y-28485904D02*
X27929908Y-28390666D01*
X27929908Y-28390666D02*
X28025146Y-28295428D01*
X28025146Y-28295428D02*
X28215622Y-28247809D01*
X28215622Y-28247809D02*
X28548955Y-28247809D01*
X28548955Y-28247809D02*
X28739431Y-28295428D01*
X28739431Y-28295428D02*
X28834670Y-28390666D01*
X28834670Y-28390666D02*
X28882289Y-28485904D01*
X28882289Y-28485904D02*
X28882289Y-28676380D01*
X28882289Y-28676380D02*
X28834670Y-28771618D01*
X28834670Y-28771618D02*
X28739431Y-28866856D01*
X28739431Y-28866856D02*
X28548955Y-28914475D01*
X28548955Y-28914475D02*
X28215622Y-28914475D01*
X28215622Y-28914475D02*
X28025146Y-28866856D01*
X28025146Y-28866856D02*
X27929908Y-28771618D01*
X27929908Y-28771618D02*
X27882289Y-28676380D01*
X40113200Y-89373332D02*
X40160819Y-89230475D01*
X40160819Y-89230475D02*
X40160819Y-88992380D01*
X40160819Y-88992380D02*
X40113200Y-88897142D01*
X40113200Y-88897142D02*
X40065580Y-88849523D01*
X40065580Y-88849523D02*
X39970342Y-88801904D01*
X39970342Y-88801904D02*
X39875104Y-88801904D01*
X39875104Y-88801904D02*
X39779866Y-88849523D01*
X39779866Y-88849523D02*
X39732247Y-88897142D01*
X39732247Y-88897142D02*
X39684628Y-88992380D01*
X39684628Y-88992380D02*
X39637009Y-89182856D01*
X39637009Y-89182856D02*
X39589390Y-89278094D01*
X39589390Y-89278094D02*
X39541771Y-89325713D01*
X39541771Y-89325713D02*
X39446533Y-89373332D01*
X39446533Y-89373332D02*
X39351295Y-89373332D01*
X39351295Y-89373332D02*
X39256057Y-89325713D01*
X39256057Y-89325713D02*
X39208438Y-89278094D01*
X39208438Y-89278094D02*
X39160819Y-89182856D01*
X39160819Y-89182856D02*
X39160819Y-88944761D01*
X39160819Y-88944761D02*
X39208438Y-88801904D01*
X39160819Y-88468570D02*
X40160819Y-88230475D01*
X40160819Y-88230475D02*
X39446533Y-88039999D01*
X39446533Y-88039999D02*
X40160819Y-87849523D01*
X40160819Y-87849523D02*
X39160819Y-87611428D01*
X39160819Y-87325713D02*
X39160819Y-86659047D01*
X39160819Y-86659047D02*
X40160819Y-87087618D01*
X97033200Y-70809523D02*
X97080819Y-70666666D01*
X97080819Y-70666666D02*
X97080819Y-70428571D01*
X97080819Y-70428571D02*
X97033200Y-70333333D01*
X97033200Y-70333333D02*
X96985580Y-70285714D01*
X96985580Y-70285714D02*
X96890342Y-70238095D01*
X96890342Y-70238095D02*
X96795104Y-70238095D01*
X96795104Y-70238095D02*
X96699866Y-70285714D01*
X96699866Y-70285714D02*
X96652247Y-70333333D01*
X96652247Y-70333333D02*
X96604628Y-70428571D01*
X96604628Y-70428571D02*
X96557009Y-70619047D01*
X96557009Y-70619047D02*
X96509390Y-70714285D01*
X96509390Y-70714285D02*
X96461771Y-70761904D01*
X96461771Y-70761904D02*
X96366533Y-70809523D01*
X96366533Y-70809523D02*
X96271295Y-70809523D01*
X96271295Y-70809523D02*
X96176057Y-70761904D01*
X96176057Y-70761904D02*
X96128438Y-70714285D01*
X96128438Y-70714285D02*
X96080819Y-70619047D01*
X96080819Y-70619047D02*
X96080819Y-70380952D01*
X96080819Y-70380952D02*
X96128438Y-70238095D01*
X96080819Y-69904761D02*
X97080819Y-69666666D01*
X97080819Y-69666666D02*
X96366533Y-69476190D01*
X96366533Y-69476190D02*
X97080819Y-69285714D01*
X97080819Y-69285714D02*
X96080819Y-69047619D01*
X97080819Y-68142857D02*
X97080819Y-68714285D01*
X97080819Y-68428571D02*
X96080819Y-68428571D01*
X96080819Y-68428571D02*
X96223676Y-68523809D01*
X96223676Y-68523809D02*
X96318914Y-68619047D01*
X96318914Y-68619047D02*
X96366533Y-68714285D01*
X96509390Y-67571428D02*
X96461771Y-67666666D01*
X96461771Y-67666666D02*
X96414152Y-67714285D01*
X96414152Y-67714285D02*
X96318914Y-67761904D01*
X96318914Y-67761904D02*
X96271295Y-67761904D01*
X96271295Y-67761904D02*
X96176057Y-67714285D01*
X96176057Y-67714285D02*
X96128438Y-67666666D01*
X96128438Y-67666666D02*
X96080819Y-67571428D01*
X96080819Y-67571428D02*
X96080819Y-67380952D01*
X96080819Y-67380952D02*
X96128438Y-67285714D01*
X96128438Y-67285714D02*
X96176057Y-67238095D01*
X96176057Y-67238095D02*
X96271295Y-67190476D01*
X96271295Y-67190476D02*
X96318914Y-67190476D01*
X96318914Y-67190476D02*
X96414152Y-67238095D01*
X96414152Y-67238095D02*
X96461771Y-67285714D01*
X96461771Y-67285714D02*
X96509390Y-67380952D01*
X96509390Y-67380952D02*
X96509390Y-67571428D01*
X96509390Y-67571428D02*
X96557009Y-67666666D01*
X96557009Y-67666666D02*
X96604628Y-67714285D01*
X96604628Y-67714285D02*
X96699866Y-67761904D01*
X96699866Y-67761904D02*
X96890342Y-67761904D01*
X96890342Y-67761904D02*
X96985580Y-67714285D01*
X96985580Y-67714285D02*
X97033200Y-67666666D01*
X97033200Y-67666666D02*
X97080819Y-67571428D01*
X97080819Y-67571428D02*
X97080819Y-67380952D01*
X97080819Y-67380952D02*
X97033200Y-67285714D01*
X97033200Y-67285714D02*
X96985580Y-67238095D01*
X96985580Y-67238095D02*
X96890342Y-67190476D01*
X96890342Y-67190476D02*
X96699866Y-67190476D01*
X96699866Y-67190476D02*
X96604628Y-67238095D01*
X96604628Y-67238095D02*
X96557009Y-67285714D01*
X96557009Y-67285714D02*
X96509390Y-67380952D01*
X32565957Y-20833333D02*
X33280242Y-20833333D01*
X33280242Y-20833333D02*
X33423099Y-20880952D01*
X33423099Y-20880952D02*
X33518338Y-20976190D01*
X33518338Y-20976190D02*
X33565957Y-21119047D01*
X33565957Y-21119047D02*
X33565957Y-21214285D01*
X33565957Y-19833333D02*
X33565957Y-20404761D01*
X33565957Y-20119047D02*
X32565957Y-20119047D01*
X32565957Y-20119047D02*
X32708814Y-20214285D01*
X32708814Y-20214285D02*
X32804052Y-20309523D01*
X32804052Y-20309523D02*
X32851671Y-20404761D01*
X78740476Y-40707200D02*
X78883333Y-40754819D01*
X78883333Y-40754819D02*
X79121428Y-40754819D01*
X79121428Y-40754819D02*
X79216666Y-40707200D01*
X79216666Y-40707200D02*
X79264285Y-40659580D01*
X79264285Y-40659580D02*
X79311904Y-40564342D01*
X79311904Y-40564342D02*
X79311904Y-40469104D01*
X79311904Y-40469104D02*
X79264285Y-40373866D01*
X79264285Y-40373866D02*
X79216666Y-40326247D01*
X79216666Y-40326247D02*
X79121428Y-40278628D01*
X79121428Y-40278628D02*
X78930952Y-40231009D01*
X78930952Y-40231009D02*
X78835714Y-40183390D01*
X78835714Y-40183390D02*
X78788095Y-40135771D01*
X78788095Y-40135771D02*
X78740476Y-40040533D01*
X78740476Y-40040533D02*
X78740476Y-39945295D01*
X78740476Y-39945295D02*
X78788095Y-39850057D01*
X78788095Y-39850057D02*
X78835714Y-39802438D01*
X78835714Y-39802438D02*
X78930952Y-39754819D01*
X78930952Y-39754819D02*
X79169047Y-39754819D01*
X79169047Y-39754819D02*
X79311904Y-39802438D01*
X79645238Y-39754819D02*
X79883333Y-40754819D01*
X79883333Y-40754819D02*
X80073809Y-40040533D01*
X80073809Y-40040533D02*
X80264285Y-40754819D01*
X80264285Y-40754819D02*
X80502381Y-39754819D01*
X81407142Y-40754819D02*
X80835714Y-40754819D01*
X81121428Y-40754819D02*
X81121428Y-39754819D01*
X81121428Y-39754819D02*
X81026190Y-39897676D01*
X81026190Y-39897676D02*
X80930952Y-39992914D01*
X80930952Y-39992914D02*
X80835714Y-40040533D01*
X81740476Y-39754819D02*
X82359523Y-39754819D01*
X82359523Y-39754819D02*
X82026190Y-40135771D01*
X82026190Y-40135771D02*
X82169047Y-40135771D01*
X82169047Y-40135771D02*
X82264285Y-40183390D01*
X82264285Y-40183390D02*
X82311904Y-40231009D01*
X82311904Y-40231009D02*
X82359523Y-40326247D01*
X82359523Y-40326247D02*
X82359523Y-40564342D01*
X82359523Y-40564342D02*
X82311904Y-40659580D01*
X82311904Y-40659580D02*
X82264285Y-40707200D01*
X82264285Y-40707200D02*
X82169047Y-40754819D01*
X82169047Y-40754819D02*
X81883333Y-40754819D01*
X81883333Y-40754819D02*
X81788095Y-40707200D01*
X81788095Y-40707200D02*
X81740476Y-40659580D01*
X19034819Y-88476666D02*
X18558628Y-88809999D01*
X19034819Y-89048094D02*
X18034819Y-89048094D01*
X18034819Y-89048094D02*
X18034819Y-88667142D01*
X18034819Y-88667142D02*
X18082438Y-88571904D01*
X18082438Y-88571904D02*
X18130057Y-88524285D01*
X18130057Y-88524285D02*
X18225295Y-88476666D01*
X18225295Y-88476666D02*
X18368152Y-88476666D01*
X18368152Y-88476666D02*
X18463390Y-88524285D01*
X18463390Y-88524285D02*
X18511009Y-88571904D01*
X18511009Y-88571904D02*
X18558628Y-88667142D01*
X18558628Y-88667142D02*
X18558628Y-89048094D01*
X18034819Y-88143332D02*
X18034819Y-87476666D01*
X18034819Y-87476666D02*
X19034819Y-87905237D01*
X99240476Y-40707200D02*
X99383333Y-40754819D01*
X99383333Y-40754819D02*
X99621428Y-40754819D01*
X99621428Y-40754819D02*
X99716666Y-40707200D01*
X99716666Y-40707200D02*
X99764285Y-40659580D01*
X99764285Y-40659580D02*
X99811904Y-40564342D01*
X99811904Y-40564342D02*
X99811904Y-40469104D01*
X99811904Y-40469104D02*
X99764285Y-40373866D01*
X99764285Y-40373866D02*
X99716666Y-40326247D01*
X99716666Y-40326247D02*
X99621428Y-40278628D01*
X99621428Y-40278628D02*
X99430952Y-40231009D01*
X99430952Y-40231009D02*
X99335714Y-40183390D01*
X99335714Y-40183390D02*
X99288095Y-40135771D01*
X99288095Y-40135771D02*
X99240476Y-40040533D01*
X99240476Y-40040533D02*
X99240476Y-39945295D01*
X99240476Y-39945295D02*
X99288095Y-39850057D01*
X99288095Y-39850057D02*
X99335714Y-39802438D01*
X99335714Y-39802438D02*
X99430952Y-39754819D01*
X99430952Y-39754819D02*
X99669047Y-39754819D01*
X99669047Y-39754819D02*
X99811904Y-39802438D01*
X100145238Y-39754819D02*
X100383333Y-40754819D01*
X100383333Y-40754819D02*
X100573809Y-40040533D01*
X100573809Y-40040533D02*
X100764285Y-40754819D01*
X100764285Y-40754819D02*
X101002381Y-39754819D01*
X101907142Y-40754819D02*
X101335714Y-40754819D01*
X101621428Y-40754819D02*
X101621428Y-39754819D01*
X101621428Y-39754819D02*
X101526190Y-39897676D01*
X101526190Y-39897676D02*
X101430952Y-39992914D01*
X101430952Y-39992914D02*
X101335714Y-40040533D01*
X102240476Y-39754819D02*
X102907142Y-39754819D01*
X102907142Y-39754819D02*
X102478571Y-40754819D01*
X28571905Y-119074819D02*
X28571905Y-118074819D01*
X28571905Y-118074819D02*
X28810000Y-118074819D01*
X28810000Y-118074819D02*
X28952857Y-118122438D01*
X28952857Y-118122438D02*
X29048095Y-118217676D01*
X29048095Y-118217676D02*
X29095714Y-118312914D01*
X29095714Y-118312914D02*
X29143333Y-118503390D01*
X29143333Y-118503390D02*
X29143333Y-118646247D01*
X29143333Y-118646247D02*
X29095714Y-118836723D01*
X29095714Y-118836723D02*
X29048095Y-118931961D01*
X29048095Y-118931961D02*
X28952857Y-119027200D01*
X28952857Y-119027200D02*
X28810000Y-119074819D01*
X28810000Y-119074819D02*
X28571905Y-119074819D01*
X30000476Y-118408152D02*
X30000476Y-119074819D01*
X29762381Y-118027200D02*
X29524286Y-118741485D01*
X29524286Y-118741485D02*
X30143333Y-118741485D01*
X32858095Y-118754819D02*
X32858095Y-117754819D01*
X33429523Y-118754819D02*
X33000952Y-118183390D01*
X33429523Y-117754819D02*
X32858095Y-118326247D01*
X108285714Y-55834819D02*
X108285714Y-54834819D01*
X108285714Y-54834819D02*
X108523809Y-54834819D01*
X108523809Y-54834819D02*
X108666666Y-54882438D01*
X108666666Y-54882438D02*
X108761904Y-54977676D01*
X108761904Y-54977676D02*
X108809523Y-55072914D01*
X108809523Y-55072914D02*
X108857142Y-55263390D01*
X108857142Y-55263390D02*
X108857142Y-55406247D01*
X108857142Y-55406247D02*
X108809523Y-55596723D01*
X108809523Y-55596723D02*
X108761904Y-55691961D01*
X108761904Y-55691961D02*
X108666666Y-55787200D01*
X108666666Y-55787200D02*
X108523809Y-55834819D01*
X108523809Y-55834819D02*
X108285714Y-55834819D01*
X109809523Y-55834819D02*
X109238095Y-55834819D01*
X109523809Y-55834819D02*
X109523809Y-54834819D01*
X109523809Y-54834819D02*
X109428571Y-54977676D01*
X109428571Y-54977676D02*
X109333333Y-55072914D01*
X109333333Y-55072914D02*
X109238095Y-55120533D01*
X110380952Y-55263390D02*
X110285714Y-55215771D01*
X110285714Y-55215771D02*
X110238095Y-55168152D01*
X110238095Y-55168152D02*
X110190476Y-55072914D01*
X110190476Y-55072914D02*
X110190476Y-55025295D01*
X110190476Y-55025295D02*
X110238095Y-54930057D01*
X110238095Y-54930057D02*
X110285714Y-54882438D01*
X110285714Y-54882438D02*
X110380952Y-54834819D01*
X110380952Y-54834819D02*
X110571428Y-54834819D01*
X110571428Y-54834819D02*
X110666666Y-54882438D01*
X110666666Y-54882438D02*
X110714285Y-54930057D01*
X110714285Y-54930057D02*
X110761904Y-55025295D01*
X110761904Y-55025295D02*
X110761904Y-55072914D01*
X110761904Y-55072914D02*
X110714285Y-55168152D01*
X110714285Y-55168152D02*
X110666666Y-55215771D01*
X110666666Y-55215771D02*
X110571428Y-55263390D01*
X110571428Y-55263390D02*
X110380952Y-55263390D01*
X110380952Y-55263390D02*
X110285714Y-55311009D01*
X110285714Y-55311009D02*
X110238095Y-55358628D01*
X110238095Y-55358628D02*
X110190476Y-55453866D01*
X110190476Y-55453866D02*
X110190476Y-55644342D01*
X110190476Y-55644342D02*
X110238095Y-55739580D01*
X110238095Y-55739580D02*
X110285714Y-55787200D01*
X110285714Y-55787200D02*
X110380952Y-55834819D01*
X110380952Y-55834819D02*
X110571428Y-55834819D01*
X110571428Y-55834819D02*
X110666666Y-55787200D01*
X110666666Y-55787200D02*
X110714285Y-55739580D01*
X110714285Y-55739580D02*
X110761904Y-55644342D01*
X110761904Y-55644342D02*
X110761904Y-55453866D01*
X110761904Y-55453866D02*
X110714285Y-55358628D01*
X110714285Y-55358628D02*
X110666666Y-55311009D01*
X110666666Y-55311009D02*
X110571428Y-55263390D01*
X105428095Y-56154819D02*
X105428095Y-55154819D01*
X105999523Y-56154819D02*
X105570952Y-55583390D01*
X105999523Y-55154819D02*
X105428095Y-55726247D01*
X59113200Y-51373332D02*
X59160819Y-51230475D01*
X59160819Y-51230475D02*
X59160819Y-50992380D01*
X59160819Y-50992380D02*
X59113200Y-50897142D01*
X59113200Y-50897142D02*
X59065580Y-50849523D01*
X59065580Y-50849523D02*
X58970342Y-50801904D01*
X58970342Y-50801904D02*
X58875104Y-50801904D01*
X58875104Y-50801904D02*
X58779866Y-50849523D01*
X58779866Y-50849523D02*
X58732247Y-50897142D01*
X58732247Y-50897142D02*
X58684628Y-50992380D01*
X58684628Y-50992380D02*
X58637009Y-51182856D01*
X58637009Y-51182856D02*
X58589390Y-51278094D01*
X58589390Y-51278094D02*
X58541771Y-51325713D01*
X58541771Y-51325713D02*
X58446533Y-51373332D01*
X58446533Y-51373332D02*
X58351295Y-51373332D01*
X58351295Y-51373332D02*
X58256057Y-51325713D01*
X58256057Y-51325713D02*
X58208438Y-51278094D01*
X58208438Y-51278094D02*
X58160819Y-51182856D01*
X58160819Y-51182856D02*
X58160819Y-50944761D01*
X58160819Y-50944761D02*
X58208438Y-50801904D01*
X58160819Y-50468570D02*
X59160819Y-50230475D01*
X59160819Y-50230475D02*
X58446533Y-50039999D01*
X58446533Y-50039999D02*
X59160819Y-49849523D01*
X59160819Y-49849523D02*
X58160819Y-49611428D01*
X59160819Y-49182856D02*
X59160819Y-48992380D01*
X59160819Y-48992380D02*
X59113200Y-48897142D01*
X59113200Y-48897142D02*
X59065580Y-48849523D01*
X59065580Y-48849523D02*
X58922723Y-48754285D01*
X58922723Y-48754285D02*
X58732247Y-48706666D01*
X58732247Y-48706666D02*
X58351295Y-48706666D01*
X58351295Y-48706666D02*
X58256057Y-48754285D01*
X58256057Y-48754285D02*
X58208438Y-48801904D01*
X58208438Y-48801904D02*
X58160819Y-48897142D01*
X58160819Y-48897142D02*
X58160819Y-49087618D01*
X58160819Y-49087618D02*
X58208438Y-49182856D01*
X58208438Y-49182856D02*
X58256057Y-49230475D01*
X58256057Y-49230475D02*
X58351295Y-49278094D01*
X58351295Y-49278094D02*
X58589390Y-49278094D01*
X58589390Y-49278094D02*
X58684628Y-49230475D01*
X58684628Y-49230475D02*
X58732247Y-49182856D01*
X58732247Y-49182856D02*
X58779866Y-49087618D01*
X58779866Y-49087618D02*
X58779866Y-48897142D01*
X58779866Y-48897142D02*
X58732247Y-48801904D01*
X58732247Y-48801904D02*
X58684628Y-48754285D01*
X58684628Y-48754285D02*
X58589390Y-48706666D01*
X27761905Y-81074819D02*
X27761905Y-80074819D01*
X27761905Y-80074819D02*
X28000000Y-80074819D01*
X28000000Y-80074819D02*
X28142857Y-80122438D01*
X28142857Y-80122438D02*
X28238095Y-80217676D01*
X28238095Y-80217676D02*
X28285714Y-80312914D01*
X28285714Y-80312914D02*
X28333333Y-80503390D01*
X28333333Y-80503390D02*
X28333333Y-80646247D01*
X28333333Y-80646247D02*
X28285714Y-80836723D01*
X28285714Y-80836723D02*
X28238095Y-80931961D01*
X28238095Y-80931961D02*
X28142857Y-81027200D01*
X28142857Y-81027200D02*
X28000000Y-81074819D01*
X28000000Y-81074819D02*
X27761905Y-81074819D01*
X28714286Y-80170057D02*
X28761905Y-80122438D01*
X28761905Y-80122438D02*
X28857143Y-80074819D01*
X28857143Y-80074819D02*
X29095238Y-80074819D01*
X29095238Y-80074819D02*
X29190476Y-80122438D01*
X29190476Y-80122438D02*
X29238095Y-80170057D01*
X29238095Y-80170057D02*
X29285714Y-80265295D01*
X29285714Y-80265295D02*
X29285714Y-80360533D01*
X29285714Y-80360533D02*
X29238095Y-80503390D01*
X29238095Y-80503390D02*
X28666667Y-81074819D01*
X28666667Y-81074819D02*
X29285714Y-81074819D01*
X32048095Y-80754819D02*
X32048095Y-79754819D01*
X32619523Y-80754819D02*
X32190952Y-80183390D01*
X32619523Y-79754819D02*
X32048095Y-80326247D01*
X78113200Y-89809523D02*
X78160819Y-89666666D01*
X78160819Y-89666666D02*
X78160819Y-89428571D01*
X78160819Y-89428571D02*
X78113200Y-89333333D01*
X78113200Y-89333333D02*
X78065580Y-89285714D01*
X78065580Y-89285714D02*
X77970342Y-89238095D01*
X77970342Y-89238095D02*
X77875104Y-89238095D01*
X77875104Y-89238095D02*
X77779866Y-89285714D01*
X77779866Y-89285714D02*
X77732247Y-89333333D01*
X77732247Y-89333333D02*
X77684628Y-89428571D01*
X77684628Y-89428571D02*
X77637009Y-89619047D01*
X77637009Y-89619047D02*
X77589390Y-89714285D01*
X77589390Y-89714285D02*
X77541771Y-89761904D01*
X77541771Y-89761904D02*
X77446533Y-89809523D01*
X77446533Y-89809523D02*
X77351295Y-89809523D01*
X77351295Y-89809523D02*
X77256057Y-89761904D01*
X77256057Y-89761904D02*
X77208438Y-89714285D01*
X77208438Y-89714285D02*
X77160819Y-89619047D01*
X77160819Y-89619047D02*
X77160819Y-89380952D01*
X77160819Y-89380952D02*
X77208438Y-89238095D01*
X77160819Y-88904761D02*
X78160819Y-88666666D01*
X78160819Y-88666666D02*
X77446533Y-88476190D01*
X77446533Y-88476190D02*
X78160819Y-88285714D01*
X78160819Y-88285714D02*
X77160819Y-88047619D01*
X78160819Y-87142857D02*
X78160819Y-87714285D01*
X78160819Y-87428571D02*
X77160819Y-87428571D01*
X77160819Y-87428571D02*
X77303676Y-87523809D01*
X77303676Y-87523809D02*
X77398914Y-87619047D01*
X77398914Y-87619047D02*
X77446533Y-87714285D01*
X77160819Y-86238095D02*
X77160819Y-86714285D01*
X77160819Y-86714285D02*
X77637009Y-86761904D01*
X77637009Y-86761904D02*
X77589390Y-86714285D01*
X77589390Y-86714285D02*
X77541771Y-86619047D01*
X77541771Y-86619047D02*
X77541771Y-86380952D01*
X77541771Y-86380952D02*
X77589390Y-86285714D01*
X77589390Y-86285714D02*
X77637009Y-86238095D01*
X77637009Y-86238095D02*
X77732247Y-86190476D01*
X77732247Y-86190476D02*
X77970342Y-86190476D01*
X77970342Y-86190476D02*
X78065580Y-86238095D01*
X78065580Y-86238095D02*
X78113200Y-86285714D01*
X78113200Y-86285714D02*
X78160819Y-86380952D01*
X78160819Y-86380952D02*
X78160819Y-86619047D01*
X78160819Y-86619047D02*
X78113200Y-86714285D01*
X78113200Y-86714285D02*
X78065580Y-86761904D01*
X65285714Y-100074819D02*
X65285714Y-99074819D01*
X65285714Y-99074819D02*
X65523809Y-99074819D01*
X65523809Y-99074819D02*
X65666666Y-99122438D01*
X65666666Y-99122438D02*
X65761904Y-99217676D01*
X65761904Y-99217676D02*
X65809523Y-99312914D01*
X65809523Y-99312914D02*
X65857142Y-99503390D01*
X65857142Y-99503390D02*
X65857142Y-99646247D01*
X65857142Y-99646247D02*
X65809523Y-99836723D01*
X65809523Y-99836723D02*
X65761904Y-99931961D01*
X65761904Y-99931961D02*
X65666666Y-100027200D01*
X65666666Y-100027200D02*
X65523809Y-100074819D01*
X65523809Y-100074819D02*
X65285714Y-100074819D01*
X66809523Y-100074819D02*
X66238095Y-100074819D01*
X66523809Y-100074819D02*
X66523809Y-99074819D01*
X66523809Y-99074819D02*
X66428571Y-99217676D01*
X66428571Y-99217676D02*
X66333333Y-99312914D01*
X66333333Y-99312914D02*
X66238095Y-99360533D01*
X67190476Y-99170057D02*
X67238095Y-99122438D01*
X67238095Y-99122438D02*
X67333333Y-99074819D01*
X67333333Y-99074819D02*
X67571428Y-99074819D01*
X67571428Y-99074819D02*
X67666666Y-99122438D01*
X67666666Y-99122438D02*
X67714285Y-99170057D01*
X67714285Y-99170057D02*
X67761904Y-99265295D01*
X67761904Y-99265295D02*
X67761904Y-99360533D01*
X67761904Y-99360533D02*
X67714285Y-99503390D01*
X67714285Y-99503390D02*
X67142857Y-100074819D01*
X67142857Y-100074819D02*
X67761904Y-100074819D01*
X70048095Y-99754819D02*
X70048095Y-98754819D01*
X70619523Y-99754819D02*
X70190952Y-99183390D01*
X70619523Y-98754819D02*
X70048095Y-99326247D01*
X21033200Y-70333332D02*
X21080819Y-70190475D01*
X21080819Y-70190475D02*
X21080819Y-69952380D01*
X21080819Y-69952380D02*
X21033200Y-69857142D01*
X21033200Y-69857142D02*
X20985580Y-69809523D01*
X20985580Y-69809523D02*
X20890342Y-69761904D01*
X20890342Y-69761904D02*
X20795104Y-69761904D01*
X20795104Y-69761904D02*
X20699866Y-69809523D01*
X20699866Y-69809523D02*
X20652247Y-69857142D01*
X20652247Y-69857142D02*
X20604628Y-69952380D01*
X20604628Y-69952380D02*
X20557009Y-70142856D01*
X20557009Y-70142856D02*
X20509390Y-70238094D01*
X20509390Y-70238094D02*
X20461771Y-70285713D01*
X20461771Y-70285713D02*
X20366533Y-70333332D01*
X20366533Y-70333332D02*
X20271295Y-70333332D01*
X20271295Y-70333332D02*
X20176057Y-70285713D01*
X20176057Y-70285713D02*
X20128438Y-70238094D01*
X20128438Y-70238094D02*
X20080819Y-70142856D01*
X20080819Y-70142856D02*
X20080819Y-69904761D01*
X20080819Y-69904761D02*
X20128438Y-69761904D01*
X20080819Y-69428570D02*
X21080819Y-69190475D01*
X21080819Y-69190475D02*
X20366533Y-68999999D01*
X20366533Y-68999999D02*
X21080819Y-68809523D01*
X21080819Y-68809523D02*
X20080819Y-68571428D01*
X20176057Y-68238094D02*
X20128438Y-68190475D01*
X20128438Y-68190475D02*
X20080819Y-68095237D01*
X20080819Y-68095237D02*
X20080819Y-67857142D01*
X20080819Y-67857142D02*
X20128438Y-67761904D01*
X20128438Y-67761904D02*
X20176057Y-67714285D01*
X20176057Y-67714285D02*
X20271295Y-67666666D01*
X20271295Y-67666666D02*
X20366533Y-67666666D01*
X20366533Y-67666666D02*
X20509390Y-67714285D01*
X20509390Y-67714285D02*
X21080819Y-68285713D01*
X21080819Y-68285713D02*
X21080819Y-67666666D01*
X64785714Y-62074819D02*
X64785714Y-61074819D01*
X64785714Y-61074819D02*
X65023809Y-61074819D01*
X65023809Y-61074819D02*
X65166666Y-61122438D01*
X65166666Y-61122438D02*
X65261904Y-61217676D01*
X65261904Y-61217676D02*
X65309523Y-61312914D01*
X65309523Y-61312914D02*
X65357142Y-61503390D01*
X65357142Y-61503390D02*
X65357142Y-61646247D01*
X65357142Y-61646247D02*
X65309523Y-61836723D01*
X65309523Y-61836723D02*
X65261904Y-61931961D01*
X65261904Y-61931961D02*
X65166666Y-62027200D01*
X65166666Y-62027200D02*
X65023809Y-62074819D01*
X65023809Y-62074819D02*
X64785714Y-62074819D01*
X66309523Y-62074819D02*
X65738095Y-62074819D01*
X66023809Y-62074819D02*
X66023809Y-61074819D01*
X66023809Y-61074819D02*
X65928571Y-61217676D01*
X65928571Y-61217676D02*
X65833333Y-61312914D01*
X65833333Y-61312914D02*
X65738095Y-61360533D01*
X66928571Y-61074819D02*
X67023809Y-61074819D01*
X67023809Y-61074819D02*
X67119047Y-61122438D01*
X67119047Y-61122438D02*
X67166666Y-61170057D01*
X67166666Y-61170057D02*
X67214285Y-61265295D01*
X67214285Y-61265295D02*
X67261904Y-61455771D01*
X67261904Y-61455771D02*
X67261904Y-61693866D01*
X67261904Y-61693866D02*
X67214285Y-61884342D01*
X67214285Y-61884342D02*
X67166666Y-61979580D01*
X67166666Y-61979580D02*
X67119047Y-62027200D01*
X67119047Y-62027200D02*
X67023809Y-62074819D01*
X67023809Y-62074819D02*
X66928571Y-62074819D01*
X66928571Y-62074819D02*
X66833333Y-62027200D01*
X66833333Y-62027200D02*
X66785714Y-61979580D01*
X66785714Y-61979580D02*
X66738095Y-61884342D01*
X66738095Y-61884342D02*
X66690476Y-61693866D01*
X66690476Y-61693866D02*
X66690476Y-61455771D01*
X66690476Y-61455771D02*
X66738095Y-61265295D01*
X66738095Y-61265295D02*
X66785714Y-61170057D01*
X66785714Y-61170057D02*
X66833333Y-61122438D01*
X66833333Y-61122438D02*
X66928571Y-61074819D01*
X69548095Y-61754819D02*
X69548095Y-60754819D01*
X70119523Y-61754819D02*
X69690952Y-61183390D01*
X70119523Y-60754819D02*
X69548095Y-61326247D01*
X21073200Y-108523332D02*
X21120819Y-108380475D01*
X21120819Y-108380475D02*
X21120819Y-108142380D01*
X21120819Y-108142380D02*
X21073200Y-108047142D01*
X21073200Y-108047142D02*
X21025580Y-107999523D01*
X21025580Y-107999523D02*
X20930342Y-107951904D01*
X20930342Y-107951904D02*
X20835104Y-107951904D01*
X20835104Y-107951904D02*
X20739866Y-107999523D01*
X20739866Y-107999523D02*
X20692247Y-108047142D01*
X20692247Y-108047142D02*
X20644628Y-108142380D01*
X20644628Y-108142380D02*
X20597009Y-108332856D01*
X20597009Y-108332856D02*
X20549390Y-108428094D01*
X20549390Y-108428094D02*
X20501771Y-108475713D01*
X20501771Y-108475713D02*
X20406533Y-108523332D01*
X20406533Y-108523332D02*
X20311295Y-108523332D01*
X20311295Y-108523332D02*
X20216057Y-108475713D01*
X20216057Y-108475713D02*
X20168438Y-108428094D01*
X20168438Y-108428094D02*
X20120819Y-108332856D01*
X20120819Y-108332856D02*
X20120819Y-108094761D01*
X20120819Y-108094761D02*
X20168438Y-107951904D01*
X20120819Y-107618570D02*
X21120819Y-107380475D01*
X21120819Y-107380475D02*
X20406533Y-107189999D01*
X20406533Y-107189999D02*
X21120819Y-106999523D01*
X21120819Y-106999523D02*
X20120819Y-106761428D01*
X20454152Y-105951904D02*
X21120819Y-105951904D01*
X20073200Y-106189999D02*
X20787485Y-106428094D01*
X20787485Y-106428094D02*
X20787485Y-105809047D01*
X97033200Y-89809523D02*
X97080819Y-89666666D01*
X97080819Y-89666666D02*
X97080819Y-89428571D01*
X97080819Y-89428571D02*
X97033200Y-89333333D01*
X97033200Y-89333333D02*
X96985580Y-89285714D01*
X96985580Y-89285714D02*
X96890342Y-89238095D01*
X96890342Y-89238095D02*
X96795104Y-89238095D01*
X96795104Y-89238095D02*
X96699866Y-89285714D01*
X96699866Y-89285714D02*
X96652247Y-89333333D01*
X96652247Y-89333333D02*
X96604628Y-89428571D01*
X96604628Y-89428571D02*
X96557009Y-89619047D01*
X96557009Y-89619047D02*
X96509390Y-89714285D01*
X96509390Y-89714285D02*
X96461771Y-89761904D01*
X96461771Y-89761904D02*
X96366533Y-89809523D01*
X96366533Y-89809523D02*
X96271295Y-89809523D01*
X96271295Y-89809523D02*
X96176057Y-89761904D01*
X96176057Y-89761904D02*
X96128438Y-89714285D01*
X96128438Y-89714285D02*
X96080819Y-89619047D01*
X96080819Y-89619047D02*
X96080819Y-89380952D01*
X96080819Y-89380952D02*
X96128438Y-89238095D01*
X96080819Y-88904761D02*
X97080819Y-88666666D01*
X97080819Y-88666666D02*
X96366533Y-88476190D01*
X96366533Y-88476190D02*
X97080819Y-88285714D01*
X97080819Y-88285714D02*
X96080819Y-88047619D01*
X97080819Y-87142857D02*
X97080819Y-87714285D01*
X97080819Y-87428571D02*
X96080819Y-87428571D01*
X96080819Y-87428571D02*
X96223676Y-87523809D01*
X96223676Y-87523809D02*
X96318914Y-87619047D01*
X96318914Y-87619047D02*
X96366533Y-87714285D01*
X97080819Y-86666666D02*
X97080819Y-86476190D01*
X97080819Y-86476190D02*
X97033200Y-86380952D01*
X97033200Y-86380952D02*
X96985580Y-86333333D01*
X96985580Y-86333333D02*
X96842723Y-86238095D01*
X96842723Y-86238095D02*
X96652247Y-86190476D01*
X96652247Y-86190476D02*
X96271295Y-86190476D01*
X96271295Y-86190476D02*
X96176057Y-86238095D01*
X96176057Y-86238095D02*
X96128438Y-86285714D01*
X96128438Y-86285714D02*
X96080819Y-86380952D01*
X96080819Y-86380952D02*
X96080819Y-86571428D01*
X96080819Y-86571428D02*
X96128438Y-86666666D01*
X96128438Y-86666666D02*
X96176057Y-86714285D01*
X96176057Y-86714285D02*
X96271295Y-86761904D01*
X96271295Y-86761904D02*
X96509390Y-86761904D01*
X96509390Y-86761904D02*
X96604628Y-86714285D01*
X96604628Y-86714285D02*
X96652247Y-86666666D01*
X96652247Y-86666666D02*
X96699866Y-86571428D01*
X96699866Y-86571428D02*
X96699866Y-86380952D01*
X96699866Y-86380952D02*
X96652247Y-86285714D01*
X96652247Y-86285714D02*
X96604628Y-86238095D01*
X96604628Y-86238095D02*
X96509390Y-86190476D01*
X59033200Y-70809523D02*
X59080819Y-70666666D01*
X59080819Y-70666666D02*
X59080819Y-70428571D01*
X59080819Y-70428571D02*
X59033200Y-70333333D01*
X59033200Y-70333333D02*
X58985580Y-70285714D01*
X58985580Y-70285714D02*
X58890342Y-70238095D01*
X58890342Y-70238095D02*
X58795104Y-70238095D01*
X58795104Y-70238095D02*
X58699866Y-70285714D01*
X58699866Y-70285714D02*
X58652247Y-70333333D01*
X58652247Y-70333333D02*
X58604628Y-70428571D01*
X58604628Y-70428571D02*
X58557009Y-70619047D01*
X58557009Y-70619047D02*
X58509390Y-70714285D01*
X58509390Y-70714285D02*
X58461771Y-70761904D01*
X58461771Y-70761904D02*
X58366533Y-70809523D01*
X58366533Y-70809523D02*
X58271295Y-70809523D01*
X58271295Y-70809523D02*
X58176057Y-70761904D01*
X58176057Y-70761904D02*
X58128438Y-70714285D01*
X58128438Y-70714285D02*
X58080819Y-70619047D01*
X58080819Y-70619047D02*
X58080819Y-70380952D01*
X58080819Y-70380952D02*
X58128438Y-70238095D01*
X58080819Y-69904761D02*
X59080819Y-69666666D01*
X59080819Y-69666666D02*
X58366533Y-69476190D01*
X58366533Y-69476190D02*
X59080819Y-69285714D01*
X59080819Y-69285714D02*
X58080819Y-69047619D01*
X59080819Y-68142857D02*
X59080819Y-68714285D01*
X59080819Y-68428571D02*
X58080819Y-68428571D01*
X58080819Y-68428571D02*
X58223676Y-68523809D01*
X58223676Y-68523809D02*
X58318914Y-68619047D01*
X58318914Y-68619047D02*
X58366533Y-68714285D01*
X58080819Y-67523809D02*
X58080819Y-67428571D01*
X58080819Y-67428571D02*
X58128438Y-67333333D01*
X58128438Y-67333333D02*
X58176057Y-67285714D01*
X58176057Y-67285714D02*
X58271295Y-67238095D01*
X58271295Y-67238095D02*
X58461771Y-67190476D01*
X58461771Y-67190476D02*
X58699866Y-67190476D01*
X58699866Y-67190476D02*
X58890342Y-67238095D01*
X58890342Y-67238095D02*
X58985580Y-67285714D01*
X58985580Y-67285714D02*
X59033200Y-67333333D01*
X59033200Y-67333333D02*
X59080819Y-67428571D01*
X59080819Y-67428571D02*
X59080819Y-67523809D01*
X59080819Y-67523809D02*
X59033200Y-67619047D01*
X59033200Y-67619047D02*
X58985580Y-67666666D01*
X58985580Y-67666666D02*
X58890342Y-67714285D01*
X58890342Y-67714285D02*
X58699866Y-67761904D01*
X58699866Y-67761904D02*
X58461771Y-67761904D01*
X58461771Y-67761904D02*
X58271295Y-67714285D01*
X58271295Y-67714285D02*
X58176057Y-67666666D01*
X58176057Y-67666666D02*
X58128438Y-67619047D01*
X58128438Y-67619047D02*
X58080819Y-67523809D01*
X46761905Y-100074819D02*
X46761905Y-99074819D01*
X46761905Y-99074819D02*
X47000000Y-99074819D01*
X47000000Y-99074819D02*
X47142857Y-99122438D01*
X47142857Y-99122438D02*
X47238095Y-99217676D01*
X47238095Y-99217676D02*
X47285714Y-99312914D01*
X47285714Y-99312914D02*
X47333333Y-99503390D01*
X47333333Y-99503390D02*
X47333333Y-99646247D01*
X47333333Y-99646247D02*
X47285714Y-99836723D01*
X47285714Y-99836723D02*
X47238095Y-99931961D01*
X47238095Y-99931961D02*
X47142857Y-100027200D01*
X47142857Y-100027200D02*
X47000000Y-100074819D01*
X47000000Y-100074819D02*
X46761905Y-100074819D01*
X47666667Y-99074819D02*
X48333333Y-99074819D01*
X48333333Y-99074819D02*
X47904762Y-100074819D01*
X51048095Y-99754819D02*
X51048095Y-98754819D01*
X51619523Y-99754819D02*
X51190952Y-99183390D01*
X51619523Y-98754819D02*
X51048095Y-99326247D01*
X83047142Y-39374819D02*
X82713809Y-38898628D01*
X82475714Y-39374819D02*
X82475714Y-38374819D01*
X82475714Y-38374819D02*
X82856666Y-38374819D01*
X82856666Y-38374819D02*
X82951904Y-38422438D01*
X82951904Y-38422438D02*
X82999523Y-38470057D01*
X82999523Y-38470057D02*
X83047142Y-38565295D01*
X83047142Y-38565295D02*
X83047142Y-38708152D01*
X83047142Y-38708152D02*
X82999523Y-38803390D01*
X82999523Y-38803390D02*
X82951904Y-38851009D01*
X82951904Y-38851009D02*
X82856666Y-38898628D01*
X82856666Y-38898628D02*
X82475714Y-38898628D01*
X83999523Y-39374819D02*
X83428095Y-39374819D01*
X83713809Y-39374819D02*
X83713809Y-38374819D01*
X83713809Y-38374819D02*
X83618571Y-38517676D01*
X83618571Y-38517676D02*
X83523333Y-38612914D01*
X83523333Y-38612914D02*
X83428095Y-38660533D01*
X84951904Y-39374819D02*
X84380476Y-39374819D01*
X84666190Y-39374819D02*
X84666190Y-38374819D01*
X84666190Y-38374819D02*
X84570952Y-38517676D01*
X84570952Y-38517676D02*
X84475714Y-38612914D01*
X84475714Y-38612914D02*
X84380476Y-38660533D01*
X44666666Y-31254819D02*
X44333333Y-30778628D01*
X44095238Y-31254819D02*
X44095238Y-30254819D01*
X44095238Y-30254819D02*
X44476190Y-30254819D01*
X44476190Y-30254819D02*
X44571428Y-30302438D01*
X44571428Y-30302438D02*
X44619047Y-30350057D01*
X44619047Y-30350057D02*
X44666666Y-30445295D01*
X44666666Y-30445295D02*
X44666666Y-30588152D01*
X44666666Y-30588152D02*
X44619047Y-30683390D01*
X44619047Y-30683390D02*
X44571428Y-30731009D01*
X44571428Y-30731009D02*
X44476190Y-30778628D01*
X44476190Y-30778628D02*
X44095238Y-30778628D01*
X45095238Y-30731009D02*
X45428571Y-30731009D01*
X45571428Y-31254819D02*
X45095238Y-31254819D01*
X45095238Y-31254819D02*
X45095238Y-30254819D01*
X45095238Y-30254819D02*
X45571428Y-30254819D01*
X46333333Y-30731009D02*
X46000000Y-30731009D01*
X46000000Y-31254819D02*
X46000000Y-30254819D01*
X46000000Y-30254819D02*
X46476190Y-30254819D01*
X47000000Y-30254819D02*
X47000000Y-30492914D01*
X46761905Y-30397676D02*
X47000000Y-30492914D01*
X47000000Y-30492914D02*
X47238095Y-30397676D01*
X46857143Y-30683390D02*
X47000000Y-30492914D01*
X47000000Y-30492914D02*
X47142857Y-30683390D01*
X47761905Y-30254819D02*
X47761905Y-30492914D01*
X47523810Y-30397676D02*
X47761905Y-30492914D01*
X47761905Y-30492914D02*
X48000000Y-30397676D01*
X47619048Y-30683390D02*
X47761905Y-30492914D01*
X47761905Y-30492914D02*
X47904762Y-30683390D01*
X65285714Y-81074819D02*
X65285714Y-80074819D01*
X65285714Y-80074819D02*
X65523809Y-80074819D01*
X65523809Y-80074819D02*
X65666666Y-80122438D01*
X65666666Y-80122438D02*
X65761904Y-80217676D01*
X65761904Y-80217676D02*
X65809523Y-80312914D01*
X65809523Y-80312914D02*
X65857142Y-80503390D01*
X65857142Y-80503390D02*
X65857142Y-80646247D01*
X65857142Y-80646247D02*
X65809523Y-80836723D01*
X65809523Y-80836723D02*
X65761904Y-80931961D01*
X65761904Y-80931961D02*
X65666666Y-81027200D01*
X65666666Y-81027200D02*
X65523809Y-81074819D01*
X65523809Y-81074819D02*
X65285714Y-81074819D01*
X66809523Y-81074819D02*
X66238095Y-81074819D01*
X66523809Y-81074819D02*
X66523809Y-80074819D01*
X66523809Y-80074819D02*
X66428571Y-80217676D01*
X66428571Y-80217676D02*
X66333333Y-80312914D01*
X66333333Y-80312914D02*
X66238095Y-80360533D01*
X67761904Y-81074819D02*
X67190476Y-81074819D01*
X67476190Y-81074819D02*
X67476190Y-80074819D01*
X67476190Y-80074819D02*
X67380952Y-80217676D01*
X67380952Y-80217676D02*
X67285714Y-80312914D01*
X67285714Y-80312914D02*
X67190476Y-80360533D01*
X70048095Y-80754819D02*
X70048095Y-79754819D01*
X70619523Y-80754819D02*
X70190952Y-80183390D01*
X70619523Y-79754819D02*
X70048095Y-80326247D01*
X40033200Y-70333332D02*
X40080819Y-70190475D01*
X40080819Y-70190475D02*
X40080819Y-69952380D01*
X40080819Y-69952380D02*
X40033200Y-69857142D01*
X40033200Y-69857142D02*
X39985580Y-69809523D01*
X39985580Y-69809523D02*
X39890342Y-69761904D01*
X39890342Y-69761904D02*
X39795104Y-69761904D01*
X39795104Y-69761904D02*
X39699866Y-69809523D01*
X39699866Y-69809523D02*
X39652247Y-69857142D01*
X39652247Y-69857142D02*
X39604628Y-69952380D01*
X39604628Y-69952380D02*
X39557009Y-70142856D01*
X39557009Y-70142856D02*
X39509390Y-70238094D01*
X39509390Y-70238094D02*
X39461771Y-70285713D01*
X39461771Y-70285713D02*
X39366533Y-70333332D01*
X39366533Y-70333332D02*
X39271295Y-70333332D01*
X39271295Y-70333332D02*
X39176057Y-70285713D01*
X39176057Y-70285713D02*
X39128438Y-70238094D01*
X39128438Y-70238094D02*
X39080819Y-70142856D01*
X39080819Y-70142856D02*
X39080819Y-69904761D01*
X39080819Y-69904761D02*
X39128438Y-69761904D01*
X39080819Y-69428570D02*
X40080819Y-69190475D01*
X40080819Y-69190475D02*
X39366533Y-68999999D01*
X39366533Y-68999999D02*
X40080819Y-68809523D01*
X40080819Y-68809523D02*
X39080819Y-68571428D01*
X39080819Y-67761904D02*
X39080819Y-67952380D01*
X39080819Y-67952380D02*
X39128438Y-68047618D01*
X39128438Y-68047618D02*
X39176057Y-68095237D01*
X39176057Y-68095237D02*
X39318914Y-68190475D01*
X39318914Y-68190475D02*
X39509390Y-68238094D01*
X39509390Y-68238094D02*
X39890342Y-68238094D01*
X39890342Y-68238094D02*
X39985580Y-68190475D01*
X39985580Y-68190475D02*
X40033200Y-68142856D01*
X40033200Y-68142856D02*
X40080819Y-68047618D01*
X40080819Y-68047618D02*
X40080819Y-67857142D01*
X40080819Y-67857142D02*
X40033200Y-67761904D01*
X40033200Y-67761904D02*
X39985580Y-67714285D01*
X39985580Y-67714285D02*
X39890342Y-67666666D01*
X39890342Y-67666666D02*
X39652247Y-67666666D01*
X39652247Y-67666666D02*
X39557009Y-67714285D01*
X39557009Y-67714285D02*
X39509390Y-67761904D01*
X39509390Y-67761904D02*
X39461771Y-67857142D01*
X39461771Y-67857142D02*
X39461771Y-68047618D01*
X39461771Y-68047618D02*
X39509390Y-68142856D01*
X39509390Y-68142856D02*
X39557009Y-68190475D01*
X39557009Y-68190475D02*
X39652247Y-68238094D01*
X19034819Y-107666666D02*
X18558628Y-107999999D01*
X19034819Y-108238094D02*
X18034819Y-108238094D01*
X18034819Y-108238094D02*
X18034819Y-107857142D01*
X18034819Y-107857142D02*
X18082438Y-107761904D01*
X18082438Y-107761904D02*
X18130057Y-107714285D01*
X18130057Y-107714285D02*
X18225295Y-107666666D01*
X18225295Y-107666666D02*
X18368152Y-107666666D01*
X18368152Y-107666666D02*
X18463390Y-107714285D01*
X18463390Y-107714285D02*
X18511009Y-107761904D01*
X18511009Y-107761904D02*
X18558628Y-107857142D01*
X18558628Y-107857142D02*
X18558628Y-108238094D01*
X18034819Y-106809523D02*
X18034819Y-106999999D01*
X18034819Y-106999999D02*
X18082438Y-107095237D01*
X18082438Y-107095237D02*
X18130057Y-107142856D01*
X18130057Y-107142856D02*
X18272914Y-107238094D01*
X18272914Y-107238094D02*
X18463390Y-107285713D01*
X18463390Y-107285713D02*
X18844342Y-107285713D01*
X18844342Y-107285713D02*
X18939580Y-107238094D01*
X18939580Y-107238094D02*
X18987200Y-107190475D01*
X18987200Y-107190475D02*
X19034819Y-107095237D01*
X19034819Y-107095237D02*
X19034819Y-106904761D01*
X19034819Y-106904761D02*
X18987200Y-106809523D01*
X18987200Y-106809523D02*
X18939580Y-106761904D01*
X18939580Y-106761904D02*
X18844342Y-106714285D01*
X18844342Y-106714285D02*
X18606247Y-106714285D01*
X18606247Y-106714285D02*
X18511009Y-106761904D01*
X18511009Y-106761904D02*
X18463390Y-106809523D01*
X18463390Y-106809523D02*
X18415771Y-106904761D01*
X18415771Y-106904761D02*
X18415771Y-107095237D01*
X18415771Y-107095237D02*
X18463390Y-107190475D01*
X18463390Y-107190475D02*
X18511009Y-107238094D01*
X18511009Y-107238094D02*
X18606247Y-107285713D01*
X40033200Y-51333332D02*
X40080819Y-51190475D01*
X40080819Y-51190475D02*
X40080819Y-50952380D01*
X40080819Y-50952380D02*
X40033200Y-50857142D01*
X40033200Y-50857142D02*
X39985580Y-50809523D01*
X39985580Y-50809523D02*
X39890342Y-50761904D01*
X39890342Y-50761904D02*
X39795104Y-50761904D01*
X39795104Y-50761904D02*
X39699866Y-50809523D01*
X39699866Y-50809523D02*
X39652247Y-50857142D01*
X39652247Y-50857142D02*
X39604628Y-50952380D01*
X39604628Y-50952380D02*
X39557009Y-51142856D01*
X39557009Y-51142856D02*
X39509390Y-51238094D01*
X39509390Y-51238094D02*
X39461771Y-51285713D01*
X39461771Y-51285713D02*
X39366533Y-51333332D01*
X39366533Y-51333332D02*
X39271295Y-51333332D01*
X39271295Y-51333332D02*
X39176057Y-51285713D01*
X39176057Y-51285713D02*
X39128438Y-51238094D01*
X39128438Y-51238094D02*
X39080819Y-51142856D01*
X39080819Y-51142856D02*
X39080819Y-50904761D01*
X39080819Y-50904761D02*
X39128438Y-50761904D01*
X39080819Y-50428570D02*
X40080819Y-50190475D01*
X40080819Y-50190475D02*
X39366533Y-49999999D01*
X39366533Y-49999999D02*
X40080819Y-49809523D01*
X40080819Y-49809523D02*
X39080819Y-49571428D01*
X39080819Y-48714285D02*
X39080819Y-49190475D01*
X39080819Y-49190475D02*
X39557009Y-49238094D01*
X39557009Y-49238094D02*
X39509390Y-49190475D01*
X39509390Y-49190475D02*
X39461771Y-49095237D01*
X39461771Y-49095237D02*
X39461771Y-48857142D01*
X39461771Y-48857142D02*
X39509390Y-48761904D01*
X39509390Y-48761904D02*
X39557009Y-48714285D01*
X39557009Y-48714285D02*
X39652247Y-48666666D01*
X39652247Y-48666666D02*
X39890342Y-48666666D01*
X39890342Y-48666666D02*
X39985580Y-48714285D01*
X39985580Y-48714285D02*
X40033200Y-48761904D01*
X40033200Y-48761904D02*
X40080819Y-48857142D01*
X40080819Y-48857142D02*
X40080819Y-49095237D01*
X40080819Y-49095237D02*
X40033200Y-49190475D01*
X40033200Y-49190475D02*
X39985580Y-49238094D01*
X21033200Y-51333332D02*
X21080819Y-51190475D01*
X21080819Y-51190475D02*
X21080819Y-50952380D01*
X21080819Y-50952380D02*
X21033200Y-50857142D01*
X21033200Y-50857142D02*
X20985580Y-50809523D01*
X20985580Y-50809523D02*
X20890342Y-50761904D01*
X20890342Y-50761904D02*
X20795104Y-50761904D01*
X20795104Y-50761904D02*
X20699866Y-50809523D01*
X20699866Y-50809523D02*
X20652247Y-50857142D01*
X20652247Y-50857142D02*
X20604628Y-50952380D01*
X20604628Y-50952380D02*
X20557009Y-51142856D01*
X20557009Y-51142856D02*
X20509390Y-51238094D01*
X20509390Y-51238094D02*
X20461771Y-51285713D01*
X20461771Y-51285713D02*
X20366533Y-51333332D01*
X20366533Y-51333332D02*
X20271295Y-51333332D01*
X20271295Y-51333332D02*
X20176057Y-51285713D01*
X20176057Y-51285713D02*
X20128438Y-51238094D01*
X20128438Y-51238094D02*
X20080819Y-51142856D01*
X20080819Y-51142856D02*
X20080819Y-50904761D01*
X20080819Y-50904761D02*
X20128438Y-50761904D01*
X20080819Y-50428570D02*
X21080819Y-50190475D01*
X21080819Y-50190475D02*
X20366533Y-49999999D01*
X20366533Y-49999999D02*
X21080819Y-49809523D01*
X21080819Y-49809523D02*
X20080819Y-49571428D01*
X21080819Y-48666666D02*
X21080819Y-49238094D01*
X21080819Y-48952380D02*
X20080819Y-48952380D01*
X20080819Y-48952380D02*
X20223676Y-49047618D01*
X20223676Y-49047618D02*
X20318914Y-49142856D01*
X20318914Y-49142856D02*
X20366533Y-49238094D01*
X97033200Y-108729523D02*
X97080819Y-108586666D01*
X97080819Y-108586666D02*
X97080819Y-108348571D01*
X97080819Y-108348571D02*
X97033200Y-108253333D01*
X97033200Y-108253333D02*
X96985580Y-108205714D01*
X96985580Y-108205714D02*
X96890342Y-108158095D01*
X96890342Y-108158095D02*
X96795104Y-108158095D01*
X96795104Y-108158095D02*
X96699866Y-108205714D01*
X96699866Y-108205714D02*
X96652247Y-108253333D01*
X96652247Y-108253333D02*
X96604628Y-108348571D01*
X96604628Y-108348571D02*
X96557009Y-108539047D01*
X96557009Y-108539047D02*
X96509390Y-108634285D01*
X96509390Y-108634285D02*
X96461771Y-108681904D01*
X96461771Y-108681904D02*
X96366533Y-108729523D01*
X96366533Y-108729523D02*
X96271295Y-108729523D01*
X96271295Y-108729523D02*
X96176057Y-108681904D01*
X96176057Y-108681904D02*
X96128438Y-108634285D01*
X96128438Y-108634285D02*
X96080819Y-108539047D01*
X96080819Y-108539047D02*
X96080819Y-108300952D01*
X96080819Y-108300952D02*
X96128438Y-108158095D01*
X96080819Y-107824761D02*
X97080819Y-107586666D01*
X97080819Y-107586666D02*
X96366533Y-107396190D01*
X96366533Y-107396190D02*
X97080819Y-107205714D01*
X97080819Y-107205714D02*
X96080819Y-106967619D01*
X96176057Y-106634285D02*
X96128438Y-106586666D01*
X96128438Y-106586666D02*
X96080819Y-106491428D01*
X96080819Y-106491428D02*
X96080819Y-106253333D01*
X96080819Y-106253333D02*
X96128438Y-106158095D01*
X96128438Y-106158095D02*
X96176057Y-106110476D01*
X96176057Y-106110476D02*
X96271295Y-106062857D01*
X96271295Y-106062857D02*
X96366533Y-106062857D01*
X96366533Y-106062857D02*
X96509390Y-106110476D01*
X96509390Y-106110476D02*
X97080819Y-106681904D01*
X97080819Y-106681904D02*
X97080819Y-106062857D01*
X96080819Y-105443809D02*
X96080819Y-105348571D01*
X96080819Y-105348571D02*
X96128438Y-105253333D01*
X96128438Y-105253333D02*
X96176057Y-105205714D01*
X96176057Y-105205714D02*
X96271295Y-105158095D01*
X96271295Y-105158095D02*
X96461771Y-105110476D01*
X96461771Y-105110476D02*
X96699866Y-105110476D01*
X96699866Y-105110476D02*
X96890342Y-105158095D01*
X96890342Y-105158095D02*
X96985580Y-105205714D01*
X96985580Y-105205714D02*
X97033200Y-105253333D01*
X97033200Y-105253333D02*
X97080819Y-105348571D01*
X97080819Y-105348571D02*
X97080819Y-105443809D01*
X97080819Y-105443809D02*
X97033200Y-105539047D01*
X97033200Y-105539047D02*
X96985580Y-105586666D01*
X96985580Y-105586666D02*
X96890342Y-105634285D01*
X96890342Y-105634285D02*
X96699866Y-105681904D01*
X96699866Y-105681904D02*
X96461771Y-105681904D01*
X96461771Y-105681904D02*
X96271295Y-105634285D01*
X96271295Y-105634285D02*
X96176057Y-105586666D01*
X96176057Y-105586666D02*
X96128438Y-105539047D01*
X96128438Y-105539047D02*
X96080819Y-105443809D01*
X107785714Y-100574819D02*
X107785714Y-99574819D01*
X107785714Y-99574819D02*
X108023809Y-99574819D01*
X108023809Y-99574819D02*
X108166666Y-99622438D01*
X108166666Y-99622438D02*
X108261904Y-99717676D01*
X108261904Y-99717676D02*
X108309523Y-99812914D01*
X108309523Y-99812914D02*
X108357142Y-100003390D01*
X108357142Y-100003390D02*
X108357142Y-100146247D01*
X108357142Y-100146247D02*
X108309523Y-100336723D01*
X108309523Y-100336723D02*
X108261904Y-100431961D01*
X108261904Y-100431961D02*
X108166666Y-100527200D01*
X108166666Y-100527200D02*
X108023809Y-100574819D01*
X108023809Y-100574819D02*
X107785714Y-100574819D01*
X108738095Y-99670057D02*
X108785714Y-99622438D01*
X108785714Y-99622438D02*
X108880952Y-99574819D01*
X108880952Y-99574819D02*
X109119047Y-99574819D01*
X109119047Y-99574819D02*
X109214285Y-99622438D01*
X109214285Y-99622438D02*
X109261904Y-99670057D01*
X109261904Y-99670057D02*
X109309523Y-99765295D01*
X109309523Y-99765295D02*
X109309523Y-99860533D01*
X109309523Y-99860533D02*
X109261904Y-100003390D01*
X109261904Y-100003390D02*
X108690476Y-100574819D01*
X108690476Y-100574819D02*
X109309523Y-100574819D01*
X109928571Y-99574819D02*
X110023809Y-99574819D01*
X110023809Y-99574819D02*
X110119047Y-99622438D01*
X110119047Y-99622438D02*
X110166666Y-99670057D01*
X110166666Y-99670057D02*
X110214285Y-99765295D01*
X110214285Y-99765295D02*
X110261904Y-99955771D01*
X110261904Y-99955771D02*
X110261904Y-100193866D01*
X110261904Y-100193866D02*
X110214285Y-100384342D01*
X110214285Y-100384342D02*
X110166666Y-100479580D01*
X110166666Y-100479580D02*
X110119047Y-100527200D01*
X110119047Y-100527200D02*
X110023809Y-100574819D01*
X110023809Y-100574819D02*
X109928571Y-100574819D01*
X109928571Y-100574819D02*
X109833333Y-100527200D01*
X109833333Y-100527200D02*
X109785714Y-100479580D01*
X109785714Y-100479580D02*
X109738095Y-100384342D01*
X109738095Y-100384342D02*
X109690476Y-100193866D01*
X109690476Y-100193866D02*
X109690476Y-99955771D01*
X109690476Y-99955771D02*
X109738095Y-99765295D01*
X109738095Y-99765295D02*
X109785714Y-99670057D01*
X109785714Y-99670057D02*
X109833333Y-99622438D01*
X109833333Y-99622438D02*
X109928571Y-99574819D01*
X112548095Y-100254819D02*
X112548095Y-99254819D01*
X113119523Y-100254819D02*
X112690952Y-99683390D01*
X113119523Y-99254819D02*
X112548095Y-99826247D01*
X27261905Y-62074819D02*
X27261905Y-61074819D01*
X27261905Y-61074819D02*
X27500000Y-61074819D01*
X27500000Y-61074819D02*
X27642857Y-61122438D01*
X27642857Y-61122438D02*
X27738095Y-61217676D01*
X27738095Y-61217676D02*
X27785714Y-61312914D01*
X27785714Y-61312914D02*
X27833333Y-61503390D01*
X27833333Y-61503390D02*
X27833333Y-61646247D01*
X27833333Y-61646247D02*
X27785714Y-61836723D01*
X27785714Y-61836723D02*
X27738095Y-61931961D01*
X27738095Y-61931961D02*
X27642857Y-62027200D01*
X27642857Y-62027200D02*
X27500000Y-62074819D01*
X27500000Y-62074819D02*
X27261905Y-62074819D01*
X28785714Y-62074819D02*
X28214286Y-62074819D01*
X28500000Y-62074819D02*
X28500000Y-61074819D01*
X28500000Y-61074819D02*
X28404762Y-61217676D01*
X28404762Y-61217676D02*
X28309524Y-61312914D01*
X28309524Y-61312914D02*
X28214286Y-61360533D01*
X31548095Y-61754819D02*
X31548095Y-60754819D01*
X32119523Y-61754819D02*
X31690952Y-61183390D01*
X32119523Y-60754819D02*
X31548095Y-61326247D01*
X46761905Y-81074819D02*
X46761905Y-80074819D01*
X46761905Y-80074819D02*
X47000000Y-80074819D01*
X47000000Y-80074819D02*
X47142857Y-80122438D01*
X47142857Y-80122438D02*
X47238095Y-80217676D01*
X47238095Y-80217676D02*
X47285714Y-80312914D01*
X47285714Y-80312914D02*
X47333333Y-80503390D01*
X47333333Y-80503390D02*
X47333333Y-80646247D01*
X47333333Y-80646247D02*
X47285714Y-80836723D01*
X47285714Y-80836723D02*
X47238095Y-80931961D01*
X47238095Y-80931961D02*
X47142857Y-81027200D01*
X47142857Y-81027200D02*
X47000000Y-81074819D01*
X47000000Y-81074819D02*
X46761905Y-81074819D01*
X48190476Y-80074819D02*
X48000000Y-80074819D01*
X48000000Y-80074819D02*
X47904762Y-80122438D01*
X47904762Y-80122438D02*
X47857143Y-80170057D01*
X47857143Y-80170057D02*
X47761905Y-80312914D01*
X47761905Y-80312914D02*
X47714286Y-80503390D01*
X47714286Y-80503390D02*
X47714286Y-80884342D01*
X47714286Y-80884342D02*
X47761905Y-80979580D01*
X47761905Y-80979580D02*
X47809524Y-81027200D01*
X47809524Y-81027200D02*
X47904762Y-81074819D01*
X47904762Y-81074819D02*
X48095238Y-81074819D01*
X48095238Y-81074819D02*
X48190476Y-81027200D01*
X48190476Y-81027200D02*
X48238095Y-80979580D01*
X48238095Y-80979580D02*
X48285714Y-80884342D01*
X48285714Y-80884342D02*
X48285714Y-80646247D01*
X48285714Y-80646247D02*
X48238095Y-80551009D01*
X48238095Y-80551009D02*
X48190476Y-80503390D01*
X48190476Y-80503390D02*
X48095238Y-80455771D01*
X48095238Y-80455771D02*
X47904762Y-80455771D01*
X47904762Y-80455771D02*
X47809524Y-80503390D01*
X47809524Y-80503390D02*
X47761905Y-80551009D01*
X47761905Y-80551009D02*
X47714286Y-80646247D01*
X51048095Y-80754819D02*
X51048095Y-79754819D01*
X51619523Y-80754819D02*
X51190952Y-80183390D01*
X51619523Y-79754819D02*
X51048095Y-80326247D01*
X84285714Y-119074819D02*
X84285714Y-118074819D01*
X84285714Y-118074819D02*
X84523809Y-118074819D01*
X84523809Y-118074819D02*
X84666666Y-118122438D01*
X84666666Y-118122438D02*
X84761904Y-118217676D01*
X84761904Y-118217676D02*
X84809523Y-118312914D01*
X84809523Y-118312914D02*
X84857142Y-118503390D01*
X84857142Y-118503390D02*
X84857142Y-118646247D01*
X84857142Y-118646247D02*
X84809523Y-118836723D01*
X84809523Y-118836723D02*
X84761904Y-118931961D01*
X84761904Y-118931961D02*
X84666666Y-119027200D01*
X84666666Y-119027200D02*
X84523809Y-119074819D01*
X84523809Y-119074819D02*
X84285714Y-119074819D01*
X85809523Y-119074819D02*
X85238095Y-119074819D01*
X85523809Y-119074819D02*
X85523809Y-118074819D01*
X85523809Y-118074819D02*
X85428571Y-118217676D01*
X85428571Y-118217676D02*
X85333333Y-118312914D01*
X85333333Y-118312914D02*
X85238095Y-118360533D01*
X86142857Y-118074819D02*
X86809523Y-118074819D01*
X86809523Y-118074819D02*
X86380952Y-119074819D01*
X89048095Y-118754819D02*
X89048095Y-117754819D01*
X89619523Y-118754819D02*
X89190952Y-118183390D01*
X89619523Y-117754819D02*
X89048095Y-118326247D01*
X115166666Y-20254819D02*
X114833333Y-19778628D01*
X114595238Y-20254819D02*
X114595238Y-19254819D01*
X114595238Y-19254819D02*
X114976190Y-19254819D01*
X114976190Y-19254819D02*
X115071428Y-19302438D01*
X115071428Y-19302438D02*
X115119047Y-19350057D01*
X115119047Y-19350057D02*
X115166666Y-19445295D01*
X115166666Y-19445295D02*
X115166666Y-19588152D01*
X115166666Y-19588152D02*
X115119047Y-19683390D01*
X115119047Y-19683390D02*
X115071428Y-19731009D01*
X115071428Y-19731009D02*
X114976190Y-19778628D01*
X114976190Y-19778628D02*
X114595238Y-19778628D01*
X115595238Y-19731009D02*
X115928571Y-19731009D01*
X116071428Y-20254819D02*
X115595238Y-20254819D01*
X115595238Y-20254819D02*
X115595238Y-19254819D01*
X115595238Y-19254819D02*
X116071428Y-19254819D01*
X116833333Y-19731009D02*
X116500000Y-19731009D01*
X116500000Y-20254819D02*
X116500000Y-19254819D01*
X116500000Y-19254819D02*
X116976190Y-19254819D01*
X117500000Y-19254819D02*
X117500000Y-19492914D01*
X117261905Y-19397676D02*
X117500000Y-19492914D01*
X117500000Y-19492914D02*
X117738095Y-19397676D01*
X117357143Y-19683390D02*
X117500000Y-19492914D01*
X117500000Y-19492914D02*
X117642857Y-19683390D01*
X118261905Y-19254819D02*
X118261905Y-19492914D01*
X118023810Y-19397676D02*
X118261905Y-19492914D01*
X118261905Y-19492914D02*
X118500000Y-19397676D01*
X118119048Y-19683390D02*
X118261905Y-19492914D01*
X118261905Y-19492914D02*
X118404762Y-19683390D01*
X85285714Y-55834819D02*
X85285714Y-54834819D01*
X85285714Y-54834819D02*
X85523809Y-54834819D01*
X85523809Y-54834819D02*
X85666666Y-54882438D01*
X85666666Y-54882438D02*
X85761904Y-54977676D01*
X85761904Y-54977676D02*
X85809523Y-55072914D01*
X85809523Y-55072914D02*
X85857142Y-55263390D01*
X85857142Y-55263390D02*
X85857142Y-55406247D01*
X85857142Y-55406247D02*
X85809523Y-55596723D01*
X85809523Y-55596723D02*
X85761904Y-55691961D01*
X85761904Y-55691961D02*
X85666666Y-55787200D01*
X85666666Y-55787200D02*
X85523809Y-55834819D01*
X85523809Y-55834819D02*
X85285714Y-55834819D01*
X86809523Y-55834819D02*
X86238095Y-55834819D01*
X86523809Y-55834819D02*
X86523809Y-54834819D01*
X86523809Y-54834819D02*
X86428571Y-54977676D01*
X86428571Y-54977676D02*
X86333333Y-55072914D01*
X86333333Y-55072914D02*
X86238095Y-55120533D01*
X87666666Y-55168152D02*
X87666666Y-55834819D01*
X87428571Y-54787200D02*
X87190476Y-55501485D01*
X87190476Y-55501485D02*
X87809523Y-55501485D01*
X82428095Y-56154819D02*
X82428095Y-55154819D01*
X82999523Y-56154819D02*
X82570952Y-55583390D01*
X82999523Y-55154819D02*
X82428095Y-55726247D01*
X46761905Y-62074819D02*
X46761905Y-61074819D01*
X46761905Y-61074819D02*
X47000000Y-61074819D01*
X47000000Y-61074819D02*
X47142857Y-61122438D01*
X47142857Y-61122438D02*
X47238095Y-61217676D01*
X47238095Y-61217676D02*
X47285714Y-61312914D01*
X47285714Y-61312914D02*
X47333333Y-61503390D01*
X47333333Y-61503390D02*
X47333333Y-61646247D01*
X47333333Y-61646247D02*
X47285714Y-61836723D01*
X47285714Y-61836723D02*
X47238095Y-61931961D01*
X47238095Y-61931961D02*
X47142857Y-62027200D01*
X47142857Y-62027200D02*
X47000000Y-62074819D01*
X47000000Y-62074819D02*
X46761905Y-62074819D01*
X48238095Y-61074819D02*
X47761905Y-61074819D01*
X47761905Y-61074819D02*
X47714286Y-61551009D01*
X47714286Y-61551009D02*
X47761905Y-61503390D01*
X47761905Y-61503390D02*
X47857143Y-61455771D01*
X47857143Y-61455771D02*
X48095238Y-61455771D01*
X48095238Y-61455771D02*
X48190476Y-61503390D01*
X48190476Y-61503390D02*
X48238095Y-61551009D01*
X48238095Y-61551009D02*
X48285714Y-61646247D01*
X48285714Y-61646247D02*
X48285714Y-61884342D01*
X48285714Y-61884342D02*
X48238095Y-61979580D01*
X48238095Y-61979580D02*
X48190476Y-62027200D01*
X48190476Y-62027200D02*
X48095238Y-62074819D01*
X48095238Y-62074819D02*
X47857143Y-62074819D01*
X47857143Y-62074819D02*
X47761905Y-62027200D01*
X47761905Y-62027200D02*
X47714286Y-61979580D01*
X51048095Y-61754819D02*
X51048095Y-60754819D01*
X51619523Y-61754819D02*
X51190952Y-61183390D01*
X51619523Y-60754819D02*
X51048095Y-61326247D01*
X107785714Y-118574819D02*
X107785714Y-117574819D01*
X107785714Y-117574819D02*
X108023809Y-117574819D01*
X108023809Y-117574819D02*
X108166666Y-117622438D01*
X108166666Y-117622438D02*
X108261904Y-117717676D01*
X108261904Y-117717676D02*
X108309523Y-117812914D01*
X108309523Y-117812914D02*
X108357142Y-118003390D01*
X108357142Y-118003390D02*
X108357142Y-118146247D01*
X108357142Y-118146247D02*
X108309523Y-118336723D01*
X108309523Y-118336723D02*
X108261904Y-118431961D01*
X108261904Y-118431961D02*
X108166666Y-118527200D01*
X108166666Y-118527200D02*
X108023809Y-118574819D01*
X108023809Y-118574819D02*
X107785714Y-118574819D01*
X108738095Y-117670057D02*
X108785714Y-117622438D01*
X108785714Y-117622438D02*
X108880952Y-117574819D01*
X108880952Y-117574819D02*
X109119047Y-117574819D01*
X109119047Y-117574819D02*
X109214285Y-117622438D01*
X109214285Y-117622438D02*
X109261904Y-117670057D01*
X109261904Y-117670057D02*
X109309523Y-117765295D01*
X109309523Y-117765295D02*
X109309523Y-117860533D01*
X109309523Y-117860533D02*
X109261904Y-118003390D01*
X109261904Y-118003390D02*
X108690476Y-118574819D01*
X108690476Y-118574819D02*
X109309523Y-118574819D01*
X110261904Y-118574819D02*
X109690476Y-118574819D01*
X109976190Y-118574819D02*
X109976190Y-117574819D01*
X109976190Y-117574819D02*
X109880952Y-117717676D01*
X109880952Y-117717676D02*
X109785714Y-117812914D01*
X109785714Y-117812914D02*
X109690476Y-117860533D01*
X112548095Y-118254819D02*
X112548095Y-117254819D01*
X113119523Y-118254819D02*
X112690952Y-117683390D01*
X113119523Y-117254819D02*
X112548095Y-117826247D01*
X64785714Y-119074819D02*
X64785714Y-118074819D01*
X64785714Y-118074819D02*
X65023809Y-118074819D01*
X65023809Y-118074819D02*
X65166666Y-118122438D01*
X65166666Y-118122438D02*
X65261904Y-118217676D01*
X65261904Y-118217676D02*
X65309523Y-118312914D01*
X65309523Y-118312914D02*
X65357142Y-118503390D01*
X65357142Y-118503390D02*
X65357142Y-118646247D01*
X65357142Y-118646247D02*
X65309523Y-118836723D01*
X65309523Y-118836723D02*
X65261904Y-118931961D01*
X65261904Y-118931961D02*
X65166666Y-119027200D01*
X65166666Y-119027200D02*
X65023809Y-119074819D01*
X65023809Y-119074819D02*
X64785714Y-119074819D01*
X66309523Y-119074819D02*
X65738095Y-119074819D01*
X66023809Y-119074819D02*
X66023809Y-118074819D01*
X66023809Y-118074819D02*
X65928571Y-118217676D01*
X65928571Y-118217676D02*
X65833333Y-118312914D01*
X65833333Y-118312914D02*
X65738095Y-118360533D01*
X66642857Y-118074819D02*
X67261904Y-118074819D01*
X67261904Y-118074819D02*
X66928571Y-118455771D01*
X66928571Y-118455771D02*
X67071428Y-118455771D01*
X67071428Y-118455771D02*
X67166666Y-118503390D01*
X67166666Y-118503390D02*
X67214285Y-118551009D01*
X67214285Y-118551009D02*
X67261904Y-118646247D01*
X67261904Y-118646247D02*
X67261904Y-118884342D01*
X67261904Y-118884342D02*
X67214285Y-118979580D01*
X67214285Y-118979580D02*
X67166666Y-119027200D01*
X67166666Y-119027200D02*
X67071428Y-119074819D01*
X67071428Y-119074819D02*
X66785714Y-119074819D01*
X66785714Y-119074819D02*
X66690476Y-119027200D01*
X66690476Y-119027200D02*
X66642857Y-118979580D01*
X69548095Y-118754819D02*
X69548095Y-117754819D01*
X70119523Y-118754819D02*
X69690952Y-118183390D01*
X70119523Y-117754819D02*
X69548095Y-118326247D01*
X84475714Y-81074819D02*
X84475714Y-80074819D01*
X84475714Y-80074819D02*
X84713809Y-80074819D01*
X84713809Y-80074819D02*
X84856666Y-80122438D01*
X84856666Y-80122438D02*
X84951904Y-80217676D01*
X84951904Y-80217676D02*
X84999523Y-80312914D01*
X84999523Y-80312914D02*
X85047142Y-80503390D01*
X85047142Y-80503390D02*
X85047142Y-80646247D01*
X85047142Y-80646247D02*
X84999523Y-80836723D01*
X84999523Y-80836723D02*
X84951904Y-80931961D01*
X84951904Y-80931961D02*
X84856666Y-81027200D01*
X84856666Y-81027200D02*
X84713809Y-81074819D01*
X84713809Y-81074819D02*
X84475714Y-81074819D01*
X85999523Y-81074819D02*
X85428095Y-81074819D01*
X85713809Y-81074819D02*
X85713809Y-80074819D01*
X85713809Y-80074819D02*
X85618571Y-80217676D01*
X85618571Y-80217676D02*
X85523333Y-80312914D01*
X85523333Y-80312914D02*
X85428095Y-80360533D01*
X86904285Y-80074819D02*
X86428095Y-80074819D01*
X86428095Y-80074819D02*
X86380476Y-80551009D01*
X86380476Y-80551009D02*
X86428095Y-80503390D01*
X86428095Y-80503390D02*
X86523333Y-80455771D01*
X86523333Y-80455771D02*
X86761428Y-80455771D01*
X86761428Y-80455771D02*
X86856666Y-80503390D01*
X86856666Y-80503390D02*
X86904285Y-80551009D01*
X86904285Y-80551009D02*
X86951904Y-80646247D01*
X86951904Y-80646247D02*
X86951904Y-80884342D01*
X86951904Y-80884342D02*
X86904285Y-80979580D01*
X86904285Y-80979580D02*
X86856666Y-81027200D01*
X86856666Y-81027200D02*
X86761428Y-81074819D01*
X86761428Y-81074819D02*
X86523333Y-81074819D01*
X86523333Y-81074819D02*
X86428095Y-81027200D01*
X86428095Y-81027200D02*
X86380476Y-80979580D01*
X89238095Y-80754819D02*
X89238095Y-79754819D01*
X89809523Y-80754819D02*
X89380952Y-80183390D01*
X89809523Y-79754819D02*
X89238095Y-80326247D01*
X94857142Y-36034819D02*
X94523809Y-35558628D01*
X94285714Y-36034819D02*
X94285714Y-35034819D01*
X94285714Y-35034819D02*
X94666666Y-35034819D01*
X94666666Y-35034819D02*
X94761904Y-35082438D01*
X94761904Y-35082438D02*
X94809523Y-35130057D01*
X94809523Y-35130057D02*
X94857142Y-35225295D01*
X94857142Y-35225295D02*
X94857142Y-35368152D01*
X94857142Y-35368152D02*
X94809523Y-35463390D01*
X94809523Y-35463390D02*
X94761904Y-35511009D01*
X94761904Y-35511009D02*
X94666666Y-35558628D01*
X94666666Y-35558628D02*
X94285714Y-35558628D01*
X95809523Y-36034819D02*
X95238095Y-36034819D01*
X95523809Y-36034819D02*
X95523809Y-35034819D01*
X95523809Y-35034819D02*
X95428571Y-35177676D01*
X95428571Y-35177676D02*
X95333333Y-35272914D01*
X95333333Y-35272914D02*
X95238095Y-35320533D01*
X96428571Y-35034819D02*
X96523809Y-35034819D01*
X96523809Y-35034819D02*
X96619047Y-35082438D01*
X96619047Y-35082438D02*
X96666666Y-35130057D01*
X96666666Y-35130057D02*
X96714285Y-35225295D01*
X96714285Y-35225295D02*
X96761904Y-35415771D01*
X96761904Y-35415771D02*
X96761904Y-35653866D01*
X96761904Y-35653866D02*
X96714285Y-35844342D01*
X96714285Y-35844342D02*
X96666666Y-35939580D01*
X96666666Y-35939580D02*
X96619047Y-35987200D01*
X96619047Y-35987200D02*
X96523809Y-36034819D01*
X96523809Y-36034819D02*
X96428571Y-36034819D01*
X96428571Y-36034819D02*
X96333333Y-35987200D01*
X96333333Y-35987200D02*
X96285714Y-35939580D01*
X96285714Y-35939580D02*
X96238095Y-35844342D01*
X96238095Y-35844342D02*
X96190476Y-35653866D01*
X96190476Y-35653866D02*
X96190476Y-35415771D01*
X96190476Y-35415771D02*
X96238095Y-35225295D01*
X96238095Y-35225295D02*
X96285714Y-35130057D01*
X96285714Y-35130057D02*
X96333333Y-35082438D01*
X96333333Y-35082438D02*
X96428571Y-35034819D01*
X19034819Y-68476666D02*
X18558628Y-68809999D01*
X19034819Y-69048094D02*
X18034819Y-69048094D01*
X18034819Y-69048094D02*
X18034819Y-68667142D01*
X18034819Y-68667142D02*
X18082438Y-68571904D01*
X18082438Y-68571904D02*
X18130057Y-68524285D01*
X18130057Y-68524285D02*
X18225295Y-68476666D01*
X18225295Y-68476666D02*
X18368152Y-68476666D01*
X18368152Y-68476666D02*
X18463390Y-68524285D01*
X18463390Y-68524285D02*
X18511009Y-68571904D01*
X18511009Y-68571904D02*
X18558628Y-68667142D01*
X18558628Y-68667142D02*
X18558628Y-69048094D01*
X18463390Y-67905237D02*
X18415771Y-68000475D01*
X18415771Y-68000475D02*
X18368152Y-68048094D01*
X18368152Y-68048094D02*
X18272914Y-68095713D01*
X18272914Y-68095713D02*
X18225295Y-68095713D01*
X18225295Y-68095713D02*
X18130057Y-68048094D01*
X18130057Y-68048094D02*
X18082438Y-68000475D01*
X18082438Y-68000475D02*
X18034819Y-67905237D01*
X18034819Y-67905237D02*
X18034819Y-67714761D01*
X18034819Y-67714761D02*
X18082438Y-67619523D01*
X18082438Y-67619523D02*
X18130057Y-67571904D01*
X18130057Y-67571904D02*
X18225295Y-67524285D01*
X18225295Y-67524285D02*
X18272914Y-67524285D01*
X18272914Y-67524285D02*
X18368152Y-67571904D01*
X18368152Y-67571904D02*
X18415771Y-67619523D01*
X18415771Y-67619523D02*
X18463390Y-67714761D01*
X18463390Y-67714761D02*
X18463390Y-67905237D01*
X18463390Y-67905237D02*
X18511009Y-68000475D01*
X18511009Y-68000475D02*
X18558628Y-68048094D01*
X18558628Y-68048094D02*
X18653866Y-68095713D01*
X18653866Y-68095713D02*
X18844342Y-68095713D01*
X18844342Y-68095713D02*
X18939580Y-68048094D01*
X18939580Y-68048094D02*
X18987200Y-68000475D01*
X18987200Y-68000475D02*
X19034819Y-67905237D01*
X19034819Y-67905237D02*
X19034819Y-67714761D01*
X19034819Y-67714761D02*
X18987200Y-67619523D01*
X18987200Y-67619523D02*
X18939580Y-67571904D01*
X18939580Y-67571904D02*
X18844342Y-67524285D01*
X18844342Y-67524285D02*
X18653866Y-67524285D01*
X18653866Y-67524285D02*
X18558628Y-67571904D01*
X18558628Y-67571904D02*
X18511009Y-67619523D01*
X18511009Y-67619523D02*
X18463390Y-67714761D01*
X46761905Y-119574819D02*
X46761905Y-118574819D01*
X46761905Y-118574819D02*
X47000000Y-118574819D01*
X47000000Y-118574819D02*
X47142857Y-118622438D01*
X47142857Y-118622438D02*
X47238095Y-118717676D01*
X47238095Y-118717676D02*
X47285714Y-118812914D01*
X47285714Y-118812914D02*
X47333333Y-119003390D01*
X47333333Y-119003390D02*
X47333333Y-119146247D01*
X47333333Y-119146247D02*
X47285714Y-119336723D01*
X47285714Y-119336723D02*
X47238095Y-119431961D01*
X47238095Y-119431961D02*
X47142857Y-119527200D01*
X47142857Y-119527200D02*
X47000000Y-119574819D01*
X47000000Y-119574819D02*
X46761905Y-119574819D01*
X47904762Y-119003390D02*
X47809524Y-118955771D01*
X47809524Y-118955771D02*
X47761905Y-118908152D01*
X47761905Y-118908152D02*
X47714286Y-118812914D01*
X47714286Y-118812914D02*
X47714286Y-118765295D01*
X47714286Y-118765295D02*
X47761905Y-118670057D01*
X47761905Y-118670057D02*
X47809524Y-118622438D01*
X47809524Y-118622438D02*
X47904762Y-118574819D01*
X47904762Y-118574819D02*
X48095238Y-118574819D01*
X48095238Y-118574819D02*
X48190476Y-118622438D01*
X48190476Y-118622438D02*
X48238095Y-118670057D01*
X48238095Y-118670057D02*
X48285714Y-118765295D01*
X48285714Y-118765295D02*
X48285714Y-118812914D01*
X48285714Y-118812914D02*
X48238095Y-118908152D01*
X48238095Y-118908152D02*
X48190476Y-118955771D01*
X48190476Y-118955771D02*
X48095238Y-119003390D01*
X48095238Y-119003390D02*
X47904762Y-119003390D01*
X47904762Y-119003390D02*
X47809524Y-119051009D01*
X47809524Y-119051009D02*
X47761905Y-119098628D01*
X47761905Y-119098628D02*
X47714286Y-119193866D01*
X47714286Y-119193866D02*
X47714286Y-119384342D01*
X47714286Y-119384342D02*
X47761905Y-119479580D01*
X47761905Y-119479580D02*
X47809524Y-119527200D01*
X47809524Y-119527200D02*
X47904762Y-119574819D01*
X47904762Y-119574819D02*
X48095238Y-119574819D01*
X48095238Y-119574819D02*
X48190476Y-119527200D01*
X48190476Y-119527200D02*
X48238095Y-119479580D01*
X48238095Y-119479580D02*
X48285714Y-119384342D01*
X48285714Y-119384342D02*
X48285714Y-119193866D01*
X48285714Y-119193866D02*
X48238095Y-119098628D01*
X48238095Y-119098628D02*
X48190476Y-119051009D01*
X48190476Y-119051009D02*
X48095238Y-119003390D01*
X51048095Y-119254819D02*
X51048095Y-118254819D01*
X51619523Y-119254819D02*
X51190952Y-118683390D01*
X51619523Y-118254819D02*
X51048095Y-118826247D01*
X84285714Y-100074819D02*
X84285714Y-99074819D01*
X84285714Y-99074819D02*
X84523809Y-99074819D01*
X84523809Y-99074819D02*
X84666666Y-99122438D01*
X84666666Y-99122438D02*
X84761904Y-99217676D01*
X84761904Y-99217676D02*
X84809523Y-99312914D01*
X84809523Y-99312914D02*
X84857142Y-99503390D01*
X84857142Y-99503390D02*
X84857142Y-99646247D01*
X84857142Y-99646247D02*
X84809523Y-99836723D01*
X84809523Y-99836723D02*
X84761904Y-99931961D01*
X84761904Y-99931961D02*
X84666666Y-100027200D01*
X84666666Y-100027200D02*
X84523809Y-100074819D01*
X84523809Y-100074819D02*
X84285714Y-100074819D01*
X85809523Y-100074819D02*
X85238095Y-100074819D01*
X85523809Y-100074819D02*
X85523809Y-99074819D01*
X85523809Y-99074819D02*
X85428571Y-99217676D01*
X85428571Y-99217676D02*
X85333333Y-99312914D01*
X85333333Y-99312914D02*
X85238095Y-99360533D01*
X86666666Y-99074819D02*
X86476190Y-99074819D01*
X86476190Y-99074819D02*
X86380952Y-99122438D01*
X86380952Y-99122438D02*
X86333333Y-99170057D01*
X86333333Y-99170057D02*
X86238095Y-99312914D01*
X86238095Y-99312914D02*
X86190476Y-99503390D01*
X86190476Y-99503390D02*
X86190476Y-99884342D01*
X86190476Y-99884342D02*
X86238095Y-99979580D01*
X86238095Y-99979580D02*
X86285714Y-100027200D01*
X86285714Y-100027200D02*
X86380952Y-100074819D01*
X86380952Y-100074819D02*
X86571428Y-100074819D01*
X86571428Y-100074819D02*
X86666666Y-100027200D01*
X86666666Y-100027200D02*
X86714285Y-99979580D01*
X86714285Y-99979580D02*
X86761904Y-99884342D01*
X86761904Y-99884342D02*
X86761904Y-99646247D01*
X86761904Y-99646247D02*
X86714285Y-99551009D01*
X86714285Y-99551009D02*
X86666666Y-99503390D01*
X86666666Y-99503390D02*
X86571428Y-99455771D01*
X86571428Y-99455771D02*
X86380952Y-99455771D01*
X86380952Y-99455771D02*
X86285714Y-99503390D01*
X86285714Y-99503390D02*
X86238095Y-99551009D01*
X86238095Y-99551009D02*
X86190476Y-99646247D01*
X89048095Y-99754819D02*
X89048095Y-98754819D01*
X89619523Y-99754819D02*
X89190952Y-99183390D01*
X89619523Y-98754819D02*
X89048095Y-99326247D01*
X19034819Y-49166666D02*
X18558628Y-49499999D01*
X19034819Y-49738094D02*
X18034819Y-49738094D01*
X18034819Y-49738094D02*
X18034819Y-49357142D01*
X18034819Y-49357142D02*
X18082438Y-49261904D01*
X18082438Y-49261904D02*
X18130057Y-49214285D01*
X18130057Y-49214285D02*
X18225295Y-49166666D01*
X18225295Y-49166666D02*
X18368152Y-49166666D01*
X18368152Y-49166666D02*
X18463390Y-49214285D01*
X18463390Y-49214285D02*
X18511009Y-49261904D01*
X18511009Y-49261904D02*
X18558628Y-49357142D01*
X18558628Y-49357142D02*
X18558628Y-49738094D01*
X19034819Y-48690475D02*
X19034819Y-48499999D01*
X19034819Y-48499999D02*
X18987200Y-48404761D01*
X18987200Y-48404761D02*
X18939580Y-48357142D01*
X18939580Y-48357142D02*
X18796723Y-48261904D01*
X18796723Y-48261904D02*
X18606247Y-48214285D01*
X18606247Y-48214285D02*
X18225295Y-48214285D01*
X18225295Y-48214285D02*
X18130057Y-48261904D01*
X18130057Y-48261904D02*
X18082438Y-48309523D01*
X18082438Y-48309523D02*
X18034819Y-48404761D01*
X18034819Y-48404761D02*
X18034819Y-48595237D01*
X18034819Y-48595237D02*
X18082438Y-48690475D01*
X18082438Y-48690475D02*
X18130057Y-48738094D01*
X18130057Y-48738094D02*
X18225295Y-48785713D01*
X18225295Y-48785713D02*
X18463390Y-48785713D01*
X18463390Y-48785713D02*
X18558628Y-48738094D01*
X18558628Y-48738094D02*
X18606247Y-48690475D01*
X18606247Y-48690475D02*
X18653866Y-48595237D01*
X18653866Y-48595237D02*
X18653866Y-48404761D01*
X18653866Y-48404761D02*
X18606247Y-48309523D01*
X18606247Y-48309523D02*
X18558628Y-48261904D01*
X18558628Y-48261904D02*
X18463390Y-48214285D01*
X107975714Y-81074819D02*
X107975714Y-80074819D01*
X107975714Y-80074819D02*
X108213809Y-80074819D01*
X108213809Y-80074819D02*
X108356666Y-80122438D01*
X108356666Y-80122438D02*
X108451904Y-80217676D01*
X108451904Y-80217676D02*
X108499523Y-80312914D01*
X108499523Y-80312914D02*
X108547142Y-80503390D01*
X108547142Y-80503390D02*
X108547142Y-80646247D01*
X108547142Y-80646247D02*
X108499523Y-80836723D01*
X108499523Y-80836723D02*
X108451904Y-80931961D01*
X108451904Y-80931961D02*
X108356666Y-81027200D01*
X108356666Y-81027200D02*
X108213809Y-81074819D01*
X108213809Y-81074819D02*
X107975714Y-81074819D01*
X109499523Y-81074819D02*
X108928095Y-81074819D01*
X109213809Y-81074819D02*
X109213809Y-80074819D01*
X109213809Y-80074819D02*
X109118571Y-80217676D01*
X109118571Y-80217676D02*
X109023333Y-80312914D01*
X109023333Y-80312914D02*
X108928095Y-80360533D01*
X109975714Y-81074819D02*
X110166190Y-81074819D01*
X110166190Y-81074819D02*
X110261428Y-81027200D01*
X110261428Y-81027200D02*
X110309047Y-80979580D01*
X110309047Y-80979580D02*
X110404285Y-80836723D01*
X110404285Y-80836723D02*
X110451904Y-80646247D01*
X110451904Y-80646247D02*
X110451904Y-80265295D01*
X110451904Y-80265295D02*
X110404285Y-80170057D01*
X110404285Y-80170057D02*
X110356666Y-80122438D01*
X110356666Y-80122438D02*
X110261428Y-80074819D01*
X110261428Y-80074819D02*
X110070952Y-80074819D01*
X110070952Y-80074819D02*
X109975714Y-80122438D01*
X109975714Y-80122438D02*
X109928095Y-80170057D01*
X109928095Y-80170057D02*
X109880476Y-80265295D01*
X109880476Y-80265295D02*
X109880476Y-80503390D01*
X109880476Y-80503390D02*
X109928095Y-80598628D01*
X109928095Y-80598628D02*
X109975714Y-80646247D01*
X109975714Y-80646247D02*
X110070952Y-80693866D01*
X110070952Y-80693866D02*
X110261428Y-80693866D01*
X110261428Y-80693866D02*
X110356666Y-80646247D01*
X110356666Y-80646247D02*
X110404285Y-80598628D01*
X110404285Y-80598628D02*
X110451904Y-80503390D01*
X112738095Y-80754819D02*
X112738095Y-79754819D01*
X113309523Y-80754819D02*
X112880952Y-80183390D01*
X113309523Y-79754819D02*
X112738095Y-80326247D01*
X40033200Y-108523332D02*
X40080819Y-108380475D01*
X40080819Y-108380475D02*
X40080819Y-108142380D01*
X40080819Y-108142380D02*
X40033200Y-108047142D01*
X40033200Y-108047142D02*
X39985580Y-107999523D01*
X39985580Y-107999523D02*
X39890342Y-107951904D01*
X39890342Y-107951904D02*
X39795104Y-107951904D01*
X39795104Y-107951904D02*
X39699866Y-107999523D01*
X39699866Y-107999523D02*
X39652247Y-108047142D01*
X39652247Y-108047142D02*
X39604628Y-108142380D01*
X39604628Y-108142380D02*
X39557009Y-108332856D01*
X39557009Y-108332856D02*
X39509390Y-108428094D01*
X39509390Y-108428094D02*
X39461771Y-108475713D01*
X39461771Y-108475713D02*
X39366533Y-108523332D01*
X39366533Y-108523332D02*
X39271295Y-108523332D01*
X39271295Y-108523332D02*
X39176057Y-108475713D01*
X39176057Y-108475713D02*
X39128438Y-108428094D01*
X39128438Y-108428094D02*
X39080819Y-108332856D01*
X39080819Y-108332856D02*
X39080819Y-108094761D01*
X39080819Y-108094761D02*
X39128438Y-107951904D01*
X39080819Y-107618570D02*
X40080819Y-107380475D01*
X40080819Y-107380475D02*
X39366533Y-107189999D01*
X39366533Y-107189999D02*
X40080819Y-106999523D01*
X40080819Y-106999523D02*
X39080819Y-106761428D01*
X39509390Y-106237618D02*
X39461771Y-106332856D01*
X39461771Y-106332856D02*
X39414152Y-106380475D01*
X39414152Y-106380475D02*
X39318914Y-106428094D01*
X39318914Y-106428094D02*
X39271295Y-106428094D01*
X39271295Y-106428094D02*
X39176057Y-106380475D01*
X39176057Y-106380475D02*
X39128438Y-106332856D01*
X39128438Y-106332856D02*
X39080819Y-106237618D01*
X39080819Y-106237618D02*
X39080819Y-106047142D01*
X39080819Y-106047142D02*
X39128438Y-105951904D01*
X39128438Y-105951904D02*
X39176057Y-105904285D01*
X39176057Y-105904285D02*
X39271295Y-105856666D01*
X39271295Y-105856666D02*
X39318914Y-105856666D01*
X39318914Y-105856666D02*
X39414152Y-105904285D01*
X39414152Y-105904285D02*
X39461771Y-105951904D01*
X39461771Y-105951904D02*
X39509390Y-106047142D01*
X39509390Y-106047142D02*
X39509390Y-106237618D01*
X39509390Y-106237618D02*
X39557009Y-106332856D01*
X39557009Y-106332856D02*
X39604628Y-106380475D01*
X39604628Y-106380475D02*
X39699866Y-106428094D01*
X39699866Y-106428094D02*
X39890342Y-106428094D01*
X39890342Y-106428094D02*
X39985580Y-106380475D01*
X39985580Y-106380475D02*
X40033200Y-106332856D01*
X40033200Y-106332856D02*
X40080819Y-106237618D01*
X40080819Y-106237618D02*
X40080819Y-106047142D01*
X40080819Y-106047142D02*
X40033200Y-105951904D01*
X40033200Y-105951904D02*
X39985580Y-105904285D01*
X39985580Y-105904285D02*
X39890342Y-105856666D01*
X39890342Y-105856666D02*
X39699866Y-105856666D01*
X39699866Y-105856666D02*
X39604628Y-105904285D01*
X39604628Y-105904285D02*
X39557009Y-105951904D01*
X39557009Y-105951904D02*
X39509390Y-106047142D01*
X56724819Y-27571904D02*
X57534342Y-27571904D01*
X57534342Y-27571904D02*
X57629580Y-27524285D01*
X57629580Y-27524285D02*
X57677200Y-27476666D01*
X57677200Y-27476666D02*
X57724819Y-27381428D01*
X57724819Y-27381428D02*
X57724819Y-27190952D01*
X57724819Y-27190952D02*
X57677200Y-27095714D01*
X57677200Y-27095714D02*
X57629580Y-27048095D01*
X57629580Y-27048095D02*
X57534342Y-27000476D01*
X57534342Y-27000476D02*
X56724819Y-27000476D01*
X56820057Y-26571904D02*
X56772438Y-26524285D01*
X56772438Y-26524285D02*
X56724819Y-26429047D01*
X56724819Y-26429047D02*
X56724819Y-26190952D01*
X56724819Y-26190952D02*
X56772438Y-26095714D01*
X56772438Y-26095714D02*
X56820057Y-26048095D01*
X56820057Y-26048095D02*
X56915295Y-26000476D01*
X56915295Y-26000476D02*
X57010533Y-26000476D01*
X57010533Y-26000476D02*
X57153390Y-26048095D01*
X57153390Y-26048095D02*
X57724819Y-26619523D01*
X57724819Y-26619523D02*
X57724819Y-26000476D01*
D12*
%TO.C,D3*%
X25730000Y-97500000D02*
X26380000Y-97500000D01*
X26380000Y-96380000D02*
X26380000Y-98620000D01*
X26380000Y-98620000D02*
X30620000Y-98620000D01*
X29780000Y-98620000D02*
X29780000Y-96380000D01*
X29900000Y-98620000D02*
X29900000Y-96380000D01*
X30020000Y-98620000D02*
X30020000Y-96380000D01*
X30620000Y-96380000D02*
X26380000Y-96380000D01*
X30620000Y-98620000D02*
X30620000Y-96380000D01*
X31270000Y-97500000D02*
X30620000Y-97500000D01*
%TO.C,SW3*%
X21555000Y-81205000D02*
X35525000Y-81205000D01*
X21555000Y-95175000D02*
X21555000Y-81205000D01*
X35525000Y-81205000D02*
X35525000Y-95175000D01*
X35525000Y-95175000D02*
X21555000Y-95175000D01*
%TO.C,SW16*%
X78555000Y-100055000D02*
X92525000Y-100055000D01*
X78555000Y-114025000D02*
X78555000Y-100055000D01*
X92525000Y-100055000D02*
X92525000Y-114025000D01*
X92525000Y-114025000D02*
X78555000Y-114025000D01*
%TO.C,SW12*%
X59515000Y-100055000D02*
X73485000Y-100055000D01*
X59515000Y-114025000D02*
X59515000Y-100055000D01*
X73485000Y-100055000D02*
X73485000Y-114025000D01*
X73485000Y-114025000D02*
X59515000Y-114025000D01*
%TO.C,SW11*%
X59555000Y-80935000D02*
X73525000Y-80935000D01*
X59555000Y-94905000D02*
X59555000Y-80935000D01*
X73525000Y-80935000D02*
X73525000Y-94905000D01*
X73525000Y-94905000D02*
X59555000Y-94905000D01*
%TO.C,SW14*%
X78515000Y-62015000D02*
X92485000Y-62015000D01*
X78515000Y-75985000D02*
X78515000Y-62015000D01*
X92485000Y-62015000D02*
X92485000Y-75985000D01*
X92485000Y-75985000D02*
X78515000Y-75985000D01*
D13*
%TO.C,U1*%
X19155970Y-26875000D02*
X26509270Y-26875000D01*
X19155970Y-35875000D02*
X19155970Y-26875000D01*
X20580910Y-24475000D02*
X20580910Y-38275000D01*
X22580000Y-40275000D02*
X39580000Y-40275000D01*
X26509270Y-26875000D02*
X26509270Y-35875000D01*
X26509270Y-35875000D02*
X19155970Y-35875000D01*
X39580000Y-22475000D02*
X22580000Y-22475000D01*
X41580000Y-38275000D02*
X41580000Y-24475000D01*
D12*
X20580000Y-24475000D02*
G75*
G02*
X22580000Y-22475000I2044600J-44600D01*
G01*
X22580000Y-40275000D02*
G75*
G02*
X20580000Y-38275000I44612J2044612D01*
G01*
X39580000Y-22475000D02*
G75*
G02*
X41580000Y-24475000I0J-2000000D01*
G01*
X41580000Y-38275000D02*
G75*
G02*
X39580000Y-40275000I-2044857J44857D01*
G01*
D14*
X22407000Y-42375000D02*
G75*
G02*
X22153000Y-42375000I-127000J0D01*
G01*
X22153000Y-42375000D02*
G75*
G02*
X22407000Y-42375000I127000J0D01*
G01*
D15*
X22518295Y-40262715D02*
X22469527Y-40259667D01*
X22420506Y-40255603D01*
X22518295Y-40262715D01*
X39650850Y-22487287D02*
X39699618Y-22490335D01*
X39748639Y-22494399D01*
X39797407Y-22499732D01*
X39846175Y-22506336D01*
X39894690Y-22513956D01*
X39942950Y-22522847D01*
X39990955Y-22532752D01*
X39601574Y-22485508D01*
X39650850Y-22487287D01*
D12*
%TO.C,SW7*%
X40595000Y-81055000D02*
X54565000Y-81055000D01*
X40595000Y-95025000D02*
X40595000Y-81055000D01*
X54565000Y-81055000D02*
X54565000Y-95025000D01*
X54565000Y-95025000D02*
X40595000Y-95025000D01*
%TO.C,SW18*%
X97515000Y-62015000D02*
X111485000Y-62015000D01*
X97515000Y-75985000D02*
X97515000Y-62015000D01*
X111485000Y-62015000D02*
X111485000Y-75985000D01*
X111485000Y-75985000D02*
X97515000Y-75985000D01*
%TO.C,J1*%
X34111138Y-21560000D02*
X34111138Y-20500000D01*
X35171138Y-21560000D02*
X34111138Y-21560000D01*
X36171138Y-19440000D02*
X42231138Y-19440000D01*
X36171138Y-21560000D02*
X36171138Y-19440000D01*
X36171138Y-21560000D02*
X42231138Y-21560000D01*
X42231138Y-21560000D02*
X42231138Y-19440000D01*
%TO.C,SW13*%
X77450000Y-43400000D02*
X78050000Y-43400000D01*
X77750000Y-43700000D02*
X77450000Y-43400000D01*
X78050000Y-43400000D02*
X77750000Y-43700000D01*
X79150000Y-41600000D02*
X79150000Y-53400000D01*
X83250000Y-41600000D02*
X79150000Y-41600000D01*
X83250000Y-53400000D02*
X79150000Y-53400000D01*
X84750000Y-47500000D02*
X85750000Y-47500000D01*
X85250000Y-47000000D02*
X85250000Y-48000000D01*
X87250000Y-41600000D02*
X91350000Y-41600000D01*
X91350000Y-41600000D02*
X91350000Y-44000000D01*
X91350000Y-46200000D02*
X91350000Y-48800000D01*
X91350000Y-51000000D02*
X91350000Y-53400000D01*
X91350000Y-53400000D02*
X87250000Y-53400000D01*
X88250000Y-47500000D02*
G75*
G02*
X82250000Y-47500000I-3000000J0D01*
G01*
X82250000Y-47500000D02*
G75*
G02*
X88250000Y-47500000I3000000J0D01*
G01*
%TO.C,R7*%
X19580000Y-86390000D02*
X19580000Y-90230000D01*
X19580000Y-90230000D02*
X21420000Y-90230000D01*
X20500000Y-85440000D02*
X20500000Y-86390000D01*
X20500000Y-91180000D02*
X20500000Y-90230000D01*
X21420000Y-86390000D02*
X19580000Y-86390000D01*
X21420000Y-90230000D02*
X21420000Y-86390000D01*
%TO.C,SW17*%
X97950000Y-43400000D02*
X98550000Y-43400000D01*
X98250000Y-43700000D02*
X97950000Y-43400000D01*
X98550000Y-43400000D02*
X98250000Y-43700000D01*
X99650000Y-41600000D02*
X99650000Y-53400000D01*
X103750000Y-41600000D02*
X99650000Y-41600000D01*
X103750000Y-53400000D02*
X99650000Y-53400000D01*
X105250000Y-47500000D02*
X106250000Y-47500000D01*
X105750000Y-47000000D02*
X105750000Y-48000000D01*
X107750000Y-41600000D02*
X111850000Y-41600000D01*
X111850000Y-41600000D02*
X111850000Y-44000000D01*
X111850000Y-46200000D02*
X111850000Y-48800000D01*
X111850000Y-51000000D02*
X111850000Y-53400000D01*
X111850000Y-53400000D02*
X107750000Y-53400000D01*
X108750000Y-47500000D02*
G75*
G02*
X102750000Y-47500000I-3000000J0D01*
G01*
X102750000Y-47500000D02*
G75*
G02*
X108750000Y-47500000I3000000J0D01*
G01*
%TO.C,D4*%
X26540000Y-116500000D02*
X27190000Y-116500000D01*
X27190000Y-115380000D02*
X27190000Y-117620000D01*
X27190000Y-117620000D02*
X31430000Y-117620000D01*
X30590000Y-117620000D02*
X30590000Y-115380000D01*
X30710000Y-117620000D02*
X30710000Y-115380000D01*
X30830000Y-117620000D02*
X30830000Y-115380000D01*
X31430000Y-115380000D02*
X27190000Y-115380000D01*
X31430000Y-117620000D02*
X31430000Y-115380000D01*
X32080000Y-116500000D02*
X31430000Y-116500000D01*
%TO.C,D18*%
X106730000Y-57500000D02*
X107380000Y-57500000D01*
X107380000Y-56380000D02*
X107380000Y-58620000D01*
X107380000Y-58620000D02*
X111620000Y-58620000D01*
X107980000Y-56380000D02*
X107980000Y-58620000D01*
X108100000Y-56380000D02*
X108100000Y-58620000D01*
X108220000Y-56380000D02*
X108220000Y-58620000D01*
X111620000Y-56380000D02*
X107380000Y-56380000D01*
X111620000Y-58620000D02*
X111620000Y-56380000D01*
X112270000Y-57500000D02*
X111620000Y-57500000D01*
%TO.C,SW9*%
X59595000Y-43055000D02*
X73565000Y-43055000D01*
X59595000Y-57025000D02*
X59595000Y-43055000D01*
X73565000Y-43055000D02*
X73565000Y-57025000D01*
X73565000Y-57025000D02*
X59595000Y-57025000D01*
D16*
%TO.C,G\u002A\u002A\u002A*%
G36*
X109674935Y-27540323D02*
G01*
X109672113Y-27564436D01*
X109661764Y-27593740D01*
X109641114Y-27580298D01*
X109631149Y-27568618D01*
X109612632Y-27530552D01*
X109626558Y-27512222D01*
X109662591Y-27505897D01*
X109674935Y-27540323D01*
G37*
G36*
X112776388Y-28595248D02*
G01*
X112779212Y-28612500D01*
X112765699Y-28645769D01*
X112754187Y-28650000D01*
X112731986Y-28629751D01*
X112729162Y-28612500D01*
X112742675Y-28579230D01*
X112754187Y-28575000D01*
X112776388Y-28595248D01*
G37*
G36*
X114351576Y-27415012D02*
G01*
X114355760Y-27442428D01*
X114355763Y-27444357D01*
X114340602Y-27496614D01*
X114306151Y-27538716D01*
X114278749Y-27550000D01*
X114250403Y-27533150D01*
X114231933Y-27514056D01*
X114219666Y-27485274D01*
X114243414Y-27458627D01*
X114278919Y-27438414D01*
X114330418Y-27414019D01*
X114351576Y-27415012D01*
G37*
G36*
X116215969Y-28544671D02*
G01*
X116277393Y-28596592D01*
X116303209Y-28670122D01*
X116288478Y-28754623D01*
X116255819Y-28809128D01*
X116185720Y-28862816D01*
X116102180Y-28872633D01*
X116017464Y-28837608D01*
X116005990Y-28828895D01*
X115956859Y-28762496D01*
X115947070Y-28686011D01*
X115971578Y-28612449D01*
X116025335Y-28554821D01*
X116103294Y-28526135D01*
X116123878Y-28525000D01*
X116215969Y-28544671D01*
G37*
G36*
X98690345Y-27462500D02*
G01*
X98689703Y-27580885D01*
X98687950Y-27678693D01*
X98685346Y-27746457D01*
X98682149Y-27774710D01*
X98681780Y-27775000D01*
X98672487Y-27752477D01*
X98654751Y-27692129D01*
X98631653Y-27604790D01*
X98619218Y-27555042D01*
X98594501Y-27444026D01*
X98575732Y-27340056D01*
X98565956Y-27260749D01*
X98565221Y-27242542D01*
X98569317Y-27181215D01*
X98588120Y-27155190D01*
X98627783Y-27150000D01*
X98690345Y-27150000D01*
X98690345Y-27462500D01*
G37*
G36*
X104447419Y-27708558D02*
G01*
X104558343Y-27753561D01*
X104650481Y-27835595D01*
X104715306Y-27952199D01*
X104731283Y-28006250D01*
X104747259Y-28075000D01*
X104346388Y-28075000D01*
X104175150Y-28073376D01*
X104050556Y-28068553D01*
X103973687Y-28060601D01*
X103945626Y-28049591D01*
X103945517Y-28048758D01*
X103962134Y-27991926D01*
X104004957Y-27918148D01*
X104063443Y-27844421D01*
X104087174Y-27820340D01*
X104203310Y-27739487D01*
X104326233Y-27703047D01*
X104447419Y-27708558D01*
G37*
G36*
X105993303Y-22914394D02*
G01*
X106045389Y-22940180D01*
X106093972Y-22972489D01*
X106104193Y-22996875D01*
X106082266Y-23028153D01*
X106049171Y-23056761D01*
X105989377Y-23102099D01*
X105914361Y-23156160D01*
X105835598Y-23210939D01*
X105764564Y-23258430D01*
X105712736Y-23290626D01*
X105692592Y-23300000D01*
X105698077Y-23279199D01*
X105720831Y-23223757D01*
X105756477Y-23144115D01*
X105771556Y-23111674D01*
X105829349Y-23000562D01*
X105881030Y-22933489D01*
X105933411Y-22906188D01*
X105993303Y-22914394D01*
G37*
G36*
X101242857Y-28387500D02*
G01*
X101234933Y-28503693D01*
X101206321Y-28582506D01*
X101149763Y-28634724D01*
X101057997Y-28671133D01*
X101050541Y-28673237D01*
X100898367Y-28699051D01*
X100760758Y-28690644D01*
X100648901Y-28648838D01*
X100639710Y-28642951D01*
X100567597Y-28573487D01*
X100543396Y-28497526D01*
X100567607Y-28420686D01*
X100615270Y-28367993D01*
X100689011Y-28324829D01*
X100796775Y-28284644D01*
X100922553Y-28251788D01*
X101050338Y-28230611D01*
X101141442Y-28225000D01*
X101242857Y-28225000D01*
X101242857Y-28387500D01*
G37*
G36*
X102862957Y-27718083D02*
G01*
X102879796Y-27720001D01*
X102938513Y-27730341D01*
X102968542Y-27742457D01*
X102969556Y-27744711D01*
X102961685Y-27784643D01*
X102941530Y-27851098D01*
X102914279Y-27929904D01*
X102885121Y-28006884D01*
X102859245Y-28067864D01*
X102841839Y-28098671D01*
X102839508Y-28100000D01*
X102827917Y-28077540D01*
X102820654Y-28020258D01*
X102819409Y-27978125D01*
X102816310Y-27887986D01*
X102808523Y-27806040D01*
X102804722Y-27782891D01*
X102798132Y-27734739D01*
X102813379Y-27716625D01*
X102862957Y-27718083D01*
G37*
G36*
X104273213Y-28304241D02*
G01*
X104364680Y-28305645D01*
X104783842Y-28312500D01*
X104791812Y-28381779D01*
X104779562Y-28467182D01*
X104731953Y-28555310D01*
X104659788Y-28629570D01*
X104610749Y-28659838D01*
X104477005Y-28696066D01*
X104330896Y-28684240D01*
X104204478Y-28639543D01*
X104110286Y-28581436D01*
X104028546Y-28505419D01*
X103970070Y-28423851D01*
X103945673Y-28349090D01*
X103945517Y-28343592D01*
X103948799Y-28327180D01*
X103963301Y-28315552D01*
X103996008Y-28308077D01*
X104053906Y-28304122D01*
X104143979Y-28303054D01*
X104273213Y-28304241D01*
G37*
G36*
X109476326Y-27743744D02*
G01*
X109544908Y-27791105D01*
X109607335Y-27853774D01*
X109638998Y-27900729D01*
X109663743Y-27982478D01*
X109675533Y-28095113D01*
X109674700Y-28221314D01*
X109661577Y-28343762D01*
X109636494Y-28445137D01*
X109628164Y-28465665D01*
X109587600Y-28545217D01*
X109556640Y-28578603D01*
X109530630Y-28567586D01*
X109504912Y-28513929D01*
X109504395Y-28512506D01*
X109446113Y-28424115D01*
X109341567Y-28350484D01*
X109222484Y-28302090D01*
X109150239Y-28270375D01*
X109094048Y-28231268D01*
X109089650Y-28226734D01*
X109063681Y-28189581D01*
X109063380Y-28149779D01*
X109082739Y-28096425D01*
X109117106Y-28035857D01*
X109172162Y-27960932D01*
X109238474Y-27882092D01*
X109306610Y-27809777D01*
X109367135Y-27754429D01*
X109410616Y-27726490D01*
X109418303Y-27725000D01*
X109476326Y-27743744D01*
G37*
G36*
X99302029Y-27162071D02*
G01*
X99429157Y-27202167D01*
X99531722Y-27276110D01*
X99618471Y-27389722D01*
X99680319Y-27508611D01*
X99716465Y-27611817D01*
X99744030Y-27736962D01*
X99761270Y-27868491D01*
X99766437Y-27990848D01*
X99757785Y-28088477D01*
X99748959Y-28120092D01*
X99734592Y-28150562D01*
X99718131Y-28154021D01*
X99690539Y-28125702D01*
X99646561Y-28066107D01*
X99553674Y-27964337D01*
X99449448Y-27895842D01*
X99343612Y-27865394D01*
X99255465Y-27874318D01*
X99180691Y-27908563D01*
X99099110Y-27959410D01*
X99076494Y-27976375D01*
X99020278Y-28019623D01*
X98982506Y-28046100D01*
X98974687Y-28050000D01*
X98971789Y-28026315D01*
X98969274Y-27960519D01*
X98967301Y-27860502D01*
X98966030Y-27734152D01*
X98965615Y-27600000D01*
X98965615Y-27150000D01*
X99141592Y-27150000D01*
X99302029Y-27162071D01*
G37*
G36*
X106230986Y-27736229D02*
G01*
X106329696Y-27797559D01*
X106417420Y-27900813D01*
X106463685Y-27975693D01*
X106484622Y-28037343D01*
X106479015Y-28099030D01*
X106445652Y-28174024D01*
X106383317Y-28275593D01*
X106383101Y-28275927D01*
X106321784Y-28376312D01*
X106266266Y-28477132D01*
X106226756Y-28559625D01*
X106221299Y-28573257D01*
X106191077Y-28643061D01*
X106160507Y-28677834D01*
X106115615Y-28690654D01*
X106094051Y-28692369D01*
X106024549Y-28691650D01*
X105973325Y-28683160D01*
X105972512Y-28682857D01*
X105874807Y-28619262D01*
X105802021Y-28514544D01*
X105755556Y-28371718D01*
X105736810Y-28193797D01*
X105736520Y-28175000D01*
X105737463Y-28065157D01*
X105744327Y-27990662D01*
X105759910Y-27936961D01*
X105787009Y-27889499D01*
X105793056Y-27880872D01*
X105891198Y-27784067D01*
X106015106Y-27728968D01*
X106117362Y-27716795D01*
X106230986Y-27736229D01*
G37*
G36*
X105344451Y-27721162D02*
G01*
X105472019Y-27729825D01*
X105472019Y-28564912D01*
X105472019Y-29400000D01*
X105360289Y-29400000D01*
X105268982Y-29414719D01*
X105215004Y-29456236D01*
X105202423Y-29520587D01*
X105208576Y-29547845D01*
X105199608Y-29588380D01*
X105151387Y-29616240D01*
X105093709Y-29624658D01*
X105079314Y-29602830D01*
X105054594Y-29544461D01*
X105024147Y-29460738D01*
X105014219Y-29431250D01*
X104976607Y-29306788D01*
X104938405Y-29163177D01*
X104907600Y-29030525D01*
X104906420Y-29024833D01*
X104862659Y-28812166D01*
X104931479Y-28708274D01*
X104981652Y-28609488D01*
X104992169Y-28533441D01*
X104977988Y-28482609D01*
X104940276Y-28460256D01*
X104902709Y-28454666D01*
X104846289Y-28443317D01*
X104824413Y-28414169D01*
X104821379Y-28373416D01*
X104828813Y-28320180D01*
X104858682Y-28301226D01*
X104878936Y-28300000D01*
X104945357Y-28284483D01*
X104983294Y-28234438D01*
X104996455Y-28144623D01*
X104996551Y-28133697D01*
X105003178Y-28065229D01*
X105027391Y-27997666D01*
X105075691Y-27915447D01*
X105106717Y-27869947D01*
X105216882Y-27712500D01*
X105344451Y-27721162D01*
G37*
G36*
X110261556Y-34130126D02*
G01*
X110399026Y-34164940D01*
X110554660Y-34230734D01*
X110722821Y-34325946D01*
X110766209Y-34354198D01*
X110876853Y-34431058D01*
X110947350Y-34489989D01*
X110981054Y-34537788D01*
X110981322Y-34581252D01*
X110951507Y-34627177D01*
X110917816Y-34661349D01*
X110833349Y-34721624D01*
X110711844Y-34782344D01*
X110562248Y-34841335D01*
X110393507Y-34896419D01*
X110214567Y-34945422D01*
X110034375Y-34986166D01*
X109861875Y-35016476D01*
X109706016Y-35034177D01*
X109575742Y-35037091D01*
X109480000Y-35023043D01*
X109460615Y-35015782D01*
X109410392Y-34984454D01*
X109380459Y-34939969D01*
X109369048Y-34873260D01*
X109374390Y-34775261D01*
X109391044Y-34658998D01*
X109406433Y-34562369D01*
X109418198Y-34483278D01*
X109424234Y-34436024D01*
X109424585Y-34431291D01*
X109443332Y-34427632D01*
X109491661Y-34450817D01*
X109550073Y-34489197D01*
X109636958Y-34544411D01*
X109705515Y-34568838D01*
X109756527Y-34570405D01*
X109799434Y-34562545D01*
X109832652Y-34542257D01*
X109864778Y-34499891D01*
X109904403Y-34425797D01*
X109927502Y-34378432D01*
X109975027Y-34287405D01*
X110021244Y-34211660D01*
X110057644Y-34164863D01*
X110063665Y-34159682D01*
X110147890Y-34127853D01*
X110261556Y-34130126D01*
G37*
G36*
X105774387Y-28835511D02*
G01*
X105833534Y-28861935D01*
X105859901Y-28875000D01*
X105947291Y-28907509D01*
X106038586Y-28924349D01*
X106055532Y-28925000D01*
X106134033Y-28935099D01*
X106189038Y-28972370D01*
X106204965Y-28991006D01*
X106252737Y-29033137D01*
X106331286Y-29083907D01*
X106424932Y-29133354D01*
X106440045Y-29140374D01*
X106545299Y-29193625D01*
X106605471Y-29242145D01*
X106623580Y-29295011D01*
X106602649Y-29361297D01*
X106545699Y-29450077D01*
X106543958Y-29452499D01*
X106465560Y-29550618D01*
X106369449Y-29654550D01*
X106263528Y-29757462D01*
X106155700Y-29852522D01*
X106053866Y-29932896D01*
X105965930Y-29991754D01*
X105899793Y-30022261D01*
X105881814Y-30025000D01*
X105840081Y-30008748D01*
X105813762Y-29987834D01*
X105784575Y-29943224D01*
X105751527Y-29870815D01*
X105734987Y-29825628D01*
X105707344Y-29752269D01*
X105681794Y-29700477D01*
X105670303Y-29686318D01*
X105645390Y-29658928D01*
X105667028Y-29638650D01*
X105732024Y-29627088D01*
X105792335Y-29625000D01*
X105896454Y-29618526D01*
X105959911Y-29595696D01*
X105990809Y-29551394D01*
X105997537Y-29495476D01*
X105991270Y-29451586D01*
X105965755Y-29423826D01*
X105910918Y-29406768D01*
X105816687Y-29394986D01*
X105809852Y-29394355D01*
X105734778Y-29387500D01*
X105727702Y-29106250D01*
X105726593Y-28994434D01*
X105728937Y-28903686D01*
X105734255Y-28843971D01*
X105741180Y-28825000D01*
X105774387Y-28835511D01*
G37*
G36*
X114568473Y-26937500D02*
G01*
X114575045Y-27831250D01*
X114581617Y-28725000D01*
X114778821Y-28725000D01*
X114893325Y-28728976D01*
X114964131Y-28742987D01*
X114997111Y-28770153D01*
X114998136Y-28813596D01*
X114990429Y-28837500D01*
X114978483Y-28850692D01*
X114949991Y-28860472D01*
X114898617Y-28867314D01*
X114818024Y-28871693D01*
X114701877Y-28874084D01*
X114543841Y-28874961D01*
X114489936Y-28875000D01*
X114318726Y-28874469D01*
X114191222Y-28872561D01*
X114101088Y-28868800D01*
X114041987Y-28862712D01*
X114007585Y-28853823D01*
X113991545Y-28841657D01*
X113989443Y-28837500D01*
X113979425Y-28787369D01*
X113999048Y-28753672D01*
X114054300Y-28733033D01*
X114151168Y-28722076D01*
X114198162Y-28719823D01*
X114393300Y-28712500D01*
X114399952Y-28018750D01*
X114401275Y-27838351D01*
X114401688Y-27675416D01*
X114401239Y-27536297D01*
X114399974Y-27427347D01*
X114397941Y-27354918D01*
X114395187Y-27325363D01*
X114394807Y-27325000D01*
X114368794Y-27337781D01*
X114317119Y-27369975D01*
X114291796Y-27386838D01*
X114197270Y-27438754D01*
X114107555Y-27467075D01*
X114031820Y-27471586D01*
X113979234Y-27452073D01*
X113958966Y-27408321D01*
X113959870Y-27394598D01*
X113978479Y-27354641D01*
X114028120Y-27324678D01*
X114084611Y-27306137D01*
X114213648Y-27244880D01*
X114326965Y-27141422D01*
X114409330Y-27017182D01*
X114449412Y-26953926D01*
X114488500Y-26929751D01*
X114513476Y-26929682D01*
X114568473Y-26937500D01*
G37*
G36*
X117937491Y-26949072D02*
G01*
X118071546Y-27017659D01*
X118193626Y-27125314D01*
X118298731Y-27266589D01*
X118381866Y-27436039D01*
X118436980Y-27623094D01*
X118453899Y-27756578D01*
X118457398Y-27914671D01*
X118448584Y-28080314D01*
X118428565Y-28236448D01*
X118398451Y-28366013D01*
X118386499Y-28400000D01*
X118300844Y-28572190D01*
X118194908Y-28713336D01*
X118074042Y-28819407D01*
X117943599Y-28886373D01*
X117808933Y-28910204D01*
X117721576Y-28900633D01*
X117568980Y-28840743D01*
X117436035Y-28738552D01*
X117325531Y-28598837D01*
X117240260Y-28426375D01*
X117183014Y-28225944D01*
X117156585Y-28002321D01*
X117155083Y-27931209D01*
X117160034Y-27812500D01*
X117341120Y-27812500D01*
X117342866Y-28022053D01*
X117370357Y-28215228D01*
X117420877Y-28386705D01*
X117491713Y-28531167D01*
X117580151Y-28643299D01*
X117683479Y-28717781D01*
X117798981Y-28749297D01*
X117819572Y-28750000D01*
X117879146Y-28744969D01*
X117929238Y-28724178D01*
X117985070Y-28679078D01*
X118035405Y-28628792D01*
X118138503Y-28490135D01*
X118213809Y-28322953D01*
X118261389Y-28136583D01*
X118281306Y-27940364D01*
X118273627Y-27743633D01*
X118238415Y-27555728D01*
X118175737Y-27385987D01*
X118085656Y-27243747D01*
X118025338Y-27181393D01*
X117922899Y-27110197D01*
X117824648Y-27085032D01*
X117719987Y-27104161D01*
X117673974Y-27123816D01*
X117550981Y-27210775D01*
X117455626Y-27339039D01*
X117388177Y-27508052D01*
X117348904Y-27717256D01*
X117341120Y-27812500D01*
X117160034Y-27812500D01*
X117163306Y-27734055D01*
X117189928Y-27567655D01*
X117238284Y-27415079D01*
X117271996Y-27337965D01*
X117357979Y-27195561D01*
X117466360Y-27076309D01*
X117588202Y-26987245D01*
X117714571Y-26935405D01*
X117796457Y-26925000D01*
X117937491Y-26949072D01*
G37*
G36*
X98978260Y-26949326D02*
G01*
X99116387Y-26953813D01*
X99246941Y-26961093D01*
X99358434Y-26970873D01*
X99439378Y-26982857D01*
X99458757Y-26987635D01*
X99599186Y-27054613D01*
X99723677Y-27164545D01*
X99828477Y-27311885D01*
X99909832Y-27491090D01*
X99963989Y-27696618D01*
X99971995Y-27745599D01*
X99985251Y-27961235D01*
X99963847Y-28170223D01*
X99910789Y-28365229D01*
X99829083Y-28538914D01*
X99721736Y-28683943D01*
X99591754Y-28792980D01*
X99528670Y-28827431D01*
X99484317Y-28844900D01*
X99432333Y-28857496D01*
X99364038Y-28865985D01*
X99270755Y-28871133D01*
X99143807Y-28873706D01*
X98996111Y-28874450D01*
X98835548Y-28874028D01*
X98718316Y-28871923D01*
X98637710Y-28867580D01*
X98587024Y-28860445D01*
X98559554Y-28849964D01*
X98549246Y-28837500D01*
X98543875Y-28775703D01*
X98581440Y-28737175D01*
X98652022Y-28725000D01*
X98740394Y-28725000D01*
X98915566Y-28725000D01*
X99096995Y-28724860D01*
X99203383Y-28721061D01*
X99303932Y-28711267D01*
X99372950Y-28698496D01*
X99497161Y-28639018D01*
X99608193Y-28535969D01*
X99699809Y-28395295D01*
X99707585Y-28379546D01*
X99742730Y-28297177D01*
X99765296Y-28215740D01*
X99778835Y-28117945D01*
X99786525Y-27995124D01*
X99780902Y-27761711D01*
X99741460Y-27562924D01*
X99667406Y-27395820D01*
X99600011Y-27302418D01*
X99521710Y-27222831D01*
X99440490Y-27170267D01*
X99343381Y-27139840D01*
X99217415Y-27126664D01*
X99129079Y-27125000D01*
X98915566Y-27125000D01*
X98915566Y-27925000D01*
X98915566Y-28725000D01*
X98740394Y-28725000D01*
X98740394Y-27925000D01*
X98740394Y-27125000D01*
X98679879Y-27125000D01*
X98615039Y-27118809D01*
X98579780Y-27109825D01*
X98548152Y-27075454D01*
X98542230Y-27022975D01*
X98562014Y-26977181D01*
X98579780Y-26965174D01*
X98633320Y-26955555D01*
X98725238Y-26949903D01*
X98844047Y-26947925D01*
X98978260Y-26949326D01*
G37*
G36*
X113355957Y-27528991D02*
G01*
X113435655Y-27542709D01*
X113480557Y-27563373D01*
X113481642Y-27564595D01*
X113500194Y-27615112D01*
X113475365Y-27659099D01*
X113413805Y-27688534D01*
X113373492Y-27695111D01*
X113284663Y-27702722D01*
X113090520Y-28266050D01*
X113034350Y-28426296D01*
X112981554Y-28571805D01*
X112934841Y-28695513D01*
X112896919Y-28790354D01*
X112870497Y-28849263D01*
X112861031Y-28864689D01*
X112797768Y-28896040D01*
X112720439Y-28891767D01*
X112666891Y-28865803D01*
X112642470Y-28829702D01*
X112605068Y-28749262D01*
X112556114Y-28628026D01*
X112497038Y-28469540D01*
X112429269Y-28277345D01*
X112427446Y-28272053D01*
X112234813Y-27712500D01*
X112140454Y-27700000D01*
X112068369Y-27679589D01*
X112021007Y-27645958D01*
X112018516Y-27642285D01*
X112006826Y-27594003D01*
X112039687Y-27558843D01*
X112118330Y-27536305D01*
X112243986Y-27525886D01*
X112306480Y-27525000D01*
X112433944Y-27526712D01*
X112519426Y-27533416D01*
X112570925Y-27547464D01*
X112596438Y-27571208D01*
X112603965Y-27607000D01*
X112604039Y-27612500D01*
X112587971Y-27664518D01*
X112535943Y-27692535D01*
X112454233Y-27700000D01*
X112383595Y-27700000D01*
X112557052Y-28206250D01*
X112609178Y-28358140D01*
X112656431Y-28495364D01*
X112696200Y-28610380D01*
X112725877Y-28695649D01*
X112742851Y-28743630D01*
X112745222Y-28750000D01*
X112757094Y-28738792D01*
X112782012Y-28686315D01*
X112817484Y-28598827D01*
X112861018Y-28482586D01*
X112910121Y-28343852D01*
X112929396Y-28287500D01*
X112980854Y-28136092D01*
X113027703Y-27999048D01*
X113067286Y-27884066D01*
X113096951Y-27798848D01*
X113114043Y-27751093D01*
X113116257Y-27745381D01*
X113118915Y-27716673D01*
X113089015Y-27701609D01*
X113040299Y-27695381D01*
X112961162Y-27676038D01*
X112916343Y-27638765D01*
X112912108Y-27590832D01*
X112927618Y-27564595D01*
X112970399Y-27543582D01*
X113048683Y-27529515D01*
X113148411Y-27522394D01*
X113255522Y-27522220D01*
X113355957Y-27528991D01*
G37*
G36*
X104523395Y-27523057D02*
G01*
X104669164Y-27586986D01*
X104790377Y-27683921D01*
X104791521Y-27685157D01*
X104859581Y-27777030D01*
X104914353Y-27885210D01*
X104952717Y-27998054D01*
X104971554Y-28103915D01*
X104967745Y-28191149D01*
X104941497Y-28245000D01*
X104911888Y-28256359D01*
X104846442Y-28264840D01*
X104741600Y-28270642D01*
X104593806Y-28273962D01*
X104403468Y-28275000D01*
X104220030Y-28275200D01*
X104082098Y-28277328D01*
X103985128Y-28283670D01*
X103924579Y-28296514D01*
X103895907Y-28318149D01*
X103894570Y-28350861D01*
X103916025Y-28396938D01*
X103955730Y-28458669D01*
X103976798Y-28489877D01*
X104086990Y-28612236D01*
X104222418Y-28691641D01*
X104380678Y-28726819D01*
X104428188Y-28728571D01*
X104569283Y-28713334D01*
X104677232Y-28665219D01*
X104759467Y-28580616D01*
X104771809Y-28561724D01*
X104816095Y-28502500D01*
X104859024Y-28479909D01*
X104893092Y-28479868D01*
X104951258Y-28502115D01*
X104967587Y-28548773D01*
X104942344Y-28617214D01*
X104875793Y-28704810D01*
X104869858Y-28711305D01*
X104740676Y-28816181D01*
X104588800Y-28878674D01*
X104419836Y-28897643D01*
X104239387Y-28871946D01*
X104175868Y-28852644D01*
X104009069Y-28770643D01*
X103874796Y-28654669D01*
X103776512Y-28511458D01*
X103717682Y-28347746D01*
X103701771Y-28170267D01*
X103716817Y-28078053D01*
X103895468Y-28078053D01*
X103919156Y-28085157D01*
X103984883Y-28091303D01*
X104084639Y-28096089D01*
X104210418Y-28099113D01*
X104333399Y-28100000D01*
X104490845Y-28099849D01*
X104605140Y-28098808D01*
X104683183Y-28095987D01*
X104731874Y-28090500D01*
X104758111Y-28081460D01*
X104768792Y-28067980D01*
X104770816Y-28049172D01*
X104770780Y-28043750D01*
X104751594Y-27950566D01*
X104703621Y-27850523D01*
X104638812Y-27764812D01*
X104591356Y-27725609D01*
X104471774Y-27680250D01*
X104338375Y-27674269D01*
X104204653Y-27705140D01*
X104084099Y-27770339D01*
X104016340Y-27833213D01*
X103977324Y-27889336D01*
X103937764Y-27961971D01*
X103907276Y-28031637D01*
X103895468Y-28078053D01*
X103716817Y-28078053D01*
X103731413Y-27988592D01*
X103798141Y-27841684D01*
X103902608Y-27711642D01*
X104034571Y-27606291D01*
X104183785Y-27533457D01*
X104340006Y-27500968D01*
X104370936Y-27500000D01*
X104523395Y-27523057D01*
G37*
G36*
X109719986Y-26951940D02*
G01*
X109801870Y-26959747D01*
X109858436Y-26972571D01*
X109871349Y-26979999D01*
X109880068Y-27003196D01*
X109887115Y-27055916D01*
X109892608Y-27141606D01*
X109896665Y-27263713D01*
X109899400Y-27425682D01*
X109900932Y-27630960D01*
X109901379Y-27866193D01*
X109901379Y-28722387D01*
X110032758Y-28729943D01*
X110109457Y-28736404D01*
X110148578Y-28748758D01*
X110162590Y-28773651D01*
X110164138Y-28800000D01*
X110162185Y-28830265D01*
X110149720Y-28848736D01*
X110116834Y-28858325D01*
X110053618Y-28861942D01*
X109951428Y-28862500D01*
X109738719Y-28862500D01*
X109730873Y-28781189D01*
X109723027Y-28699878D01*
X109641940Y-28761665D01*
X109493843Y-28851704D01*
X109347657Y-28892996D01*
X109198966Y-28886396D01*
X109116294Y-28863295D01*
X108967830Y-28785937D01*
X108849169Y-28674993D01*
X108761975Y-28538226D01*
X108707909Y-28383399D01*
X108688633Y-28218275D01*
X108693250Y-28173211D01*
X108878344Y-28173211D01*
X108889105Y-28330132D01*
X108936356Y-28478794D01*
X108982409Y-28558724D01*
X109074832Y-28651706D01*
X109189153Y-28708409D01*
X109313416Y-28726330D01*
X109435666Y-28702967D01*
X109503540Y-28667782D01*
X109568037Y-28609957D01*
X109630592Y-28531533D01*
X109650710Y-28499032D01*
X109690615Y-28393651D01*
X109712990Y-28263179D01*
X109717481Y-28124691D01*
X109703731Y-27995264D01*
X109671386Y-27891970D01*
X109663645Y-27877613D01*
X109576231Y-27771917D01*
X109468227Y-27706834D01*
X109348029Y-27682217D01*
X109224032Y-27697918D01*
X109104631Y-27753787D01*
X108998222Y-27849678D01*
X108967524Y-27889885D01*
X108904381Y-28021854D01*
X108878344Y-28173211D01*
X108693250Y-28173211D01*
X108705812Y-28050614D01*
X108761106Y-27888181D01*
X108856178Y-27738738D01*
X108871575Y-27720636D01*
X108987647Y-27623028D01*
X109128289Y-27558371D01*
X109281321Y-27528497D01*
X109434568Y-27535236D01*
X109575850Y-27580420D01*
X109623191Y-27607603D01*
X109726207Y-27675709D01*
X109726207Y-27400354D01*
X109726207Y-27125000D01*
X109628155Y-27125000D01*
X109554021Y-27121250D01*
X109497243Y-27112011D01*
X109490519Y-27109825D01*
X109458891Y-27075454D01*
X109452969Y-27022975D01*
X109472753Y-26977181D01*
X109490519Y-26965174D01*
X109547501Y-26954000D01*
X109629593Y-26949807D01*
X109719986Y-26951940D01*
G37*
G36*
X105591612Y-27531597D02*
G01*
X105659612Y-27553504D01*
X105692088Y-27593893D01*
X105697241Y-27630000D01*
X105711547Y-27669547D01*
X105742849Y-27668072D01*
X105761413Y-27647396D01*
X105807974Y-27607832D01*
X105888704Y-27570969D01*
X105987794Y-27542163D01*
X106089433Y-27526772D01*
X106121015Y-27525549D01*
X106277753Y-27547386D01*
X106415589Y-27609595D01*
X106531760Y-27705219D01*
X106623503Y-27827300D01*
X106688056Y-27968881D01*
X106722656Y-28123005D01*
X106724541Y-28282715D01*
X106690948Y-28441053D01*
X106619114Y-28591063D01*
X106570563Y-28657674D01*
X106442238Y-28779922D01*
X106296154Y-28855796D01*
X106129557Y-28886623D01*
X106093420Y-28887500D01*
X105995830Y-28884469D01*
X105926707Y-28871284D01*
X105864630Y-28841800D01*
X105811893Y-28806765D01*
X105697241Y-28726030D01*
X105697241Y-29074145D01*
X105697241Y-29422260D01*
X105813545Y-29429880D01*
X105901837Y-29445898D01*
X105956066Y-29476635D01*
X105971091Y-29516484D01*
X105941771Y-29559834D01*
X105936448Y-29563964D01*
X105897856Y-29581029D01*
X105832042Y-29591862D01*
X105731281Y-29597241D01*
X105598616Y-29598026D01*
X105481129Y-29596198D01*
X105380819Y-29592728D01*
X105309010Y-29588131D01*
X105278079Y-29583442D01*
X105251937Y-29550416D01*
X105249231Y-29498732D01*
X105268524Y-29453127D01*
X105286381Y-29440174D01*
X105336588Y-29430215D01*
X105409481Y-29425158D01*
X105424017Y-29425000D01*
X105522069Y-29425000D01*
X105522069Y-28562500D01*
X105522069Y-28163377D01*
X105697241Y-28163377D01*
X105707801Y-28331567D01*
X105741947Y-28465254D01*
X105803381Y-28575822D01*
X105848836Y-28629535D01*
X105907495Y-28686036D01*
X105958065Y-28714369D01*
X106023149Y-28724065D01*
X106074992Y-28724906D01*
X106209295Y-28709482D01*
X106288677Y-28677035D01*
X106403126Y-28579521D01*
X106487126Y-28450845D01*
X106534778Y-28303412D01*
X106540185Y-28149630D01*
X106540026Y-28148268D01*
X106502834Y-27992182D01*
X106434924Y-27862450D01*
X106342172Y-27763972D01*
X106230454Y-27701648D01*
X106105648Y-27680379D01*
X105998511Y-27696754D01*
X105870150Y-27754145D01*
X105778867Y-27840276D01*
X105722386Y-27958672D01*
X105698430Y-28112861D01*
X105697241Y-28163377D01*
X105522069Y-28163377D01*
X105522069Y-27700000D01*
X105424017Y-27700000D01*
X105327228Y-27693909D01*
X105271362Y-27673029D01*
X105248488Y-27633443D01*
X105246798Y-27612499D01*
X105254894Y-27570753D01*
X105284844Y-27544401D01*
X105345141Y-27530280D01*
X105444278Y-27525223D01*
X105481574Y-27525000D01*
X105591612Y-27531597D01*
G37*
G36*
X102337497Y-27527496D02*
G01*
X102415663Y-27535947D01*
X102463168Y-27551800D01*
X102479789Y-27564285D01*
X102511224Y-27602993D01*
X102519113Y-27621785D01*
X102496583Y-27663193D01*
X102438399Y-27691651D01*
X102373795Y-27700000D01*
X102313399Y-27707280D01*
X102299475Y-27729538D01*
X102300043Y-27731250D01*
X102311066Y-27763396D01*
X102335363Y-27835555D01*
X102370443Y-27940288D01*
X102413814Y-28070151D01*
X102462986Y-28217704D01*
X102480495Y-28270316D01*
X102530549Y-28419223D01*
X102575518Y-28550078D01*
X102613011Y-28656154D01*
X102640634Y-28730728D01*
X102655994Y-28767075D01*
X102658122Y-28769461D01*
X102668969Y-28743828D01*
X102692897Y-28679195D01*
X102727011Y-28583946D01*
X102768415Y-28466462D01*
X102814214Y-28335129D01*
X102861512Y-28198329D01*
X102907412Y-28064446D01*
X102949020Y-27941863D01*
X102983440Y-27838965D01*
X103007776Y-27764133D01*
X103019133Y-27725753D01*
X103019606Y-27722894D01*
X102997478Y-27708280D01*
X102942617Y-27696975D01*
X102925763Y-27695259D01*
X102861287Y-27684037D01*
X102831505Y-27658089D01*
X102823475Y-27627827D01*
X102824242Y-27583593D01*
X102846273Y-27553958D01*
X102896901Y-27536194D01*
X102983455Y-27527575D01*
X103098889Y-27525382D01*
X103226015Y-27526900D01*
X103311175Y-27533557D01*
X103362376Y-27547707D01*
X103387623Y-27571708D01*
X103394924Y-27607913D01*
X103394975Y-27612499D01*
X103378315Y-27665128D01*
X103324860Y-27693168D01*
X103248611Y-27700000D01*
X103226703Y-27701638D01*
X103207532Y-27710340D01*
X103188518Y-27731781D01*
X103167084Y-27771640D01*
X103140651Y-27835594D01*
X103106643Y-27929319D01*
X103062482Y-28058494D01*
X103005588Y-28228795D01*
X102997604Y-28252804D01*
X102943097Y-28412760D01*
X102890875Y-28558680D01*
X102843785Y-28683171D01*
X102804673Y-28778840D01*
X102776387Y-28838295D01*
X102766552Y-28852804D01*
X102693776Y-28893237D01*
X102609075Y-28892502D01*
X102565909Y-28874676D01*
X102545246Y-28843730D01*
X102511710Y-28770089D01*
X102467284Y-28658804D01*
X102413952Y-28514926D01*
X102353699Y-28343506D01*
X102330496Y-28275436D01*
X102269607Y-28095899D01*
X102222097Y-27958214D01*
X102185420Y-27856828D01*
X102157033Y-27786192D01*
X102134391Y-27740753D01*
X102114952Y-27714961D01*
X102096170Y-27703264D01*
X102075501Y-27700112D01*
X102066782Y-27700000D01*
X101978181Y-27690362D01*
X101930689Y-27659280D01*
X101918522Y-27612500D01*
X101924266Y-27575185D01*
X101946811Y-27550102D01*
X101994127Y-27534930D01*
X102074185Y-27527347D01*
X102194955Y-27525035D01*
X102219077Y-27525000D01*
X102337497Y-27527496D01*
G37*
G36*
X107700454Y-27519276D02*
G01*
X107831788Y-27541640D01*
X107937586Y-27582646D01*
X108028728Y-27644864D01*
X108088127Y-27701646D01*
X108132232Y-27763612D01*
X108163195Y-27839076D01*
X108183171Y-27936351D01*
X108194311Y-28063752D01*
X108198767Y-28229593D01*
X108199155Y-28303125D01*
X108199704Y-28693750D01*
X108277906Y-28709375D01*
X108359109Y-28720991D01*
X108425377Y-28725000D01*
X108486614Y-28741515D01*
X108514668Y-28782357D01*
X108501816Y-28834468D01*
X108495266Y-28843198D01*
X108450756Y-28864539D01*
X108374200Y-28873667D01*
X108281823Y-28871578D01*
X108189849Y-28859269D01*
X108114503Y-28837736D01*
X108080342Y-28817708D01*
X108048828Y-28793560D01*
X108017073Y-28788480D01*
X107968435Y-28803323D01*
X107915049Y-28826193D01*
X107799037Y-28862878D01*
X107661610Y-28884726D01*
X107522760Y-28890196D01*
X107402477Y-28877746D01*
X107367096Y-28868426D01*
X107236091Y-28805829D01*
X107138320Y-28719423D01*
X107076163Y-28616950D01*
X107051999Y-28506152D01*
X107056303Y-28476577D01*
X107226879Y-28476577D01*
X107234702Y-28523649D01*
X107247651Y-28559565D01*
X107301478Y-28635065D01*
X107390925Y-28689838D01*
X107505309Y-28722136D01*
X107633947Y-28730212D01*
X107766155Y-28712317D01*
X107891251Y-28666704D01*
X107893966Y-28665311D01*
X107942577Y-28635496D01*
X107973550Y-28599216D01*
X107990770Y-28545207D01*
X107998119Y-28462206D01*
X107999507Y-28359213D01*
X107999507Y-28172517D01*
X107843103Y-28188042D01*
X107666772Y-28214211D01*
X107511773Y-28254167D01*
X107386972Y-28304889D01*
X107301235Y-28363356D01*
X107288479Y-28376978D01*
X107243229Y-28434730D01*
X107226879Y-28476577D01*
X107056303Y-28476577D01*
X107068207Y-28394770D01*
X107127167Y-28290545D01*
X107174711Y-28242430D01*
X107279437Y-28170745D01*
X107410492Y-28114993D01*
X107575729Y-28072529D01*
X107768029Y-28042512D01*
X107876130Y-28028686D01*
X107943925Y-28016825D01*
X107980816Y-28003029D01*
X107996200Y-27983399D01*
X107999477Y-27954035D01*
X107999507Y-27946484D01*
X107977529Y-27867124D01*
X107920126Y-27788734D01*
X107840094Y-27725674D01*
X107778697Y-27698706D01*
X107700950Y-27684802D01*
X107600890Y-27678512D01*
X107537578Y-27679504D01*
X107453490Y-27686003D01*
X107406471Y-27697746D01*
X107383541Y-27720303D01*
X107373842Y-27749775D01*
X107336311Y-27809647D01*
X107290946Y-27836041D01*
X107233479Y-27846546D01*
X107186899Y-27823080D01*
X107168133Y-27805555D01*
X107131111Y-27756282D01*
X107130638Y-27705827D01*
X107137393Y-27684343D01*
X107177087Y-27609271D01*
X107238491Y-27558083D01*
X107329342Y-27527412D01*
X107457375Y-27513889D01*
X107532126Y-27512500D01*
X107700454Y-27519276D01*
G37*
G36*
X100987513Y-27522636D02*
G01*
X101135733Y-27554632D01*
X101252461Y-27610866D01*
X101340424Y-27688439D01*
X101386192Y-27748151D01*
X101419862Y-27813815D01*
X101443151Y-27894046D01*
X101457778Y-27997464D01*
X101465460Y-28132687D01*
X101467915Y-28308333D01*
X101467939Y-28328125D01*
X101468079Y-28693750D01*
X101546281Y-28709375D01*
X101629572Y-28721053D01*
X101698090Y-28725000D01*
X101749667Y-28730671D01*
X101765733Y-28757540D01*
X101763780Y-28793750D01*
X101757537Y-28829378D01*
X101741542Y-28849912D01*
X101704501Y-28859510D01*
X101635119Y-28862331D01*
X101577025Y-28862500D01*
X101469563Y-28858840D01*
X101399362Y-28846266D01*
X101354066Y-28822383D01*
X101349470Y-28818422D01*
X101317836Y-28793895D01*
X101286454Y-28788325D01*
X101238768Y-28802535D01*
X101182149Y-28826756D01*
X101080227Y-28859369D01*
X100955715Y-28881396D01*
X100826429Y-28891396D01*
X100710186Y-28887925D01*
X100629753Y-28871476D01*
X100491831Y-28800017D01*
X100392503Y-28704612D01*
X100335210Y-28589988D01*
X100324833Y-28476577D01*
X100495253Y-28476577D01*
X100503076Y-28523649D01*
X100516026Y-28559565D01*
X100569852Y-28635065D01*
X100659300Y-28689838D01*
X100773684Y-28722136D01*
X100902322Y-28730212D01*
X101034530Y-28712317D01*
X101159625Y-28666704D01*
X101162340Y-28665311D01*
X101210951Y-28635496D01*
X101241925Y-28599216D01*
X101259144Y-28545207D01*
X101266494Y-28462206D01*
X101267881Y-28359213D01*
X101267881Y-28172517D01*
X101111478Y-28188042D01*
X100935147Y-28214211D01*
X100780147Y-28254167D01*
X100655346Y-28304889D01*
X100569609Y-28363356D01*
X100556854Y-28376978D01*
X100511604Y-28434730D01*
X100495253Y-28476577D01*
X100324833Y-28476577D01*
X100323396Y-28460872D01*
X100324283Y-28452107D01*
X100360260Y-28337119D01*
X100440664Y-28240162D01*
X100566154Y-28160856D01*
X100737393Y-28098820D01*
X100955039Y-28053675D01*
X101036404Y-28042512D01*
X101144528Y-28028649D01*
X101212337Y-28016723D01*
X101249229Y-28002894D01*
X101264603Y-27983321D01*
X101267857Y-27954165D01*
X101267881Y-27947938D01*
X101245641Y-27865378D01*
X101186869Y-27785178D01*
X101103488Y-27722216D01*
X101076799Y-27709470D01*
X101007251Y-27691096D01*
X100911073Y-27678592D01*
X100829452Y-27675000D01*
X100740804Y-27676162D01*
X100689079Y-27683090D01*
X100661158Y-27700946D01*
X100643919Y-27734895D01*
X100638463Y-27750150D01*
X100594966Y-27817774D01*
X100533225Y-27844784D01*
X100465437Y-27827964D01*
X100434771Y-27803820D01*
X100400067Y-27739309D01*
X100411306Y-27666780D01*
X100466628Y-27593024D01*
X100500205Y-27565053D01*
X100542611Y-27539176D01*
X100593390Y-27523312D01*
X100665479Y-27515197D01*
X100771814Y-27512567D01*
X100800500Y-27512500D01*
X100987513Y-27522636D01*
G37*
G36*
X107321653Y-24810474D02*
G01*
X107369071Y-24853685D01*
X107413470Y-24929026D01*
X107464005Y-25046035D01*
X107509093Y-25182676D01*
X107546844Y-25328626D01*
X107575365Y-25473562D01*
X107592767Y-25607161D01*
X107597157Y-25719100D01*
X107586646Y-25799058D01*
X107576930Y-25821262D01*
X107554516Y-25837663D01*
X107507998Y-25844840D01*
X107428077Y-25843438D01*
X107343439Y-25837376D01*
X107200144Y-25831759D01*
X107095267Y-25844813D01*
X107019531Y-25880051D01*
X106963658Y-25940989D01*
X106935543Y-25991910D01*
X106898503Y-26101590D01*
X106871845Y-26244287D01*
X106857187Y-26403790D01*
X106856150Y-26563886D01*
X106866460Y-26683244D01*
X106897367Y-26847677D01*
X106940932Y-26967737D01*
X107002781Y-27048556D01*
X107088540Y-27095264D01*
X107203833Y-27112992D01*
X107333019Y-27108794D01*
X107447024Y-27102654D01*
X107520348Y-27107765D01*
X107560911Y-27124448D01*
X107589773Y-27177918D01*
X107598432Y-27267545D01*
X107586066Y-27383387D01*
X107583473Y-27396875D01*
X107567274Y-27449214D01*
X107535647Y-27470899D01*
X107476953Y-27475000D01*
X107339150Y-27489605D01*
X107226284Y-27530512D01*
X107145289Y-27593358D01*
X107103102Y-27673779D01*
X107098620Y-27712983D01*
X107118949Y-27799322D01*
X107175606Y-27854068D01*
X107262095Y-27871507D01*
X107277708Y-27870508D01*
X107342817Y-27853690D01*
X107383655Y-27808856D01*
X107397176Y-27781250D01*
X107432351Y-27723535D01*
X107466089Y-27699325D01*
X107488534Y-27709987D01*
X107489830Y-27756892D01*
X107487192Y-27768750D01*
X107446637Y-27893810D01*
X107394376Y-28002007D01*
X107337064Y-28081303D01*
X107296452Y-28113721D01*
X107244974Y-28138944D01*
X107217195Y-28149980D01*
X107216848Y-28150000D01*
X107194008Y-28135808D01*
X107142396Y-28098356D01*
X107072554Y-28045323D01*
X107062447Y-28037500D01*
X106973538Y-27973619D01*
X106904807Y-27938627D01*
X106841471Y-27925636D01*
X106820981Y-27925000D01*
X106752185Y-27918436D01*
X106710990Y-27890785D01*
X106685889Y-27850337D01*
X106604286Y-27728790D01*
X106497244Y-27619317D01*
X106387788Y-27543201D01*
X106261318Y-27500393D01*
X106115049Y-27487308D01*
X105969386Y-27503892D01*
X105854642Y-27544674D01*
X105781362Y-27581925D01*
X105741676Y-27596556D01*
X105725379Y-27590149D01*
X105722266Y-27565174D01*
X105708899Y-27532462D01*
X105664305Y-27512028D01*
X105581748Y-27501941D01*
X105494997Y-27500000D01*
X105416410Y-27497587D01*
X105362708Y-27491323D01*
X105346896Y-27484274D01*
X105354830Y-27454749D01*
X105375800Y-27391102D01*
X105405561Y-27306135D01*
X105411036Y-27290913D01*
X105471455Y-27107352D01*
X105513509Y-26936139D01*
X105539960Y-26760550D01*
X105553572Y-26563857D01*
X105556918Y-26407714D01*
X105559606Y-26052928D01*
X105656633Y-25925818D01*
X105764520Y-25797823D01*
X105895649Y-25663440D01*
X106042681Y-25528341D01*
X106198279Y-25398196D01*
X106355106Y-25278676D01*
X106505824Y-25175454D01*
X106643095Y-25094200D01*
X106759583Y-25040586D01*
X106825393Y-25022450D01*
X106961124Y-24978799D01*
X107089948Y-24901543D01*
X107191013Y-24835161D01*
X107265274Y-24804552D01*
X107321653Y-24810474D01*
G37*
G36*
X112528434Y-28685605D02*
G01*
X112573874Y-28807719D01*
X112630890Y-28884716D01*
X112703362Y-28920883D01*
X112745136Y-28925000D01*
X112835938Y-28915098D01*
X112898605Y-28879355D01*
X112944029Y-28808709D01*
X112970066Y-28737884D01*
X112996367Y-28660957D01*
X113018572Y-28622018D01*
X113045672Y-28610797D01*
X113077625Y-28615024D01*
X113411991Y-28710741D01*
X113725290Y-28848592D01*
X114013908Y-29025156D01*
X114274233Y-29237014D01*
X114502652Y-29480745D01*
X114695553Y-29752929D01*
X114849323Y-30050146D01*
X114960350Y-30368976D01*
X114970180Y-30406735D01*
X115012644Y-30575619D01*
X114947009Y-30674702D01*
X114892781Y-30744866D01*
X114835403Y-30802151D01*
X114817741Y-30815439D01*
X114777475Y-30836467D01*
X114737316Y-30840787D01*
X114688958Y-30824859D01*
X114624097Y-30785147D01*
X114534427Y-30718111D01*
X114470566Y-30667547D01*
X114332319Y-30568157D01*
X114212567Y-30508300D01*
X114103220Y-30485144D01*
X113996191Y-30495857D01*
X113986891Y-30498252D01*
X113875424Y-30549918D01*
X113754979Y-30644736D01*
X113629788Y-30777633D01*
X113504082Y-30943535D01*
X113382095Y-31137367D01*
X113268057Y-31354054D01*
X113261312Y-31368195D01*
X113204448Y-31494126D01*
X113167859Y-31593329D01*
X113146595Y-31682260D01*
X113135705Y-31777377D01*
X113134972Y-31788233D01*
X113133815Y-31910255D01*
X113151517Y-32008687D01*
X113193625Y-32090110D01*
X113265689Y-32161106D01*
X113373256Y-32228258D01*
X113521874Y-32298147D01*
X113588231Y-32325957D01*
X113706877Y-32379293D01*
X113781741Y-32428145D01*
X113817482Y-32480603D01*
X113818760Y-32544760D01*
X113790234Y-32628706D01*
X113778086Y-32655685D01*
X113728663Y-32738512D01*
X113645565Y-32845414D01*
X113526717Y-32978907D01*
X113417340Y-33093420D01*
X113307142Y-33205688D01*
X113224428Y-33287327D01*
X113162042Y-33343798D01*
X113112828Y-33380564D01*
X113069630Y-33403085D01*
X113025294Y-33416824D01*
X112982249Y-33425517D01*
X112880933Y-33438916D01*
X112760905Y-33447808D01*
X112679651Y-33450000D01*
X112511848Y-33450000D01*
X112444732Y-33279102D01*
X112370566Y-33128272D01*
X112281173Y-33019437D01*
X112173475Y-32951828D01*
X112044391Y-32924680D01*
X111890841Y-32937226D01*
X111709746Y-32988699D01*
X111546892Y-33055603D01*
X111378120Y-33132269D01*
X111239697Y-33040452D01*
X111027917Y-32877004D01*
X110823696Y-32676351D01*
X110637258Y-32450864D01*
X110478824Y-32212912D01*
X110358615Y-31974865D01*
X110358108Y-31973647D01*
X110316009Y-31865971D01*
X110278730Y-31758685D01*
X110249429Y-31662442D01*
X110231263Y-31587894D01*
X110227392Y-31545693D01*
X110229743Y-31540717D01*
X110254337Y-31525323D01*
X110310708Y-31491357D01*
X110387517Y-31445640D01*
X110401872Y-31437143D01*
X110751096Y-31201986D01*
X111069303Y-30929467D01*
X111353928Y-30623358D01*
X111602409Y-30287429D01*
X111812184Y-29925450D01*
X111980691Y-29541193D01*
X112105365Y-29138428D01*
X112166248Y-28840973D01*
X112183296Y-28741316D01*
X112198565Y-28662120D01*
X112209715Y-28615103D01*
X112212877Y-28607443D01*
X112241625Y-28599260D01*
X112304441Y-28589359D01*
X112359557Y-28582891D01*
X112495713Y-28568853D01*
X112528434Y-28685605D01*
G37*
G36*
X102397419Y-21929533D02*
G01*
X102450706Y-21948737D01*
X102479088Y-21991011D01*
X102487761Y-22064757D01*
X102481922Y-22178378D01*
X102480566Y-22194256D01*
X102475644Y-22335471D01*
X102491799Y-22439031D01*
X102532689Y-22514156D01*
X102601969Y-22570065D01*
X102636878Y-22588369D01*
X102755654Y-22628551D01*
X102907418Y-22655899D01*
X103076414Y-22668923D01*
X103246885Y-22666135D01*
X103348042Y-22655576D01*
X103512815Y-22621754D01*
X103632641Y-22572223D01*
X103711339Y-22502532D01*
X103752725Y-22408234D01*
X103760617Y-22284880D01*
X103749672Y-22187500D01*
X103739340Y-22071322D01*
X103754849Y-21991917D01*
X103800640Y-21945786D01*
X103881151Y-21929433D01*
X104000822Y-21939359D01*
X104053084Y-21948453D01*
X104249509Y-21991735D01*
X104423989Y-22041905D01*
X104570946Y-22096579D01*
X104684797Y-22153376D01*
X104759963Y-22209913D01*
X104790801Y-22263359D01*
X104779655Y-22307352D01*
X104743201Y-22376449D01*
X104688419Y-22457548D01*
X104684709Y-22462500D01*
X104623150Y-22549401D01*
X104588473Y-22615657D01*
X104573674Y-22677420D01*
X104571396Y-22723924D01*
X104573908Y-22780655D01*
X104586582Y-22826096D01*
X104616656Y-22872455D01*
X104671368Y-22931939D01*
X104727537Y-22987279D01*
X104848227Y-23088624D01*
X104992342Y-23185035D01*
X105145412Y-23268599D01*
X105292966Y-23331403D01*
X105418846Y-23365276D01*
X105484661Y-23376683D01*
X105507027Y-23386990D01*
X105492020Y-23402325D01*
X105468896Y-23415764D01*
X105382891Y-23454610D01*
X105270862Y-23492811D01*
X105152231Y-23524906D01*
X105046423Y-23545434D01*
X104991441Y-23549999D01*
X104879536Y-23538632D01*
X104787419Y-23500836D01*
X104709287Y-23431071D01*
X104639340Y-23323794D01*
X104571777Y-23173466D01*
X104557027Y-23135051D01*
X104494502Y-22993723D01*
X104428014Y-22900490D01*
X104352243Y-22853466D01*
X104261864Y-22850764D01*
X104151557Y-22890498D01*
X104043239Y-22952948D01*
X103949517Y-23021488D01*
X103836839Y-23116869D01*
X103713268Y-23230880D01*
X103586865Y-23355311D01*
X103465692Y-23481951D01*
X103357811Y-23602589D01*
X103271283Y-23709017D01*
X103214170Y-23793022D01*
X103208906Y-23802667D01*
X103135620Y-23942835D01*
X102869902Y-23971626D01*
X102613717Y-24008525D01*
X102385823Y-24063028D01*
X102165881Y-24140918D01*
X101981083Y-24224396D01*
X101685178Y-24396108D01*
X101417821Y-24606402D01*
X101182474Y-24850674D01*
X100982598Y-25124321D01*
X100821655Y-25422738D01*
X100703107Y-25741322D01*
X100641355Y-26006250D01*
X100612103Y-26175000D01*
X100452012Y-26175000D01*
X100291921Y-26175000D01*
X100291921Y-26437500D01*
X100291921Y-26700000D01*
X100452012Y-26700000D01*
X100612103Y-26700000D01*
X100641355Y-26868750D01*
X100670373Y-27002128D01*
X100713737Y-27159896D01*
X100765252Y-27320845D01*
X100805652Y-27431250D01*
X100809157Y-27461104D01*
X100780534Y-27473293D01*
X100738620Y-27475000D01*
X100603101Y-27489992D01*
X100491858Y-27531869D01*
X100412089Y-27595981D01*
X100370994Y-27677677D01*
X100366995Y-27715072D01*
X100384941Y-27803356D01*
X100437638Y-27855824D01*
X100523372Y-27870908D01*
X100536489Y-27870073D01*
X100605384Y-27854625D01*
X100648165Y-27814459D01*
X100677212Y-27743750D01*
X100698089Y-27716072D01*
X100746431Y-27702816D01*
X100814674Y-27700000D01*
X100880621Y-27701759D01*
X100925638Y-27712998D01*
X100963788Y-27742657D01*
X101009133Y-27799676D01*
X101040598Y-27843633D01*
X101142593Y-27987266D01*
X100945657Y-28017796D01*
X100737871Y-28060180D01*
X100573593Y-28117023D01*
X100447843Y-28190384D01*
X100381452Y-28251141D01*
X100311786Y-28361004D01*
X100285976Y-28480292D01*
X100301113Y-28600624D01*
X100354283Y-28713623D01*
X100442575Y-28810908D01*
X100563077Y-28884101D01*
X100607223Y-28900822D01*
X100698239Y-28917825D01*
X100817207Y-28922670D01*
X100946420Y-28916474D01*
X101068169Y-28900352D01*
X101164746Y-28875422D01*
X101190842Y-28864038D01*
X101250276Y-28836549D01*
X101291333Y-28834058D01*
X101338670Y-28856031D01*
X101346585Y-28860665D01*
X101419818Y-28888389D01*
X101515392Y-28904521D01*
X101616868Y-28908679D01*
X101707808Y-28900477D01*
X101771773Y-28879533D01*
X101783086Y-28870865D01*
X101811752Y-28812888D01*
X101803215Y-28749811D01*
X101762569Y-28701693D01*
X101737367Y-28690828D01*
X101673519Y-28680417D01*
X101594031Y-28675407D01*
X101586946Y-28675341D01*
X101493103Y-28675000D01*
X101493103Y-28511236D01*
X101493103Y-28347473D01*
X101649507Y-28458317D01*
X101831963Y-28574722D01*
X102030228Y-28679273D01*
X102224138Y-28761800D01*
X102306404Y-28789592D01*
X102397250Y-28821521D01*
X102476508Y-28856705D01*
X102516232Y-28880146D01*
X102575584Y-28913151D01*
X102623467Y-28925000D01*
X102655739Y-28931741D01*
X102651300Y-28960995D01*
X102643520Y-28976337D01*
X102603939Y-29024259D01*
X102543766Y-29073169D01*
X102536284Y-29078040D01*
X102489522Y-29102996D01*
X102438700Y-29116531D01*
X102369483Y-29120466D01*
X102267532Y-29116622D01*
X102243842Y-29115197D01*
X102130482Y-29106968D01*
X102022850Y-29097130D01*
X101941025Y-29087561D01*
X101929299Y-29085809D01*
X101853957Y-29080385D01*
X101798731Y-29098819D01*
X101755997Y-29131042D01*
X101713281Y-29175628D01*
X101689298Y-29227918D01*
X101676936Y-29306092D01*
X101674242Y-29339978D01*
X101676281Y-29462234D01*
X101694845Y-29616014D01*
X101727073Y-29790650D01*
X101770105Y-29975474D01*
X101821080Y-30159817D01*
X101877140Y-30333013D01*
X101935422Y-30484393D01*
X101993067Y-30603288D01*
X102027016Y-30655726D01*
X102111632Y-30738315D01*
X102201636Y-30773385D01*
X102293454Y-30759957D01*
X102332319Y-30739215D01*
X102384075Y-30707894D01*
X102409083Y-30708857D01*
X102422329Y-30746792D01*
X102426778Y-30768750D01*
X102423449Y-30846921D01*
X102404094Y-30893750D01*
X102363236Y-30930233D01*
X102296827Y-30947051D01*
X102199530Y-30944141D01*
X102066010Y-30921441D01*
X101926558Y-30888227D01*
X101721951Y-30829019D01*
X101562629Y-30768974D01*
X101449832Y-30708729D01*
X101384797Y-30648923D01*
X101367980Y-30600495D01*
X101382616Y-30561144D01*
X101421150Y-30496668D01*
X101475525Y-30420421D01*
X101480591Y-30413861D01*
X101542289Y-30329307D01*
X101576749Y-30264750D01*
X101591168Y-30203902D01*
X101593202Y-30158933D01*
X101587950Y-30089256D01*
X101566337Y-30032547D01*
X101519574Y-29969955D01*
X101489464Y-29936451D01*
X101382955Y-29837565D01*
X101253917Y-29743388D01*
X101112417Y-29658867D01*
X100968517Y-29588949D01*
X100832284Y-29538585D01*
X100713781Y-29512720D01*
X100630957Y-29514404D01*
X100561094Y-29537547D01*
X100503782Y-29579493D01*
X100450929Y-29649123D01*
X100394443Y-29755317D01*
X100376444Y-29793750D01*
X100322899Y-29898408D01*
X100274039Y-29957979D01*
X100220851Y-29975467D01*
X100154322Y-29953877D01*
X100066566Y-29897029D01*
X99978385Y-29825538D01*
X99877007Y-29731411D01*
X99772521Y-29625356D01*
X99675018Y-29518075D01*
X99594588Y-29420275D01*
X99541319Y-29342660D01*
X99537486Y-29335691D01*
X99504463Y-29269878D01*
X99494513Y-29230717D01*
X99506235Y-29201248D01*
X99524579Y-29179515D01*
X99571466Y-29144925D01*
X99647623Y-29105333D01*
X99716550Y-29076935D01*
X99812921Y-29033351D01*
X99889885Y-28982870D01*
X99917932Y-28955294D01*
X99947947Y-28909618D01*
X99960921Y-28860670D01*
X99959901Y-28790377D01*
X99954639Y-28737500D01*
X99941300Y-28598546D01*
X99937950Y-28492216D01*
X99945402Y-28401979D01*
X99964475Y-28311307D01*
X99978077Y-28262500D01*
X100005457Y-28116505D01*
X100014139Y-27943475D01*
X100004959Y-27762408D01*
X99978753Y-27592301D01*
X99943143Y-27469019D01*
X99849894Y-27275326D01*
X99735272Y-27122355D01*
X99601564Y-27012199D01*
X99451054Y-26946948D01*
X99354525Y-26930296D01*
X99220143Y-26919163D01*
X99259084Y-26815831D01*
X99278841Y-26733227D01*
X99292634Y-26615403D01*
X99300282Y-26476806D01*
X99301605Y-26331881D01*
X99296420Y-26195073D01*
X99284548Y-26080829D01*
X99269149Y-26012500D01*
X99216805Y-25905785D01*
X99145056Y-25820818D01*
X99065046Y-25769889D01*
X99043429Y-25763559D01*
X98982816Y-25759976D01*
X98895798Y-25765425D01*
X98831095Y-25774044D01*
X98714996Y-25784854D01*
X98635255Y-25769475D01*
X98588357Y-25723502D01*
X98570782Y-25642533D01*
X98579014Y-25522164D01*
X98587486Y-25469088D01*
X98625708Y-25287468D01*
X98672827Y-25120520D01*
X98725974Y-24974930D01*
X98782281Y-24857388D01*
X98838876Y-24774578D01*
X98892892Y-24733189D01*
X98904510Y-24730252D01*
X98950588Y-24741794D01*
X99021736Y-24780788D01*
X99100602Y-24836502D01*
X99225314Y-24916730D01*
X99336734Y-24951335D01*
X99440245Y-24941077D01*
X99527121Y-24896905D01*
X99627024Y-24808634D01*
X99727679Y-24686749D01*
X99822038Y-24543634D01*
X99903055Y-24391668D01*
X99963685Y-24243232D01*
X99996881Y-24110708D01*
X100000912Y-24064422D01*
X99996688Y-23975333D01*
X99974176Y-23906563D01*
X99925997Y-23849364D01*
X99844770Y-23794983D01*
X99723115Y-23734671D01*
X99722611Y-23734440D01*
X99617700Y-23680738D01*
X99557902Y-23631774D01*
X99540076Y-23579006D01*
X99561084Y-23513893D01*
X99612553Y-23435000D01*
X99671810Y-23362962D01*
X99753977Y-23274872D01*
X99850121Y-23179052D01*
X99951313Y-23083822D01*
X100048621Y-22997506D01*
X100133115Y-22928423D01*
X100195865Y-22884897D01*
X100211230Y-22877160D01*
X100270817Y-22857320D01*
X100309691Y-22863003D01*
X100341575Y-22887142D01*
X100377959Y-22936504D01*
X100415184Y-23011927D01*
X100430280Y-23052175D01*
X100470410Y-23142827D01*
X100523668Y-23227443D01*
X100544601Y-23252603D01*
X100588311Y-23295836D01*
X100627493Y-23318154D01*
X100679563Y-23324604D01*
X100761937Y-23320232D01*
X100774515Y-23319233D01*
X100910985Y-23293135D01*
X101061596Y-23239405D01*
X101215136Y-23164657D01*
X101360391Y-23075504D01*
X101486149Y-22978563D01*
X101581198Y-22880445D01*
X101620755Y-22820047D01*
X101652876Y-22746878D01*
X101659983Y-22689433D01*
X101645977Y-22624231D01*
X101612489Y-22546837D01*
X101561363Y-22462393D01*
X101540829Y-22434740D01*
X101475459Y-22348705D01*
X101439508Y-22288833D01*
X101428106Y-22244864D01*
X101434602Y-22210944D01*
X101471462Y-22171408D01*
X101548037Y-22126692D01*
X101654686Y-22079931D01*
X101781773Y-22034258D01*
X101919657Y-21992808D01*
X102058702Y-21958714D01*
X102189267Y-21935111D01*
X102301714Y-21925133D01*
X102314030Y-21925000D01*
X102397419Y-21929533D01*
G37*
G36*
X107529116Y-21491748D02*
G01*
X107551907Y-21501520D01*
X107597693Y-21538562D01*
X107622862Y-21594818D01*
X107628776Y-21678683D01*
X107616795Y-21798551D01*
X107608555Y-21850985D01*
X107587105Y-22015120D01*
X107585919Y-22142491D01*
X107606593Y-22242725D01*
X107650722Y-22325450D01*
X107695820Y-22377494D01*
X107808918Y-22460224D01*
X107963394Y-22522975D01*
X108160983Y-22566275D01*
X108395136Y-22590170D01*
X108657347Y-22594900D01*
X108890921Y-22577058D01*
X109092061Y-22537599D01*
X109256973Y-22477480D01*
X109381859Y-22397658D01*
X109447269Y-22325000D01*
X109471639Y-22286178D01*
X109487521Y-22248799D01*
X109496037Y-22202300D01*
X109498304Y-22136118D01*
X109495443Y-22039691D01*
X109489720Y-21924289D01*
X109484677Y-21800888D01*
X109482933Y-21693115D01*
X109484489Y-21612188D01*
X109489346Y-21569325D01*
X109489703Y-21568310D01*
X109532555Y-21523665D01*
X109615842Y-21496317D01*
X109732631Y-21487410D01*
X109875991Y-21498089D01*
X109896900Y-21501078D01*
X110024633Y-21525060D01*
X110180594Y-21561461D01*
X110349550Y-21606039D01*
X110516265Y-21654551D01*
X110665503Y-21702755D01*
X110782031Y-21746410D01*
X110789726Y-21749683D01*
X110930178Y-21817957D01*
X111022777Y-21884548D01*
X111069164Y-21955189D01*
X111070981Y-22035616D01*
X111029869Y-22131564D01*
X110947471Y-22248767D01*
X110936523Y-22262500D01*
X110834708Y-22397315D01*
X110768239Y-22508623D01*
X110734583Y-22605601D01*
X110731212Y-22697425D01*
X110755594Y-22793271D01*
X110776365Y-22843297D01*
X110845764Y-22952066D01*
X110954809Y-23068907D01*
X111095001Y-23188234D01*
X111257838Y-23304460D01*
X111434821Y-23412000D01*
X111617451Y-23505267D01*
X111797227Y-23578674D01*
X111965650Y-23626635D01*
X111969436Y-23627418D01*
X112062169Y-23643608D01*
X112129198Y-23645179D01*
X112192996Y-23631068D01*
X112238882Y-23614706D01*
X112321581Y-23573623D01*
X112390543Y-23514709D01*
X112452618Y-23429337D01*
X112514658Y-23308878D01*
X112554037Y-23217812D01*
X112605294Y-23100283D01*
X112647837Y-23022517D01*
X112688453Y-22976736D01*
X112733923Y-22955161D01*
X112787589Y-22950000D01*
X112869626Y-22968011D01*
X112973067Y-23022848D01*
X113099569Y-23115714D01*
X113250788Y-23247812D01*
X113410539Y-23402392D01*
X113590256Y-23591799D01*
X113726804Y-23756338D01*
X113820302Y-23896236D01*
X113870872Y-24011720D01*
X113878632Y-24103016D01*
X113843703Y-24170352D01*
X113824867Y-24185950D01*
X113774192Y-24213866D01*
X113693264Y-24250658D01*
X113599057Y-24288641D01*
X113593389Y-24290776D01*
X113430543Y-24361539D01*
X113312743Y-24437158D01*
X113234989Y-24523113D01*
X113192279Y-24624882D01*
X113179606Y-24744220D01*
X113195712Y-24891861D01*
X113240813Y-25057562D01*
X113310079Y-25233594D01*
X113398679Y-25412229D01*
X113501785Y-25585737D01*
X113614566Y-25746389D01*
X113732195Y-25886454D01*
X113849840Y-25998205D01*
X113962673Y-26073911D01*
X114025985Y-26098800D01*
X114119457Y-26114861D01*
X114208506Y-26107609D01*
X114302379Y-26073601D01*
X114410320Y-26009393D01*
X114541575Y-25911541D01*
X114552894Y-25902528D01*
X114669586Y-25820108D01*
X114764691Y-25780317D01*
X114844132Y-25784014D01*
X114913831Y-25832057D01*
X114979710Y-25925306D01*
X115002418Y-25967712D01*
X115057972Y-26096318D01*
X115115348Y-26263488D01*
X115171499Y-26458022D01*
X115223378Y-26668723D01*
X115267936Y-26884389D01*
X115294457Y-27040934D01*
X115298067Y-27145007D01*
X115281222Y-27246009D01*
X115248121Y-27328475D01*
X115203248Y-27376792D01*
X115156011Y-27389942D01*
X115080211Y-27390826D01*
X114966503Y-27379449D01*
X114947596Y-27376955D01*
X114843543Y-27363228D01*
X114751804Y-27351643D01*
X114689187Y-27344311D01*
X114681083Y-27343488D01*
X114650608Y-27337939D01*
X114631246Y-27321641D01*
X114619506Y-27284437D01*
X114611899Y-27216170D01*
X114606010Y-27125000D01*
X114593497Y-26912500D01*
X114515336Y-26904902D01*
X114464696Y-26905712D01*
X114427418Y-26927312D01*
X114388514Y-26980281D01*
X114373677Y-27004902D01*
X114323945Y-27078780D01*
X114266500Y-27149044D01*
X114210591Y-27206177D01*
X114165465Y-27240661D01*
X114141287Y-27244068D01*
X114140677Y-27210591D01*
X114169648Y-27150869D01*
X114222900Y-27074511D01*
X114258973Y-27030791D01*
X114328210Y-26932787D01*
X114350587Y-26848877D01*
X114325242Y-26775465D01*
X114251314Y-26708957D01*
X114171259Y-26665086D01*
X114062393Y-26620897D01*
X113927086Y-26576580D01*
X113780344Y-26535993D01*
X113637171Y-26502994D01*
X113512575Y-26481440D01*
X113431895Y-26475000D01*
X113327770Y-26483089D01*
X113264313Y-26512365D01*
X113234052Y-26570339D01*
X113229512Y-26664522D01*
X113230278Y-26677656D01*
X113238127Y-26831259D01*
X113236129Y-26943756D01*
X113220677Y-27023655D01*
X113188165Y-27079459D01*
X113134985Y-27119675D01*
X113057532Y-27152807D01*
X113023906Y-27164342D01*
X112933038Y-27183816D01*
X112811162Y-27195352D01*
X112671359Y-27199301D01*
X112526712Y-27196017D01*
X112390301Y-27185850D01*
X112275207Y-27169153D01*
X112194512Y-27146277D01*
X112185112Y-27141776D01*
X112111753Y-27095253D01*
X112064899Y-27041353D01*
X112040504Y-26969254D01*
X112034520Y-26868131D01*
X112040570Y-26755240D01*
X112047508Y-26633495D01*
X112041633Y-26552143D01*
X112017364Y-26502102D01*
X111969117Y-26474289D01*
X111891314Y-26459623D01*
X111856663Y-26455972D01*
X111780210Y-26444495D01*
X111734268Y-26421039D01*
X111699298Y-26373774D01*
X111688577Y-26354221D01*
X111571850Y-26165239D01*
X111418395Y-25963379D01*
X111236648Y-25757306D01*
X111035047Y-25555686D01*
X110822027Y-25367186D01*
X110606025Y-25200472D01*
X110487001Y-25119920D01*
X110238517Y-24978548D01*
X109956196Y-24848167D01*
X109656045Y-24735208D01*
X109354068Y-24646103D01*
X109242941Y-24620002D01*
X109057761Y-24589821D01*
X108838029Y-24570050D01*
X108598148Y-24560689D01*
X108352520Y-24561740D01*
X108115545Y-24573201D01*
X107901626Y-24595072D01*
X107757058Y-24620002D01*
X107335606Y-24734733D01*
X106942019Y-24890563D01*
X106573745Y-25088886D01*
X106228230Y-25331097D01*
X105902921Y-25618588D01*
X105872344Y-25648938D01*
X105580570Y-25974188D01*
X105334766Y-26319035D01*
X105134623Y-26684040D01*
X104979830Y-27069762D01*
X104874808Y-27454477D01*
X104833274Y-27647355D01*
X104725319Y-27574923D01*
X104585621Y-27509095D01*
X104424648Y-27478616D01*
X104257109Y-27484081D01*
X104097714Y-27526086D01*
X104050375Y-27547574D01*
X103943768Y-27621645D01*
X103840514Y-27726985D01*
X103755566Y-27846223D01*
X103709662Y-27943340D01*
X103679281Y-28082465D01*
X103671879Y-28238198D01*
X103688056Y-28384621D01*
X103698515Y-28425959D01*
X103755887Y-28549543D01*
X103848033Y-28672377D01*
X103961890Y-28779013D01*
X104042757Y-28833111D01*
X104186789Y-28890968D01*
X104351908Y-28920971D01*
X104518740Y-28921387D01*
X104667912Y-28890484D01*
X104671231Y-28889301D01*
X104742192Y-28864158D01*
X104793456Y-28846818D01*
X104805792Y-28843088D01*
X104821105Y-28862770D01*
X104841045Y-28919851D01*
X104861566Y-29002490D01*
X104863658Y-29012500D01*
X104971683Y-29415843D01*
X105125914Y-29804110D01*
X105323766Y-30173366D01*
X105562656Y-30519677D01*
X105839999Y-30839109D01*
X106153210Y-31127727D01*
X106355101Y-31282911D01*
X106595425Y-31436756D01*
X106868127Y-31579923D01*
X107158533Y-31706293D01*
X107451966Y-31809747D01*
X107733751Y-31884164D01*
X107849359Y-31905985D01*
X108062069Y-31940531D01*
X108092181Y-32101515D01*
X108108571Y-32202980D01*
X108119981Y-32299820D01*
X108123462Y-32356250D01*
X108132336Y-32425248D01*
X108157526Y-32449850D01*
X108160481Y-32450000D01*
X108196137Y-32470824D01*
X108212259Y-32500134D01*
X108247650Y-32569357D01*
X108302400Y-32635312D01*
X108362328Y-32683586D01*
X108408874Y-32700000D01*
X108454936Y-32685508D01*
X108525294Y-32647333D01*
X108605485Y-32593424D01*
X108613103Y-32587762D01*
X108724674Y-32514376D01*
X108817377Y-32479961D01*
X108901715Y-32483001D01*
X108988192Y-32521982D01*
X109003048Y-32531533D01*
X109066862Y-32588773D01*
X109143049Y-32679447D01*
X109223348Y-32791432D01*
X109299496Y-32912609D01*
X109363234Y-33030857D01*
X109398400Y-33111599D01*
X109442530Y-33263071D01*
X109448187Y-33385190D01*
X109413659Y-33482534D01*
X109337237Y-33559679D01*
X109217210Y-33621202D01*
X109206376Y-33625324D01*
X109087588Y-33675698D01*
X109013936Y-33724431D01*
X108981138Y-33777813D01*
X108984913Y-33842135D01*
X109013192Y-33909170D01*
X109036604Y-33957838D01*
X109030613Y-33973018D01*
X108988980Y-33965544D01*
X108981757Y-33963755D01*
X108933177Y-33956961D01*
X108845203Y-33949624D01*
X108728473Y-33942446D01*
X108593627Y-33936128D01*
X108525024Y-33933589D01*
X108257537Y-33932265D01*
X108034598Y-33948369D01*
X107853581Y-33982621D01*
X107711863Y-34035737D01*
X107606820Y-34108437D01*
X107535828Y-34201437D01*
X107534127Y-34204684D01*
X107517099Y-34245116D01*
X107506651Y-34293824D01*
X107502201Y-34360806D01*
X107503167Y-34456059D01*
X107508967Y-34589579D01*
X107510273Y-34614565D01*
X107517069Y-34748445D01*
X107520118Y-34841317D01*
X107518459Y-34902097D01*
X107511129Y-34939699D01*
X107497165Y-34963038D01*
X107475603Y-34981030D01*
X107470291Y-34984774D01*
X107395131Y-35012685D01*
X107280691Y-35022174D01*
X107134158Y-35013390D01*
X106962719Y-34986483D01*
X106898423Y-34972870D01*
X106666921Y-34914702D01*
X106456700Y-34850018D01*
X106273144Y-34781135D01*
X106121640Y-34710367D01*
X106007571Y-34640030D01*
X105936321Y-34572438D01*
X105924715Y-34554205D01*
X105916371Y-34501253D01*
X105940213Y-34428505D01*
X105998223Y-34331966D01*
X106092385Y-34207643D01*
X106103350Y-34194160D01*
X106203927Y-34049620D01*
X106257637Y-33916738D01*
X106264934Y-33790882D01*
X106226269Y-33667417D01*
X106164296Y-33569536D01*
X106047473Y-33441949D01*
X105895597Y-33313963D01*
X105719514Y-33191763D01*
X105530070Y-33081536D01*
X105338110Y-32989467D01*
X105154480Y-32921742D01*
X104990024Y-32884547D01*
X104957243Y-32881056D01*
X104829852Y-32881766D01*
X104724434Y-32909597D01*
X104635358Y-32969362D01*
X104556989Y-33065871D01*
X104483696Y-33203938D01*
X104431539Y-33330119D01*
X104374105Y-33454808D01*
X104311778Y-33533264D01*
X104239484Y-33566629D01*
X104152145Y-33556043D01*
X104044686Y-33502647D01*
X103951539Y-33437983D01*
X103864669Y-33366317D01*
X103757152Y-33268038D01*
X103638307Y-33152675D01*
X103517450Y-33029758D01*
X103403898Y-32908816D01*
X103306968Y-32799378D01*
X103235978Y-32710975D01*
X103223215Y-32693044D01*
X103155145Y-32572608D01*
X103125351Y-32468236D01*
X103134832Y-32385020D01*
X103156180Y-32351170D01*
X103200829Y-32318052D01*
X103276298Y-32277125D01*
X103366000Y-32237353D01*
X103531143Y-32165927D01*
X103652822Y-32097409D01*
X103736798Y-32025671D01*
X103788833Y-31944582D01*
X103814687Y-31848015D01*
X103820394Y-31753961D01*
X103803710Y-31619634D01*
X103757301Y-31459643D01*
X103686631Y-31283880D01*
X103597163Y-31102237D01*
X103494361Y-30924605D01*
X103383690Y-30760877D01*
X103270614Y-30620944D01*
X103160595Y-30514697D01*
X103118907Y-30484005D01*
X102997766Y-30422219D01*
X102877794Y-30400971D01*
X102753420Y-30421313D01*
X102619072Y-30484301D01*
X102469178Y-30590987D01*
X102444039Y-30611633D01*
X102344067Y-30689013D01*
X102267554Y-30731611D01*
X102205182Y-30742432D01*
X102147632Y-30724480D01*
X102128861Y-30713247D01*
X102075473Y-30657088D01*
X102017460Y-30559911D01*
X101957552Y-30430153D01*
X101898481Y-30276251D01*
X101842978Y-30106643D01*
X101793776Y-29929767D01*
X101753606Y-29754061D01*
X101725198Y-29587962D01*
X101711286Y-29439909D01*
X101710659Y-29421447D01*
X101711966Y-29302932D01*
X101726980Y-29218171D01*
X101761940Y-29163319D01*
X101823084Y-29134530D01*
X101916653Y-29127959D01*
X102048884Y-29139761D01*
X102145466Y-29153466D01*
X102288645Y-29170342D01*
X102398367Y-29168058D01*
X102488948Y-29142360D01*
X102574705Y-29088992D01*
X102669955Y-29003701D01*
X102678823Y-28994966D01*
X102831921Y-28843438D01*
X103019606Y-28290469D01*
X103207290Y-27737500D01*
X103294877Y-27729850D01*
X103378266Y-27707118D01*
X103428944Y-27662299D01*
X103441439Y-27604803D01*
X103410277Y-27544040D01*
X103405700Y-27539285D01*
X103361149Y-27519804D01*
X103281113Y-27506197D01*
X103178735Y-27498501D01*
X103067160Y-27496754D01*
X102959529Y-27500993D01*
X102868986Y-27511254D01*
X102808675Y-27527575D01*
X102794337Y-27537556D01*
X102771952Y-27554509D01*
X102749797Y-27539624D01*
X102719099Y-27486096D01*
X102713463Y-27474813D01*
X102650074Y-27374436D01*
X102571730Y-27309307D01*
X102468090Y-27273861D01*
X102328813Y-27262534D01*
X102318916Y-27262500D01*
X102201723Y-27265541D01*
X102081486Y-27273475D01*
X101992826Y-27283445D01*
X101908077Y-27293335D01*
X101853555Y-27289114D01*
X101810757Y-27268083D01*
X101792629Y-27254239D01*
X101762203Y-27225671D01*
X101744124Y-27192486D01*
X101735545Y-27142038D01*
X101733618Y-27061677D01*
X101734436Y-26995793D01*
X101746078Y-26847956D01*
X101774301Y-26676677D01*
X101815930Y-26492470D01*
X101867787Y-26305845D01*
X101926695Y-26127313D01*
X101989477Y-25967387D01*
X102052957Y-25836577D01*
X102111471Y-25748308D01*
X102171434Y-25694078D01*
X102235435Y-25675527D01*
X102310828Y-25693753D01*
X102404967Y-25749850D01*
X102473662Y-25802267D01*
X102626429Y-25915218D01*
X102757950Y-25988029D01*
X102875156Y-26021882D01*
X102984977Y-26017962D01*
X103094344Y-25977451D01*
X103181180Y-25923094D01*
X103290401Y-25826612D01*
X103407039Y-25691940D01*
X103524485Y-25528880D01*
X103636130Y-25347238D01*
X103735363Y-25156818D01*
X103802841Y-25000988D01*
X103842194Y-24890762D01*
X103862669Y-24802373D01*
X103868281Y-24713195D01*
X103865928Y-24645317D01*
X103857955Y-24549851D01*
X103842954Y-24486309D01*
X103814366Y-24436618D01*
X103773639Y-24390895D01*
X103696936Y-24326414D01*
X103608796Y-24271811D01*
X103586739Y-24261487D01*
X103433219Y-24195319D01*
X103320963Y-24142734D01*
X103244677Y-24098972D01*
X103199066Y-24059272D01*
X103178835Y-24018874D01*
X103178689Y-23973020D01*
X103193333Y-23916948D01*
X103195636Y-23909904D01*
X103239309Y-23819153D01*
X103313567Y-23709901D01*
X103412074Y-23588104D01*
X103528493Y-23459716D01*
X103656485Y-23330693D01*
X103789714Y-23206990D01*
X103921844Y-23094562D01*
X104046536Y-22999365D01*
X104157455Y-22927353D01*
X104248262Y-22884482D01*
X104296897Y-22874999D01*
X104364078Y-22893232D01*
X104424936Y-22950613D01*
X104482816Y-23051172D01*
X104522017Y-23145824D01*
X104591340Y-23310439D01*
X104662031Y-23430657D01*
X104739959Y-23511878D01*
X104830991Y-23559503D01*
X104940992Y-23578933D01*
X104993668Y-23579993D01*
X105121938Y-23568423D01*
X105257297Y-23535057D01*
X105410984Y-23476450D01*
X105559606Y-23406627D01*
X105775327Y-23288160D01*
X105966755Y-23161473D01*
X106123742Y-23033584D01*
X106181276Y-22976627D01*
X106266159Y-22877619D01*
X106317481Y-22792755D01*
X106342315Y-22706986D01*
X106347881Y-22622131D01*
X106338263Y-22534785D01*
X106305976Y-22446414D01*
X106245876Y-22346514D01*
X106153590Y-22225528D01*
X106075747Y-22124759D01*
X106029949Y-22049222D01*
X106012602Y-21989039D01*
X106020113Y-21934334D01*
X106035134Y-21899883D01*
X106087735Y-21841836D01*
X106181879Y-21781438D01*
X106309266Y-21720869D01*
X106461596Y-21662308D01*
X106630570Y-21607937D01*
X106807887Y-21559934D01*
X106985246Y-21520480D01*
X107154349Y-21491754D01*
X107306895Y-21475937D01*
X107434584Y-21475208D01*
X107529116Y-21491748D01*
G37*
G36*
X111930774Y-26505576D02*
G01*
X111985771Y-26527560D01*
X112012699Y-26573832D01*
X112016150Y-26652273D01*
X112000759Y-26770513D01*
X111987421Y-26900118D01*
X111999645Y-26996426D01*
X112041309Y-27071205D01*
X112116293Y-27136222D01*
X112122776Y-27140635D01*
X112222582Y-27186551D01*
X112357774Y-27219386D01*
X112515300Y-27238653D01*
X112682110Y-27243864D01*
X112845154Y-27234531D01*
X112991380Y-27210166D01*
X113093512Y-27176915D01*
X113178388Y-27132095D01*
X113233851Y-27080081D01*
X113264400Y-27010544D01*
X113274531Y-26913151D01*
X113268741Y-26777569D01*
X113268528Y-26774831D01*
X113250970Y-26550616D01*
X113317104Y-26520513D01*
X113388053Y-26506283D01*
X113489160Y-26509913D01*
X113611650Y-26528581D01*
X113746745Y-26559466D01*
X113885672Y-26599748D01*
X114019653Y-26646607D01*
X114139913Y-26697220D01*
X114237678Y-26748768D01*
X114304170Y-26798430D01*
X114330614Y-26843384D01*
X114330739Y-26846329D01*
X114316687Y-26876706D01*
X114279654Y-26934658D01*
X114227327Y-27008247D01*
X114221350Y-27016272D01*
X114164430Y-27096786D01*
X114119084Y-27169024D01*
X114094863Y-27217739D01*
X114094540Y-27218750D01*
X114063754Y-27262883D01*
X114031821Y-27275000D01*
X113972424Y-27296492D01*
X113938532Y-27353626D01*
X113934792Y-27417238D01*
X113945217Y-27461438D01*
X113972825Y-27484799D01*
X114032059Y-27497206D01*
X114055700Y-27500000D01*
X114187719Y-27539392D01*
X114262153Y-27587500D01*
X114355762Y-27662500D01*
X114355763Y-28168750D01*
X114355763Y-28675000D01*
X114193103Y-28675000D01*
X114094881Y-28678553D01*
X114031595Y-28691525D01*
X113988487Y-28717384D01*
X113980394Y-28725000D01*
X113939431Y-28773992D01*
X113936144Y-28814285D01*
X113965816Y-28863971D01*
X113982325Y-28881481D01*
X114007429Y-28894462D01*
X114048487Y-28903771D01*
X114112859Y-28910267D01*
X114207904Y-28914810D01*
X114340981Y-28918259D01*
X114448177Y-28920265D01*
X114635293Y-28922416D01*
X114778192Y-28920747D01*
X114882636Y-28914085D01*
X114954386Y-28901257D01*
X114999205Y-28881090D01*
X115022854Y-28852411D01*
X115031097Y-28814045D01*
X115031428Y-28801498D01*
X115020696Y-28742803D01*
X114983762Y-28704493D01*
X114913520Y-28683127D01*
X114802865Y-28675261D01*
X114770315Y-28675000D01*
X114606010Y-28675000D01*
X114606010Y-28247325D01*
X114606333Y-28091959D01*
X114607772Y-27980023D01*
X114611031Y-27904949D01*
X114616814Y-27860170D01*
X114625826Y-27839116D01*
X114638770Y-27835221D01*
X114649803Y-27838856D01*
X114696321Y-27857065D01*
X114771909Y-27884537D01*
X114840440Y-27908493D01*
X114926320Y-27935713D01*
X114985878Y-27945523D01*
X115039255Y-27939109D01*
X115090687Y-27923212D01*
X115142995Y-27901650D01*
X115183107Y-27872342D01*
X115220185Y-27824678D01*
X115263389Y-27748045D01*
X115294187Y-27687500D01*
X115354526Y-27576047D01*
X115402592Y-27508479D01*
X115441150Y-27480991D01*
X115444815Y-27480267D01*
X115507611Y-27492607D01*
X115595010Y-27540896D01*
X115701505Y-27621142D01*
X115821589Y-27729356D01*
X115905902Y-27814460D01*
X116025246Y-27945193D01*
X116108728Y-28049516D01*
X116159625Y-28132184D01*
X116181214Y-28197951D01*
X116182468Y-28215688D01*
X116176771Y-28255316D01*
X116153548Y-28287425D01*
X116103841Y-28318921D01*
X116018693Y-28356710D01*
X115978745Y-28372746D01*
X115857506Y-28429621D01*
X115778953Y-28491325D01*
X115735884Y-28566674D01*
X115721096Y-28664482D01*
X115720905Y-28688277D01*
X115737912Y-28806945D01*
X115782810Y-28942945D01*
X115849521Y-29086603D01*
X115931965Y-29228249D01*
X116024062Y-29358209D01*
X116119732Y-29466812D01*
X116212896Y-29544386D01*
X116279545Y-29577021D01*
X116351108Y-29589062D01*
X116424234Y-29578418D01*
X116508930Y-29541485D01*
X116615207Y-29474664D01*
X116668167Y-29437195D01*
X116737565Y-29391427D01*
X116793009Y-29362812D01*
X116818314Y-29357386D01*
X116864380Y-29394798D01*
X116913912Y-29472239D01*
X116964109Y-29580132D01*
X117012170Y-29708900D01*
X117055292Y-29848967D01*
X117090674Y-29990754D01*
X117115514Y-30124685D01*
X117127012Y-30241183D01*
X117122365Y-30330671D01*
X117112610Y-30363412D01*
X117082428Y-30429589D01*
X116845644Y-30411854D01*
X116608861Y-30394120D01*
X116523729Y-30479168D01*
X116463723Y-30557781D01*
X116421541Y-30659401D01*
X116395807Y-30790614D01*
X116385149Y-30958007D01*
X116386967Y-31135117D01*
X116397986Y-31307350D01*
X116419771Y-31437732D01*
X116455229Y-31533792D01*
X116507271Y-31603059D01*
X116578803Y-31653063D01*
X116589048Y-31658230D01*
X116648032Y-31682611D01*
X116705081Y-31692026D01*
X116779099Y-31687918D01*
X116849224Y-31678065D01*
X116966818Y-31663293D01*
X117043472Y-31667126D01*
X117086836Y-31696180D01*
X117104559Y-31757071D01*
X117104291Y-31856414D01*
X117101724Y-31896442D01*
X117085218Y-32020142D01*
X117053908Y-32166007D01*
X117012260Y-32318703D01*
X116964745Y-32462894D01*
X116915829Y-32583244D01*
X116883979Y-32643750D01*
X116829711Y-32705352D01*
X116766999Y-32722265D01*
X116690903Y-32694443D01*
X116618741Y-32641373D01*
X116523996Y-32566596D01*
X116447964Y-32522765D01*
X116376533Y-32503075D01*
X116325543Y-32500000D01*
X116218117Y-32524628D01*
X116107114Y-32597535D01*
X115993979Y-32717250D01*
X115880156Y-32882302D01*
X115790237Y-33044692D01*
X115720299Y-33208840D01*
X115685714Y-33354029D01*
X115686953Y-33475597D01*
X115724489Y-33568882D01*
X115735693Y-33582944D01*
X115791019Y-33628419D01*
X115873576Y-33677264D01*
X115944253Y-33709930D01*
X116051097Y-33758688D01*
X116113843Y-33804905D01*
X116137502Y-33855687D01*
X116127085Y-33918139D01*
X116113544Y-33950000D01*
X116073636Y-34010928D01*
X116004289Y-34094586D01*
X115914678Y-34191895D01*
X115813981Y-34293777D01*
X115711373Y-34391155D01*
X115616032Y-34474951D01*
X115537133Y-34536086D01*
X115496158Y-34560744D01*
X115425845Y-34586908D01*
X115373298Y-34585231D01*
X115330154Y-34550152D01*
X115288050Y-34476112D01*
X115255887Y-34401026D01*
X115211553Y-34309051D01*
X115160103Y-34227792D01*
X115119995Y-34182000D01*
X115070659Y-34145919D01*
X115019843Y-34129274D01*
X114947957Y-34127355D01*
X114903816Y-34130020D01*
X114770816Y-34156266D01*
X114619357Y-34212685D01*
X114462714Y-34291665D01*
X114314162Y-34385599D01*
X114186974Y-34486876D01*
X114094426Y-34587887D01*
X114087338Y-34598050D01*
X114040266Y-34697419D01*
X114036982Y-34797304D01*
X114078059Y-34906236D01*
X114111773Y-34961381D01*
X114179781Y-35063121D01*
X114223871Y-35131842D01*
X114247968Y-35176072D01*
X114256000Y-35204339D01*
X114251896Y-35225171D01*
X114241717Y-35243534D01*
X114190443Y-35293774D01*
X114102466Y-35343986D01*
X113987143Y-35391976D01*
X113853832Y-35435549D01*
X113711889Y-35472511D01*
X113570673Y-35500666D01*
X113439540Y-35517820D01*
X113327848Y-35521778D01*
X113244953Y-35510346D01*
X113204127Y-35486894D01*
X113188045Y-35453076D01*
X113185069Y-35398244D01*
X113194928Y-35310265D01*
X113199531Y-35280644D01*
X113215112Y-35148391D01*
X113210845Y-35051702D01*
X113184465Y-34979325D01*
X113133705Y-34920010D01*
X113125449Y-34912883D01*
X113050349Y-34862459D01*
X112958262Y-34826770D01*
X112840604Y-34804008D01*
X112688791Y-34792366D01*
X112541478Y-34789839D01*
X112403883Y-34791259D01*
X112303898Y-34796546D01*
X112229135Y-34807265D01*
X112167210Y-34824984D01*
X112124426Y-34842590D01*
X112035278Y-34889665D01*
X111976987Y-34942080D01*
X111944690Y-35010510D01*
X111933523Y-35105629D01*
X111938623Y-35238113D01*
X111939433Y-35248667D01*
X111946935Y-35355557D01*
X111948143Y-35423500D01*
X111941640Y-35463310D01*
X111926007Y-35485802D01*
X111906732Y-35498191D01*
X111826791Y-35519897D01*
X111711668Y-35516867D01*
X111557475Y-35488960D01*
X111540492Y-35484971D01*
X111348892Y-35433869D01*
X111183198Y-35379014D01*
X111048377Y-35322699D01*
X110949393Y-35267219D01*
X110891212Y-35214868D01*
X110877340Y-35178670D01*
X110891469Y-35148711D01*
X110928930Y-35090584D01*
X110982327Y-35015589D01*
X110996207Y-34996981D01*
X111076570Y-34873275D01*
X111114825Y-34767101D01*
X111111838Y-34670369D01*
X111068481Y-34574989D01*
X111045089Y-34541944D01*
X110962557Y-34456537D01*
X110845364Y-34364744D01*
X110706818Y-34274440D01*
X110560227Y-34193501D01*
X110418901Y-34129803D01*
X110296149Y-34091221D01*
X110277283Y-34087590D01*
X110152060Y-34090918D01*
X110090953Y-34110100D01*
X110040725Y-34136561D01*
X110000390Y-34175013D01*
X109960906Y-34236929D01*
X109913228Y-34333781D01*
X109911242Y-34338068D01*
X109866364Y-34427319D01*
X109824130Y-34497926D01*
X109791873Y-34538013D01*
X109785131Y-34542353D01*
X109722485Y-34540723D01*
X109633841Y-34497555D01*
X109518882Y-34412651D01*
X109377294Y-34285811D01*
X109376593Y-34285142D01*
X109230217Y-34136411D01*
X109122425Y-34006937D01*
X109054133Y-33898303D01*
X109026258Y-33812093D01*
X109039714Y-33749892D01*
X109056798Y-33732148D01*
X109095958Y-33710410D01*
X109165134Y-33678816D01*
X109229333Y-33652253D01*
X109349910Y-33596021D01*
X109427907Y-33535516D01*
X109470560Y-33461658D01*
X109485106Y-33365372D01*
X109485089Y-33331471D01*
X109467067Y-33214573D01*
X109422053Y-33081000D01*
X109355933Y-32939885D01*
X109274598Y-32800359D01*
X109183933Y-32671552D01*
X109089829Y-32562596D01*
X108998173Y-32482623D01*
X108914854Y-32440762D01*
X108909972Y-32439601D01*
X108810455Y-32438606D01*
X108702572Y-32479768D01*
X108602752Y-32547132D01*
X108511806Y-32615198D01*
X108447983Y-32652388D01*
X108401312Y-32661395D01*
X108361825Y-32644911D01*
X108333360Y-32619887D01*
X108287854Y-32553978D01*
X108239041Y-32447813D01*
X108190300Y-32310691D01*
X108145012Y-32151906D01*
X108113446Y-32015081D01*
X108088129Y-31880010D01*
X108076980Y-31782382D01*
X108079652Y-31711792D01*
X108095801Y-31657832D01*
X108101230Y-31646967D01*
X108117314Y-31623965D01*
X108142276Y-31610603D01*
X108186588Y-31605580D01*
X108260723Y-31607598D01*
X108363126Y-31614472D01*
X108598373Y-31631723D01*
X108683927Y-31546253D01*
X108745051Y-31466093D01*
X108787701Y-31362741D01*
X108813229Y-31229662D01*
X108822987Y-31060322D01*
X108822205Y-31013642D01*
X109801281Y-31013642D01*
X109801281Y-31275000D01*
X109964726Y-31275000D01*
X110069571Y-31279800D01*
X110125997Y-31294288D01*
X110136600Y-31306250D01*
X110145188Y-31342935D01*
X110161459Y-31416310D01*
X110182724Y-31514148D01*
X110197097Y-31581089D01*
X110290803Y-31900404D01*
X110432065Y-32204270D01*
X110620772Y-32492486D01*
X110825937Y-32732951D01*
X111081251Y-32965350D01*
X111362821Y-33156790D01*
X111666453Y-33305993D01*
X111987952Y-33411680D01*
X112323123Y-33472574D01*
X112667774Y-33487396D01*
X113017709Y-33454869D01*
X113128606Y-33434563D01*
X113419170Y-33352082D01*
X113707917Y-33226866D01*
X113983503Y-33065262D01*
X114234584Y-32873619D01*
X114382141Y-32732951D01*
X114613326Y-32457119D01*
X114799127Y-32161219D01*
X114941127Y-31842454D01*
X115009795Y-31625000D01*
X115032803Y-31532052D01*
X115048856Y-31444142D01*
X115059122Y-31348806D01*
X115064765Y-31233586D01*
X115066952Y-31086019D01*
X115067121Y-31012500D01*
X115066023Y-30847888D01*
X115061953Y-30720784D01*
X115053743Y-30618725D01*
X115040228Y-30529251D01*
X115020242Y-30439902D01*
X115009795Y-30400000D01*
X114895014Y-30065123D01*
X114737447Y-29754901D01*
X114535511Y-29466539D01*
X114382141Y-29292048D01*
X114137696Y-29070133D01*
X113861787Y-28881033D01*
X113563828Y-28730203D01*
X113253229Y-28623096D01*
X113207956Y-28611580D01*
X113116013Y-28585511D01*
X113056156Y-28560729D01*
X113036819Y-28540765D01*
X113037027Y-28540063D01*
X113047971Y-28508072D01*
X113071807Y-28437166D01*
X113105676Y-28335887D01*
X113146719Y-28212780D01*
X113178001Y-28118750D01*
X113308883Y-27725000D01*
X113389387Y-27725000D01*
X113474458Y-27709217D01*
X113520815Y-27662158D01*
X113529950Y-27612499D01*
X113523682Y-27565949D01*
X113499840Y-27534051D01*
X113450867Y-27514194D01*
X113369207Y-27503763D01*
X113247305Y-27500147D01*
X113204630Y-27499999D01*
X113070018Y-27502167D01*
X112977779Y-27510412D01*
X112920356Y-27527348D01*
X112890194Y-27555587D01*
X112879736Y-27597742D01*
X112879310Y-27612500D01*
X112899337Y-27680940D01*
X112957640Y-27718364D01*
X113012115Y-27725000D01*
X113064908Y-27733737D01*
X113073189Y-27756250D01*
X113061657Y-27789834D01*
X113037509Y-27861963D01*
X113003726Y-27963674D01*
X112963289Y-28086001D01*
X112939132Y-28159307D01*
X112895108Y-28287681D01*
X112853732Y-28398553D01*
X112818433Y-28483449D01*
X112792639Y-28533894D01*
X112783527Y-28543976D01*
X112740534Y-28538804D01*
X112717703Y-28522168D01*
X112699989Y-28488493D01*
X112670974Y-28417540D01*
X112634258Y-28319764D01*
X112593444Y-28205620D01*
X112552131Y-28085563D01*
X112513920Y-27970047D01*
X112482413Y-27869527D01*
X112461210Y-27794458D01*
X112453891Y-27756220D01*
X112476015Y-27733549D01*
X112529772Y-27725000D01*
X112596971Y-27704155D01*
X112635803Y-27651436D01*
X112636053Y-27581564D01*
X112633857Y-27575000D01*
X112617262Y-27543452D01*
X112588756Y-27522238D01*
X112539422Y-27509349D01*
X112460343Y-27502778D01*
X112342602Y-27500516D01*
X112302492Y-27500382D01*
X112168303Y-27502348D01*
X112076444Y-27510484D01*
X112019318Y-27527464D01*
X111989330Y-27555963D01*
X111978883Y-27598653D01*
X111978423Y-27614438D01*
X111995591Y-27676622D01*
X112050457Y-27714146D01*
X112126646Y-27729207D01*
X112212106Y-27737500D01*
X112344067Y-28132588D01*
X112397756Y-28298469D01*
X112432982Y-28419602D01*
X112450140Y-28497553D01*
X112449627Y-28533888D01*
X112446191Y-28536877D01*
X112406669Y-28544139D01*
X112334470Y-28553623D01*
X112262980Y-28561437D01*
X112021477Y-28604038D01*
X111765580Y-28682405D01*
X111509606Y-28791350D01*
X111281164Y-28917343D01*
X111015319Y-29111000D01*
X110776231Y-29341709D01*
X110568374Y-29602868D01*
X110396223Y-29887877D01*
X110264251Y-30190136D01*
X110176935Y-30503045D01*
X110165875Y-30562500D01*
X110135931Y-30737500D01*
X109968606Y-30744892D01*
X109801281Y-30752284D01*
X109801281Y-31013642D01*
X108822205Y-31013642D01*
X108820103Y-30888164D01*
X108808945Y-30752284D01*
X108804336Y-30696148D01*
X108772405Y-30548919D01*
X108721358Y-30443037D01*
X108648241Y-30375064D01*
X108550102Y-30341558D01*
X108423987Y-30339081D01*
X108355863Y-30347399D01*
X108241252Y-30361126D01*
X108166582Y-30355994D01*
X108123592Y-30326615D01*
X108104024Y-30267600D01*
X108099606Y-30180194D01*
X108110127Y-30058493D01*
X108138744Y-29908835D01*
X108181036Y-29747920D01*
X108232585Y-29592446D01*
X108288970Y-29459112D01*
X108292166Y-29452668D01*
X108348055Y-29358251D01*
X108402459Y-29310846D01*
X108463666Y-29308428D01*
X108539966Y-29348972D01*
X108582670Y-29381699D01*
X108653314Y-29436352D01*
X108716955Y-29480836D01*
X108742345Y-29496113D01*
X108840687Y-29522680D01*
X108951400Y-29513266D01*
X109043889Y-29475514D01*
X109109571Y-29421050D01*
X109188671Y-29333553D01*
X109272093Y-29224645D01*
X109350738Y-29105948D01*
X109398368Y-29022705D01*
X109470087Y-28922672D01*
X109561657Y-28858898D01*
X109664903Y-28808475D01*
X109704057Y-28859047D01*
X109740597Y-28889808D01*
X109799886Y-28908445D01*
X109895027Y-28918924D01*
X109903625Y-28919470D01*
X110038447Y-28920539D01*
X110130263Y-28903272D01*
X110183249Y-28866017D01*
X110201580Y-28807122D01*
X110201675Y-28801498D01*
X110184131Y-28732233D01*
X110129303Y-28690904D01*
X110033891Y-28675268D01*
X110015635Y-28675000D01*
X109926404Y-28675000D01*
X109926404Y-28150000D01*
X109926955Y-27994081D01*
X109928497Y-27856577D01*
X109930860Y-27744792D01*
X109933874Y-27666028D01*
X109937370Y-27627590D01*
X109938580Y-27625000D01*
X109955175Y-27645573D01*
X109980439Y-27696274D01*
X109985597Y-27708302D01*
X110052040Y-27813170D01*
X110145742Y-27876589D01*
X110265794Y-27898439D01*
X110411286Y-27878602D01*
X110581311Y-27816957D01*
X110631326Y-27793119D01*
X110801678Y-27698442D01*
X110948351Y-27597621D01*
X111062317Y-27497410D01*
X111120740Y-27426949D01*
X111168395Y-27327202D01*
X111171992Y-27228360D01*
X111130837Y-27122140D01*
X111089892Y-27058979D01*
X111013531Y-26948421D01*
X110969875Y-26867472D01*
X110959264Y-26807601D01*
X110982039Y-26760279D01*
X111038538Y-26716976D01*
X111104937Y-26681157D01*
X111206033Y-26639346D01*
X111338672Y-26596884D01*
X111486580Y-26557765D01*
X111633487Y-26525980D01*
X111763120Y-26505524D01*
X111843116Y-26500000D01*
X111930774Y-26505576D01*
G37*
D12*
%TO.C,D2*%
X25730000Y-78500000D02*
X26380000Y-78500000D01*
X26380000Y-77380000D02*
X26380000Y-79620000D01*
X26380000Y-79620000D02*
X30620000Y-79620000D01*
X29780000Y-79620000D02*
X29780000Y-77380000D01*
X29900000Y-79620000D02*
X29900000Y-77380000D01*
X30020000Y-79620000D02*
X30020000Y-77380000D01*
X30620000Y-77380000D02*
X26380000Y-77380000D01*
X30620000Y-79620000D02*
X30620000Y-77380000D01*
X31270000Y-78500000D02*
X30620000Y-78500000D01*
%TO.C,SW15*%
X78595000Y-81015000D02*
X92565000Y-81015000D01*
X78595000Y-94985000D02*
X78595000Y-81015000D01*
X92565000Y-81015000D02*
X92565000Y-94985000D01*
X92565000Y-94985000D02*
X78595000Y-94985000D01*
%TO.C,D12*%
X63730000Y-97500000D02*
X64380000Y-97500000D01*
X64380000Y-96380000D02*
X64380000Y-98620000D01*
X64380000Y-98620000D02*
X68620000Y-98620000D01*
X67780000Y-98620000D02*
X67780000Y-96380000D01*
X67900000Y-98620000D02*
X67900000Y-96380000D01*
X68020000Y-98620000D02*
X68020000Y-96380000D01*
X68620000Y-96380000D02*
X64380000Y-96380000D01*
X68620000Y-98620000D02*
X68620000Y-96380000D01*
X69270000Y-97500000D02*
X68620000Y-97500000D01*
%TO.C,SW2*%
X21515000Y-62015000D02*
X35485000Y-62015000D01*
X21515000Y-75985000D02*
X21515000Y-62015000D01*
X35485000Y-62015000D02*
X35485000Y-75985000D01*
X35485000Y-75985000D02*
X21515000Y-75985000D01*
%TO.C,D10*%
X63230000Y-59500000D02*
X63880000Y-59500000D01*
X63880000Y-58380000D02*
X63880000Y-60620000D01*
X63880000Y-60620000D02*
X68120000Y-60620000D01*
X67280000Y-60620000D02*
X67280000Y-58380000D01*
X67400000Y-60620000D02*
X67400000Y-58380000D01*
X67520000Y-60620000D02*
X67520000Y-58380000D01*
X68120000Y-58380000D02*
X63880000Y-58380000D01*
X68120000Y-60620000D02*
X68120000Y-58380000D01*
X68770000Y-59500000D02*
X68120000Y-59500000D01*
%TO.C,SW4*%
X21555000Y-100205000D02*
X35525000Y-100205000D01*
X21555000Y-114175000D02*
X21555000Y-100205000D01*
X35525000Y-100205000D02*
X35525000Y-114175000D01*
X35525000Y-114175000D02*
X21555000Y-114175000D01*
%TO.C,SW19*%
X97515000Y-81015000D02*
X111485000Y-81015000D01*
X97515000Y-94985000D02*
X97515000Y-81015000D01*
X111485000Y-81015000D02*
X111485000Y-94985000D01*
X111485000Y-94985000D02*
X97515000Y-94985000D01*
%TO.C,SW10*%
X59515000Y-62015000D02*
X73485000Y-62015000D01*
X59515000Y-75985000D02*
X59515000Y-62015000D01*
X73485000Y-62015000D02*
X73485000Y-75985000D01*
X73485000Y-75985000D02*
X59515000Y-75985000D01*
%TO.C,D7*%
X44730000Y-97500000D02*
X45380000Y-97500000D01*
X45380000Y-96380000D02*
X45380000Y-98620000D01*
X45380000Y-98620000D02*
X49620000Y-98620000D01*
X48780000Y-98620000D02*
X48780000Y-96380000D01*
X48900000Y-98620000D02*
X48900000Y-96380000D01*
X49020000Y-98620000D02*
X49020000Y-96380000D01*
X49620000Y-96380000D02*
X45380000Y-96380000D01*
X49620000Y-98620000D02*
X49620000Y-96380000D01*
X50270000Y-97500000D02*
X49620000Y-97500000D01*
%TO.C,R11*%
X80820000Y-37000000D02*
X81770000Y-37000000D01*
X81770000Y-36080000D02*
X81770000Y-37920000D01*
X81770000Y-37920000D02*
X85610000Y-37920000D01*
X85610000Y-36080000D02*
X81770000Y-36080000D01*
X85610000Y-37920000D02*
X85610000Y-36080000D01*
X86560000Y-37000000D02*
X85610000Y-37000000D01*
%TO.C,D11*%
X63730000Y-78500000D02*
X64380000Y-78500000D01*
X64380000Y-77380000D02*
X64380000Y-79620000D01*
X64380000Y-79620000D02*
X68620000Y-79620000D01*
X67780000Y-79620000D02*
X67780000Y-77380000D01*
X67900000Y-79620000D02*
X67900000Y-77380000D01*
X68020000Y-79620000D02*
X68020000Y-77380000D01*
X68620000Y-77380000D02*
X64380000Y-77380000D01*
X68620000Y-79620000D02*
X68620000Y-77380000D01*
X69270000Y-78500000D02*
X68620000Y-78500000D01*
%TO.C,SW6*%
X40515000Y-62015000D02*
X54485000Y-62015000D01*
X40515000Y-75985000D02*
X40515000Y-62015000D01*
X54485000Y-62015000D02*
X54485000Y-75985000D01*
X54485000Y-75985000D02*
X40515000Y-75985000D01*
%TO.C,R6*%
X19580000Y-105580000D02*
X19580000Y-109420000D01*
X19580000Y-109420000D02*
X21420000Y-109420000D01*
X20500000Y-104630000D02*
X20500000Y-105580000D01*
X20500000Y-110370000D02*
X20500000Y-109420000D01*
X21420000Y-105580000D02*
X19580000Y-105580000D01*
X21420000Y-109420000D02*
X21420000Y-105580000D01*
%TO.C,SW5*%
X40515000Y-43015000D02*
X54485000Y-43015000D01*
X40515000Y-56985000D02*
X40515000Y-43015000D01*
X54485000Y-43015000D02*
X54485000Y-56985000D01*
X54485000Y-56985000D02*
X40515000Y-56985000D01*
%TO.C,SW1*%
X21515000Y-43015000D02*
X35485000Y-43015000D01*
X21515000Y-56985000D02*
X21515000Y-43015000D01*
X35485000Y-43015000D02*
X35485000Y-56985000D01*
X35485000Y-56985000D02*
X21515000Y-56985000D01*
%TO.C,SW20*%
X97515000Y-99935000D02*
X111485000Y-99935000D01*
X97515000Y-113905000D02*
X97515000Y-99935000D01*
X111485000Y-99935000D02*
X111485000Y-113905000D01*
X111485000Y-113905000D02*
X97515000Y-113905000D01*
%TO.C,D20*%
X106230000Y-98000000D02*
X106880000Y-98000000D01*
X106880000Y-96880000D02*
X106880000Y-99120000D01*
X106880000Y-99120000D02*
X111120000Y-99120000D01*
X110280000Y-99120000D02*
X110280000Y-96880000D01*
X110400000Y-99120000D02*
X110400000Y-96880000D01*
X110520000Y-99120000D02*
X110520000Y-96880000D01*
X111120000Y-96880000D02*
X106880000Y-96880000D01*
X111120000Y-99120000D02*
X111120000Y-96880000D01*
X111770000Y-98000000D02*
X111120000Y-98000000D01*
%TO.C,D1*%
X25230000Y-59500000D02*
X25880000Y-59500000D01*
X25880000Y-58380000D02*
X25880000Y-60620000D01*
X25880000Y-60620000D02*
X30120000Y-60620000D01*
X29280000Y-60620000D02*
X29280000Y-58380000D01*
X29400000Y-60620000D02*
X29400000Y-58380000D01*
X29520000Y-60620000D02*
X29520000Y-58380000D01*
X30120000Y-58380000D02*
X25880000Y-58380000D01*
X30120000Y-60620000D02*
X30120000Y-58380000D01*
X30770000Y-59500000D02*
X30120000Y-59500000D01*
%TO.C,D6*%
X44730000Y-78500000D02*
X45380000Y-78500000D01*
X45380000Y-77380000D02*
X45380000Y-79620000D01*
X45380000Y-79620000D02*
X49620000Y-79620000D01*
X48780000Y-79620000D02*
X48780000Y-77380000D01*
X48900000Y-79620000D02*
X48900000Y-77380000D01*
X49020000Y-79620000D02*
X49020000Y-77380000D01*
X49620000Y-77380000D02*
X45380000Y-77380000D01*
X49620000Y-79620000D02*
X49620000Y-77380000D01*
X50270000Y-78500000D02*
X49620000Y-78500000D01*
%TO.C,D17*%
X82730000Y-116500000D02*
X83380000Y-116500000D01*
X83380000Y-115380000D02*
X83380000Y-117620000D01*
X83380000Y-117620000D02*
X87620000Y-117620000D01*
X86780000Y-117620000D02*
X86780000Y-115380000D01*
X86900000Y-117620000D02*
X86900000Y-115380000D01*
X87020000Y-117620000D02*
X87020000Y-115380000D01*
X87620000Y-115380000D02*
X83380000Y-115380000D01*
X87620000Y-117620000D02*
X87620000Y-115380000D01*
X88270000Y-116500000D02*
X87620000Y-116500000D01*
%TO.C,D14*%
X83730000Y-57500000D02*
X84380000Y-57500000D01*
X84380000Y-56380000D02*
X84380000Y-58620000D01*
X84380000Y-58620000D02*
X88620000Y-58620000D01*
X84980000Y-56380000D02*
X84980000Y-58620000D01*
X85100000Y-56380000D02*
X85100000Y-58620000D01*
X85220000Y-56380000D02*
X85220000Y-58620000D01*
X88620000Y-56380000D02*
X84380000Y-56380000D01*
X88620000Y-58620000D02*
X88620000Y-56380000D01*
X89270000Y-57500000D02*
X88620000Y-57500000D01*
%TO.C,D5*%
X44730000Y-59500000D02*
X45380000Y-59500000D01*
X45380000Y-58380000D02*
X45380000Y-60620000D01*
X45380000Y-60620000D02*
X49620000Y-60620000D01*
X48780000Y-60620000D02*
X48780000Y-58380000D01*
X48900000Y-60620000D02*
X48900000Y-58380000D01*
X49020000Y-60620000D02*
X49020000Y-58380000D01*
X49620000Y-58380000D02*
X45380000Y-58380000D01*
X49620000Y-60620000D02*
X49620000Y-58380000D01*
X50270000Y-59500000D02*
X49620000Y-59500000D01*
%TO.C,D21*%
X106230000Y-116000000D02*
X106880000Y-116000000D01*
X106880000Y-114880000D02*
X106880000Y-117120000D01*
X106880000Y-117120000D02*
X111120000Y-117120000D01*
X110280000Y-117120000D02*
X110280000Y-114880000D01*
X110400000Y-117120000D02*
X110400000Y-114880000D01*
X110520000Y-117120000D02*
X110520000Y-114880000D01*
X111120000Y-114880000D02*
X106880000Y-114880000D01*
X111120000Y-117120000D02*
X111120000Y-114880000D01*
X111770000Y-116000000D02*
X111120000Y-116000000D01*
%TO.C,D13*%
X63230000Y-116500000D02*
X63880000Y-116500000D01*
X63880000Y-115380000D02*
X63880000Y-117620000D01*
X63880000Y-117620000D02*
X68120000Y-117620000D01*
X67280000Y-117620000D02*
X67280000Y-115380000D01*
X67400000Y-117620000D02*
X67400000Y-115380000D01*
X67520000Y-117620000D02*
X67520000Y-115380000D01*
X68120000Y-115380000D02*
X63880000Y-115380000D01*
X68120000Y-117620000D02*
X68120000Y-115380000D01*
X68770000Y-116500000D02*
X68120000Y-116500000D01*
%TO.C,D15*%
X82920000Y-78500000D02*
X83570000Y-78500000D01*
X83570000Y-77380000D02*
X83570000Y-79620000D01*
X83570000Y-79620000D02*
X87810000Y-79620000D01*
X86970000Y-79620000D02*
X86970000Y-77380000D01*
X87090000Y-79620000D02*
X87090000Y-77380000D01*
X87210000Y-79620000D02*
X87210000Y-77380000D01*
X87810000Y-77380000D02*
X83570000Y-77380000D01*
X87810000Y-79620000D02*
X87810000Y-77380000D01*
X88460000Y-78500000D02*
X87810000Y-78500000D01*
%TO.C,R10*%
X92630000Y-37500000D02*
X93580000Y-37500000D01*
X93580000Y-36580000D02*
X93580000Y-38420000D01*
X93580000Y-38420000D02*
X97420000Y-38420000D01*
X97420000Y-36580000D02*
X93580000Y-36580000D01*
X97420000Y-38420000D02*
X97420000Y-36580000D01*
X98370000Y-37500000D02*
X97420000Y-37500000D01*
%TO.C,R8*%
X19580000Y-66390000D02*
X19580000Y-70230000D01*
X19580000Y-70230000D02*
X21420000Y-70230000D01*
X20500000Y-65440000D02*
X20500000Y-66390000D01*
X20500000Y-71180000D02*
X20500000Y-70230000D01*
X21420000Y-66390000D02*
X19580000Y-66390000D01*
X21420000Y-70230000D02*
X21420000Y-66390000D01*
%TO.C,D8*%
X44730000Y-117000000D02*
X45380000Y-117000000D01*
X45380000Y-115880000D02*
X45380000Y-118120000D01*
X45380000Y-118120000D02*
X49620000Y-118120000D01*
X48780000Y-118120000D02*
X48780000Y-115880000D01*
X48900000Y-118120000D02*
X48900000Y-115880000D01*
X49020000Y-118120000D02*
X49020000Y-115880000D01*
X49620000Y-115880000D02*
X45380000Y-115880000D01*
X49620000Y-118120000D02*
X49620000Y-115880000D01*
X50270000Y-117000000D02*
X49620000Y-117000000D01*
%TO.C,D16*%
X82730000Y-97500000D02*
X83380000Y-97500000D01*
X83380000Y-96380000D02*
X83380000Y-98620000D01*
X83380000Y-98620000D02*
X87620000Y-98620000D01*
X86780000Y-98620000D02*
X86780000Y-96380000D01*
X86900000Y-98620000D02*
X86900000Y-96380000D01*
X87020000Y-98620000D02*
X87020000Y-96380000D01*
X87620000Y-96380000D02*
X83380000Y-96380000D01*
X87620000Y-98620000D02*
X87620000Y-96380000D01*
X88270000Y-97500000D02*
X87620000Y-97500000D01*
%TO.C,R9*%
X19580000Y-47080000D02*
X19580000Y-50920000D01*
X19580000Y-50920000D02*
X21420000Y-50920000D01*
X20500000Y-46130000D02*
X20500000Y-47080000D01*
X20500000Y-51870000D02*
X20500000Y-50920000D01*
X21420000Y-47080000D02*
X19580000Y-47080000D01*
X21420000Y-50920000D02*
X21420000Y-47080000D01*
%TO.C,D19*%
X106420000Y-78500000D02*
X107070000Y-78500000D01*
X107070000Y-77380000D02*
X107070000Y-79620000D01*
X107070000Y-79620000D02*
X111310000Y-79620000D01*
X110470000Y-79620000D02*
X110470000Y-77380000D01*
X110590000Y-79620000D02*
X110590000Y-77380000D01*
X110710000Y-79620000D02*
X110710000Y-77380000D01*
X111310000Y-77380000D02*
X107070000Y-77380000D01*
X111310000Y-79620000D02*
X111310000Y-77380000D01*
X111960000Y-78500000D02*
X111310000Y-78500000D01*
%TO.C,SW8*%
X40515000Y-100205000D02*
X54485000Y-100205000D01*
X40515000Y-114175000D02*
X40515000Y-100205000D01*
X54485000Y-100205000D02*
X54485000Y-114175000D01*
X54485000Y-114175000D02*
X40515000Y-114175000D01*
%TO.C,U2*%
X58270000Y-24160000D02*
X58270000Y-25810000D01*
X58270000Y-27810000D02*
X58270000Y-29460000D01*
X58270000Y-29460000D02*
X93950000Y-29460000D01*
X93950000Y-24160000D02*
X58270000Y-24160000D01*
X93950000Y-29460000D02*
X93950000Y-24160000D01*
X58270000Y-25810000D02*
G75*
G02*
X58270000Y-27810000I0J-1000000D01*
G01*
%TD*%
M02*
